<svg width="60" height="60" viewBox="0 0 60 60" fill="none" xmlns="http://www.w3.org/2000/svg">
<path d="M27.6666 18.9L35.0941 21.3765C36.6754 21.9029 37.7418 23.3816 37.7418 25.0481V30.9678L35.4395 28.6655C35.0554 28.2804 34.5328 28.0645 33.9879 28.0645C32.8547 28.0645 31.9354 28.9839 31.9354 30.1171C31.9354 30.662 32.1521 31.1836 32.5363 31.5687L36.6076 35.64C37.3334 36.3658 37.7418 37.351 37.7418 38.3768V41.8229H37.7563C38.0225 41.6903 38.3157 41.6129 38.6205 41.6129H44.606C44.9108 41.6129 45.2041 41.6903 45.4702 41.8239H45.4837V35.4745C45.4837 34.4478 45.8912 33.4636 46.6179 32.7378L53.5925 25.7633C53.9776 25.3781 54.1934 24.8565 54.1934 24.3116C54.1934 23.1774 53.2741 22.2581 52.1408 22.2581C51.596 22.2581 51.0744 22.4739 50.6892 22.8591L45.4837 28.0645V23.3623C45.4837 22.0684 46.1302 20.8597 47.2073 20.1416L48.7044 19.1439C50.3195 18.0658 51.2902 16.2533 51.2902 14.312V6.77422C51.2902 5.70487 50.4241 4.83874 49.3547 4.83874C48.2854 4.83874 47.4192 5.70487 47.4192 6.77422V12.5807C47.4192 13.65 46.5531 14.5162 45.4837 14.5162C44.4144 14.5162 43.5483 13.65 43.5483 12.5807V2.90326C43.5483 1.8339 42.6821 0.967773 41.6128 0.967773C40.5434 0.967773 39.6773 1.8339 39.6773 2.90326V6.77422C39.6773 7.84358 38.8112 8.70971 37.7418 8.70971C36.6725 8.70971 35.8063 7.84358 35.8063 6.77422V4.83874C35.8063 3.76939 34.9402 2.90326 33.8708 2.90326C32.8015 2.90326 31.9354 3.76939 31.9354 4.83874V6.45971C31.9354 8.95939 33.535 11.1774 35.906 11.9681L36.4392 12.1462C37.2173 12.4055 37.7418 13.1342 37.7418 13.9539C37.7418 15.3329 36.6231 16.4516 35.2441 16.4516C34.976 16.4516 34.7089 16.4081 34.4544 16.3239L29.6525 14.7233C29.2412 14.5858 28.8115 14.5162 28.3789 14.5162C27.1363 14.5162 26.1289 15.5236 26.1289 16.7662C26.1289 17.7339 26.7483 18.5933 27.6666 18.9Z" fill="#0060BB"/>
<path d="M42.5809 54.1935C41.5135 54.1935 40.6454 53.3255 40.6454 52.2581H38.71C38.71 54.3929 40.4461 56.129 42.5809 56.129H46.4519V54.1935H42.5809Z" fill="#002446"/>
<path d="M9.67773 52.2581H11.6132V54.1936H9.67773V52.2581Z" fill="#002446"/>
<path d="M13.5488 50.3225H15.4843V52.258H13.5488V50.3225Z" fill="#002446"/>
<path d="M17.4189 54.1936H19.3544V56.1291H17.4189V54.1936Z" fill="#002446"/>
<path d="M46.7913 41.6361C46.2387 41.0071 45.4432 40.6452 44.6061 40.6452H38.6197C37.7826 40.6452 36.9861 41.0071 36.4345 41.6361L25.9519 53.6158L22.5455 50.2094L30.329 38.9671C30.7471 38.3632 30.9677 37.6568 30.9677 36.8932C30.9677 35.9342 30.5932 35.0313 29.9148 34.3529L27.4781 31.9152L28.8542 27.7868C28.9723 27.4365 29.0323 27.0678 29.0323 26.6942C29.0323 25.38 28.3016 24.1974 27.1258 23.61L23.0923 21.5932C22.6955 21.3949 22.2523 21.2903 21.809 21.2903C20.489 21.2903 19.3432 22.1845 19.0239 23.4649L17.4919 29.5936L15.7926 21.6658C15.7548 21.4897 15.6997 21.3203 15.631 21.1578C15.8932 21.2361 16.1652 21.2903 16.4516 21.2903C18.0523 21.2903 19.3548 19.9878 19.3548 18.3871C19.3548 16.7865 18.0523 15.4839 16.4516 15.4839C14.851 15.4839 13.5484 16.7865 13.5484 18.3871C13.5484 18.7771 13.6277 19.1478 13.7681 19.4874C13.501 19.4061 13.2232 19.3549 12.9348 19.3549C12.5835 19.3549 12.2381 19.4168 11.9081 19.5407L5.91774 21.7878C4.69355 22.2465 3.87097 23.4329 3.87097 24.7403C3.87097 25.1439 3.94645 25.5368 4.09548 25.9113L7.27065 33.8487L3.83226 35.3236C2.68064 35.8171 1.93548 36.9465 1.93548 38.1997C1.93548 38.6816 2.04871 39.1655 2.26548 39.599L7.20968 49.4865L0.683226 56.0129C0.249677 56.4474 0 57.0494 0 57.6639C0 58.952 1.04806 60 2.33613 60H57.6252C58.9345 60 60 58.9345 60 57.6252C60 57.0503 59.7919 56.4958 59.4135 56.0613L46.7913 41.6361ZM29.0323 36.9223C29.0323 37.261 28.9306 37.5871 28.7371 37.8658L21.1548 48.8187L19.6384 47.3023C19.5503 47.2142 19.4516 47.1436 19.3548 47.069V40.9384L24.3939 33.3803C24.7519 32.8423 25.5861 32.762 26.0419 33.2178L28.5464 35.7223C28.859 36.0349 29.0323 36.452 29.0323 36.9223ZM16.5532 37.8049C16.9297 37.6161 17.4194 37.9181 17.4194 38.34V46.4516H11.6129V40.6452C11.6129 40.4168 11.7397 40.2126 11.9439 40.11L16.5532 37.8049ZM20.9013 23.9342C21.0416 23.3768 21.7123 23.0671 22.2271 23.3245L26.2606 25.3413C26.7765 25.5997 27.0968 26.1174 27.0968 26.6942C27.0968 26.8578 27.0716 27.0174 27.0194 27.1723L25.74 31.0123C25.589 30.989 25.439 30.9678 25.2842 30.9678C24.2768 30.9678 23.3419 31.4681 22.7835 32.3061L19.2387 37.6229C19.0297 36.9203 18.5313 36.3455 17.8742 36.0426L20.9013 23.9342ZM16.4516 17.4194C16.9858 17.4194 17.4194 17.8539 17.4194 18.3871C17.4194 18.9203 16.9858 19.3549 16.4516 19.3549C15.9174 19.3549 15.4839 18.9203 15.4839 18.3871C15.4839 17.8539 15.9174 17.4194 16.4516 17.4194ZM5.80645 24.7403C5.80645 24.2361 6.12387 23.7774 6.5971 23.6003L12.5884 21.3532C13.1303 21.151 13.7777 21.5023 13.8997 22.0713L16.4255 33.8555L15.8894 36.001C15.8226 36.0271 15.751 36.0416 15.6871 36.0745L13.8939 36.9707L13.0626 34.89C12.5797 33.6832 11.4271 32.9032 10.1274 32.9032C9.75968 32.9032 9.40355 32.9797 9.05806 33.1036L5.89355 25.1932C5.83548 25.049 5.80645 24.8961 5.80645 24.7403ZM3.99774 38.7349C3.91452 38.5684 3.87097 38.3836 3.87097 38.1997C3.87097 37.7216 4.15452 37.291 4.59387 37.1023L9.64355 34.9384C10.2687 34.6732 11.0168 34.9878 11.2665 35.609L12.1577 37.8397L11.0777 38.3797C10.2145 38.8103 9.67742 39.6794 9.67742 40.6452V47.069C9.58064 47.1436 9.48193 47.2142 9.39387 47.3023L8.65258 48.0436L3.99774 38.7349ZM26.6961 58.0645H2.33613C2.11548 58.0645 1.93548 57.8845 1.93548 57.6639C1.93548 57.5584 1.97806 57.4549 2.05258 57.3803L10.7623 48.6707C10.9432 48.4907 11.1919 48.3871 11.4465 48.3871H17.5858C17.8403 48.3871 18.09 48.4907 18.27 48.6707L26.9787 57.3803C27.0542 57.4549 27.0968 57.5584 27.0968 57.6639C27.0968 57.8845 26.9168 58.0645 26.6961 58.0645ZM36.7742 51.2903C36.7742 50.7571 37.2077 50.3226 37.7419 50.3226H43.5484C46.3461 50.3226 48.7529 52.0278 49.7845 54.4529C48.149 54.992 46.8997 56.3642 46.5523 58.0645H43.5484C39.8139 58.0645 36.7742 55.0258 36.7742 51.2903ZM48.5623 58.0645C48.8477 57.2623 49.4748 56.6265 50.2752 56.3255C50.3042 56.579 50.3226 56.8355 50.3226 57.0968C50.3226 57.63 49.889 58.0645 49.3548 58.0645H48.5623ZM57.6252 58.0645H52.08C52.1884 57.7607 52.2581 57.4374 52.2581 57.0968C52.2581 52.2949 48.3513 48.3871 43.5484 48.3871H37.7419C36.1413 48.3871 34.8387 49.6897 34.8387 51.2903C34.8387 54.0252 36.1084 56.4668 38.0864 58.0645H28.9984C29.0206 57.9339 29.0323 57.8003 29.0323 57.6639C29.0323 57.0494 28.7826 56.4474 28.3481 56.012L27.3242 54.9881L37.8919 42.9116C38.0758 42.7016 38.341 42.5807 38.6197 42.5807H44.6061C44.8848 42.5807 45.151 42.7016 45.3339 42.9116L57.9561 57.3358C58.0258 57.4161 58.0645 57.5187 58.0645 57.6252C58.0645 57.8671 57.8671 58.0645 57.6252 58.0645Z" fill="#002446"/>
<path d="M13.5488 42.5808H15.4843V44.5163H13.5488V42.5808Z" fill="#002446"/>
<path d="M23.2256 27.0967H25.1611V29.0322H23.2256V27.0967Z" fill="#002446"/>
<path d="M9.67773 25.1614H11.6132V27.0969H9.67773V25.1614Z" fill="#002446"/>
<path d="M11.6133 29.0322H13.5488V30.9677H11.6133V29.0322Z" fill="#002446"/>
<path d="M23.2256 36.7742H25.1611V38.7097H23.2256V36.7742Z" fill="#002446"/>
<path d="M21.29 40.6453H23.2255V42.5808H21.29V40.6453Z" fill="#002446"/>
<path d="M5.80664 38.7097H7.74212V40.6452H5.80664V38.7097Z" fill="#002446"/>
<path d="M57.0966 36.7742C55.4959 36.7742 54.1934 38.0767 54.1934 39.6774C54.1934 41.278 55.4959 42.5806 57.0966 42.5806C58.6972 42.5806 59.9998 41.278 59.9998 39.6774C59.9998 38.0767 58.6972 36.7742 57.0966 36.7742ZM57.0966 40.6451C56.5624 40.6451 56.1288 40.2106 56.1288 39.6774C56.1288 39.1442 56.5624 38.7096 57.0966 38.7096C57.6308 38.7096 58.0643 39.1442 58.0643 39.6774C58.0643 40.2106 57.6308 40.6451 57.0966 40.6451Z" fill="#002446"/>
<path d="M57.0966 5.80645C58.6972 5.80645 59.9998 4.50387 59.9998 2.90323C59.9998 1.30258 58.6972 0 57.0966 0C55.4959 0 54.1934 1.30258 54.1934 2.90323C54.1934 4.50387 55.4959 5.80645 57.0966 5.80645ZM57.0966 1.93548C57.6308 1.93548 58.0643 2.37 58.0643 2.90323C58.0643 3.43645 57.6308 3.87097 57.0966 3.87097C56.5624 3.87097 56.1288 3.43645 56.1288 2.90323C56.1288 2.37 56.5624 1.93548 57.0966 1.93548Z" fill="#002446"/>
<path d="M20.3231 11.613C22.9911 11.613 25.1618 9.44232 25.1618 6.77426C25.1618 4.10619 22.9911 1.93555 20.3231 1.93555C17.655 1.93555 15.4844 4.10619 15.4844 6.77426C15.4844 9.44232 17.655 11.613 20.3231 11.613ZM20.3231 3.87103C21.9237 3.87103 23.2263 5.17361 23.2263 6.77426C23.2263 8.3749 21.9237 9.67748 20.3231 9.67748C18.7224 9.67748 17.4199 8.3749 17.4199 6.77426C17.4199 5.17361 18.7224 3.87103 20.3231 3.87103Z" fill="#002446"/>
<path d="M6.77432 17.4195C8.37496 17.4195 9.67755 16.1169 9.67755 14.5163C9.67755 12.9156 8.37496 11.613 6.77432 11.613C5.17367 11.613 3.87109 12.9156 3.87109 14.5163C3.87109 16.1169 5.17367 17.4195 6.77432 17.4195ZM6.77432 13.5485C7.30851 13.5485 7.74206 13.983 7.74206 14.5163C7.74206 15.0495 7.30851 15.484 6.77432 15.484C6.24013 15.484 5.80658 15.0495 5.80658 14.5163C5.80658 13.983 6.24013 13.5485 6.77432 13.5485Z" fill="#002446"/>
</svg>
