<svg width="36" height="34" viewBox="0 0 36 34" fill="none" xmlns="http://www.w3.org/2000/svg">
<path d="M33.6923 5.46157H2.30773C1.03289 5.46157 0 4.42868 0 3.15392C0 1.87915 1.03289 0.846191 2.30773 0.846191H33.6923C34.9671 0.846191 36 1.87908 36 3.15392C36 4.42875 34.9671 5.46157 33.6923 5.46157Z" fill="#0060BB"/>
<path d="M20.7693 19.3078H2.30773C1.03289 19.3078 0 18.2749 0 17.0001C0 15.7253 1.03289 14.6924 2.30773 14.6924H20.7693C22.044 14.6924 23.077 15.7253 23.077 17.0001C23.077 18.2749 22.044 19.3078 20.7693 19.3078Z" fill="#0060BB"/>
<path opacity="0.6" d="M33.6944 19.3078H30.0021C28.7273 19.3078 27.6943 18.2749 27.6943 17.0001C27.6943 15.7253 28.7272 14.6924 30.0021 14.6924H33.6944C34.9692 14.6924 36.002 15.7253 36.002 17.0001C36.002 18.2749 34.9692 19.3078 33.6944 19.3078Z" fill="#0060BB"/>
<path d="M33.6923 33.154H2.30773C1.03289 33.154 0 32.1211 0 30.8463C0 29.5715 1.03289 28.5386 2.30773 28.5386H33.6923C34.9671 28.5386 36 29.5715 36 30.8463C36 32.1211 34.9671 33.154 33.6923 33.154Z" fill="#0060BB"/>
</svg>
