<svg width="23" height="21" viewBox="0 0 23 21" fill="none" xmlns="http://www.w3.org/2000/svg">
<path d="M0.672781 16.5647H18.2829C18.4409 16.5647 18.5935 16.5094 18.7146 16.4087C18.8838 16.2671 22.7421 12.9479 22.9774 5.78296H4.06445C3.83008 12.2868 0.276687 15.3437 0.23976 15.3742C0.0232716 15.5572 -0.0563785 15.856 0.0410165 16.1218C0.137738 16.387 0.389806 16.5647 0.672781 16.5647Z" fill="#0060BB"/>
<path d="M22.3257 1.73981H18.9564V1.06595C18.9564 0.688587 18.6599 0.39209 18.2826 0.39209C17.9052 0.39209 17.6087 0.688587 17.6087 1.06595V1.73981H14.1945V1.06595C14.1945 0.688587 13.898 0.39209 13.5206 0.39209C13.1433 0.39209 12.8468 0.688587 12.8468 1.06595V1.73981H9.47748V1.06595C9.47748 0.688587 9.18099 0.39209 8.80363 0.39209C8.42626 0.39209 8.12977 0.688587 8.12977 1.06595V1.73981H4.76047C4.38311 1.73981 4.08662 2.0363 4.08662 2.41366V4.43524H22.9996V2.41366C22.9996 2.0363 22.7031 1.73981 22.3257 1.73981Z" fill="#0060BB"/>
<path d="M19.5797 17.442C19.2138 17.7467 18.7545 17.9126 18.2826 17.9126H4.08668V19.9342C4.08668 20.3066 4.38808 20.608 4.76054 20.608H22.3258C22.6982 20.608 22.9996 20.3066 22.9996 19.9342V12.3804C21.7004 15.5678 19.8875 17.1844 19.5797 17.442Z" fill="#0060BB"/>
</svg>
