<svg width="19" height="19" viewBox="0 0 19 19" fill="none" xmlns="http://www.w3.org/2000/svg">
<path d="M4.74988 0C4.3751 0 4.07129 0.303806 4.07129 0.678584V2.03571H5.42843V0.678584C5.42843 0.303806 5.12462 0 4.74988 0Z" fill="white"/>
<path d="M14.2499 0C13.8751 0 13.5713 0.303806 13.5713 0.678584V2.03571H14.9284V0.678584C14.9285 0.303806 14.6247 0 14.2499 0Z" fill="white"/>
<path d="M16.9643 2.03564H14.9286V4.74994C14.9286 5.12472 14.6248 5.42853 14.25 5.42853C13.8752 5.42853 13.5714 5.12472 13.5714 4.74994V2.03564H5.42855V4.74994C5.42855 5.12472 5.12475 5.42853 4.74997 5.42853C4.37519 5.42853 4.07139 5.12472 4.07139 4.74994V2.03564H2.03571C0.911419 2.03564 0 2.94706 0 4.07136V16.9642C0 18.0885 0.911419 18.9999 2.03571 18.9999H16.9643C18.0886 18.9999 19 18.0885 19 16.9642V4.07136C19 2.94706 18.0886 2.03564 16.9643 2.03564ZM17.6428 16.9642C17.6428 17.339 17.339 17.6428 16.9642 17.6428H2.03571C1.66093 17.6428 1.35713 17.339 1.35713 16.9642V8.14278H17.6428V16.9642Z" fill="white"/>
<path d="M5.4283 9.5H4.07116C3.69639 9.5 3.39258 9.80381 3.39258 10.1786C3.39258 10.5534 3.69639 10.8572 4.07116 10.8572H5.4283C5.80308 10.8572 6.10688 10.5534 6.10688 10.1786C6.10688 9.80381 5.80308 9.5 5.4283 9.5Z" fill="white"/>
<path d="M10.1783 9.5H8.82117C8.44639 9.5 8.14258 9.80381 8.14258 10.1786C8.14258 10.5534 8.44639 10.8572 8.82117 10.8572H10.1783C10.5531 10.8572 10.8569 10.5534 10.8569 10.1786C10.8569 9.80381 10.5531 9.5 10.1783 9.5Z" fill="white"/>
<path d="M14.9283 9.5H13.5712C13.1964 9.5 12.8926 9.80381 12.8926 10.1786C12.8926 10.5534 13.1964 10.8572 13.5712 10.8572H14.9283C15.3031 10.8572 15.6069 10.5534 15.6069 10.1786C15.6069 9.80381 15.303 9.5 14.9283 9.5Z" fill="white"/>
<path d="M5.4283 12.2144H4.07116C3.69639 12.2144 3.39258 12.5182 3.39258 12.8929C3.39258 13.2677 3.69639 13.5715 4.07116 13.5715H5.4283C5.80308 13.5715 6.10688 13.2677 6.10688 12.8929C6.10688 12.5182 5.80308 12.2144 5.4283 12.2144Z" fill="white"/>
<path d="M10.1783 12.2144H8.82117C8.44639 12.2144 8.14258 12.5182 8.14258 12.8929C8.14258 13.2677 8.44639 13.5715 8.82117 13.5715H10.1783C10.5531 13.5715 10.8569 13.2677 10.8569 12.8929C10.8569 12.5182 10.5531 12.2144 10.1783 12.2144Z" fill="white"/>
<path d="M14.9283 12.2144H13.5712C13.1964 12.2144 12.8926 12.5182 12.8926 12.8929C12.8926 13.2677 13.1964 13.5715 13.5712 13.5715H14.9283C15.3031 13.5715 15.6069 13.2677 15.6069 12.8929C15.6068 12.5182 15.303 12.2144 14.9283 12.2144Z" fill="white"/>
<path d="M5.4283 14.9285H4.07116C3.69639 14.9285 3.39258 15.2323 3.39258 15.6071C3.39258 15.9818 3.69639 16.2856 4.07116 16.2856H5.4283C5.80308 16.2856 6.10688 15.9818 6.10688 15.607C6.10688 15.2322 5.80308 14.9285 5.4283 14.9285Z" fill="white"/>
<path d="M10.1783 14.9285H8.82117C8.44639 14.9285 8.14258 15.2323 8.14258 15.607C8.14258 15.9818 8.44639 16.2856 8.82117 16.2856H10.1783C10.5531 16.2856 10.8569 15.9818 10.8569 15.607C10.8569 15.2323 10.5531 14.9285 10.1783 14.9285Z" fill="white"/>
<path d="M14.9283 14.9285H13.5712C13.1964 14.9285 12.8926 15.2323 12.8926 15.607C12.8926 15.9818 13.1964 16.2856 13.5712 16.2856H14.9283C15.3031 16.2856 15.6069 15.9818 15.6069 15.607C15.6069 15.2323 15.303 14.9285 14.9283 14.9285Z" fill="white"/>
</svg>
