<svg width="23" height="21" viewBox="0 0 23 21" fill="none" xmlns="http://www.w3.org/2000/svg">
<path d="M0.672827 16.5649H18.283C18.4409 16.5649 18.5936 16.5097 18.7147 16.4089C18.8838 16.2673 22.7422 12.9481 22.9774 5.7832H4.06449C3.83012 12.287 0.276733 15.344 0.239806 15.3745C0.0233174 15.5574 -0.0563327 15.8562 0.0410623 16.1221C0.137783 16.3872 0.389851 16.5649 0.672827 16.5649Z" fill="#0060BB"/>
<path d="M22.325 1.74029H18.9557V1.06644C18.9557 0.689076 18.6592 0.392578 18.2819 0.392578C17.9045 0.392578 17.608 0.689076 17.608 1.06644V1.74029H14.1938V1.06644C14.1938 0.689076 13.8973 0.392578 13.52 0.392578C13.1426 0.392578 12.8461 0.689076 12.8461 1.06644V1.74029H9.4768V1.06644C9.4768 0.689076 9.18031 0.392578 8.80295 0.392578C8.42559 0.392578 8.12909 0.689076 8.12909 1.06644V1.74029H4.7598C4.38244 1.74029 4.08594 2.03679 4.08594 2.41415V4.43573H22.9989V2.41415C22.9989 2.03679 22.7024 1.74029 22.325 1.74029Z" fill="#0060BB"/>
<path d="M19.5789 17.4425C19.213 17.7472 18.7537 17.9131 18.2819 17.9131H4.08594V19.9346C4.08594 20.3071 4.38733 20.6085 4.7598 20.6085H22.325C22.6975 20.6085 22.9989 20.3071 22.9989 19.9346V12.3809C21.6997 15.5683 19.8867 17.1849 19.5789 17.4425Z" fill="#0060BB"/>
</svg>
