<svg width="50" height="50" viewBox="0 0 50 50" fill="none" xmlns="http://www.w3.org/2000/svg">
<path opacity="0.1" d="M49.25 25C49.25 38.3929 38.3929 49.25 25 49.25C11.6071 49.25 0.75 38.3929 0.75 25C0.75 11.6071 11.6071 0.75 25 0.75C38.3929 0.75 49.25 11.6071 49.25 25Z" stroke="#002446" stroke-width="1.5"/>
<g clip-path="url(#clip0)">
<path d="M25.8335 11.6667C18.9678 11.6667 13.3335 17.3011 13.3335 24.1667C13.3335 26.4327 13.9444 28.6385 15.1029 30.5684L13.3335 36.6667L19.4319 34.8973C21.3617 36.0558 23.5676 36.6667 25.8335 36.6667C32.6992 36.6667 38.3335 31.0324 38.3335 24.1667C38.3335 17.3011 32.6992 11.6667 25.8335 11.6667ZM33.6487 29.4484L33.0671 30.0299C32.2443 30.8528 30.352 30.7875 29.1361 30.5527C25.0931 29.7719 20.3794 25.203 19.4704 21.2464C19.0203 19.2864 19.2688 17.5824 19.9188 16.9322L20.5004 16.3506C20.8214 16.0298 21.3428 16.0302 21.6635 16.3506L23.99 18.6774C24.1453 18.8327 24.2304 19.0385 24.2304 19.2588C24.2304 19.4791 24.1453 19.6851 23.99 19.8397L23.4087 20.4219C22.7678 21.0643 22.7678 22.1078 23.4087 22.7486L27.2507 26.5401C27.8934 27.1828 28.9337 27.1836 29.5774 26.5401L30.159 25.9587C30.4592 25.6568 31.02 25.6558 31.3227 25.9587L33.6487 28.2847C33.9645 28.5992 33.9765 29.1203 33.6487 29.4484Z" fill="#0060BB"/>
</g>
<defs>
<clipPath id="clip0">
<rect width="25" height="25" fill="white" transform="translate(13.3335 11.6667)"/>
</clipPath>
</defs>
</svg>
