<svg width="844" height="109" viewBox="0 0 844 109" fill="none" xmlns="http://www.w3.org/2000/svg">
<path d="M61.152 23.032V24.952C58.976 25.016 57.312 25.272 56.16 25.72C55.072 26.104 54.336 26.872 53.952 28.024C53.568 29.112 53.376 30.84 53.376 33.208V80.824C53.376 84.344 53.792 86.616 54.624 87.64C55.456 88.6 57.312 89.08 60.192 89.08H63.072C62.816 91.704 62.624 94.232 62.496 96.664C62.432 99.16 62.4 101.048 62.4 102.328C62.4 104.952 62.496 107.096 62.688 108.76H60.48C59.648 104.216 58.272 100.632 56.352 98.008C54.496 95.448 52.288 93.624 49.728 92.536C47.232 91.512 44.608 91 41.856 91H21.312C18.56 91 15.904 91.512 13.344 92.536C10.848 93.624 8.64 95.448 6.72 98.008C4.864 100.632 3.52 104.216 2.688 108.76H0.48C0.672 107.096 0.768 104.952 0.768 102.328C0.768 101.048 0.704 99.16 0.576 96.664C0.512 94.232 0.352 91.704 0.096 89.08H26.112C29.376 89.08 31.488 88.6 32.448 87.64C33.408 86.616 33.888 84.344 33.888 80.824V33.208C33.888 29.688 33.376 27.448 32.352 26.488C31.392 25.464 29.952 24.952 28.032 24.952H26.784C26.016 24.952 25.28 25.176 24.576 25.624C23.872 26.008 23.264 26.808 22.752 28.024C22.304 29.176 22.016 30.904 21.888 33.208C21.504 37.56 21.12 42.328 20.736 47.512C20.416 52.696 19.904 57.848 19.2 62.968C18.56 68.024 17.568 72.664 16.224 76.888C14.944 81.112 13.152 84.504 10.848 87.064C8.544 89.624 5.536 90.904 1.824 90.904V89.08C4.768 89.08 7.232 87.992 9.216 85.816C11.2 83.576 12.8 80.568 14.016 76.792C15.232 73.016 16.192 68.728 16.896 63.928C17.664 59.064 18.24 54.008 18.624 48.76C19.008 43.512 19.36 38.328 19.68 33.208C19.936 29.816 19.552 27.64 18.528 26.68C17.568 25.656 15.36 25.08 11.904 24.952V23.032C13.248 23.096 14.848 23.16 16.704 23.224C18.56 23.288 20.256 23.32 21.792 23.32C23.264 23.32 24.672 23.288 26.016 23.224C27.424 23.096 28.832 23.032 30.24 23.032C32.672 23.032 34.88 23.096 36.864 23.224C38.848 23.288 41.216 23.32 43.968 23.32C45.824 23.32 47.84 23.32 50.016 23.32C52.192 23.256 54.272 23.224 56.256 23.224C58.24 23.16 59.872 23.096 61.152 23.032ZM107.133 23.032L130.365 82.936C131.261 85.112 132.221 86.68 133.245 87.64C134.269 88.536 135.197 89.016 136.029 89.08V91C133.725 90.872 131.037 90.808 127.965 90.808C124.893 90.744 121.757 90.712 118.557 90.712C115.293 90.712 112.221 90.744 109.341 90.808C106.461 90.808 104.157 90.872 102.429 91V89.08C105.693 88.952 107.741 88.408 108.573 87.448C109.469 86.424 109.277 84.28 107.997 81.016L92.637 38.488L94.557 35.128L81.309 69.592C79.197 75.096 78.141 79.224 78.141 81.976C78.205 84.728 79.037 86.584 80.637 87.544C82.237 88.44 84.317 88.952 86.877 89.08V91C84.509 90.872 82.365 90.808 80.445 90.808C78.589 90.744 76.541 90.712 74.301 90.712C73.085 90.712 71.773 90.744 70.365 90.808C69.021 90.808 67.869 90.872 66.909 91V89.08C68.381 88.824 69.821 87.896 71.229 86.296C72.701 84.632 74.205 81.816 75.741 77.848L97.053 23.032C98.589 23.16 100.253 23.224 102.045 23.224C103.901 23.224 105.597 23.16 107.133 23.032ZM110.493 63.352V65.272H81.885L82.845 63.352H110.493ZM176.002 23.032V24.952C174.082 25.016 172.642 25.272 171.682 25.72C170.722 26.104 170.05 26.872 169.666 28.024C169.346 29.112 169.186 30.84 169.186 33.208V80.824C169.186 83.128 169.346 84.856 169.666 86.008C170.05 87.16 170.722 87.928 171.682 88.312C172.642 88.696 174.082 88.952 176.002 89.08V91C174.146 90.872 171.746 90.808 168.802 90.808C165.922 90.744 162.978 90.712 159.97 90.712C156.514 90.712 153.25 90.744 150.178 90.808C147.17 90.808 144.738 90.872 142.882 91V89.08C144.802 88.952 146.242 88.696 147.202 88.312C148.226 87.928 148.898 87.16 149.218 86.008C149.538 84.856 149.698 83.128 149.698 80.824V33.208C149.698 30.84 149.538 29.112 149.218 28.024C148.898 26.872 148.226 26.104 147.202 25.72C146.242 25.272 144.802 25.016 142.882 24.952V23.032C144.738 23.096 147.17 23.16 150.178 23.224C153.25 23.288 156.514 23.32 159.97 23.32C162.978 23.32 165.922 23.288 168.802 23.224C171.746 23.16 174.146 23.096 176.002 23.032ZM194.914 27.64C194.914 27.64 194.914 27.992 194.914 28.696C194.978 29.336 195.042 30.008 195.106 30.712C195.17 31.416 195.202 31.768 195.202 31.768L167.362 85.912L165.826 84.088L194.914 27.64ZM219.01 23.032V24.952C217.09 25.016 215.65 25.272 214.69 25.72C213.73 26.104 213.058 26.872 212.674 28.024C212.354 29.112 212.194 30.84 212.194 33.208V80.824C212.194 83.128 212.354 84.856 212.674 86.008C213.058 87.16 213.73 87.928 214.69 88.312C215.65 88.696 217.09 88.952 219.01 89.08V91C217.218 90.872 214.786 90.808 211.714 90.808C208.642 90.744 205.378 90.712 201.922 90.712C198.978 90.712 196.034 90.744 193.09 90.808C190.146 90.808 187.746 90.872 185.89 91V89.08C187.81 88.952 189.25 88.696 190.21 88.312C191.17 87.928 191.81 87.16 192.13 86.008C192.514 84.856 192.706 83.128 192.706 80.824V33.208C192.706 30.84 192.514 29.112 192.13 28.024C191.81 26.872 191.17 26.104 190.21 25.72C189.25 25.272 187.81 25.016 185.89 24.952V23.032C187.746 23.096 190.146 23.16 193.09 23.224C196.034 23.288 198.978 23.32 201.922 23.32C205.378 23.32 208.642 23.288 211.714 23.224C214.786 23.16 217.218 23.096 219.01 23.032ZM196.354 0.0879974C199.042 0.0879974 201.25 0.791996 202.978 2.19999C204.77 3.54399 205.666 5.208 205.666 7.192C205.666 8.856 205.026 10.328 203.746 11.608C202.53 12.824 200.994 13.848 199.138 14.68C197.218 15.512 194.69 16.248 191.554 16.888C188.482 17.528 184.962 17.848 180.994 17.848C176.962 17.848 173.378 17.528 170.242 16.888C167.17 16.248 164.674 15.512 162.754 14.68C161.026 13.912 159.522 12.92 158.242 11.704C157.026 10.424 156.418 8.92 156.418 7.192C156.418 5.272 157.25 3.60799 158.914 2.19999C160.642 0.791996 162.882 0.0879974 165.634 0.0879974C168.322 0.0879974 170.562 0.791996 172.354 2.19999C174.146 3.54399 175.042 5.272 175.042 7.384C175.042 9.304 174.306 10.84 172.834 11.992C171.426 13.144 169.794 13.976 167.938 14.488C169.986 14.936 172.194 15.288 174.562 15.544C176.93 15.8 179.074 15.928 180.994 15.928C182.85 15.928 184.962 15.8 187.33 15.544C189.698 15.288 191.906 14.904 193.954 14.392C191.906 13.88 190.242 13.048 188.962 11.896C187.682 10.68 187.042 9.17599 187.042 7.384C187.042 5.33599 187.906 3.60799 189.634 2.19999C191.362 0.791996 193.602 0.0879974 196.354 0.0879974ZM229.15 23.032C231.006 23.096 233.438 23.16 236.446 23.224C239.518 23.288 242.59 23.32 245.662 23.32C248.862 23.32 251.934 23.288 254.878 23.224C257.822 23.16 259.902 23.128 261.118 23.128C269.886 23.128 276.414 24.536 280.702 27.352C284.99 30.168 287.134 33.784 287.134 38.2C287.134 40.44 286.334 42.776 284.734 45.208C283.134 47.576 280.702 49.688 277.438 51.544C274.174 53.336 270.014 54.552 264.958 55.192V55.384C271.55 55.704 276.83 56.728 280.798 58.456C284.766 60.184 287.646 62.296 289.438 64.792C291.23 67.224 292.126 69.752 292.126 72.376C292.126 78.776 289.566 83.48 284.446 86.488C279.326 89.496 272.286 91 263.326 91C261.79 91 259.518 90.968 256.51 90.904C253.566 90.776 250.014 90.712 245.854 90.712C242.654 90.712 239.518 90.744 236.446 90.808C233.438 90.808 231.006 90.872 229.15 91V89.08C231.134 88.952 232.606 88.696 233.566 88.312C234.526 87.928 235.166 87.16 235.486 86.008C235.806 84.856 235.966 83.128 235.966 80.824V33.208C235.966 30.84 235.806 29.112 235.486 28.024C235.166 26.872 234.494 26.104 233.47 25.72C232.51 25.272 231.07 25.016 229.15 24.952V23.032ZM260.638 24.952C258.462 24.952 257.054 25.496 256.414 26.584C255.774 27.672 255.454 29.88 255.454 33.208V80.824C255.454 84.152 255.838 86.328 256.606 87.352C257.438 88.312 259.134 88.792 261.694 88.792C265.278 88.792 267.87 87.352 269.47 84.472C271.134 81.528 271.966 77.368 271.966 71.992C271.966 67.064 270.782 63.256 268.414 60.568C266.11 57.88 262.238 56.536 256.798 56.536H249.79C249.79 56.536 249.79 56.28 249.79 55.768C249.79 55.192 249.79 54.904 249.79 54.904H258.046C260.542 54.904 262.462 54.2 263.806 52.792C265.15 51.32 266.078 49.4 266.59 47.032C267.102 44.6 267.358 42.008 267.358 39.256C267.358 34.52 266.846 30.968 265.822 28.6C264.798 26.168 263.07 24.952 260.638 24.952ZM334.664 23.032V24.952C332.744 25.016 331.304 25.272 330.344 25.72C329.384 26.104 328.712 26.872 328.328 28.024C328.008 29.112 327.848 30.84 327.848 33.208V80.824C327.848 83.128 328.008 84.856 328.328 86.008C328.712 87.16 329.384 87.928 330.344 88.312C331.304 88.696 332.744 88.952 334.664 89.08V91C332.808 90.872 330.408 90.808 327.464 90.808C324.584 90.744 321.64 90.712 318.632 90.712C315.176 90.712 311.912 90.744 308.84 90.808C305.832 90.808 303.4 90.872 301.544 91V89.08C303.464 88.952 304.904 88.696 305.864 88.312C306.888 87.928 307.56 87.16 307.88 86.008C308.2 84.856 308.36 83.128 308.36 80.824V33.208C308.36 30.84 308.2 29.112 307.88 28.024C307.56 26.872 306.888 26.104 305.864 25.72C304.904 25.272 303.464 25.016 301.544 24.952V23.032C303.4 23.096 305.832 23.16 308.84 23.224C311.912 23.288 315.176 23.32 318.632 23.32C321.64 23.32 324.584 23.288 327.464 23.224C330.408 23.16 332.808 23.096 334.664 23.032ZM353.576 27.64C353.576 27.64 353.576 27.992 353.576 28.696C353.64 29.336 353.704 30.008 353.768 30.712C353.832 31.416 353.864 31.768 353.864 31.768L326.024 85.912L324.488 84.088L353.576 27.64ZM377.672 23.032V24.952C375.752 25.016 374.312 25.272 373.352 25.72C372.392 26.104 371.72 26.872 371.336 28.024C371.016 29.112 370.856 30.84 370.856 33.208V80.824C370.856 83.128 371.016 84.856 371.336 86.008C371.72 87.16 372.392 87.928 373.352 88.312C374.312 88.696 375.752 88.952 377.672 89.08V91C375.88 90.872 373.448 90.808 370.376 90.808C367.304 90.744 364.04 90.712 360.584 90.712C357.64 90.712 354.696 90.744 351.752 90.808C348.808 90.808 346.408 90.872 344.552 91V89.08C346.472 88.952 347.912 88.696 348.872 88.312C349.832 87.928 350.472 87.16 350.792 86.008C351.176 84.856 351.368 83.128 351.368 80.824V33.208C351.368 30.84 351.176 29.112 350.792 28.024C350.472 26.872 349.832 26.104 348.872 25.72C347.912 25.272 346.472 25.016 344.552 24.952V23.032C346.408 23.096 348.808 23.16 351.752 23.224C354.696 23.288 357.64 23.32 360.584 23.32C364.04 23.32 367.304 23.288 370.376 23.224C373.448 23.16 375.88 23.096 377.672 23.032ZM428.901 91V89.08C430.885 88.952 432.357 88.696 433.317 88.312C434.277 87.928 434.917 87.16 435.237 86.008C435.557 84.856 435.717 83.128 435.717 80.824V33.208C435.717 30.84 435.557 29.112 435.237 28.024C434.917 26.872 434.245 26.104 433.221 25.72C432.261 25.272 430.821 25.016 428.901 24.952V23.032C430.885 23.096 433.413 23.16 436.485 23.224C439.621 23.288 442.757 23.32 445.893 23.32C449.157 23.32 452.229 23.288 455.109 23.224C457.989 23.16 460.293 23.096 462.021 23.032V24.952C460.101 25.016 458.629 25.272 457.605 25.72C456.645 26.104 456.005 26.872 455.685 28.024C455.365 29.112 455.205 30.84 455.205 33.208V80.824C455.205 83.128 455.365 84.856 455.685 86.008C456.069 87.16 456.741 87.928 457.701 88.312C458.661 88.696 460.101 88.952 462.021 89.08V91C460.293 90.872 457.989 90.808 455.109 90.808C452.229 90.744 449.157 90.712 445.893 90.712C442.757 90.712 439.621 90.744 436.485 90.808C433.413 90.808 430.885 90.872 428.901 91ZM387.813 91V89.08C389.797 88.952 391.269 88.696 392.229 88.312C393.189 87.928 393.829 87.16 394.149 86.008C394.469 84.856 394.629 83.128 394.629 80.824V33.208C394.629 30.84 394.469 29.112 394.149 28.024C393.829 26.872 393.157 26.104 392.133 25.72C391.173 25.272 389.733 25.016 387.813 24.952V23.032C389.669 23.096 392.101 23.16 395.109 23.224C398.181 23.288 401.445 23.32 404.901 23.32C407.909 23.32 410.853 23.288 413.733 23.224C416.677 23.16 419.077 23.096 420.933 23.032V24.952C419.013 25.016 417.541 25.272 416.517 25.72C415.557 26.104 414.917 26.872 414.597 28.024C414.277 29.112 414.117 30.84 414.117 33.208V80.824C414.117 83.128 414.277 84.856 414.597 86.008C414.981 87.16 415.653 87.928 416.613 88.312C417.573 88.696 419.013 88.952 420.933 89.08V91C419.077 90.872 416.677 90.808 413.733 90.808C410.853 90.744 407.909 90.712 404.901 90.712C401.445 90.712 398.181 90.744 395.109 90.808C392.101 90.808 389.669 90.872 387.813 91ZM405.957 57.784V55.864H443.877V57.784H405.957ZM525.871 23.032C525.615 26.232 525.423 29.336 525.295 32.344C525.231 35.288 525.199 37.56 525.199 39.16C525.199 40.504 525.231 41.784 525.295 43C525.359 44.216 525.423 45.24 525.487 46.072H523.279C522.191 40.76 520.687 36.6 518.767 33.592C516.847 30.52 514.735 28.376 512.431 27.16C510.191 25.88 507.919 25.24 505.615 25.24H504.367C502.703 25.24 501.455 25.4 500.623 25.72C499.791 25.976 499.215 26.52 498.895 27.352C498.639 28.184 498.511 29.496 498.511 31.288V80.824C498.511 83.128 498.703 84.856 499.087 86.008C499.471 87.16 500.207 87.928 501.295 88.312C502.447 88.696 504.111 88.952 506.287 89.08V91C504.303 90.872 501.775 90.808 498.703 90.808C495.631 90.744 492.495 90.712 489.295 90.712C485.839 90.712 482.575 90.744 479.503 90.808C476.495 90.808 474.063 90.872 472.207 91V89.08C474.127 88.952 475.567 88.696 476.527 88.312C477.551 87.928 478.223 87.16 478.543 86.008C478.863 84.856 479.023 83.128 479.023 80.824V33.208C479.023 30.84 478.863 29.112 478.543 28.024C478.223 26.872 477.583 26.104 476.623 25.72C475.663 25.272 474.191 25.016 472.207 24.952V23.032C475.919 23.096 479.919 23.16 484.207 23.224C488.559 23.288 492.655 23.32 496.495 23.32C500.399 23.32 503.503 23.32 505.807 23.32C508.751 23.32 512.079 23.32 515.791 23.32C519.567 23.256 522.927 23.16 525.871 23.032ZM594.052 23.032V24.952C592.132 25.016 590.66 25.272 589.636 25.72C588.676 26.104 588.036 26.872 587.716 28.024C587.396 29.112 587.236 30.84 587.236 33.208V80.824C587.236 83.128 587.396 84.856 587.716 86.008C588.1 87.16 588.772 87.928 589.732 88.312C590.692 88.696 592.132 88.952 594.052 89.08V91C592.196 90.872 589.796 90.808 586.852 90.808C583.972 90.744 581.028 90.712 578.02 90.712C574.564 90.712 571.3 90.744 568.228 90.808C565.22 90.808 562.788 90.872 560.932 91V89.08C562.916 88.952 564.388 88.696 565.348 88.312C566.308 87.928 566.948 87.16 567.268 86.008C567.588 84.856 567.748 83.128 567.748 80.824V33.208C567.748 30.84 567.588 29.112 567.268 28.024C566.948 26.872 566.276 26.104 565.252 25.72C564.292 25.272 562.852 25.016 560.932 24.952V23.032C562.788 23.096 565.22 23.16 568.228 23.224C571.3 23.288 574.564 23.32 578.02 23.32C581.028 23.32 583.972 23.288 586.852 23.224C589.796 23.16 592.196 23.096 594.052 23.032ZM587.524 54.616C593.796 54.616 599.108 55 603.46 55.768C607.812 56.472 611.236 57.752 613.732 59.608C616.228 61.464 617.828 64.12 618.532 67.576L621.316 80.92C621.764 83.288 622.308 84.92 622.948 85.816C623.652 86.712 624.58 87.16 625.732 87.16C626.308 87.16 626.82 87.064 627.268 86.872C627.716 86.68 628.164 86.36 628.612 85.912L629.86 87.16C627.876 89.144 625.7 90.488 623.332 91.192C621.028 91.96 618.404 92.344 615.46 92.344C611.172 92.344 607.78 91.608 605.284 90.136C602.788 88.6 601.252 85.88 600.676 81.976L598.18 65.464C597.796 62.968 597.124 61.048 596.164 59.704C595.268 58.36 593.956 57.432 592.228 56.92C590.5 56.408 588.164 56.152 585.22 56.152H584.356V54.616H587.524ZM586.66 56.152V54.616C589.476 54.488 592.132 53.592 594.628 51.928C597.124 50.264 600.132 47.448 603.652 43.48L606.916 39.832C609.604 36.824 611.012 34.232 611.14 32.056C611.332 29.816 610.66 28.088 609.124 26.872C607.652 25.592 605.7 24.92 603.268 24.856V23.032C605.956 23.096 608.42 23.16 610.66 23.224C612.964 23.288 615.908 23.32 619.492 23.32C623.396 23.32 626.628 23.224 629.188 23.032V24.856C627.012 25.432 624.612 26.488 621.988 28.024C619.364 29.56 616.516 32.024 613.444 35.416L594.724 56.152H586.66ZM704.068 23.032V24.952C701.892 25.016 700.228 25.272 699.076 25.72C697.988 26.104 697.252 26.872 696.868 28.024C696.484 29.112 696.292 30.84 696.292 33.208V80.824C696.292 83.128 696.484 84.856 696.868 86.008C697.252 87.16 697.988 87.928 699.076 88.312C700.228 88.696 701.892 88.952 704.068 89.08V91C702.148 90.872 699.556 90.808 696.292 90.808C693.092 90.744 689.732 90.712 686.212 90.712C682.884 90.712 679.684 90.744 676.612 90.808C673.54 90.808 671.012 90.872 669.028 91V89.08C671.204 88.952 672.836 88.696 673.924 88.312C675.076 87.928 675.844 87.16 676.228 86.008C676.612 84.856 676.804 83.128 676.804 80.824V33.208C676.804 29.688 676.292 27.448 675.268 26.488C674.308 25.464 672.868 24.952 670.948 24.952H670.66C669.636 24.952 668.708 25.176 667.876 25.624C667.044 26.008 666.372 26.808 665.86 28.024C665.348 29.176 664.996 30.904 664.804 33.208C664.42 37.688 664.036 42.616 663.652 47.992C663.332 53.304 662.82 58.584 662.116 63.832C661.476 69.016 660.484 73.784 659.14 78.136C657.86 82.424 656.068 85.88 653.764 88.504C651.46 91.064 648.452 92.344 644.74 92.344C641.348 92.344 638.532 91.32 636.292 89.272C634.116 87.224 633.028 84.76 633.028 81.88C633.028 78.808 634.084 76.376 636.196 74.584C638.308 72.728 640.836 71.8 643.78 71.8C646.404 71.8 648.484 72.44 650.02 73.72C651.556 74.936 652.324 76.664 652.324 78.904C652.324 81.784 651.364 84.184 649.444 86.104C647.524 88.024 645.156 89.24 642.34 89.752C642.596 90.008 642.916 90.2 643.3 90.328C643.748 90.456 644.228 90.52 644.74 90.52C647.684 90.52 650.148 89.4 652.132 87.16C654.116 84.92 655.716 81.88 656.932 78.04C658.212 74.136 659.204 69.72 659.908 64.792C660.612 59.864 661.156 54.712 661.54 49.336C661.924 43.896 662.276 38.52 662.596 33.208C662.852 29.816 662.468 27.64 661.444 26.68C660.484 25.656 658.276 25.08 654.82 24.952V23.032C656.164 23.096 657.764 23.16 659.62 23.224C661.476 23.288 663.172 23.32 664.708 23.32C666.18 23.32 667.588 23.288 668.932 23.224C670.34 23.096 671.748 23.032 673.156 23.032C675.588 23.032 677.796 23.096 679.78 23.224C681.764 23.288 684.132 23.32 686.884 23.32C688.74 23.32 690.756 23.32 692.932 23.32C695.108 23.256 697.188 23.224 699.172 23.224C701.156 23.16 702.788 23.096 704.068 23.032ZM776.952 23.032V24.952C775.48 25.656 773.944 27.032 772.344 29.08C770.808 31.064 768.984 33.944 766.872 37.72L746.904 78.04L744.408 78.808L716.376 31.096C715.224 29.176 714.072 27.736 712.92 26.776C711.768 25.752 710.648 25.144 709.56 24.952V23.032C710.456 23.096 711.864 23.16 713.784 23.224C715.704 23.224 717.72 23.256 719.832 23.32C721.944 23.32 723.704 23.32 725.112 23.32C726.648 23.32 728.536 23.32 730.776 23.32C733.016 23.256 735.16 23.224 737.208 23.224C739.256 23.16 740.76 23.096 741.72 23.032V24.952C740.248 25.08 739.096 25.72 738.264 26.872C737.496 27.96 737.784 30.008 739.128 33.016L754.872 59.8L748.824 69.88L760.536 46.36C763.224 40.984 764.664 36.76 764.856 33.688C765.112 30.616 764.504 28.408 763.032 27.064C761.56 25.72 759.544 25.016 756.984 24.952V23.032C759.416 23.096 761.56 23.16 763.416 23.224C765.336 23.288 767.384 23.32 769.56 23.32C770.84 23.32 772.152 23.288 773.496 23.224C774.84 23.16 775.992 23.096 776.952 23.032ZM747.096 73.24L748.92 74.008L744.408 83.128C743.576 84.792 742.84 86.104 742.2 87.064C741.56 88.024 740.888 88.856 740.184 89.56C739.16 90.584 737.88 91.288 736.344 91.672C734.872 92.12 733.304 92.344 731.64 92.344C727.416 92.344 724.152 91.416 721.848 89.56C719.544 87.64 718.392 85.4 718.392 82.84C718.392 80.024 719.448 77.816 721.56 76.216C723.672 74.552 726.2 73.72 729.144 73.72C732.344 73.72 734.872 74.36 736.728 75.64C738.648 76.856 739.608 78.584 739.608 80.824C739.608 83.192 738.744 85.144 737.016 86.68C735.288 88.152 733.176 89.24 730.68 89.944C731.064 90.264 731.992 90.424 733.464 90.424C735.448 90.424 737.144 89.784 738.552 88.504C739.96 87.16 741.24 85.304 742.392 82.936L747.096 73.24ZM836.277 23.032C836.021 26.232 835.829 29.336 835.701 32.344C835.637 35.288 835.605 37.56 835.605 39.16C835.605 40.504 835.637 41.784 835.701 43C835.765 44.216 835.829 45.24 835.893 46.072H833.685C832.597 40.76 831.093 36.6 829.173 33.592C827.253 30.52 825.141 28.376 822.837 27.16C820.597 25.88 818.325 25.24 816.021 25.24H814.773C813.109 25.24 811.861 25.4 811.029 25.72C810.197 25.976 809.621 26.52 809.301 27.352C809.045 28.184 808.917 29.496 808.917 31.288V80.824C808.917 83.96 809.237 86.136 809.877 87.352C810.517 88.504 811.829 89.08 813.813 89.08C816.181 89.08 818.037 88.44 819.381 87.16C820.789 85.816 821.781 83.832 822.357 81.208C822.997 78.584 823.317 75.352 823.317 71.512C823.317 68.056 822.997 64.888 822.357 62.008C821.781 59.064 820.661 56.728 818.997 55C817.333 53.272 814.837 52.408 811.509 52.408C810.485 52.408 809.461 52.408 808.437 52.408C807.413 52.408 806.389 52.408 805.365 52.408C804.341 52.408 803.317 52.408 802.293 52.408V50.488C803.957 50.488 805.653 50.488 807.381 50.488C809.109 50.488 810.805 50.488 812.469 50.488C818.613 50.488 823.669 51.096 827.637 52.312C831.669 53.528 834.837 55.128 837.141 57.112C839.445 59.096 841.077 61.304 842.037 63.736C842.997 66.104 843.477 68.504 843.477 70.936C843.477 74.84 842.421 78.296 840.309 81.304C838.197 84.312 834.997 86.68 830.709 88.408C826.485 90.072 821.141 90.904 814.677 90.904C813.205 90.904 811.093 90.872 808.341 90.808C805.589 90.744 802.325 90.712 798.549 90.712C795.861 90.712 792.981 90.744 789.909 90.808C786.901 90.808 784.469 90.872 782.613 91V89.08C784.533 88.952 785.973 88.696 786.933 88.312C787.957 87.928 788.629 87.16 788.949 86.008C789.269 84.856 789.429 83.128 789.429 80.824V33.208C789.429 30.84 789.269 29.112 788.949 28.024C788.629 26.872 787.989 26.104 787.029 25.72C786.069 25.272 784.597 25.016 782.613 24.952V23.032C786.325 23.096 790.325 23.16 794.613 23.224C798.965 23.288 803.061 23.32 806.901 23.32C810.805 23.32 813.909 23.32 816.213 23.32C819.157 23.32 822.485 23.32 826.197 23.32C829.973 23.256 833.333 23.16 836.277 23.032Z" fill="white"/>
</svg>
