<svg width="19" height="13" viewBox="0 0 19 13" fill="none" xmlns="http://www.w3.org/2000/svg">
<path d="M18.7465 1.15229L12.1765 6.15745L18.76 11.8218C18.9129 11.5327 19 11.2035 19 10.8543V2.14563C19 1.786 18.908 1.44753 18.7465 1.15229Z" fill="#0060BB"/>
<path d="M16.9237 0.0694094H2.07627C1.66758 0.0694094 1.28636 0.188568 0.964731 0.393337L9.15796 6.53394C9.36325 6.6846 9.6383 6.6849 9.84393 6.53494L17.9631 0.349474C17.6572 0.17172 17.3023 0.0694094 16.9237 0.0694094Z" fill="#0060BB"/>
<path d="M11.2711 6.84742L10.508 7.42873C10.2071 7.65091 9.85433 7.76201 9.50168 7.76201C9.14895 7.76201 8.79634 7.65095 8.49531 7.42873L8.49208 7.42636L7.73011 6.85528L1.01134 12.636C1.32291 12.823 1.68722 12.9308 2.07627 12.9308H16.9237C17.3153 12.9308 17.6819 12.8217 17.9948 12.6325L11.2711 6.84742Z" fill="#0060BB"/>
<path d="M0.216533 1.22375C0.0781895 1.50166 0 1.81449 0 2.14547V10.8542C0 11.2059 0.0881719 11.5373 0.243178 11.8278L6.8177 6.17113L0.216533 1.22375Z" fill="#0060BB"/>
</svg>
