<svg width="19" height="19" viewBox="0 0 19 19" fill="none" xmlns="http://www.w3.org/2000/svg">
<path d="M9.50022 0C5.70597 0 2.61914 3.08683 2.61914 6.88104C2.61914 11.5898 8.77703 18.5025 9.03921 18.7945C9.28547 19.0687 9.71542 19.0682 9.96123 18.7945C10.2234 18.5025 16.3813 11.5898 16.3813 6.88104C16.3812 3.08683 13.2944 0 9.50022 0ZM9.50022 10.3431C7.59124 10.3431 6.03821 8.79002 6.03821 6.88104C6.03821 4.97206 7.59128 3.41904 9.50022 3.41904C11.4092 3.41904 12.9622 4.9721 12.9622 6.88108C12.9622 8.79006 11.4092 10.3431 9.50022 10.3431Z" fill="white"/>
</svg>
