<svg width="40" height="40" viewBox="0 0 40 40" fill="none" xmlns="http://www.w3.org/2000/svg">
<rect width="40" height="40" rx="10" fill="#0060BB"/>
<path d="M30.0742 23.7533C28.6049 23.7533 27.1621 23.5234 25.7949 23.0716C25.125 22.8431 24.3014 23.0528 23.8926 23.4727L21.194 25.5098C18.0644 23.8393 16.1367 21.9121 14.4889 18.8061L16.4661 16.1778C16.9798 15.6648 17.1641 14.9154 16.9433 14.2123C16.4896 12.8379 16.2591 11.3959 16.2591 9.92587C16.2591 8.86394 15.3952 8 14.3333 8H9.92581C8.86394 8 8 8.86394 8 9.92581C8 22.0977 17.9024 32 30.0742 32C31.1361 32 32.0001 31.1361 32.0001 30.0742V25.679C32 24.6172 31.1361 23.7533 30.0742 23.7533Z" fill="white"/>
</svg>
