<svg width="90" height="36" viewBox="0 0 90 36" fill="none" xmlns="http://www.w3.org/2000/svg">
<path d="M14.0753 0.803571C13.1238 0.857141 12.4233 0.964284 11.9739 1.125C11.551 1.28571 11.2603 1.59375 11.1017 2.04911C10.9431 2.50446 10.8638 3.24107 10.8638 4.25893V24.9911C10.8638 25.7411 10.9166 26.2902 11.0224 26.6384C11.1281 26.9866 11.3131 27.2277 11.5775 27.3616C11.8418 27.4688 12.2779 27.5223 12.8859 27.5223H14.1943C15.1194 27.5223 16.1238 27.0536 17.2076 26.1161C18.2913 25.1786 19.2693 23.9464 20.1416 22.4196C21.0139 20.8661 21.5954 19.2589 21.8861 17.5982H22.7981C22.7188 18.5625 22.6791 19.7946 22.6791 21.2946C22.6791 24.1875 22.7716 26.5714 22.9567 28.4464C21.1592 28.3661 18.1327 28.3259 13.8771 28.3259C7.69187 28.3259 3.06617 28.3661 0 28.4464V27.6429C0.845841 27.5893 1.45379 27.4821 1.82385 27.3214C2.22033 27.1607 2.48466 26.8527 2.61682 26.3973C2.74898 25.942 2.81507 25.2054 2.81507 24.1875V4.25893C2.81507 3.24107 2.73577 2.50446 2.57717 2.04911C2.44501 1.59375 2.1939 1.28571 1.82385 1.125C1.45379 0.964284 0.845841 0.857141 0 0.803571V0C1.50665 0.0803561 3.85915 0.120534 7.05749 0.120534C10.0972 0.120534 12.4365 0.0803561 14.0753 0V0.803571Z" fill="#0060BB"/>
<path d="M35.1279 7.03125C38.3791 7.03125 40.8902 7.90178 42.6612 9.64286C44.4322 11.3571 45.3177 14.1563 45.3177 18.0402C45.3177 21.9241 44.4322 24.7232 42.6612 26.4375C40.8902 28.1518 38.3791 29.0089 35.1279 29.0089C31.8767 29.0089 29.3656 28.1518 27.5946 26.4375C25.8237 24.7232 24.9382 21.9241 24.9382 18.0402C24.9382 14.1563 25.8237 11.3571 27.5946 9.64286C29.3656 7.90178 31.8767 7.03125 35.1279 7.03125ZM35.1279 7.83482C34.2821 7.83482 33.608 8.67857 33.1058 10.3661C32.6036 12.0536 32.3525 14.6116 32.3525 18.0402C32.3525 21.4688 32.6036 24.0268 33.1058 25.7143C33.608 27.375 34.2821 28.2054 35.1279 28.2054C35.9738 28.2054 36.6478 27.375 37.15 25.7143C37.6522 24.0268 37.9033 21.4688 37.9033 18.0402C37.9033 14.6116 37.6522 12.0536 37.15 10.3661C36.6478 8.67857 35.9738 7.83482 35.1279 7.83482Z" fill="#0060BB"/>
<path d="M67.0124 11.6518C66.4573 11.6518 65.9683 11.4643 65.5454 11.0893C65.1489 10.6875 64.9506 10.1384 64.9506 9.44196C64.9506 8.79911 65.1357 8.10268 65.5057 7.35268C64.3427 7.83482 63.4836 8.51786 62.9285 9.40178C63.9065 10.4464 64.3955 11.7991 64.3955 13.4598C64.3955 15.5759 63.6158 17.183 62.0563 18.2812C60.5232 19.3527 58.4614 19.8884 55.8711 19.8884C55.3688 19.8884 54.9988 19.875 54.7609 19.8482C54.0736 20.3304 53.73 20.8929 53.73 21.5357C53.73 22.3929 54.2058 22.8214 55.1574 22.8214H59.0033C61.6994 22.8214 63.8008 23.2902 65.3075 24.2277C66.8406 25.1384 67.6071 26.5714 67.6071 28.5268C67.6071 29.9196 67.1577 31.1786 66.259 32.3036C65.3868 33.4286 64.0255 34.3259 62.1752 34.9955C60.3514 35.6652 58.065 36 55.316 36C52.5934 36 50.4524 35.692 48.8929 35.0759C47.3333 34.4598 46.5536 33.5893 46.5536 32.4643C46.5536 31.6875 46.9369 30.9777 47.7034 30.3348C48.4699 29.692 49.633 29.183 51.1925 28.808L51.589 29.4509C50.8753 30.3348 50.5185 31.192 50.5185 32.0223C50.5185 33.067 50.981 33.8705 51.9062 34.433C52.8577 35.0223 54.1794 35.317 55.8711 35.317C57.6156 35.317 58.9504 34.9554 59.8756 34.2321C60.8272 33.5357 61.3029 32.5982 61.3029 31.4196C61.3029 30.5893 60.9857 29.9196 60.3514 29.4107C59.7434 28.9286 58.6597 28.6875 57.1002 28.6875H54.9591C53.1617 28.6875 51.7872 28.3393 50.8357 27.6429C49.8841 26.9464 49.4083 26.0089 49.4083 24.8304C49.4083 23.7589 49.7783 22.8214 50.5185 22.0179C51.285 21.2143 52.382 20.4643 53.8093 19.7679C51.8004 19.5 50.2145 18.8438 49.0515 17.7991C47.9149 16.7277 47.3466 15.2812 47.3466 13.4598C47.3466 11.3437 48.1131 9.75 49.6462 8.67857C51.2057 7.58036 53.2807 7.03125 55.8711 7.03125C58.6465 7.03125 60.7875 7.62054 62.2942 8.79911C62.7964 8.10268 63.4043 7.55357 64.118 7.15178C64.8317 6.75 65.585 6.54911 66.378 6.54911C67.2503 6.54911 67.9243 6.80357 68.4001 7.3125C68.8759 7.79464 69.1138 8.42411 69.1138 9.20089C69.1138 9.95089 68.9155 10.5536 68.519 11.0089C68.1225 11.4375 67.6203 11.6518 67.0124 11.6518ZM55.8711 19.1652C56.3997 19.1652 56.7962 18.7366 57.0605 17.8795C57.3513 16.9955 57.4967 15.5223 57.4967 13.4598C57.4967 11.3973 57.3513 9.9375 57.0605 9.08036C56.7962 8.19643 56.3997 7.75446 55.8711 7.75446C55.3424 7.75446 54.9327 8.19643 54.6419 9.08036C54.3776 9.9375 54.2455 11.3973 54.2455 13.4598C54.2455 15.5223 54.3776 16.9955 54.6419 17.8795C54.9327 18.7366 55.3424 19.1652 55.8711 19.1652Z" fill="#0060BB"/>
<path d="M79.8103 7.03125C83.0615 7.03125 85.5725 7.90178 87.3435 9.64286C89.1145 11.3571 90 14.1563 90 18.0402C90 21.9241 89.1145 24.7232 87.3435 26.4375C85.5725 28.1518 83.0615 29.0089 79.8103 29.0089C76.5591 29.0089 74.048 28.1518 72.277 26.4375C70.506 24.7232 69.6205 21.9241 69.6205 18.0402C69.6205 14.1563 70.506 11.3571 72.277 9.64286C74.048 7.90178 76.5591 7.03125 79.8103 7.03125ZM79.8103 7.83482C78.9644 7.83482 78.2904 8.67857 77.7882 10.3661C77.2859 12.0536 77.0348 14.6116 77.0348 18.0402C77.0348 21.4688 77.2859 24.0268 77.7882 25.7143C78.2904 27.375 78.9644 28.2054 79.8103 28.2054C80.6561 28.2054 81.3301 27.375 81.8323 25.7143C82.3346 24.0268 82.5857 21.4688 82.5857 18.0402C82.5857 14.6116 82.3346 12.0536 81.8323 10.3661C81.3301 8.67857 80.6561 7.83482 79.8103 7.83482Z" fill="#0060BB"/>
</svg>
