<svg width="40" height="40" viewBox="0 0 40 40" fill="none" xmlns="http://www.w3.org/2000/svg">
<rect width="40" height="40" rx="10" fill="white"/>
<g clip-path="url(#clip0)">
<path d="M28.3952 23.1277C27.1707 23.1277 25.9684 22.9362 24.8291 22.5597C24.2708 22.3693 23.5845 22.544 23.2438 22.8939L20.995 24.5915C18.387 23.1994 16.7806 21.5934 15.4074 19.0051L17.0551 16.8148C17.4832 16.3873 17.6367 15.7629 17.4528 15.1769C17.0746 14.0316 16.8826 12.8299 16.8826 11.6049C16.8826 10.7199 16.1627 10 15.2778 10H11.6048C10.7199 10 10 10.7199 10 11.6048C10 21.7481 18.252 30 28.3952 30C29.2801 30 30.0001 29.2801 30.0001 28.3952V24.7325C30 23.8477 29.2801 23.1277 28.3952 23.1277Z" fill="#0060BB"/>
</g>
<defs>
<clipPath id="clip0">
<rect width="20" height="20" fill="white" transform="translate(10 10)"/>
</clipPath>
</defs>
</svg>
