<svg width="170" height="130" viewBox="0 0 170 130" fill="none" xmlns="http://www.w3.org/2000/svg">
<path d="M144.372 101.25C144.338 101.25 144.305 101.241 144.274 101.226C144.244 101.21 144.218 101.188 144.198 101.161C144.181 101.138 144.17 101.112 144.164 101.085C144.157 101.058 144.157 101.029 144.161 101.002C144.166 100.974 144.176 100.948 144.191 100.924C144.206 100.9 144.226 100.88 144.249 100.864C144.249 100.864 144.976 100.346 146.03 99.5178C146.076 99.4796 151.504 94.8475 153.467 92.6142C153.505 92.572 153.558 92.5465 153.614 92.5433C153.642 92.5417 153.67 92.5457 153.697 92.5549C153.723 92.5642 153.748 92.5786 153.769 92.5972C153.79 92.6159 153.807 92.6385 153.819 92.6638C153.831 92.6891 153.838 92.7165 153.84 92.7445C153.841 92.7724 153.837 92.8005 153.828 92.8269C153.819 92.8534 153.804 92.8778 153.786 92.8987C151.801 95.1447 146.353 99.8023 146.297 99.849C145.231 100.698 144.499 101.203 144.495 101.208C144.46 101.235 144.417 101.25 144.372 101.25Z" fill="#D1D3D4"/>
<path d="M71.536 80.603C71.2258 80.4247 70.907 80.2294 70.5585 80.0044C69.3643 79.2274 68.2975 78.1023 66.8185 77.8815C66.5295 77.8433 66.1385 77.9155 66.096 78.2042C66.0999 78.2981 66.1248 78.39 66.1689 78.473C66.2131 78.556 66.2753 78.6281 66.351 78.6839L67.626 79.9577L63.0488 78.6839C62.7725 78.6075 62.3815 78.5905 62.2923 78.8623C62.28 78.952 62.2898 79.0434 62.3209 79.1285C62.352 79.2136 62.4034 79.2898 62.4708 79.3505C64.3365 81.6602 66.963 82.5179 69.4238 83.9444C71.4694 85.1304 73.5349 86.2725 75.6202 87.3708C80.0912 89.7229 85.1318 92.6185 90.2275 93.2554L93.585 86.6532C90.185 85.855 86.785 85.0299 83.385 84.1779C81.1835 83.626 78.9863 83.0613 76.7933 82.4796C75.8795 82.2291 74.9615 81.9744 74.052 81.7027C73.1718 81.4394 72.327 81.0701 71.536 80.603Z" fill="white"/>
<path d="M90.2285 93.4889H90.203C85.5535 92.9072 80.9125 90.4447 76.8155 88.2708L75.5405 87.5873C73.5005 86.5131 71.4138 85.3582 69.3355 84.1567C68.698 83.7831 68.035 83.4476 67.3933 83.1207C65.5105 82.1569 63.7298 81.2526 62.323 79.5118C62.2347 79.4228 62.1693 79.3138 62.1322 79.194C62.0952 79.0742 62.0878 78.9473 62.1105 78.824C62.2168 78.4844 62.6035 78.3655 63.122 78.5056L66.947 79.5501L66.2373 78.8495C66.138 78.7704 66.0584 78.6695 66.0046 78.5546C65.9507 78.4397 65.9242 78.314 65.927 78.1872C65.9365 78.117 65.9602 78.0496 65.9968 77.989C66.0333 77.9284 66.0819 77.8759 66.1395 77.8348C66.3629 77.693 66.6313 77.64 66.8918 77.6862C68.0223 77.8475 68.9148 78.5141 69.7775 79.1594C70.0835 79.3887 70.398 79.6265 70.7168 79.8303C71.0355 80.0341 71.3968 80.2548 71.6815 80.4247C72.4619 80.8721 73.294 81.2228 74.1593 81.4691C74.9455 81.7026 75.7913 81.9447 76.9005 82.2461C79.306 82.8999 81.6818 83.5198 83.488 83.9444C86.973 84.8233 90.3985 85.6427 93.688 86.4239C93.7196 86.43 93.7492 86.4436 93.7743 86.4636C93.7995 86.4835 93.8194 86.5093 93.8325 86.5386C93.8471 86.5675 93.8547 86.5995 93.8547 86.632C93.8547 86.6644 93.8471 86.6964 93.8325 86.7254L90.4793 93.3615C90.4595 93.409 90.4234 93.448 90.3774 93.4713C90.3314 93.4947 90.2787 93.5009 90.2285 93.4889ZM62.7098 78.8707C62.5993 78.8707 62.5143 78.892 62.4973 78.9472C62.4803 79.0024 62.527 79.1042 62.6375 79.2401C63.9848 80.9087 65.7273 81.7876 67.5718 82.7386C68.2178 83.0655 68.8808 83.4052 69.531 83.7831C71.605 84.9846 73.6875 86.1352 75.7233 87.2051L76.9983 87.8887C81.0188 90.0116 85.5705 92.4402 90.0925 93.0473L93.2588 86.7806C90.0628 86.0333 86.7223 85.2181 83.3265 84.3647C81.5245 83.9147 79.1403 83.3075 76.7305 82.6664C75.6213 82.365 74.7713 82.123 73.9808 81.8895C73.0902 81.6306 72.2341 81.2657 71.4308 80.8025C71.1375 80.637 70.823 80.4459 70.4405 80.1997C70.058 79.9534 69.7945 79.7454 69.48 79.5161C68.6598 78.9005 67.814 78.2678 66.7855 78.1192C66.6403 78.0923 66.4902 78.1163 66.3605 78.1872C66.3477 78.1948 66.3369 78.2053 66.3288 78.2178C66.3207 78.2303 66.3156 78.2445 66.3138 78.2593C66.3138 78.3443 66.403 78.4589 66.505 78.5608L67.78 79.8345C67.8128 79.8674 67.8339 79.9102 67.84 79.9562C67.8461 80.0022 67.837 80.0489 67.814 80.0893C67.7903 80.1302 67.7536 80.162 67.7097 80.1797C67.6658 80.1974 67.6173 80.1999 67.5718 80.1869L62.9945 78.9132C62.9021 78.8855 62.8063 78.8712 62.7098 78.8707Z" fill="#231F20"/>
<path d="M101.231 98.499C92.4161 97.3314 87.6306 92.9285 87.6306 92.9285C87.6306 92.9285 87.7368 87.3581 91.5618 86.509H96.7723C96.7723 86.509 83.3848 78.9728 80.8348 78.442C78.2848 77.9113 72.5983 76.1239 68.1953 72.2857C63.8858 68.5282 40.5703 45.6521 40.5703 45.6521L46.5203 44.5907C46.5203 44.5907 63.1973 53.8209 65.5348 55.205C67.8723 56.5892 74.3748 61.3571 74.3748 61.3571L54.4933 33.1569L59.2533 31.76C59.2533 31.76 74.2728 42.799 77.5538 47.0447C80.8348 51.2905 85.2038 56.275 87.1036 57.4426C89.0033 58.6101 119.187 74.3152 122.158 75.4828C125.128 76.6503 128.32 80.1531 128.745 81.482C129.03 82.3694 122.795 91.8671 114.533 96.6139C110.445 98.966 104.15 98.8853 101.231 98.499Z" fill="#231F20"/>
<path d="M104.69 98.9193C103.525 98.9239 102.36 98.853 101.205 98.707C92.4241 97.548 87.5408 93.1281 87.4898 93.0857C87.4683 93.0647 87.4512 93.0396 87.4395 93.0119C87.4278 92.9842 87.4218 92.9544 87.4218 92.9243C87.4218 92.6908 87.5791 87.1756 91.5188 86.301H95.9601C93.1636 84.7428 82.9466 79.0832 80.7918 78.6586C77.3918 77.9496 72.0071 75.8989 68.0418 72.4556C63.7918 68.7363 40.6463 46.0385 40.4168 45.8092C40.3895 45.782 40.3702 45.7478 40.3612 45.7103C40.3522 45.6728 40.3538 45.6336 40.3658 45.5969C40.3763 45.5593 40.3976 45.5256 40.427 45.4999C40.4565 45.4743 40.4928 45.4578 40.5316 45.4526L46.4816 44.3911C46.5271 44.3762 46.5763 44.3762 46.6218 44.3911C46.7876 44.4846 63.3286 53.6426 65.6448 55.0055C67.3958 56.0415 71.5013 59.005 73.4351 60.4104L54.3101 33.2715C54.2904 33.2442 54.2777 33.2125 54.2733 33.1792C54.2688 33.1459 54.2727 33.1119 54.2846 33.0805C54.295 33.0485 54.3133 33.0197 54.3378 32.9967C54.3623 32.9737 54.3922 32.9572 54.4248 32.9488L59.1848 31.552C59.2166 31.5437 59.2498 31.5424 59.2821 31.5483C59.3144 31.5542 59.345 31.567 59.3718 31.586C59.9838 32.036 74.4508 42.6674 77.7148 46.8707C80.9788 51.074 85.3648 56.0882 87.2051 57.2218C89.4576 58.5932 119.446 74.1496 122.229 75.245C125.311 76.4551 128.511 80.0385 128.936 81.3759C129.284 82.4586 122.986 91.9903 114.63 96.754C111.749 98.4438 107.83 98.9193 104.69 98.9193ZM101.26 98.291C104.044 98.6561 110.38 98.741 114.435 96.4186C122.535 91.7695 128.698 82.4288 128.545 81.5287C128.12 80.255 124.954 76.7947 122.085 75.6654C119.297 74.5742 89.2536 58.988 86.9968 57.6082C85.0121 56.3981 80.6218 51.3414 77.3918 47.1594C74.2936 43.1514 60.4343 32.8979 59.2188 32.002L54.8243 33.2843L74.5188 61.234C74.5465 61.2751 74.559 61.3246 74.5541 61.3738C74.5491 61.4231 74.5271 61.4691 74.4918 61.5039C74.4565 61.5386 74.4101 61.56 74.3607 61.5642C74.3113 61.5684 74.262 61.5553 74.2213 61.527C74.1576 61.4803 67.7231 56.742 65.4238 55.3834C63.1246 54.0248 47.6291 45.4483 46.4773 44.8115L41.0076 45.788C43.7191 48.4458 64.3316 68.6471 68.3266 72.1117C72.2153 75.5083 77.5151 77.5207 80.8726 78.2171C83.4226 78.7478 96.3171 85.9995 96.8653 86.3052C96.9067 86.3275 96.9393 86.3632 96.9578 86.4063C96.9763 86.4495 96.9797 86.4977 96.9673 86.543C96.9552 86.5879 96.9287 86.6275 96.8919 86.6559C96.855 86.6843 96.8099 86.6998 96.7633 86.7001H91.5868C88.2591 87.4601 87.8893 92.0922 87.8511 92.8224C88.4801 93.3616 93.1933 97.204 101.26 98.274V98.291Z" fill="#231F20"/>
<path d="M85.6629 56.3767C85.6629 56.3767 81.1749 56.2663 79.0499 60.5333C76.9249 64.8003 78.5994 67.1609 78.5994 67.1609C78.5994 67.1609 92.3014 75.5803 96.2369 77.7159C100.172 79.8515 103.462 81.2568 106.513 79.8388C109.565 78.4207 111.125 75.3383 107.899 70.6764C104.673 66.0146 85.6629 56.3767 85.6629 56.3767Z" fill="#0060BB"/>
<path d="M126.713 93.353C126.657 93.3564 126.601 93.3487 126.548 93.3304C126.496 93.3122 126.447 93.2837 126.405 93.2467C126.363 93.2096 126.329 93.1647 126.305 93.1144C126.28 93.0642 126.266 93.0097 126.263 92.9539C126.259 92.8982 126.267 92.8423 126.285 92.7895C126.303 92.7367 126.332 92.688 126.369 92.6462C126.406 92.6044 126.451 92.5704 126.501 92.5459C126.552 92.5215 126.606 92.5072 126.662 92.5039C126.798 92.5039 130.096 92.0198 130.874 87.5363C131.054 86.4843 131.006 85.4058 130.731 84.3742C130.457 83.3427 129.964 82.3822 129.284 81.5583C128.009 79.9916 126.288 79.0109 124.635 78.9387C124.579 78.9362 124.524 78.9227 124.474 78.8991C124.423 78.8754 124.378 78.842 124.34 78.8008C124.302 78.7596 124.273 78.7114 124.254 78.6589C124.235 78.6065 124.226 78.5508 124.229 78.495C124.231 78.4393 124.245 78.3845 124.269 78.334C124.292 78.2834 124.326 78.238 124.367 78.2004C124.408 78.1627 124.456 78.1336 124.509 78.1145C124.562 78.0955 124.617 78.087 124.673 78.0895C126.564 78.1745 128.536 79.2699 129.947 81.0234C130.705 81.9449 131.256 83.0189 131.561 84.1722C131.866 85.3254 131.919 86.5308 131.715 87.7062C131.248 90.3682 129.943 91.7651 128.927 92.4656C128.282 92.9254 127.541 93.2344 126.76 93.37L126.713 93.353Z" fill="#231F20"/>
<path d="M127.191 74.6124C126.798 73.4527 126.282 72.3383 125.652 71.288C124.804 69.7675 123.711 68.3964 122.418 67.229C121.292 66.2567 119.868 65.3057 119.724 63.8324C118.729 65.3524 120.871 67.539 119.911 69.0802C117.786 64.8344 116.086 59.6249 112.605 56.241C110.905 54.5852 109.205 53.8676 106.965 53.4133C106.34 53.2817 99.7742 52.1014 99.7402 52.5345L99.4852 56.0839C98.3276 55.5337 97.3037 54.7383 96.4847 53.753C95.8994 57.112 96.2705 60.5677 97.5557 63.7263C98.6947 66.503 101.321 67.6918 103 70.1501C104.347 72.1286 104.169 73.9713 104.237 76.3064C104.205 77.2073 104.349 78.1058 104.662 78.9515C105.129 80.0087 106.085 80.7517 107.003 81.4565C106.68 81.5317 106.344 81.5407 106.017 81.4831C105.69 81.4254 105.378 81.3023 105.099 81.1211C105.772 82.7265 106.656 84.2345 107.73 85.6046C110.76 89.2432 115.329 89.7145 119.63 88.0799C122.078 87.1458 124.798 85.2055 126.12 82.8746C126.97 81.3546 127.688 79.8686 127.743 78.0812C127.767 76.9013 127.58 75.7266 127.191 74.6124Z" fill="white"/>
<path d="M115.043 89.1624C113.617 89.187 112.204 88.8902 110.909 88.294C109.614 87.6979 108.47 86.8178 107.563 85.7191C106.478 84.3342 105.583 82.8106 104.902 81.1889C104.883 81.1467 104.879 81.0996 104.889 81.0546C104.899 81.0095 104.923 80.9688 104.957 80.9384C104.995 80.9126 105.039 80.8989 105.085 80.8989C105.13 80.8989 105.175 80.9126 105.212 80.9384C105.581 81.1772 106.01 81.3041 106.449 81.3035C105.611 80.7118 104.93 79.9248 104.464 79.0108C104.148 78.1366 104.004 77.2097 104.039 76.2808C104.039 75.9624 104.039 75.6524 104.039 75.351C104.01 73.4234 103.984 71.8992 102.854 70.2561C102.154 69.2995 101.347 68.4262 100.448 67.6534C99.2794 66.5708 98.0681 65.4499 97.3924 63.794C96.0973 60.6024 95.7219 57.1125 96.3086 53.7189C96.315 53.6785 96.3329 53.6407 96.3603 53.6103C96.3876 53.5798 96.4231 53.5578 96.4627 53.5471C96.5022 53.5363 96.544 53.5372 96.583 53.5496C96.622 53.562 96.6566 53.5854 96.6827 53.617C97.4146 54.4923 98.3131 55.2138 99.3261 55.7399L99.5599 52.5088C99.5631 52.4713 99.5743 52.4349 99.5926 52.402C99.6109 52.369 99.636 52.3404 99.6661 52.3178C100.236 51.8932 106.972 53.1669 107.04 53.1924C109.53 53.7019 111.196 54.5383 112.786 56.0753C115.429 58.6227 117.036 62.1976 118.574 65.6367C119.033 66.6557 119.471 67.628 119.93 68.5663C120.087 67.9591 119.871 67.2543 119.637 66.5113C119.335 65.5475 119.025 64.5498 119.577 63.7049C119.601 63.6674 119.637 63.6383 119.678 63.6218C119.719 63.6054 119.765 63.6023 119.808 63.6131C119.851 63.6239 119.89 63.648 119.919 63.682C119.948 63.716 119.965 63.7582 119.968 63.8025C120.07 64.9786 121.09 65.815 122.072 66.6302C122.246 66.7746 122.425 66.9189 122.591 67.0548C123.903 68.2361 125.01 69.6263 125.867 71.1689C126.505 72.2328 127.028 73.3615 127.427 74.5358C127.81 75.6673 127.993 76.857 127.967 78.0513C127.903 79.9916 127.083 81.5922 126.318 82.9424C125.094 85.0992 122.493 87.1881 119.718 88.2453C118.229 88.8355 116.644 89.1464 115.043 89.1624ZM105.54 81.5583C106.153 82.9511 106.943 84.2595 107.89 85.4516C110.644 88.7591 114.89 89.6379 119.531 87.8674C122.229 86.8357 124.733 84.8275 125.906 82.7725C126.824 81.1507 127.448 79.7326 127.504 78.0767C127.524 76.9314 127.348 75.791 126.981 74.7056C126.592 73.5585 126.081 72.4567 125.455 71.4194C124.622 69.9191 123.546 68.5664 122.272 67.4157C122.106 67.2713 121.932 67.1312 121.758 66.9911C120.908 66.2863 120.032 65.5645 119.671 64.5965C119.657 65.2212 119.77 65.8422 120.002 66.4222C120.3 67.3775 120.61 68.3667 120.079 69.2159C120.061 69.2491 120.034 69.2761 120 69.2936C119.967 69.311 119.929 69.3179 119.892 69.3135C119.854 69.312 119.817 69.3006 119.785 69.2805C119.753 69.2604 119.727 69.2323 119.709 69.1989C119.169 68.1247 118.672 67.0166 118.145 65.8447C116.615 62.4481 115.03 58.9199 112.446 56.4149C110.661 54.6869 108.944 54.0543 106.921 53.6425C105.714 53.392 100.729 52.5555 99.9424 52.6829L99.6959 56.1177C99.6929 56.1523 99.6817 56.1856 99.6631 56.2149C99.6445 56.2442 99.6192 56.2686 99.5892 56.2861C99.5592 56.3036 99.5254 56.3136 99.4907 56.3154C99.4561 56.3171 99.4215 56.3105 99.3899 56.296C98.3451 55.7989 97.4058 55.1055 96.6232 54.2538C96.1598 57.4218 96.5485 60.6559 97.7494 63.6242C98.3954 65.1909 99.5174 66.2311 100.703 67.335C101.626 68.1291 102.455 69.0266 103.172 70.0098C104.375 71.7761 104.401 73.4319 104.447 75.3552C104.447 75.6524 104.447 75.9624 104.447 76.2765C104.423 77.1521 104.567 78.0241 104.872 78.8452C105.331 79.8769 106.296 80.6157 107.146 81.2653C107.178 81.2899 107.201 81.3229 107.215 81.3605C107.228 81.398 107.231 81.4386 107.223 81.4776C107.215 81.5169 107.196 81.5532 107.168 81.5819C107.14 81.6106 107.105 81.6304 107.065 81.6389C106.56 81.7602 106.03 81.7321 105.54 81.5583Z" fill="#231F20"/>
<path d="M122.826 95.4548L122.728 95.5058C118.861 97.3951 114.653 94.317 113.897 90.4109C113.638 89.0692 115.265 88.0672 115.89 87.0143C116.705 85.6696 117.171 84.1432 117.246 82.5732C118.283 83.3035 119.664 83.2101 120.926 83.087C120.402 82.6624 120.019 82.0897 119.826 81.4438C120.514 81.8365 121.283 82.0657 122.074 82.1136C122.864 82.1614 123.656 82.0267 124.386 81.7198C124.514 81.646 124.664 81.6161 124.811 81.6349C125.971 81.9533 125.831 83.9743 125.89 84.8617C125.999 86.4756 126.015 88.0946 125.937 89.7103C125.801 92.1049 125.062 94.2957 122.826 95.4548Z" fill="white"/>
<path d="M120.275 96.2869C119.337 96.2824 118.412 96.0585 117.576 95.633C116.577 95.1212 115.707 94.3908 115.03 93.4961C114.353 92.6015 113.887 91.5656 113.666 90.4659C113.471 89.4512 114.227 88.6275 114.894 87.9185C115.189 87.6226 115.454 87.2983 115.685 86.9505C116.481 85.6333 116.936 84.1394 117.011 82.6028C117.013 82.5652 117.025 82.5289 117.046 82.4975C117.067 82.4662 117.096 82.441 117.13 82.4245C117.163 82.4046 117.2 82.3941 117.238 82.3941C117.276 82.3941 117.314 82.4046 117.347 82.4245C118.197 83.0104 119.259 83.0359 120.411 82.9425C120.035 82.54 119.757 82.0561 119.599 81.5286C119.588 81.4871 119.589 81.4432 119.602 81.4023C119.616 81.3615 119.641 81.3256 119.676 81.2993C119.711 81.2756 119.752 81.2629 119.795 81.2629C119.837 81.2629 119.878 81.2756 119.914 81.2993C120.572 81.6754 121.308 81.8947 122.065 81.9404C122.822 81.986 123.579 81.8567 124.278 81.5626C124.449 81.468 124.647 81.435 124.839 81.4692C125.983 81.7791 126.029 83.3798 126.059 84.4412C126.059 84.6068 126.059 84.7596 126.059 84.887C126.168 86.5095 126.183 88.1369 126.106 89.7611C125.953 92.6992 124.899 94.6268 122.884 95.6585L122.791 95.4674L122.859 95.6712L122.787 95.7052C122.005 96.0891 121.146 96.2881 120.275 96.2869ZM117.415 82.9637C117.286 84.4449 116.819 85.8771 116.05 87.15C115.802 87.5227 115.518 87.8698 115.2 88.186C114.571 88.8738 113.925 89.5828 114.074 90.3853C114.281 91.4215 114.72 92.3975 115.358 93.2402C115.996 94.0828 116.817 94.7702 117.759 95.2509C118.504 95.6416 119.332 95.851 120.174 95.862C121.016 95.8731 121.848 95.6855 122.604 95.3146L122.672 95.2806L122.795 95.4547L122.697 95.2679C124.567 94.3126 125.545 92.4997 125.672 89.7484C125.75 88.1411 125.734 86.5307 125.626 84.9252C125.626 84.7894 125.626 84.6323 125.626 84.4582C125.6 83.5241 125.558 82.1145 124.72 81.8895C124.625 81.8854 124.531 81.909 124.448 81.9574C123.775 82.2403 123.051 82.3838 122.321 82.3794C121.59 82.3751 120.868 82.2228 120.198 81.932C120.398 82.3318 120.681 82.6848 121.027 82.9679C121.06 82.9941 121.085 83.0294 121.097 83.0695C121.11 83.1095 121.111 83.1525 121.099 83.193C121.088 83.2338 121.064 83.2701 121.031 83.2974C120.999 83.3246 120.959 83.3415 120.917 83.3458C119.659 83.4477 118.43 83.5071 117.423 82.9637H117.415Z" fill="#231F20"/>
<path d="M119.555 88.8223C119.794 88.747 119.901 88.4133 119.795 88.077C119.688 87.7406 119.409 87.5289 119.17 87.6042C118.932 87.6795 118.824 88.0132 118.931 88.3495C119.037 88.6859 119.317 88.8976 119.555 88.8223Z" fill="#231F20"/>
<path d="M124.358 86.4848C124.597 86.4083 124.703 86.0729 124.595 85.7357C124.487 85.3985 124.206 85.1871 123.966 85.2636C123.727 85.3401 123.621 85.6755 123.729 86.0127C123.837 86.3499 124.118 86.5613 124.358 86.4848Z" fill="#231F20"/>
<path d="M124.045 96.8431C123.196 96.5206 122.406 96.0601 121.707 95.4802C121.707 95.4802 120.755 93.8796 121.418 92.419C122.081 90.9585 123.968 90.7207 124.525 90.8099C125.28 91.0419 126.012 91.3403 126.714 91.7015L124.045 96.8431Z" fill="#231F20"/>
<path d="M124.046 97.0511C124.022 97.0554 123.998 97.0554 123.974 97.0511C123.096 96.7208 122.282 96.2442 121.564 95.6415L121.526 95.5948C121.487 95.5268 120.527 93.8965 121.228 92.3383C121.929 90.7801 123.944 90.5211 124.556 90.6102C125.335 90.8408 126.089 91.1465 126.808 91.5231C126.834 91.5352 126.856 91.5524 126.874 91.5736C126.893 91.5948 126.906 91.6195 126.915 91.6462C126.936 91.6979 126.936 91.7559 126.915 91.8075L124.246 96.9492C124.225 96.9831 124.196 97.0106 124.16 97.0286C124.125 97.0466 124.085 97.0544 124.046 97.0511ZM121.878 95.3528C122.498 95.8712 123.197 96.2869 123.948 96.584L126.426 91.8033C125.808 91.4855 125.162 91.2254 124.496 91.0263C124.037 90.9584 122.231 91.1579 121.615 92.5166C121.045 93.7479 121.768 95.1447 121.878 95.34V95.3528Z" fill="#231F20"/>
<path d="M119.097 92.5337C118.226 92.5337 117.248 92.4742 116.972 92.2322C116.607 91.901 116.262 89.2602 116.122 88.1266C116.118 88.0869 116.125 88.0469 116.142 88.0109C116.16 87.975 116.186 87.9445 116.22 87.9228C117.172 87.3156 125.57 81.9787 126.624 81.8938C126.71 81.8873 126.796 81.8995 126.877 81.9295C126.958 81.9596 127.031 82.0068 127.091 82.0679C127.546 82.4925 127.729 83.8214 127.64 86.0844C127.64 86.1565 127.64 86.2032 127.64 86.2245C127.64 86.5854 125.965 88.9205 125.43 89.4555C125.251 89.6296 125.141 89.706 125.005 89.6975C124.669 89.6975 123.513 88.7422 122.71 88.0459C122.115 89.7952 121.129 92.3978 120.521 92.4785C120.402 92.4955 119.781 92.5337 119.097 92.5337ZM116.581 88.2072C116.781 89.9055 117.091 91.7057 117.274 91.9223C117.529 92.1388 119.747 92.1558 120.5 92.0539C120.823 91.9138 121.775 89.6338 122.442 87.6086C122.453 87.5752 122.473 87.5452 122.499 87.5215C122.525 87.4977 122.556 87.4809 122.591 87.4727C122.624 87.4621 122.661 87.4608 122.695 87.4691C122.729 87.4773 122.761 87.4947 122.786 87.5194C123.481 88.1643 124.231 88.7481 125.026 89.2644C125.421 89.0012 127.151 86.5641 127.236 86.1948C127.233 86.1523 127.233 86.1098 127.236 86.0674C127.342 83.3076 127.019 82.5689 126.811 82.3736C126.792 82.3544 126.77 82.3395 126.745 82.3299C126.72 82.3204 126.693 82.3165 126.666 82.3184C125.961 82.3736 120.274 85.8424 116.581 88.2072Z" fill="#231F20"/>
<path d="M120.938 92.0199C121.774 92.2951 122.661 92.3793 123.534 92.2662C124.835 92.0497 125.578 91.4553 125.71 91.0222C125.842 90.5891 125.209 89.4258 125.209 89.4258C125.158 89.3324 124.954 89.2347 124.869 89.171L124.082 88.5766C123.917 88.4535 122.829 87.4727 122.654 87.6341C122.611 87.6783 122.581 87.7344 122.569 87.7954C122.097 89.2302 121.553 90.6402 120.938 92.0199Z" fill="#231F20"/>
<path d="M122.825 92.5337C122.166 92.5297 121.512 92.4222 120.887 92.2153C120.859 92.2066 120.833 92.1917 120.812 92.1719C120.791 92.1521 120.774 92.1277 120.764 92.1007C120.751 92.0749 120.744 92.0466 120.744 92.0179C120.744 91.9891 120.751 91.9608 120.764 91.9351L120.798 91.8544C121.401 90.5096 121.931 89.1334 122.387 87.7318C122.411 87.6353 122.461 87.5472 122.532 87.477C122.757 87.2732 123.088 87.4473 124.074 88.2795L124.232 88.4069L125.018 89.0013L125.103 89.0565C125.226 89.119 125.333 89.2108 125.413 89.3239C125.574 89.6169 126.08 90.5977 125.936 91.0859C125.791 91.5742 124.979 92.245 123.59 92.4743C123.337 92.5147 123.081 92.5346 122.825 92.5337ZM121.244 91.8841C121.983 92.0981 122.759 92.1574 123.522 92.0582C124.797 91.8459 125.434 91.2727 125.532 90.9586C125.596 90.7463 125.337 90.0627 125.043 89.5277C124.992 89.4869 124.938 89.45 124.882 89.4173L124.763 89.3409L123.976 88.7465L123.802 88.6022C123.492 88.3192 123.155 88.0675 122.795 87.8507C122.343 89.2221 121.818 90.5685 121.223 91.8841H121.244Z" fill="#231F20"/>
<path d="M125.329 91.4426C124.724 91.6425 124.19 92.0126 123.79 92.5083C123.237 93.0731 122.87 93.7929 122.736 94.5717C122.675 94.96 122.726 95.3579 122.883 95.7183C123.04 96.0787 123.298 96.3865 123.625 96.6054C123.884 96.7461 124.171 96.8267 124.465 96.8414C124.759 96.8561 125.053 96.8045 125.325 96.6903C125.858 96.4601 126.317 96.0868 126.651 95.6119C127.067 95.0858 127.332 94.456 127.416 93.7905C127.569 92.504 126.816 91.0477 125.329 91.4426Z" fill="#231F20"/>
<path d="M124.525 97.0511C124.169 97.0542 123.819 96.9634 123.51 96.7879C123.147 96.5472 122.861 96.2077 122.685 95.8097C122.51 95.4116 122.452 94.9717 122.519 94.5419C122.659 93.7214 123.046 92.963 123.629 92.3681C124.053 91.8391 124.623 91.4463 125.269 91.2387C125.541 91.1531 125.831 91.1374 126.111 91.193C126.391 91.2487 126.653 91.3739 126.871 91.5571C127.166 91.8472 127.389 92.2022 127.522 92.5937C127.654 92.9852 127.694 93.4023 127.636 93.8116C127.548 94.5157 127.269 95.1823 126.829 95.7392C126.466 96.2497 125.967 96.6484 125.388 96.8898C125.113 96.9965 124.82 97.0512 124.525 97.0511ZM125.375 91.6463C124.81 91.8355 124.311 92.1834 123.939 92.6483C123.415 93.1817 123.065 93.8612 122.936 94.5971C122.881 94.9445 122.925 95.3005 123.064 95.6237C123.204 95.9468 123.432 96.2239 123.722 96.4228C123.952 96.5462 124.207 96.6168 124.468 96.6293C124.729 96.6418 124.99 96.5959 125.231 96.4949C125.74 96.2809 126.181 95.9314 126.506 95.4845C126.894 94.9926 127.143 94.4064 127.228 93.7862C127.277 93.4451 127.247 93.0974 127.14 92.7698C127.033 92.4423 126.853 92.1436 126.612 91.8968C126.446 91.7572 126.246 91.6625 126.033 91.6216C125.819 91.5808 125.599 91.5951 125.392 91.6633L125.375 91.6463Z" fill="#231F20"/>
<path d="M116.357 88.101L112.494 86.5088V87.3792L114.513 87.9566L116.578 89.7356L116.357 88.101Z" fill="#231F20"/>
<path d="M116.578 89.9479C116.526 89.9469 116.476 89.9273 116.438 89.8927L114.411 88.1477L112.434 87.583C112.39 87.5702 112.351 87.5434 112.324 87.5066C112.296 87.4699 112.281 87.4252 112.281 87.3792V86.5089C112.28 86.4737 112.288 86.4389 112.305 86.4077C112.321 86.3765 112.345 86.3499 112.374 86.3303C112.403 86.3108 112.437 86.2991 112.472 86.2961C112.507 86.2932 112.542 86.2992 112.575 86.3136L116.451 87.9269C116.484 87.9412 116.514 87.964 116.536 87.993C116.558 88.022 116.573 88.0563 116.578 88.0925L116.799 89.7271C116.806 89.7702 116.799 89.8143 116.779 89.8532C116.759 89.8921 116.727 89.9237 116.689 89.9437C116.653 89.9557 116.615 89.9572 116.578 89.9479ZM112.706 87.2221L114.572 87.7529C114.601 87.7627 114.627 87.7786 114.649 87.7996L116.293 89.2134L116.166 88.2496L112.706 86.823V87.2221Z" fill="#231F20"/>
<path d="M115.902 89.6592L115.532 89.1242C115.362 88.8655 115.17 88.6212 114.959 88.394C114.554 88.0183 114.083 87.7217 113.569 87.5193C112.583 87.0948 111.835 87.7274 111.72 88.7294C111.665 89.2088 111.745 89.694 111.952 90.1303C112.158 90.5665 112.483 90.9363 112.889 91.1978C113.295 91.4593 113.766 91.6022 114.249 91.6101C114.732 91.6181 115.207 91.4909 115.622 91.2429" fill="white"/>
<path d="M114.295 91.8117C113.758 91.8194 113.229 91.672 112.774 91.3871C112.337 91.101 111.987 90.7007 111.763 90.2299C111.538 89.759 111.446 89.2356 111.499 88.7166C111.516 88.4433 111.597 88.1779 111.735 87.9413C111.873 87.7047 112.064 87.5035 112.293 87.3537C112.502 87.2464 112.734 87.1904 112.969 87.1904C113.204 87.1904 113.436 87.2464 113.645 87.3537C114.183 87.5675 114.676 87.88 115.098 88.275C115.321 88.5095 115.522 88.7639 115.698 89.035L116.067 89.5657C116.085 89.5885 116.098 89.6146 116.105 89.6425C116.112 89.6704 116.114 89.6994 116.11 89.7279C116.105 89.7564 116.095 89.7837 116.08 89.8081C116.065 89.8326 116.044 89.8536 116.021 89.8701C115.997 89.8865 115.97 89.898 115.942 89.9037C115.914 89.9095 115.885 89.9095 115.856 89.9037C115.828 89.8978 115.801 89.8863 115.778 89.8698C115.754 89.8533 115.734 89.8322 115.719 89.8077L115.349 89.277C115.185 89.0268 115.001 88.791 114.797 88.5722C114.412 88.2102 113.964 87.9223 113.475 87.723C113.325 87.6453 113.159 87.6047 112.99 87.6047C112.822 87.6047 112.656 87.6453 112.506 87.723C112.333 87.8391 112.19 87.9941 112.088 88.1755C111.986 88.3569 111.929 88.5597 111.919 88.7675C111.87 89.2078 111.945 89.6531 112.135 90.0532C112.325 90.4534 112.624 90.7924 112.997 91.0321C113.37 91.2718 113.802 91.4026 114.246 91.4099C114.689 91.4171 115.126 91.3004 115.506 91.0729C115.555 91.0454 115.612 91.0379 115.666 91.0522C115.72 91.0664 115.766 91.1012 115.794 91.1491C115.823 91.197 115.831 91.2541 115.818 91.3082C115.805 91.3622 115.771 91.4089 115.723 91.4381C115.289 91.688 114.796 91.817 114.295 91.8117Z" fill="#231F20"/>
<path d="M122.664 92.6695C122.32 92.6695 121.984 92.6695 121.661 92.6185C121.605 92.6135 121.553 92.5862 121.516 92.5428C121.48 92.4994 121.463 92.4434 121.468 92.3871C121.473 92.3308 121.5 92.2788 121.543 92.2426C121.587 92.2064 121.643 92.1889 121.699 92.1939C122.407 92.2813 123.124 92.257 123.824 92.1218C124.51 91.9923 125.119 91.6029 125.524 91.0349C125.537 91.0073 125.556 90.9829 125.579 90.9631C125.602 90.9434 125.629 90.9289 125.658 90.9205C125.688 90.9122 125.718 90.9102 125.748 90.9147C125.778 90.9192 125.807 90.9301 125.833 90.9467C125.858 90.9633 125.88 90.9851 125.896 91.0108C125.913 91.0364 125.923 91.0652 125.927 91.0953C125.932 91.1254 125.929 91.1561 125.921 91.1852C125.912 91.2143 125.897 91.2412 125.877 91.2641C125.418 91.9212 124.725 92.3771 123.939 92.5378C123.521 92.6306 123.093 92.6748 122.664 92.6695Z" fill="white"/>
<path d="M123.854 96.8134C123.817 96.8146 123.78 96.8043 123.748 96.7837C123.285 96.4954 122.953 96.0386 122.822 95.5099C122.694 95.0159 122.676 94.4999 122.771 93.9984C122.81 93.5121 123.03 93.0579 123.387 92.7247C123.431 92.6953 123.485 92.6835 123.538 92.6918C123.59 92.7001 123.638 92.7278 123.671 92.7694C123.704 92.811 123.72 92.8636 123.716 92.9166C123.713 92.9697 123.689 93.0194 123.65 93.0559C123.378 93.3161 123.214 93.6694 123.191 94.0451C123.104 94.4868 123.117 94.9424 123.23 95.3783C123.335 95.7941 123.597 96.1532 123.961 96.3803C124 96.404 124.032 96.44 124.049 96.4829C124.066 96.5258 124.069 96.5733 124.057 96.618C124.045 96.6628 124.019 96.7023 123.982 96.7307C123.946 96.7591 123.901 96.7747 123.854 96.7752V96.8134Z" fill="white"/>
<path d="M126.195 92.3256L127.73 91.5996C127.73 91.5996 128.924 92.3426 128.393 93.2979L126.693 94.1089L126.195 92.3256Z" fill="#231F20"/>
<path d="M126.714 94.3211C126.683 94.3201 126.653 94.3129 126.625 94.2999C126.597 94.2876 126.573 94.2694 126.553 94.2467C126.533 94.224 126.518 94.1972 126.51 94.1683L125.991 92.3808C125.979 92.3328 125.983 92.2819 126.004 92.2369C126.025 92.192 126.061 92.1557 126.106 92.1346L127.636 91.4085C127.668 91.3918 127.703 91.3831 127.738 91.3831C127.774 91.3831 127.809 91.3918 127.84 91.4085C128.312 91.7015 129.073 92.4954 128.575 93.3871C128.556 93.4267 128.523 93.4582 128.482 93.4762L126.803 94.2956C126.775 94.3101 126.745 94.3188 126.714 94.3211ZM126.45 92.436L126.846 93.8074L128.235 93.1408C128.524 92.5294 127.942 92.0199 127.708 91.8458L126.45 92.436Z" fill="#231F20"/>
<path d="M127.427 94.0027H127.38C127.326 93.9896 127.279 93.9555 127.249 93.9078C127.22 93.86 127.21 93.8026 127.223 93.748C127.397 93.0347 126.836 91.9223 126.832 91.9096C126.807 91.86 126.802 91.8023 126.818 91.7491C126.835 91.6958 126.872 91.6513 126.921 91.6251C126.972 91.5999 127.03 91.5956 127.083 91.6131C127.136 91.6306 127.181 91.6685 127.206 91.7185C127.232 91.7695 127.844 92.9923 127.631 93.8414C127.62 93.8871 127.594 93.9277 127.557 93.9569C127.52 93.9861 127.474 94.0022 127.427 94.0027Z" fill="white"/>
<path d="M90.6109 58.5719C90.4991 58.3935 90.3232 58.2646 90.1193 58.2117C89.9154 58.1588 89.6989 58.1859 89.5144 58.2874C86.9797 59.4519 84.8918 61.4066 83.5643 63.8579C82.2553 66.261 81.2821 69.7382 82.7654 72.2644C83.2839 73.1518 84.6651 72.3494 84.1466 71.462C83.4879 70.3454 83.5686 68.9782 83.8194 67.7512C84.0609 66.5759 84.4915 65.4475 85.0944 64.4098C86.2983 62.3151 88.1338 60.6538 90.3389 59.6631C90.5183 59.5531 90.6473 59.3771 90.6982 59.173C90.749 58.969 90.7177 58.7531 90.6109 58.5719Z" fill="#231F20"/>
<path d="M42.7926 47.0658C42.7926 47.0658 46.4391 50.0846 49.0061 47.3376C51.5731 44.5906 49.8561 43.457 47.4633 42.8201L31.9551 27.96C31.9551 27.96 30.4676 31.3566 29.2648 31.4967C28.0621 31.6368 23.5273 31.4967 23.3871 32.1335C23.3148 33.052 23.3148 33.9748 23.3871 34.8933C23.3871 34.8933 16.9441 37.5087 17.4371 37.9332C17.9301 38.3578 42.7926 47.0658 42.7926 47.0658Z" fill="#0060BB"/>
<path d="M61.4684 30.6518C61.6809 30.6518 64.0184 31.1485 64.3032 33.3393C64.5879 35.5302 62.6287 37.8271 59.2712 36.4515C55.9137 35.0759 55.3782 33.7597 55.3782 33.7597L33.8477 19.1203L39.8699 18.1311C39.8699 18.1311 40.7199 14.3099 40.9324 14.2377C41.1449 14.1655 46.2407 15.5114 46.2407 15.5114L49.0882 11.1978L61.4684 30.6518Z" fill="#0060BB"/>
<path d="M36.5029 43.2786C36.4761 43.2827 36.4489 43.2827 36.4221 43.2786L21.2496 37.0671C21.1979 37.0455 21.1569 37.0044 21.1354 36.9527C21.1139 36.901 21.1137 36.843 21.1349 36.7911C21.1451 36.7652 21.1605 36.7416 21.18 36.7217C21.1996 36.7018 21.2229 36.6861 21.2487 36.6754C21.2745 36.6647 21.3021 36.6593 21.33 36.6595C21.3579 36.6597 21.3855 36.6655 21.4111 36.6765L36.5071 42.8413C36.8656 42.72 37.1677 42.4725 37.3571 42.145C37.4039 42.0304 37.2891 41.8181 37.1786 41.6143C36.9321 41.1558 36.5624 40.4595 37.4294 39.8014C37.9518 39.3981 38.6081 39.2084 39.2654 39.2707C39.5104 39.3084 39.7611 39.2651 39.9794 39.1475C40.3661 38.8588 40.8634 38.447 41.1269 38.222L32.3251 30.4947C32.3027 30.4763 32.2842 30.4536 32.2707 30.4279C32.2572 30.4022 32.2491 30.374 32.2467 30.3451C32.2443 30.3162 32.2478 30.2871 32.2569 30.2596C32.2659 30.232 32.2805 30.2066 32.2996 30.1848C32.319 30.165 32.3421 30.1493 32.3677 30.1386C32.3932 30.1278 32.4207 30.1223 32.4484 30.1223C32.4761 30.1223 32.5035 30.1278 32.529 30.1386C32.5546 30.1493 32.5777 30.165 32.5971 30.1848L41.5944 38.0819C41.6172 38.1011 41.6355 38.1252 41.648 38.1524C41.6605 38.1795 41.6668 38.2091 41.6666 38.2389C41.6666 38.2698 41.6598 38.3003 41.6466 38.3282C41.6333 38.3561 41.614 38.3807 41.5901 38.4003C41.5901 38.4003 40.7996 39.0626 40.2429 39.4872C39.952 39.6701 39.6056 39.7439 39.2654 39.6952C38.7074 39.6305 38.146 39.7825 37.6971 40.1198C37.1446 40.5444 37.2721 40.8798 37.5611 41.3935C37.6564 41.5168 37.7239 41.6591 37.7591 41.8107C37.7943 41.9624 37.7964 42.1199 37.7651 42.2724C37.5186 42.9263 36.6091 43.2362 36.5709 43.2489L36.5029 43.2786Z" fill="#231F20"/>
<path d="M49.8901 28.9111C49.8462 28.9109 49.8032 28.8976 49.7669 28.8729L36.8809 20.1097C36.8577 20.0941 36.8379 20.0741 36.8224 20.0508C36.807 20.0275 36.7963 20.0014 36.791 19.974C36.7803 19.9187 36.7919 19.8613 36.8235 19.8146C36.8551 19.7679 36.9039 19.7356 36.9593 19.7248C37.0147 19.7141 37.0721 19.7258 37.1189 19.7573L49.9029 28.4611C50.3103 28.2408 50.6564 27.9227 50.9101 27.5355C51.0411 27.2673 51.1314 26.9811 51.1779 26.6864C51.3224 26.0155 51.5051 25.1791 52.3424 24.763C53.1116 24.3809 53.7534 24.6993 54.2676 24.9583C54.5609 25.1069 54.8159 25.2343 54.9901 25.1749C55.2435 25.0951 55.4808 24.9715 55.6914 24.8097L48.8914 14.1699C48.8725 14.1466 48.8588 14.1195 48.8512 14.0906C48.8436 14.0616 48.8422 14.0313 48.8471 14.0018C48.852 13.9722 48.8631 13.944 48.8797 13.9191C48.8963 13.8941 48.9179 13.873 48.9433 13.857C48.9687 13.841 48.9971 13.8305 49.0268 13.8263C49.0565 13.8221 49.0868 13.8242 49.1156 13.8325C49.1444 13.8408 49.1711 13.8551 49.194 13.8745C49.2169 13.8939 49.2354 13.9178 49.2484 13.9449L56.1291 24.7291C56.1551 24.7657 56.1691 24.8094 56.1691 24.8543C56.1691 24.8992 56.1551 24.943 56.1291 24.9796C55.8503 25.26 55.5054 25.4658 55.1261 25.5782C54.9438 25.609 54.7572 25.6035 54.5771 25.5619C54.3969 25.5204 54.2267 25.4437 54.0764 25.3362C53.6004 25.0984 53.1116 24.8564 52.5336 25.1409C51.8749 25.4721 51.7304 26.1344 51.5901 26.7755C51.5376 27.1156 51.4314 27.4452 51.2756 27.752C50.9566 28.2501 50.5068 28.6511 49.9751 28.9111C49.9471 28.9174 49.9181 28.9174 49.8901 28.9111Z" fill="#231F20"/>
<path d="M105.826 96.478C101.35 96.478 96.4416 95.1788 93.4199 94.0452C92.5699 93.7268 89.8074 92.6356 89.5651 91.8714C89.5477 91.8179 89.5522 91.7597 89.5777 91.7095C89.6032 91.6594 89.6476 91.6214 89.7011 91.6039C89.7276 91.5954 89.7556 91.5923 89.7833 91.5948C89.811 91.5973 89.8379 91.6053 89.8625 91.6184C89.887 91.6314 89.9087 91.6493 89.9263 91.6709C89.9438 91.6924 89.9569 91.7173 89.9646 91.744C90.0454 91.986 91.0909 92.7205 93.5686 93.6461C98.2436 95.3996 107.458 97.5649 112.388 94.5844C112.435 94.5606 112.49 94.5555 112.541 94.5701C112.592 94.5847 112.636 94.618 112.664 94.6634C112.692 94.7088 112.702 94.763 112.691 94.8152C112.681 94.8674 112.652 94.9138 112.609 94.9453C110.768 96.0577 108.376 96.478 105.826 96.478Z" fill="white"/>
<path d="M75.3094 74.9689C75.2654 74.9702 75.2222 74.9572 75.1862 74.932C75.1502 74.9067 75.1234 74.8705 75.1096 74.8288C74.9311 74.2896 75.5602 69.5004 77.0137 68.2394C77.0343 68.2195 77.0588 68.204 77.0857 68.1939C77.1125 68.1838 77.1411 68.1792 77.1698 68.1804C77.1984 68.1816 77.2265 68.1885 77.2524 68.2009C77.2783 68.2132 77.3014 68.2307 77.3204 68.2522C77.3393 68.2737 77.3537 68.2989 77.3627 68.3261C77.3717 68.3533 77.375 68.382 77.3726 68.4106C77.3701 68.4392 77.3619 68.4669 77.3484 68.4922C77.335 68.5175 77.3165 68.5398 77.2941 68.5578C75.9639 69.7126 75.4029 74.2896 75.5134 74.6971C75.5282 74.7506 75.522 74.8077 75.4959 74.8567C75.4698 74.9057 75.4258 74.9428 75.3732 74.9604C75.3527 74.9673 75.331 74.9702 75.3094 74.9689Z" fill="white"/>
<path d="M69.505 70.307C69.4741 70.306 69.4438 70.2988 69.4158 70.2858C63.4998 67.4878 48.1913 51.3964 47.541 50.7129C47.5212 50.6935 47.5055 50.6704 47.4948 50.6449C47.484 50.6193 47.4785 50.5919 47.4785 50.5643C47.4785 50.5366 47.484 50.5092 47.4948 50.4837C47.5055 50.4582 47.5212 50.435 47.541 50.4157C47.5807 50.3768 47.6341 50.355 47.6898 50.355C47.7454 50.355 47.7988 50.3768 47.8385 50.4157C47.9958 50.5855 63.742 67.1354 69.59 69.8994C69.6334 69.9204 69.6683 69.9555 69.6891 69.9989C69.7099 70.0423 69.7153 70.0915 69.7044 70.1384C69.6935 70.1853 69.6671 70.2271 69.6293 70.2569C69.5915 70.2868 69.5447 70.303 69.4965 70.3028L69.505 70.307Z" fill="white"/>
<path d="M75.2941 57.5699C75.2449 57.5693 75.1973 57.5529 75.1581 57.5232C72.7356 55.5447 61.5921 39.759 61.1331 39.0882C61.114 39.0658 61.0997 39.0397 61.0911 39.0115C61.0826 38.9834 61.08 38.9537 61.0836 38.9245C61.0871 38.8953 61.0967 38.8672 61.1117 38.8418C61.1267 38.8165 61.1469 38.7946 61.1708 38.7775C61.1948 38.7603 61.222 38.7484 61.2508 38.7423C61.2797 38.7363 61.3095 38.7363 61.3383 38.7423C61.3671 38.7484 61.3944 38.7604 61.4183 38.7775C61.4422 38.7947 61.4624 38.8166 61.4774 38.8419C61.5921 39.0075 73.0586 55.256 75.4386 57.1963C75.4712 57.2241 75.4947 57.2612 75.5058 57.3026C75.517 57.344 75.5153 57.3878 75.501 57.4283C75.4868 57.4687 75.4606 57.5039 75.4259 57.5292C75.3913 57.5545 75.3498 57.5687 75.3069 57.5699H75.2941Z" fill="white"/>
<path d="M128.1 62.8175C127.679 62.8175 127.268 62.693 126.919 62.4598C126.57 62.2265 126.297 61.8949 126.136 61.507C125.976 61.1191 125.933 60.6923 126.015 60.2805C126.097 59.8687 126.3 59.4904 126.597 59.1936C126.894 58.8967 127.273 58.6945 127.685 58.6126C128.097 58.5307 128.525 58.5727 128.913 58.7334C129.301 58.894 129.633 59.1661 129.866 59.5152C130.1 59.8644 130.225 60.2748 130.225 60.6947C130.225 61.2577 130.001 61.7976 129.602 62.1958C129.204 62.5939 128.663 62.8175 128.1 62.8175ZM128.1 58.9964C127.763 58.9964 127.435 59.096 127.155 59.2826C126.876 59.4692 126.658 59.7344 126.529 60.0447C126.4 60.3551 126.367 60.6965 126.432 61.026C126.498 61.3554 126.66 61.658 126.898 61.8955C127.135 62.133 127.438 62.2948 127.768 62.3603C128.098 62.4258 128.44 62.3922 128.75 62.2637C129.061 62.1351 129.326 61.9175 129.513 61.6382C129.7 61.3589 129.8 61.0305 129.8 60.6947C129.802 60.4702 129.76 60.2475 129.675 60.0395C129.591 59.8315 129.466 59.6423 129.308 59.4828C129.15 59.3233 128.961 59.1967 128.754 59.1103C128.547 59.0238 128.324 58.9794 128.1 58.9794V58.9964Z" fill="#D1D3D4"/>
<path d="M128.061 61.9938C128.016 61.9932 127.973 61.9785 127.937 61.9518C127.901 61.9251 127.875 61.8878 127.861 61.8452C127.852 61.8188 127.848 61.7907 127.85 61.7628C127.852 61.7348 127.859 61.7075 127.872 61.6826C127.885 61.6576 127.903 61.6354 127.924 61.6174C127.945 61.5994 127.97 61.5859 127.997 61.5777C128.117 61.535 128.226 61.4681 128.318 61.3811C128.41 61.2942 128.483 61.1891 128.533 61.0725C128.589 60.9584 128.621 60.834 128.628 60.707C128.634 60.5801 128.615 60.453 128.571 60.3337C128.557 60.3076 128.549 60.2789 128.547 60.2493C128.545 60.2198 128.549 60.1902 128.559 60.1623C128.569 60.1345 128.585 60.109 128.605 60.0876C128.625 60.0662 128.65 60.0493 128.678 60.038C128.705 60.0267 128.734 60.0213 128.764 60.022C128.794 60.0228 128.823 60.0297 128.85 60.0423C128.876 60.055 128.9 60.0731 128.919 60.0955C128.939 60.1179 128.953 60.1441 128.962 60.1724C129.025 60.3469 129.054 60.5322 129.045 60.7177C129.037 60.9031 128.992 61.0851 128.913 61.2532C128.834 61.4213 128.723 61.5721 128.585 61.697C128.448 61.8219 128.287 61.9185 128.112 61.9811C128.096 61.9879 128.079 61.9922 128.061 61.9938Z" fill="#D1D3D4"/>
<path d="M102.663 42.3997C101.983 42.3997 101.318 42.1982 100.753 41.8208C100.187 41.4434 99.7466 40.9069 99.4863 40.2793C99.2261 39.6517 99.158 38.961 99.2907 38.2947C99.4233 37.6285 99.7508 37.0164 100.232 36.5361C100.712 36.0557 101.325 35.7286 101.992 35.596C102.659 35.4635 103.35 35.5315 103.979 35.7915C104.607 36.0515 105.144 36.4917 105.522 37.0566C105.899 37.6214 106.101 38.2855 106.101 38.9648C106.101 39.4159 106.012 39.8626 105.839 40.2793C105.667 40.696 105.413 41.0747 105.094 41.3936C104.775 41.7126 104.396 41.9656 103.979 42.1382C103.561 42.3108 103.114 42.3997 102.663 42.3997ZM102.663 35.9546C102.067 35.9546 101.484 36.1312 100.989 36.4619C100.493 36.7927 100.107 37.2628 99.879 37.8129C99.6509 38.3629 99.5912 38.9682 99.7075 39.5521C99.8238 40.136 100.111 40.6724 100.532 41.0934C100.954 41.5144 101.49 41.8011 102.075 41.9172C102.66 42.0334 103.265 41.9738 103.816 41.7459C104.367 41.5181 104.837 41.1323 105.168 40.6372C105.499 40.1422 105.676 39.5602 105.676 38.9648C105.676 38.1665 105.359 37.4008 104.794 36.8363C104.228 36.2718 103.462 35.9546 102.663 35.9546Z" fill="#D1D3D4"/>
<path d="M100.547 39.657C100.517 39.6628 100.487 39.6628 100.457 39.657C100.37 39.6093 100.303 39.5327 100.266 39.4404C100.23 39.3481 100.227 39.246 100.258 39.1517C100.373 38.4743 100.725 37.8595 101.251 37.4165C101.777 36.9736 102.443 36.7309 103.131 36.7316C103.225 36.7211 103.321 36.7374 103.407 36.7787C103.492 36.82 103.565 36.8846 103.615 36.9652C103.639 37.0138 103.644 37.0699 103.628 37.1218C103.612 37.1736 103.576 37.2174 103.529 37.244C103.481 37.2707 103.426 37.2782 103.373 37.265C103.32 37.2518 103.275 37.219 103.245 37.1732C103.206 37.1753 103.166 37.1753 103.126 37.1732C102.541 37.1789 101.975 37.3858 101.524 37.7591C101.076 38.1383 100.775 38.6627 100.674 39.2409C100.672 39.2635 100.672 39.2862 100.674 39.3088C100.702 39.3367 100.721 39.3716 100.73 39.4099C100.739 39.4481 100.738 39.4881 100.725 39.5253C100.711 39.5619 100.686 39.5936 100.655 39.6169C100.623 39.6402 100.586 39.6541 100.547 39.657Z" fill="#D1D3D4"/>
<path d="M107.992 21.9861C107.428 21.9861 106.876 21.8188 106.407 21.5054C105.938 21.192 105.572 20.7465 105.357 20.2255C105.141 19.7044 105.085 19.1312 105.196 18.5783C105.307 18.0254 105.579 17.5178 105.979 17.1198C106.379 16.7217 106.887 16.451 107.441 16.342C107.995 16.2331 108.569 16.2907 109.09 16.5076C109.61 16.7246 110.055 17.091 110.368 17.5607C110.68 18.0303 110.846 18.5819 110.844 19.1457C110.841 19.8995 110.539 20.6213 110.005 21.1535C109.47 21.6857 108.747 21.985 107.992 21.9861ZM107.992 16.7172C107.512 16.7172 107.043 16.8594 106.644 17.126C106.245 17.3926 105.933 17.7715 105.75 18.2147C105.566 18.6579 105.519 19.1456 105.613 19.616C105.707 20.0864 105.938 20.5184 106.278 20.8572C106.618 21.1961 107.051 21.4267 107.522 21.5197C107.993 21.6128 108.481 21.5642 108.924 21.38C109.367 21.1959 109.746 20.8845 110.012 20.4853C110.278 20.086 110.42 19.6169 110.419 19.1372C110.418 18.495 110.162 17.8794 109.707 17.4257C109.252 16.972 108.635 16.7172 107.992 16.7172Z" fill="#D1D3D4"/>
<path d="M106.029 19.9015C105.983 19.9013 105.938 19.8858 105.901 19.8574C105.864 19.829 105.837 19.7893 105.825 19.7444C105.765 19.4705 105.764 19.1867 105.823 18.9124C105.883 18.6382 106.001 18.3801 106.17 18.1559C106.339 17.9316 106.554 17.7465 106.801 17.6132C107.048 17.4799 107.321 17.4017 107.602 17.3838C107.658 17.3849 107.711 17.4076 107.751 17.4472C107.79 17.4867 107.813 17.5401 107.814 17.5961C107.814 17.6524 107.792 17.7064 107.752 17.7462C107.712 17.786 107.658 17.8084 107.602 17.8084C107.384 17.8188 107.172 17.8785 106.982 17.9829C106.791 18.0874 106.627 18.2339 106.501 18.4113C106.366 18.5802 106.271 18.7778 106.224 18.989C106.176 19.2002 106.178 19.4194 106.229 19.6298C106.237 19.6568 106.239 19.6851 106.236 19.7131C106.232 19.741 106.224 19.768 106.21 19.7925C106.196 19.817 106.177 19.8385 106.155 19.8557C106.133 19.873 106.107 19.8857 106.08 19.893L106.029 19.9015Z" fill="#D1D3D4"/>
<path d="M123.407 36.1542C124.573 37.4284 125.209 39.0983 125.187 40.8245C125.234 43.8772 125.017 44.0853 124.656 44.2891C124.295 44.4929 120.665 44.6627 118.821 43.4399C116.976 42.2172 116.573 41.4232 116.789 41.2873C117.006 41.1515 119.671 39.9499 119.671 39.9499C119.671 39.9499 117.338 39.6655 117.291 38.8163C117.244 37.9672 118.931 38.9267 119.305 38.0903C119.679 37.2539 120.155 35.4409 120.521 35.5853C120.886 35.7296 121.371 38.4045 121.371 38.4045L123.407 36.1542Z" fill="white"/>
<path d="M123.208 44.6416C121.836 44.6416 119.898 44.3996 118.703 43.6056C117.335 42.6928 116.519 41.8648 116.527 41.3808C116.526 41.3242 116.539 41.268 116.566 41.2181C116.593 41.1682 116.632 41.1262 116.681 41.0964C116.842 40.9945 118.138 40.4043 118.95 40.0349C118.185 39.8693 117.118 39.5127 117.08 38.8164C117.072 38.7391 117.082 38.661 117.108 38.5877C117.133 38.5144 117.175 38.4475 117.229 38.3918C117.364 38.305 117.515 38.2463 117.674 38.2193C117.832 38.1923 117.995 38.1975 118.151 38.2347C118.657 38.2644 119.001 38.2687 119.116 38.0012C119.23 37.7337 119.341 37.4365 119.468 37.0926C119.855 36.0269 120.068 35.5132 120.348 35.3943C120.389 35.3764 120.433 35.3672 120.478 35.3672C120.522 35.3672 120.567 35.3764 120.607 35.3943C120.879 35.5089 121.185 36.3708 121.513 37.9418L123.251 36.0099C123.29 35.9679 123.343 35.9421 123.4 35.9378C123.457 35.9393 123.513 35.9602 123.557 35.9972C123.629 36.0651 125.35 37.6955 125.401 40.8161C125.452 43.9368 125.227 44.2127 124.76 44.4632C124.257 44.6136 123.732 44.674 123.208 44.6416ZM116.957 41.4275C117.008 41.6101 117.411 42.2342 118.941 43.2532C120.752 44.459 124.254 44.2425 124.556 44.1023C124.857 43.9622 125.023 43.8391 124.981 40.8289C124.979 39.2399 124.426 37.7007 123.417 36.4727L121.551 38.5404C121.525 38.5701 121.491 38.5915 121.454 38.6021C121.416 38.6127 121.376 38.6119 121.338 38.5999C121.301 38.5897 121.266 38.5693 121.239 38.5408C121.212 38.5123 121.194 38.4769 121.185 38.4385C121.037 37.5461 120.798 36.6712 120.471 35.8274C120.227 36.274 120.026 36.7432 119.872 37.2285C119.74 37.5809 119.621 37.912 119.507 38.1668C119.256 38.723 118.606 38.6805 118.13 38.6508C117.909 38.6508 117.603 38.6126 117.53 38.6848C117.458 38.7569 117.53 38.7654 117.53 38.7952C117.556 39.2579 118.805 39.6443 119.723 39.7335C119.77 39.7378 119.814 39.7578 119.848 39.7901C119.882 39.8225 119.904 39.8654 119.91 39.9118C119.917 39.9575 119.908 40.004 119.886 40.0445C119.864 40.085 119.829 40.1173 119.787 40.1368C118.805 40.5656 117.301 41.2577 116.957 41.4275Z" fill="#D1D3D4"/>
<path d="M123.569 41.0837C123.432 41.0471 123.285 41.0666 123.162 41.1379C123.039 41.2091 122.949 41.3264 122.913 41.4637C122.876 41.6011 122.895 41.7474 122.967 41.8704C123.038 41.9934 123.155 42.0831 123.293 42.1197C123.431 42.1563 123.577 42.1368 123.7 42.0656C123.823 41.9943 123.913 41.8771 123.95 41.7397C123.986 41.6023 123.967 41.456 123.895 41.333C123.824 41.21 123.707 41.1203 123.569 41.0837Z" fill="#D1D3D4"/>
<path d="M26.5887 56.9753C27.7396 57.7168 28.5659 58.867 28.9007 60.1936C29.5637 62.5288 29.4362 62.7411 29.2025 62.9619C28.9687 63.1826 26.2275 64.0658 24.5275 63.5011C22.8275 62.9364 22.4025 62.4099 22.5257 62.2613C22.649 62.1127 24.468 60.6479 24.468 60.6479C24.468 60.6479 22.615 60.9069 22.4067 60.2616C22.1985 59.6162 23.6817 60.0111 23.805 59.2935C23.9282 58.576 23.9325 57.0815 24.23 57.1239C24.5275 57.1664 25.5007 59.111 25.5007 59.111L26.5887 56.9753Z" fill="white"/>
<path d="M25.8739 63.8961C25.4046 63.9058 24.9368 63.8398 24.4884 63.7008C23.2347 63.2762 22.4272 62.7922 22.3294 62.4058C22.3159 62.3549 22.3154 62.3013 22.3281 62.2501C22.3407 62.1989 22.366 62.1517 22.4017 62.1129C22.4994 62.011 23.2517 61.3699 23.8339 60.9156C23.2092 60.9156 22.4017 60.8434 22.2317 60.3297C22.2073 60.265 22.1973 60.1958 22.2025 60.1268C22.2076 60.0579 22.2277 59.9909 22.2614 59.9306C22.3889 59.714 22.6864 59.6588 22.9669 59.5994C23.3452 59.523 23.5917 59.4593 23.6257 59.2597C23.6597 59.0602 23.6809 58.78 23.7107 58.4912C23.7914 57.5614 23.8509 57.1369 24.0549 56.9755C24.0869 56.9499 24.1237 56.931 24.1631 56.9201C24.2026 56.9091 24.2439 56.9063 24.2844 56.9118C24.3779 56.9118 24.6499 56.9628 25.4999 58.6399L26.4009 56.8779C26.4131 56.8527 26.4303 56.8302 26.4515 56.812C26.4727 56.7937 26.4975 56.78 26.5242 56.7717C26.5503 56.7601 26.5785 56.7542 26.6071 56.7542C26.6356 56.7542 26.6638 56.7601 26.6899 56.7717C27.896 57.5364 28.763 58.7337 29.1124 60.1174C29.7669 62.4228 29.6989 62.7625 29.3547 63.0894C29.1124 63.3526 27.4209 63.8961 25.8739 63.8961ZM22.7714 62.3464C22.8862 62.4907 23.3537 62.8686 24.6244 63.2974C26.2309 63.8409 28.8489 62.979 29.0657 62.8049C29.2102 62.6648 29.3504 62.529 28.7044 60.2575C28.3892 59.063 27.6718 58.0135 26.6729 57.2855L25.6869 59.213C25.6688 59.248 25.6413 59.2772 25.6076 59.2974C25.5738 59.3177 25.5351 59.3281 25.4957 59.3277C25.456 59.3273 25.4171 59.316 25.3834 59.295C25.3497 59.274 25.3223 59.2442 25.3044 59.2088C25.0148 58.5821 24.6721 57.9813 24.2802 57.4128C24.2054 57.7827 24.1557 58.1572 24.1314 58.5337C24.1059 58.8309 24.0804 59.1111 24.0422 59.3319C23.9614 59.8371 23.4344 59.9433 23.0519 60.0197C22.9036 60.0355 22.7595 60.0787 22.6269 60.1471C22.6252 60.1654 22.6252 60.1839 22.6269 60.2023C22.7289 60.5122 23.7532 60.5419 24.4587 60.4443C24.5039 60.4384 24.5497 60.4472 24.5895 60.4694C24.6293 60.4916 24.6609 60.5259 24.6797 60.5674C24.6994 60.6098 24.7042 60.6575 24.6934 60.703C24.6826 60.7484 24.6568 60.7889 24.6202 60.8179C24.0082 61.3147 23.0349 62.1171 22.7714 62.3464Z" fill="#D1D3D4"/>
<path d="M27.6984 60.6863C27.5857 60.6863 27.4776 60.731 27.3979 60.8106C27.3182 60.8903 27.2734 60.9982 27.2734 61.1109C27.2734 61.2235 27.3182 61.3314 27.3979 61.4111C27.4776 61.4907 27.5857 61.5354 27.6984 61.5354C27.8112 61.5354 27.9193 61.4907 27.999 61.4111C28.0787 61.3314 28.1234 61.2235 28.1234 61.1109C28.1234 60.9982 28.0787 60.8903 27.999 60.8106C27.9193 60.731 27.8112 60.6863 27.6984 60.6863Z" fill="#D1D3D4"/>
<path d="M48.6705 68.1968C48.6705 68.1968 50.7233 69.9206 50.9613 73.3724C51.1993 76.8242 50.9613 77.0747 50.566 77.3252C50.1708 77.5757 46.0738 77.9876 43.9105 76.7053C41.7473 75.4231 41.2458 74.5527 41.4838 74.3872C41.7218 74.2216 44.667 72.6889 44.667 72.6889C44.667 72.6889 42.0065 72.5063 41.9045 71.5425C41.8025 70.5787 43.766 71.5722 44.1443 70.6042C44.5225 69.6362 44.973 67.5515 45.3683 67.6959C45.7635 67.8402 46.5158 70.8377 46.5158 70.8377L48.6705 68.1968Z" fill="white"/>
<path d="M48.1409 77.805C46.7129 77.805 44.9959 77.5969 43.8059 76.8879C42.2292 75.9581 41.2559 75.0495 41.2219 74.523C41.2169 74.4632 41.2275 74.4032 41.2529 74.3488C41.2782 74.2944 41.3174 74.2476 41.3664 74.213C41.5449 74.0899 43.0664 73.3002 43.9504 72.8417C43.1004 72.7058 41.7787 72.3746 41.6937 71.5679C41.6797 71.4836 41.6846 71.3971 41.7081 71.3149C41.7317 71.2327 41.7732 71.1567 41.8297 71.0924C42.0422 70.8589 42.4332 70.8632 42.8454 70.8674C43.4107 70.8674 43.8229 70.8674 43.9462 70.532C44.0694 70.1966 44.1714 69.8739 44.2947 69.4748C44.6347 68.3666 44.8599 67.6746 45.1787 67.5175C45.2201 67.4987 45.265 67.489 45.3104 67.489C45.3559 67.489 45.4008 67.4987 45.4422 67.5175C45.8204 67.6534 46.2922 69.0757 46.6194 70.3961L48.5107 68.0652C48.528 68.0426 48.5497 68.0238 48.5746 68.0099C48.5994 67.996 48.6269 67.9874 48.6552 67.9845C48.712 67.9826 48.7676 68.0006 48.8124 68.0355C48.8974 68.1076 50.9374 69.8569 51.1754 73.3597C51.4134 76.8624 51.1754 77.1808 50.6824 77.5035C49.8579 77.7444 48.999 77.8463 48.1409 77.805ZM41.6512 74.5357C41.6979 74.7225 42.1569 75.4188 44.0269 76.5227C46.1519 77.7965 50.1469 77.3294 50.4572 77.1426C50.7674 76.9558 50.9884 76.8072 50.7547 73.3894C50.6639 71.5724 49.9356 69.8453 48.6977 68.511L46.6874 70.9905C46.6635 71.0223 46.6309 71.0466 46.5935 71.0604C46.5561 71.0742 46.5156 71.0771 46.4767 71.0686C46.4377 71.0601 46.4021 71.0406 46.3739 71.0125C46.3457 70.9843 46.3262 70.9487 46.3177 70.9099C46.0074 69.6743 45.5612 68.2605 45.3274 67.9378C45.0598 68.4685 44.8504 69.0265 44.7027 69.6022C44.5794 70.0267 44.4604 70.3919 44.3457 70.6848C44.1077 71.3047 43.4064 71.3005 42.8454 71.292C42.5734 71.292 42.2334 71.292 42.1442 71.3769C42.1188 71.4221 42.1113 71.475 42.1229 71.5255C42.1782 72.0647 43.6572 72.4086 44.6729 72.4808C44.7197 72.4836 44.7642 72.5018 44.7996 72.5325C44.8349 72.5632 44.8591 72.6047 44.8684 72.6506C44.8788 72.6957 44.8735 72.7429 44.8534 72.7846C44.8333 72.8263 44.7997 72.8599 44.7579 72.8799C43.6487 73.4913 41.9657 74.3404 41.6512 74.5357Z" fill="#D1D3D4"/>
<path d="M49.126 73.7037C48.9682 73.6705 48.8037 73.7013 48.6686 73.7893C48.5335 73.8772 48.4389 74.0152 48.4056 74.1729C48.3724 74.3305 48.4032 74.4949 48.4913 74.6299C48.5793 74.7648 48.7175 74.8593 48.8753 74.8925C49.0331 74.9257 49.1976 74.895 49.3327 74.807C49.4678 74.719 49.5624 74.581 49.5956 74.4234C49.6289 74.2657 49.5981 74.1014 49.51 73.9664C49.422 73.8314 49.2838 73.7369 49.126 73.7037Z" fill="#D1D3D4"/>
<path d="M138.248 105.182C138.212 105.182 138.177 105.174 138.145 105.157C138.114 105.14 138.088 105.114 138.069 105.084C138.054 105.061 138.043 105.034 138.038 105.006C138.033 104.979 138.034 104.95 138.041 104.923C138.047 104.896 138.059 104.87 138.075 104.847C138.092 104.824 138.113 104.805 138.137 104.791C139.786 103.759 141.418 102.668 142.982 101.505C143.005 101.488 143.03 101.476 143.057 101.469C143.084 101.462 143.112 101.461 143.14 101.465C143.167 101.468 143.194 101.478 143.218 101.492C143.242 101.506 143.263 101.525 143.28 101.547C143.312 101.593 143.325 101.65 143.316 101.705C143.308 101.761 143.278 101.811 143.233 101.845C141.66 103.004 140.02 104.116 138.362 105.152C138.327 105.172 138.288 105.182 138.248 105.182Z" fill="#D1D3D4"/>
<path d="M135.282 106.94C135.245 106.939 135.208 106.929 135.176 106.91C135.143 106.89 135.117 106.862 135.099 106.829C135.072 106.78 135.065 106.722 135.08 106.668C135.095 106.614 135.131 106.568 135.18 106.54C135.72 106.239 136.255 105.929 136.787 105.615C136.81 105.6 136.836 105.59 136.864 105.585C136.892 105.58 136.92 105.582 136.947 105.588C136.974 105.595 136.999 105.607 137.022 105.624C137.044 105.641 137.062 105.663 137.076 105.687C137.09 105.711 137.1 105.738 137.104 105.765C137.109 105.793 137.107 105.821 137.101 105.849C137.094 105.876 137.082 105.901 137.065 105.924C137.049 105.947 137.028 105.966 137.003 105.98C136.468 106.294 135.928 106.608 135.388 106.91C135.357 106.93 135.32 106.94 135.282 106.94Z" fill="#D1D3D4"/>
<path d="M31.638 102.736C31.5861 102.736 31.536 102.716 31.497 102.682C31.458 102.648 31.4327 102.601 31.4255 102.549C31.422 102.521 31.424 102.493 31.4315 102.466C31.439 102.439 31.4518 102.413 31.4692 102.391C31.4866 102.369 31.5083 102.351 31.5329 102.337C31.5575 102.323 31.5845 102.315 31.6125 102.312C33.9396 102.022 36.2851 101.908 38.6293 101.972C38.6576 101.972 38.6854 101.979 38.7113 101.99C38.7372 102.001 38.7605 102.018 38.7799 102.039C38.7993 102.059 38.8143 102.083 38.8242 102.11C38.8342 102.136 38.8387 102.164 38.8375 102.193C38.837 102.22 38.8309 102.248 38.8197 102.273C38.8084 102.298 38.7922 102.321 38.772 102.34C38.7519 102.359 38.7281 102.374 38.7021 102.383C38.6761 102.393 38.6485 102.398 38.6208 102.396C36.2966 102.334 33.9709 102.446 31.6635 102.732L31.638 102.736Z" fill="#D1D3D4"/>
<path d="M46.2698 103.127H46.206C46.1788 103.127 46.1519 103.121 46.127 103.111C46.1021 103.1 46.0798 103.084 46.0614 103.064C46.043 103.044 46.029 103.02 46.0202 102.995C46.0114 102.969 46.0081 102.942 46.0105 102.915C46.0155 102.881 46.0274 102.849 46.0453 102.82C46.0633 102.792 46.087 102.767 46.1149 102.748C46.1428 102.729 46.1743 102.716 46.2076 102.709C46.2408 102.703 46.275 102.703 46.308 102.711C46.3348 102.711 46.3612 102.717 46.3856 102.728C46.41 102.739 46.4319 102.755 46.4498 102.775C46.4678 102.795 46.4814 102.819 46.4899 102.844C46.4984 102.869 46.5016 102.896 46.4993 102.923C46.4949 102.98 46.4685 103.033 46.4257 103.071C46.3829 103.109 46.327 103.129 46.2698 103.127Z" fill="#D1D3D4"/>
<path d="M99.7657 116.442C95.6679 116.446 91.5785 116.068 87.5512 115.312C80.6407 114.004 73.9257 111.614 67.436 109.296C62.4167 107.508 57.236 105.657 51.983 104.324C50.5932 103.972 49.195 103.662 47.818 103.407C47.7625 103.396 47.7136 103.363 47.6819 103.316C47.6501 103.27 47.6379 103.212 47.648 103.157C47.6525 103.129 47.6626 103.103 47.6776 103.079C47.6926 103.056 47.7122 103.035 47.7352 103.019C47.7582 103.004 47.7841 102.993 47.8115 102.987C47.8388 102.981 47.8671 102.981 47.8945 102.987C49.28 103.246 50.691 103.556 52.085 103.912C57.3507 105.254 62.5485 107.105 67.5762 108.897C74.0532 111.207 80.7512 113.597 87.6277 114.892C102.877 117.779 119.286 115.074 133.829 107.275C133.879 107.256 133.933 107.256 133.982 107.274C134.031 107.293 134.072 107.328 134.097 107.375C134.122 107.421 134.129 107.474 134.118 107.526C134.106 107.577 134.076 107.622 134.033 107.653C123.508 113.352 111.738 116.37 99.7657 116.442Z" fill="#D1D3D4"/>
<path d="M43.8604 102.787H43.8349C42.7852 102.664 41.7099 102.562 40.6474 102.494C40.591 102.491 40.5383 102.465 40.5009 102.423C40.4634 102.381 40.4443 102.326 40.4476 102.269C40.451 102.213 40.4767 102.16 40.5189 102.123C40.5611 102.085 40.6165 102.066 40.6729 102.07C41.7439 102.138 42.8277 102.235 43.8859 102.363C43.9416 102.369 43.9925 102.397 44.0275 102.441C44.0626 102.485 44.0789 102.54 44.0729 102.596C44.0667 102.648 44.0417 102.697 44.0027 102.732C43.9636 102.767 43.913 102.787 43.8604 102.787Z" fill="#D1D3D4"/>
<path d="M27.9696 103.39C27.9132 103.396 27.8567 103.38 27.8125 103.344C27.7682 103.309 27.7399 103.257 27.7337 103.201C27.7275 103.145 27.7439 103.088 27.7794 103.044C27.8149 103 27.8665 102.971 27.9228 102.965C28.2586 102.889 28.5986 102.817 28.9386 102.749C28.966 102.743 28.9943 102.742 29.0219 102.747C29.0496 102.752 29.0759 102.763 29.0993 102.778C29.1227 102.794 29.1428 102.814 29.1582 102.837C29.1737 102.86 29.1843 102.887 29.1893 102.914C29.1995 102.969 29.1879 103.026 29.157 103.073C29.1261 103.12 29.0783 103.153 29.0236 103.165C28.6836 103.229 28.3521 103.301 28.0163 103.377L27.9696 103.39Z" fill="#D1D3D4"/>
<path d="M23.5063 104.753C23.4637 104.753 23.4221 104.74 23.3872 104.716C23.3522 104.691 23.3256 104.657 23.3108 104.617C23.291 104.565 23.2924 104.506 23.3146 104.455C23.3368 104.404 23.3781 104.363 23.4298 104.341C23.9525 104.141 24.488 103.946 25.032 103.772C25.0585 103.763 25.0866 103.759 25.1146 103.761C25.1425 103.763 25.1699 103.77 25.1949 103.783C25.2199 103.796 25.242 103.813 25.2601 103.835C25.2781 103.856 25.2916 103.881 25.2998 103.908C25.309 103.934 25.3128 103.962 25.3109 103.99C25.309 104.018 25.3015 104.046 25.2888 104.071C25.2761 104.096 25.2585 104.118 25.237 104.136C25.2155 104.154 25.1906 104.167 25.1638 104.175C24.6283 104.349 24.097 104.541 23.587 104.736C23.5619 104.748 23.5342 104.754 23.5063 104.753Z" fill="#D1D3D4"/>
<path d="M16.3755 108.795C16.3435 108.795 16.3118 108.788 16.283 108.774C16.2542 108.76 16.2291 108.74 16.2097 108.714C16.175 108.67 16.1591 108.614 16.1654 108.559C16.1718 108.503 16.2 108.452 16.2437 108.417C17.629 107.325 19.1179 106.37 20.6892 105.568C20.714 105.555 20.7411 105.547 20.769 105.545C20.7968 105.542 20.8249 105.546 20.8515 105.554C20.878 105.563 20.9026 105.577 20.9236 105.595C20.9447 105.614 20.9618 105.636 20.974 105.661C20.9995 105.711 21.0045 105.769 20.9877 105.822C20.971 105.875 20.934 105.92 20.8847 105.946C19.3371 106.734 17.8709 107.673 16.5072 108.748C16.4708 108.78 16.4237 108.796 16.3755 108.795Z" fill="#D1D3D4"/>
<path d="M33.2769 109.58C33.2471 109.58 33.2178 109.573 33.1908 109.56C33.1637 109.548 33.1395 109.53 33.1197 109.508C31.4099 107.627 29.9787 105.511 28.8697 103.224C28.2959 102.04 27.5522 100.252 27.7179 98.4691C27.9113 97.0988 27.9113 95.7082 27.7179 94.338C27.3184 92.041 26.3707 89.8544 25.4569 87.7358C25.1424 87.0098 24.8152 86.254 24.5177 85.511C24.324 85.1331 24.2541 84.7038 24.3179 84.284C24.352 84.1446 24.4165 84.0144 24.5069 83.9028C24.5973 83.7912 24.7112 83.701 24.8407 83.6387C24.9369 83.5927 25.0421 83.5688 25.1488 83.5688C25.2554 83.5688 25.3607 83.5927 25.4569 83.6387C25.6183 83.7258 25.7544 83.853 25.8522 84.008C28.0213 86.9171 29.1768 90.4559 29.1417 94.0832C29.7197 93.4081 30.1914 92.6864 30.1617 91.8882C30.1205 91.4572 30.01 91.0357 29.8344 90.6399L29.7877 90.5083C29.204 88.9524 28.8198 87.3289 28.6444 85.6766C28.5297 84.6024 28.4744 83.04 29.3074 81.8809C29.4554 81.6518 29.6706 81.4738 29.9237 81.3714C30.1814 81.3037 30.4546 81.3276 30.6966 81.4392C30.9385 81.5507 31.1341 81.743 31.2497 81.9828C31.4317 82.4172 31.5047 82.8895 31.4622 83.3584L31.4069 88.3047C31.3785 88.7626 31.5174 89.2152 31.7979 89.5785C31.8434 89.6184 31.8969 89.6481 31.9548 89.6657C32.0127 89.6832 32.0737 89.6882 32.1337 89.6804C32.5289 89.6294 32.6947 89.0647 32.7457 88.8312C33.0389 87.5193 32.8562 86.1989 32.6607 84.7978C32.4972 83.8156 32.4175 82.8214 32.4227 81.8257C32.4482 81.1252 32.6649 80.6666 33.0687 80.4756C33.1875 80.419 33.3174 80.3896 33.449 80.3896C33.5807 80.3896 33.7106 80.419 33.8294 80.4756C34.0861 80.6303 34.3088 80.8354 34.4841 81.0784C34.6594 81.3213 34.7836 81.5972 34.8494 81.8894C35.6353 84.78 35.2522 87.8634 33.7827 90.4743C33.3429 91.2175 32.8648 91.9374 32.3504 92.6312C31.1987 94.2403 30.1107 95.7603 30.0427 97.6072C29.9747 99.4541 31.0372 101.242 32.0402 102.745C33.4172 104.808 34.9089 106.829 36.4772 108.748C36.495 108.77 36.5084 108.795 36.5166 108.822C36.5248 108.849 36.5275 108.877 36.5248 108.905C36.522 108.933 36.5138 108.96 36.5005 108.985C36.4872 109.01 36.4692 109.032 36.4474 109.049C36.4257 109.067 36.4006 109.081 36.3736 109.089C36.3467 109.097 36.3184 109.1 36.2904 109.097C36.2624 109.094 36.2352 109.086 36.2103 109.073C36.1855 109.06 36.1635 109.042 36.1457 109.02C34.5732 107.084 33.0687 105.054 31.6874 102.982C30.6462 101.424 29.5624 99.5857 29.6177 97.5902C29.6729 95.5947 30.8672 93.9728 32.0062 92.3849C32.5094 91.7015 32.9775 90.993 33.4087 90.262C34.8199 87.7495 35.1848 84.7831 34.4244 82.0041C34.319 81.5524 34.0435 81.1586 33.6552 80.9044C33.5898 80.8695 33.5168 80.8512 33.4427 80.8512C33.3685 80.8512 33.2955 80.8695 33.2302 80.9044C32.9837 81.019 32.8477 81.329 32.8264 81.8852C32.8217 82.8496 32.8999 83.8127 33.0602 84.7638C33.2514 86.1394 33.4469 87.5617 33.1409 88.9501C32.9879 89.6379 32.6352 90.071 32.1677 90.1304C32.0466 90.148 31.9232 90.1384 31.8063 90.1024C31.6895 90.0665 31.5821 90.0049 31.4919 89.9224C31.1136 89.4763 30.9231 88.901 30.9607 88.3175L31.0244 83.3712C31.0624 82.9702 31.0056 82.5659 30.8587 82.1909C30.7914 82.0388 30.6745 81.9139 30.5271 81.8368C30.3796 81.7597 30.2103 81.7348 30.0469 81.7663C29.8701 81.8379 29.7211 81.9644 29.6219 82.1272C28.8824 83.1504 28.9207 84.5388 29.0397 85.6299C29.2171 87.2424 29.5984 88.826 30.1744 90.3427L30.2254 90.4701C30.4176 90.9092 30.5368 91.3767 30.5782 91.8542C30.6207 92.9878 29.8514 93.9261 29.0609 94.7923C29.0309 94.8236 28.9922 94.8452 28.9497 94.8542C28.9073 94.8633 28.8631 94.8595 28.8229 94.8432C28.782 94.8265 28.7474 94.7975 28.7238 94.7602C28.7002 94.7229 28.6888 94.6792 28.6912 94.6352C28.858 90.908 27.7305 87.2378 25.4994 84.2458C25.4367 84.1489 25.3541 84.0664 25.2572 84.0038C25.2179 83.9856 25.1751 83.9761 25.1318 83.9761C25.0885 83.9761 25.0457 83.9856 25.0064 84.0038C24.9347 84.0397 24.8715 84.0905 24.8209 84.1527C24.7703 84.2149 24.7336 84.2872 24.7132 84.3647C24.677 84.6983 24.7406 85.0352 24.8959 85.3327C25.1892 86.0757 25.5164 86.8272 25.8309 87.5532C26.7532 89.6761 27.7094 91.9009 28.1217 94.2488C28.3194 95.6572 28.3194 97.0862 28.1217 98.4945C27.9602 100.193 28.6784 101.891 29.2309 103.025C30.3223 105.276 31.7306 107.359 33.4129 109.211C33.4328 109.231 33.4486 109.254 33.4594 109.28C33.4702 109.306 33.4758 109.334 33.4758 109.362C33.4758 109.39 33.4702 109.417 33.4594 109.443C33.4486 109.469 33.4328 109.493 33.4129 109.512C33.3764 109.549 33.3286 109.573 33.2769 109.58Z" fill="#D1D3D4"/>
<path d="M39.9074 108.96C39.8532 108.96 39.801 108.94 39.7615 108.903C39.722 108.866 39.6982 108.815 39.6949 108.761C39.6934 108.059 39.8187 107.363 40.0647 106.706C40.1242 106.519 40.1837 106.328 40.2347 106.141C40.5889 104.826 40.6527 103.449 40.4215 102.107C40.1903 100.765 39.6698 99.4887 38.8959 98.3672L38.8237 98.2653C38.5007 97.8068 38.1352 97.2803 38.1989 96.6689C38.2508 96.3629 38.3714 96.0726 38.5517 95.8198C38.9665 95.2002 39.4344 94.6178 39.9499 94.079C40.5134 93.5121 41.0136 92.8857 41.4417 92.2109C42.2067 90.8947 42.3852 89.3068 42.4914 87.9227C42.5469 87.5787 42.5192 87.2264 42.4107 86.8952C42.3629 86.7628 42.273 86.6497 42.1549 86.5731C42.0367 86.4964 41.8967 86.4604 41.7562 86.4707C41.4502 86.5386 41.2674 86.9122 41.2079 87.5915C41.0294 89.6677 40.6639 91.7736 39.2232 93.1492C39.0149 93.3445 38.7982 93.5228 38.5687 93.6969C38.1802 93.968 37.8374 94.2991 37.5529 94.6777C37.5281 94.7161 37.4914 94.7455 37.4485 94.7615C37.4055 94.7774 37.3586 94.7791 37.3146 94.7662C37.2706 94.7533 37.232 94.7266 37.2045 94.69C37.177 94.6533 37.1621 94.6088 37.1619 94.5631C37.0897 91.9562 37.6719 89.3705 38.2329 86.8655L38.3902 86.1777C38.5518 85.679 38.5695 85.1448 38.4412 84.6365C38.3912 84.5103 38.3161 84.3955 38.2204 84.2992C38.1247 84.2028 38.0104 84.1269 37.8844 84.076C37.8099 84.0415 37.7287 84.0236 37.6464 84.0236C37.5642 84.0236 37.483 84.0415 37.4084 84.076C37.2668 84.1878 37.1494 84.327 37.0632 84.4854C36.977 84.6437 36.9238 84.8179 36.9069 84.9974C36.2301 87.4725 35.7469 89.9964 35.4619 92.5463C35.3472 93.9262 35.3047 95.9429 36.2864 97.4926C36.5181 97.8413 36.7722 98.1746 37.0472 98.4904C37.2639 98.7494 37.4722 99.0168 37.6889 99.3013C39.6439 102.074 38.9639 105.776 37.6889 108.315C37.6777 108.342 37.661 108.366 37.64 108.387C37.6189 108.407 37.5939 108.422 37.5664 108.433C37.539 108.443 37.5098 108.447 37.4807 108.445C37.4515 108.444 37.423 108.436 37.3969 108.423C37.3708 108.41 37.3477 108.391 37.3291 108.369C37.3105 108.346 37.2967 108.32 37.2886 108.292C37.2805 108.264 37.2783 108.235 37.2821 108.206C37.2859 108.177 37.2956 108.149 37.3107 108.124C38.5304 105.695 39.1807 102.18 37.3362 99.5433C37.1449 99.2758 36.9112 99.0126 36.7114 98.7621C36.4248 98.4325 36.1593 98.0851 35.9167 97.7219C34.8669 96.0618 34.9094 93.9517 35.0284 92.5124C35.3161 89.9395 35.8035 87.3929 36.4862 84.8955C36.5143 84.6517 36.595 84.417 36.7227 84.2073C36.8503 83.9977 37.0219 83.8182 37.2257 83.6812C37.3559 83.6125 37.4998 83.5738 37.6468 83.5679C37.7939 83.562 37.9405 83.5891 38.0757 83.6472C38.2585 83.7206 38.4242 83.8309 38.5624 83.9711C38.7006 84.1114 38.8084 84.2786 38.8789 84.4624C39.0357 85.047 39.0224 85.6641 38.8407 86.2414L38.6749 86.9462C38.1607 89.2389 37.6294 91.6165 37.6082 93.9686C37.8359 93.7472 38.0772 93.5402 38.3307 93.3488C38.5432 93.1832 38.7557 93.0091 38.9554 92.8265C40.2942 91.5528 40.6554 89.5318 40.8084 87.5406C40.8849 86.6575 41.1824 86.1522 41.6924 86.0461C41.9312 86.014 42.1738 86.0642 42.3802 86.1885C42.5865 86.3128 42.7442 86.5037 42.8272 86.7296C42.9629 87.1236 43.0022 87.5444 42.9419 87.9567C42.8314 89.3875 42.6444 91.0306 41.8369 92.4232C41.3907 93.1236 40.8722 93.7753 40.2899 94.3677C39.7853 94.8821 39.326 95.4389 38.9172 96.0321C38.7716 96.2359 38.6729 96.4693 38.6282 96.7156C38.5814 97.1699 38.8874 97.603 39.1807 98.0233L39.2529 98.1252C40.062 99.2974 40.6061 100.631 40.8476 102.035C41.089 103.438 41.022 104.877 40.6512 106.252C40.6002 106.447 40.5407 106.638 40.4812 106.833C40.2482 107.439 40.1258 108.082 40.1199 108.731C40.1223 108.759 40.1189 108.787 40.11 108.814C40.1011 108.841 40.0869 108.865 40.0682 108.886C40.0495 108.907 40.0268 108.924 40.0014 108.936C39.9759 108.948 39.9483 108.955 39.9202 108.956L39.9074 108.96Z" fill="#D1D3D4"/>
<path d="M45.827 110.854C45.771 110.853 45.7176 110.83 45.678 110.791C45.6384 110.751 45.6156 110.698 45.6145 110.642C45.589 108.761 46.0395 106.799 47.136 104.273C47.8899 102.366 48.9572 100.598 50.2938 99.0424C50.4425 98.8768 50.5955 98.7155 50.7528 98.5541C51.1969 98.1205 51.5917 97.6392 51.93 97.1191C52.1565 96.7956 52.2987 96.4209 52.344 96.0288C52.3893 95.6367 52.3361 95.2395 52.1893 94.8731C52.163 94.8024 52.1155 94.7416 52.0533 94.699C51.9513 94.6523 51.7855 94.7542 51.5985 94.975L48.836 98.2782C47.6147 99.6042 46.7902 101.246 46.456 103.016C46.4521 103.073 46.4259 103.125 46.3833 103.162C46.3406 103.199 46.285 103.218 46.2287 103.214C46.1723 103.21 46.1198 103.184 46.0828 103.141C46.0457 103.099 46.0271 103.043 46.031 102.987L45.6613 100.439C45.528 99.8848 45.5452 99.305 45.7111 98.7594C45.8769 98.2139 46.1854 97.7224 46.6048 97.3356L46.7195 97.187C47.5615 96.0997 48.2746 94.9186 48.8445 93.6673C49.2398 92.7884 49.6605 91.6378 49.4098 90.5424C49.3508 90.2581 49.1908 90.0047 48.9593 89.8291C48.8685 89.7713 48.7591 89.7501 48.6533 89.7697C48.4612 89.8498 48.3085 90.0024 48.2283 90.1943C47.8753 90.8889 47.6562 91.6436 47.5823 92.419C47.5155 92.8987 47.4189 93.3737 47.2933 93.8414C46.8683 95.2934 45.878 96.5204 45.011 97.6031C44.9865 97.6324 44.9549 97.6548 44.9191 97.6682C44.8834 97.6816 44.8447 97.6855 44.807 97.6795C44.7703 97.6721 44.7361 97.6553 44.7078 97.6307C44.6795 97.6062 44.658 97.5747 44.6455 97.5394C44.2205 96.2657 44.3608 94.733 45.1215 92.9582C45.3425 92.4403 45.5975 91.9308 45.844 91.4383C46.2935 90.6008 46.6689 89.7256 46.966 88.8229C47.085 88.4323 47.1615 87.9143 46.8725 87.6553C46.7355 87.5645 46.5726 87.5208 46.4085 87.5308C46.2444 87.5407 46.088 87.6038 45.963 87.7105C45.6691 87.9717 45.4418 88.2992 45.3 88.6658C43.5405 92.3851 42.869 95.8496 43.311 98.9617C43.4446 99.8194 43.6219 100.67 43.8423 101.509C44.0208 102.235 44.2035 102.991 44.3268 103.742C44.6583 105.725 44.467 107.373 43.7658 108.638C43.738 108.687 43.6924 108.723 43.6385 108.739C43.5845 108.754 43.5266 108.749 43.4768 108.723C43.4278 108.695 43.3918 108.649 43.3767 108.595C43.3615 108.541 43.3685 108.483 43.396 108.434C44.0505 107.254 44.2205 105.7 43.9103 103.815C43.787 103.076 43.6043 102.329 43.43 101.611C43.2061 100.763 43.026 99.9045 42.8903 99.0382C42.4355 95.8411 43.1198 92.2959 44.9175 88.5045C45.0822 88.0725 45.3525 87.6886 45.7038 87.3878C45.9071 87.2214 46.1605 87.128 46.4233 87.1226C46.6861 87.1172 46.9431 87.2001 47.153 87.3581C47.5143 87.6765 47.578 88.2327 47.374 88.963C47.0679 89.8881 46.684 90.7858 46.2265 91.6463C45.98 92.1346 45.7293 92.6356 45.5125 93.1451C44.875 94.6353 44.6625 95.943 44.9345 97.0342C45.7873 96.0689 46.4492 94.9509 46.8853 93.7395C47.0049 93.2881 47.0985 92.8302 47.1658 92.3681C47.2489 91.5406 47.4852 90.7358 47.8628 89.9947C47.9327 89.8495 48.0318 89.7203 48.1539 89.6151C48.276 89.5099 48.4185 89.431 48.5725 89.3833C48.6794 89.3583 48.7902 89.3552 48.8984 89.3741C49.0065 89.3931 49.1096 89.4338 49.2015 89.4937C49.5318 89.7271 49.76 90.0781 49.839 90.4745C50.1195 91.693 49.669 92.9285 49.2483 93.8711C48.6708 95.1521 47.9463 96.3618 47.0893 97.4757L46.9745 97.6243C46.5906 97.965 46.3081 98.4048 46.1581 98.8954C46.0082 99.386 45.9965 99.9085 46.1245 100.405L46.354 101.98C46.5973 101.113 46.953 100.281 47.4123 99.5052C47.7502 98.985 48.1252 98.4898 48.5343 98.0234L51.3053 94.7202C51.7303 94.2235 52.0575 94.232 52.2615 94.3296C52.4127 94.4104 52.5313 94.5409 52.5973 94.699C52.7782 95.1286 52.8481 95.5968 52.8006 96.0605C52.753 96.5242 52.5896 96.9685 52.3253 97.3526C51.9699 97.9003 51.5551 98.4072 51.0885 98.8641C50.9355 99.0212 50.7868 99.1825 50.638 99.3439C49.3354 100.86 48.2941 102.582 47.5568 104.439C46.5028 106.897 46.0438 108.803 46.0693 110.625C46.0698 110.653 46.0649 110.68 46.0547 110.706C46.0446 110.732 46.0294 110.756 46.0101 110.776C45.9907 110.796 45.9676 110.812 45.942 110.824C45.9165 110.835 45.8889 110.841 45.861 110.841L45.827 110.854Z" fill="#D1D3D4"/>
<path d="M26.6179 111.945C26.5623 111.944 26.5093 111.921 26.4704 111.881C26.4315 111.842 26.4097 111.788 26.4097 111.733C26.4145 110.943 26.2363 110.162 25.889 109.452C25.5418 108.742 25.0349 108.122 24.4079 107.64C23.6962 107.147 22.9251 106.747 22.1129 106.447C21.6072 106.235 21.0844 106.022 20.5914 105.75C19.3164 105.075 18.0414 103.789 18.1647 102.222C18.1734 102.02 18.2333 101.822 18.3389 101.649C18.4992 101.442 18.7263 101.296 18.9819 101.236C19.2374 101.177 19.5057 101.207 19.7414 101.322C20.1128 101.507 20.4415 101.767 20.7062 102.086L20.7869 102.167C22.0504 103.47 23.5816 104.484 25.2749 105.139C24.52 102.489 22.7748 100.231 20.4002 98.8299L19.8902 98.5412C18.8574 97.968 17.7652 97.3736 17.4082 96.2485C17.3294 95.9991 17.3057 95.7355 17.3387 95.476C17.3717 95.2166 17.4607 94.9673 17.5994 94.7455C17.6914 94.6019 17.8167 94.4826 17.9647 94.3976C18.1126 94.3126 18.2789 94.2645 18.4494 94.2573C19.1294 94.2148 19.6054 94.8134 19.9837 95.289C20.8454 96.3865 21.9397 97.2797 23.1882 97.9044C22.1076 95.0363 21.3022 92.0722 20.7827 89.052C20.6382 88.2028 20.5234 87.2942 20.8592 86.479C20.9307 86.2427 21.0737 86.0342 21.2685 85.8822C21.4632 85.7302 21.7003 85.6421 21.9472 85.6299C22.4317 85.6638 22.7972 86.0884 23.0012 86.8824L25.9762 97.9213C26.2211 98.9357 26.5451 99.9294 26.9452 100.893C27.1619 101.386 27.4297 101.874 27.6847 102.341C27.8972 102.736 28.1097 103.139 28.3137 103.551C29.3249 105.697 29.7164 108.082 29.4442 110.438C29.4408 110.466 29.432 110.493 29.4182 110.517C29.4045 110.542 29.386 110.563 29.3639 110.58C29.3418 110.598 29.3165 110.611 29.2894 110.618C29.2624 110.626 29.2341 110.628 29.2062 110.625C29.1783 110.621 29.1513 110.612 29.1268 110.599C29.1023 110.585 29.0807 110.567 29.0634 110.544C29.046 110.522 29.0332 110.497 29.0256 110.47C29.018 110.443 29.0158 110.415 29.0192 110.387C29.2784 108.111 28.9003 105.808 27.9269 103.734C27.7357 103.33 27.5019 102.931 27.3064 102.545C27.0472 102.069 26.7794 101.573 26.5542 101.063C26.1447 100.076 25.8136 99.0581 25.5639 98.019L22.5889 86.98C22.4274 86.3771 22.1979 86.0629 21.9089 86.0417C21.6199 86.0205 21.3692 86.3134 21.2459 86.6191C20.9527 87.3324 21.0632 88.1646 21.1992 88.9586C21.7372 92.124 22.5914 95.2276 23.7492 98.2228C23.7654 98.2616 23.7692 98.3045 23.7601 98.3455C23.7509 98.3865 23.7293 98.4238 23.6982 98.4521C23.6685 98.4812 23.6308 98.5009 23.5899 98.5084C23.549 98.516 23.5068 98.5111 23.4687 98.4945C21.9667 97.836 20.6522 96.8147 19.6437 95.5225C19.3037 95.0979 18.9339 94.6351 18.4622 94.6394C18.3606 94.6481 18.2624 94.6802 18.1754 94.7333C18.0884 94.7863 18.0149 94.8588 17.9607 94.9451C17.8575 95.1122 17.7915 95.2996 17.7673 95.4945C17.7431 95.6894 17.7612 95.8872 17.8204 96.0744C18.1434 97.0467 19.1422 97.5987 20.1069 98.1336C20.2812 98.2313 20.4554 98.3247 20.6254 98.4266C21.9068 99.1848 23.0234 100.191 23.9095 101.387C24.7956 102.583 25.4333 103.944 25.7849 105.39C25.7932 105.427 25.7916 105.466 25.7805 105.502C25.7693 105.538 25.7489 105.571 25.7212 105.598C25.6926 105.623 25.6579 105.64 25.6206 105.647C25.5833 105.655 25.5447 105.652 25.5087 105.64C23.6037 104.973 21.8808 103.871 20.4767 102.422L20.4002 102.362C20.1737 102.086 19.8931 101.86 19.5757 101.696C19.4311 101.624 19.2668 101.601 19.1079 101.631C18.949 101.66 18.8043 101.742 18.6959 101.861C18.6291 101.976 18.5925 102.106 18.5897 102.239C18.4664 103.606 19.6479 104.749 20.7954 105.36C21.2672 105.615 21.7814 105.831 22.2787 106.039C23.1196 106.357 23.9166 106.781 24.6502 107.3C25.3287 107.823 25.8773 108.496 26.2533 109.265C26.6292 110.035 26.8223 110.881 26.8177 111.737C26.8167 111.79 26.7956 111.842 26.7586 111.88C26.7215 111.919 26.6713 111.942 26.6179 111.945Z" fill="#D1D3D4"/>
<path d="M141.258 108.999C141.205 108.999 141.153 108.979 141.114 108.943C141.094 108.924 141.078 108.901 141.068 108.875C141.057 108.85 141.051 108.823 141.051 108.795C141.051 108.767 141.057 108.74 141.068 108.714C141.078 108.689 141.094 108.666 141.114 108.646C142.047 107.619 142.828 106.464 143.434 105.216C143.852 104.457 144.062 103.602 144.042 102.736C143.932 101.942 143.932 101.136 144.042 100.342C144.319 99.0438 144.747 97.7828 145.317 96.5841C145.496 96.1595 145.67 95.7604 145.836 95.3485C145.915 95.2004 145.949 95.032 145.933 94.8645C145.925 94.835 145.911 94.8074 145.892 94.7833C145.873 94.7592 145.85 94.7392 145.823 94.7244C145.814 94.7192 145.803 94.7165 145.793 94.7165C145.783 94.7165 145.772 94.7192 145.763 94.7244C145.729 94.7244 145.691 94.7923 145.661 94.8306C144.431 96.4831 143.81 98.5092 143.902 100.567C143.904 100.61 143.893 100.653 143.87 100.69C143.847 100.727 143.814 100.757 143.774 100.775C143.733 100.791 143.689 100.795 143.645 100.786C143.602 100.777 143.563 100.755 143.532 100.724C143.082 100.227 142.635 99.6877 142.661 99.0254C142.684 98.7484 142.753 98.4773 142.865 98.2229L142.89 98.1507C143.209 97.3093 143.418 96.4302 143.511 95.5354C143.638 94.8888 143.527 94.2182 143.201 93.646C143.159 93.5727 143.095 93.5147 143.018 93.4804C142.899 93.438 142.746 93.5483 142.682 93.6757C142.606 93.8715 142.577 94.0823 142.597 94.2914L142.631 97.0511C142.654 97.4062 142.534 97.7558 142.3 98.0234C142.239 98.077 142.167 98.1169 142.089 98.1404C142.011 98.1638 141.929 98.1702 141.849 98.1592C141.547 98.121 141.322 97.8535 141.224 97.4247C141.097 96.64 141.113 95.8389 141.271 95.0598C141.358 94.5336 141.4 94.001 141.399 93.4677C141.399 93.3191 141.365 93.0431 141.229 93.0006C141.207 92.988 141.182 92.9813 141.156 92.9813C141.131 92.9813 141.106 92.988 141.084 93.0006C140.893 93.1302 140.757 93.3274 140.706 93.5526C140.285 95.0824 140.485 96.7164 141.263 98.0998C141.501 98.5035 141.761 98.8946 142.04 99.2716C142.682 100.172 143.349 101.102 143.392 102.244C143.434 103.386 142.81 104.426 142.219 105.305C141.445 106.464 140.608 107.602 139.724 108.701C139.688 108.745 139.637 108.772 139.581 108.777C139.526 108.783 139.47 108.766 139.427 108.731C139.405 108.714 139.387 108.692 139.373 108.668C139.36 108.643 139.351 108.617 139.349 108.589C139.346 108.561 139.349 108.533 139.357 108.507C139.365 108.48 139.379 108.455 139.397 108.434C140.268 107.36 141.097 106.235 141.866 105.088C142.419 104.26 143.005 103.292 142.967 102.278C142.929 101.263 142.329 100.435 141.692 99.5476C141.402 99.1592 141.134 98.7552 140.889 98.3376C140.051 96.8497 139.839 95.0906 140.298 93.4464C140.336 93.2707 140.411 93.1047 140.516 92.9587C140.621 92.8127 140.755 92.6897 140.91 92.5973C140.989 92.5596 141.075 92.54 141.163 92.54C141.25 92.54 141.337 92.5596 141.416 92.5973C141.561 92.6829 141.678 92.8086 141.753 92.9592C141.829 93.1099 141.859 93.2791 141.841 93.4464C141.844 94.0039 141.8 94.5607 141.709 95.1108C141.561 95.8422 141.544 96.5939 141.658 97.3313C141.7 97.5139 141.79 97.7177 141.921 97.7559C141.942 97.76 141.963 97.7591 141.983 97.7532C142.003 97.7473 142.021 97.7365 142.036 97.7219C142.172 97.5352 142.238 97.3069 142.223 97.0766L142.189 94.3126C142.166 94.036 142.21 93.758 142.317 93.5016C142.386 93.3429 142.51 93.2136 142.665 93.136C142.82 93.0585 142.998 93.0376 143.167 93.0771C143.326 93.1409 143.462 93.2539 143.553 93.3997C143.942 94.0566 144.079 94.8318 143.94 95.5821C143.842 96.5113 143.626 97.4243 143.298 98.2993L143.273 98.3715C143.177 98.5838 143.117 98.8105 143.094 99.0423C143.107 99.3954 143.243 99.7329 143.477 99.9976C143.515 98.0432 144.163 96.1494 145.33 94.5801C145.396 94.4828 145.485 94.4027 145.589 94.3465C145.655 94.3152 145.728 94.2989 145.802 94.2989C145.875 94.2989 145.948 94.3152 146.014 94.3465C146.098 94.3883 146.172 94.448 146.231 94.5213C146.29 94.5946 146.332 94.6799 146.354 94.7711C146.396 95.0233 146.355 95.2822 146.239 95.5099C146.074 95.9345 145.895 96.359 145.712 96.7581C145.154 97.9255 144.733 99.1537 144.459 100.418C144.35 101.176 144.35 101.945 144.459 102.702C144.486 103.644 144.261 104.576 143.808 105.402C143.185 106.688 142.38 107.877 141.42 108.935C141.399 108.957 141.374 108.973 141.346 108.984C141.318 108.995 141.288 109 141.258 108.999Z" fill="#D1D3D4"/>
<path d="M137.556 108.659C137.5 108.655 137.447 108.629 137.41 108.587C137.373 108.545 137.353 108.49 137.356 108.434C137.355 108.081 137.29 107.732 137.165 107.402C137.131 107.296 137.097 107.186 137.067 107.08C136.857 106.298 136.819 105.48 136.956 104.683C137.093 103.885 137.402 103.127 137.862 102.46L137.9 102.405C138.072 102.223 138.175 101.988 138.193 101.738C138.17 101.616 138.121 101.5 138.049 101.399C137.823 101.072 137.57 100.765 137.292 100.482C136.965 100.15 136.675 99.7839 136.425 99.3906C136.025 98.6 135.81 97.7289 135.796 96.8431C135.76 96.5978 135.783 96.3473 135.864 96.1129C135.922 95.9694 136.026 95.8494 136.16 95.7724C136.294 95.6954 136.45 95.6657 136.604 95.6883C136.935 95.7605 137.126 96.0704 137.173 96.6096C137.267 97.7008 137.454 98.8089 138.18 99.501C138.287 99.6029 138.401 99.692 138.52 99.7854L138.767 99.985C138.686 98.7424 138.49 97.5101 138.18 96.3039L138.091 95.9218C137.99 95.5795 137.99 95.2154 138.091 94.8731C138.135 94.7585 138.202 94.6543 138.288 94.5672C138.374 94.4802 138.478 94.4123 138.593 94.3679C138.677 94.329 138.769 94.3088 138.862 94.3088C138.956 94.3088 139.048 94.329 139.132 94.3679C139.249 94.4537 139.346 94.5624 139.42 94.6872C139.493 94.812 139.539 94.9504 139.557 95.0939C139.938 96.5026 140.205 97.9394 140.356 99.3906C140.429 100.206 140.45 101.407 139.846 102.363C139.713 102.571 139.562 102.769 139.396 102.953C139.281 103.093 139.162 103.237 139.056 103.377C138.049 104.804 138.406 106.74 139.077 108.073C139.101 108.123 139.105 108.181 139.087 108.234C139.07 108.287 139.033 108.331 138.984 108.358C138.958 108.37 138.931 108.377 138.903 108.379C138.875 108.381 138.847 108.377 138.821 108.368C138.794 108.359 138.77 108.345 138.749 108.326C138.728 108.308 138.711 108.285 138.699 108.26C137.972 106.821 137.594 104.715 138.699 103.131C138.814 102.974 138.937 102.821 139.064 102.673C139.218 102.501 139.36 102.319 139.489 102.129C140.021 101.28 139.999 100.18 139.936 99.4245C139.777 98.0061 139.509 96.6022 139.132 95.2255C139.086 95.0429 139.026 94.8391 138.899 94.7712C138.869 94.7575 138.837 94.7505 138.805 94.7505C138.773 94.7505 138.741 94.7575 138.712 94.7712C138.653 94.7949 138.6 94.83 138.556 94.8745C138.511 94.919 138.476 94.9719 138.452 95.0302C138.388 95.297 138.4 95.5764 138.486 95.8369L138.571 96.219C138.95 97.6293 139.151 99.0812 139.171 100.541C139.17 100.587 139.155 100.631 139.128 100.667C139.1 100.703 139.061 100.729 139.018 100.741C138.974 100.752 138.928 100.75 138.886 100.734C138.844 100.718 138.808 100.689 138.784 100.652C138.628 100.45 138.443 100.273 138.236 100.125C138.107 100.029 137.983 99.9253 137.866 99.8151C137.037 99.0297 136.829 97.8324 136.727 96.6521C136.727 96.4653 136.659 96.1468 136.493 96.1129C136.395 96.0916 136.281 96.1935 136.234 96.2997C136.182 96.4717 136.171 96.6532 136.2 96.8304C136.211 97.6472 136.405 98.4511 136.769 99.1825C137.007 99.5533 137.283 99.8977 137.594 100.21C137.887 100.512 138.154 100.839 138.393 101.187C138.501 101.343 138.573 101.521 138.605 101.709C138.604 102.063 138.473 102.405 138.236 102.668L138.197 102.723C137.775 103.336 137.491 104.033 137.364 104.766C137.238 105.499 137.273 106.251 137.466 106.969C137.492 107.075 137.526 107.177 137.56 107.283C137.7 107.661 137.771 108.061 137.768 108.464C137.764 108.517 137.74 108.567 137.7 108.603C137.661 108.639 137.609 108.659 137.556 108.659Z" fill="#D1D3D4"/>
<path d="M134.248 109.712C134.192 109.712 134.138 109.69 134.098 109.65C134.058 109.61 134.036 109.556 134.036 109.5C134.011 108.315 133.731 107.149 133.216 106.082C132.811 105.051 132.237 104.095 131.516 103.254L131.265 102.987C131.001 102.729 130.766 102.445 130.564 102.137C130.409 101.909 130.313 101.646 130.286 101.372C130.258 101.098 130.3 100.821 130.406 100.567C130.452 100.458 130.535 100.37 130.64 100.316C130.759 100.261 131.001 100.218 131.286 100.558L132.829 102.401C133.062 102.667 133.276 102.951 133.466 103.25C133.663 103.57 133.823 103.912 133.942 104.269L134.01 103.789C134.049 103.589 134.059 103.385 134.04 103.182C133.952 102.855 133.784 102.554 133.551 102.307L133.488 102.222C133.006 101.594 132.598 100.914 132.272 100.193C131.953 99.595 131.835 98.91 131.936 98.2399C131.988 97.9954 132.129 97.7788 132.332 97.6328C132.394 97.5933 132.464 97.5666 132.537 97.5543C132.61 97.5419 132.685 97.544 132.757 97.5606C132.855 97.5892 132.946 97.6379 133.024 97.7037C133.103 97.7695 133.166 97.8509 133.211 97.9427C133.43 98.3665 133.567 98.8273 133.615 99.3013C133.65 99.5563 133.701 99.8087 133.768 100.057C133.983 100.654 134.308 101.205 134.724 101.683C134.778 101.025 134.655 100.364 134.367 99.7684C134.248 99.4882 134.112 99.2122 133.972 98.9192C133.713 98.4352 133.497 97.9294 133.326 97.4077C133.156 96.8473 133.326 96.5586 133.479 96.4142C133.612 96.3123 133.775 96.2571 133.942 96.2571C134.11 96.2571 134.273 96.3123 134.406 96.4142C134.612 96.5929 134.773 96.8186 134.873 97.0723C135.885 99.1952 136.267 101.203 136.012 103.016C135.936 103.502 135.835 103.984 135.71 104.46C135.613 104.859 135.511 105.275 135.443 105.683C135.25 106.529 135.347 107.416 135.719 108.2C135.733 108.225 135.742 108.251 135.746 108.279C135.75 108.307 135.748 108.335 135.74 108.362C135.732 108.389 135.72 108.414 135.702 108.436C135.685 108.458 135.663 108.476 135.638 108.489C135.589 108.517 135.531 108.524 135.477 108.508C135.423 108.493 135.377 108.457 135.349 108.408C134.925 107.541 134.81 106.556 135.022 105.615C135.094 105.19 135.196 104.766 135.298 104.341C135.4 103.916 135.523 103.407 135.591 102.94C135.834 101.242 135.464 99.3056 134.491 97.2464C134.417 97.0546 134.299 96.8829 134.146 96.7454C134.094 96.6998 134.028 96.672 133.959 96.6659C133.889 96.6598 133.82 96.6758 133.76 96.7114C133.628 96.8303 133.687 97.1105 133.734 97.2676C133.9 97.7655 134.107 98.2485 134.355 98.7112C134.495 98.9914 134.635 99.2759 134.78 99.5603C135.196 100.37 135.294 101.306 135.052 102.184C135.039 102.22 135.017 102.252 134.988 102.276C134.959 102.301 134.923 102.318 134.886 102.324C134.848 102.33 134.81 102.326 134.774 102.313C134.738 102.3 134.706 102.277 134.682 102.248C134.124 101.629 133.691 100.908 133.407 100.125C133.333 99.8602 133.278 99.5907 133.241 99.3183C133.2 98.8971 133.082 98.4869 132.893 98.1083C132.825 97.9979 132.765 97.9342 132.706 97.9215C132.69 97.9145 132.672 97.9108 132.655 97.9108C132.637 97.9108 132.62 97.9145 132.604 97.9215C132.496 98.0064 132.422 98.1268 132.395 98.2611C132.318 98.8457 132.426 99.44 132.706 99.9594C133.018 100.65 133.409 101.302 133.87 101.904L133.934 101.985C134.212 102.287 134.409 102.655 134.508 103.055C134.537 103.299 134.527 103.547 134.478 103.789L134.274 105.207C134.277 105.263 134.258 105.319 134.221 105.361C134.183 105.403 134.131 105.429 134.074 105.432C134.018 105.436 133.962 105.416 133.92 105.379C133.878 105.342 133.852 105.289 133.849 105.233C133.696 104.596 133.457 103.984 133.139 103.411C132.957 103.135 132.757 102.871 132.54 102.622L130.993 100.783C130.916 100.685 130.865 100.66 130.848 100.656C130.831 100.651 130.848 100.656 130.823 100.702C130.751 100.894 130.726 101.1 130.75 101.303C130.775 101.507 130.848 101.701 130.963 101.87C131.148 102.154 131.365 102.416 131.609 102.651C131.694 102.745 131.783 102.834 131.864 102.927C132.617 103.804 133.219 104.8 133.645 105.874C134.183 106.995 134.473 108.218 134.495 109.461C134.503 109.496 134.502 109.531 134.493 109.565C134.483 109.599 134.465 109.629 134.441 109.654C134.416 109.679 134.385 109.698 134.352 109.708C134.318 109.718 134.283 109.719 134.248 109.712Z" fill="#D1D3D4"/>
<path d="M107.992 119.014C107.938 119.015 107.885 118.994 107.846 118.957C107.806 118.92 107.783 118.869 107.779 118.815C107.778 118.758 107.799 118.704 107.836 118.662C107.874 118.62 107.927 118.594 107.983 118.59C111.968 118.363 115.899 117.562 119.654 116.212C119.707 116.193 119.766 116.196 119.818 116.22C119.869 116.245 119.909 116.288 119.928 116.342C119.947 116.395 119.944 116.454 119.92 116.505C119.896 116.557 119.852 116.596 119.798 116.616C116.002 117.976 112.031 118.784 108.005 119.014H107.992Z" fill="#D1D3D4"/>
<path d="M69.4365 113.121H69.3855L63.9285 111.729C63.8743 111.714 63.8282 111.678 63.7996 111.63C63.7711 111.582 63.7624 111.524 63.7755 111.47C63.7824 111.443 63.7946 111.417 63.8114 111.395C63.8282 111.373 63.8492 111.354 63.8733 111.34C63.8974 111.325 63.9241 111.316 63.9518 111.312C63.9795 111.308 64.0076 111.31 64.0347 111.317L69.4875 112.709C69.5146 112.716 69.54 112.729 69.5624 112.745C69.5847 112.762 69.6036 112.783 69.6178 112.807C69.632 112.831 69.6413 112.858 69.6452 112.886C69.6491 112.913 69.6475 112.941 69.6405 112.968C69.6282 113.013 69.6015 113.052 69.5646 113.08C69.5277 113.107 69.4826 113.122 69.4365 113.121Z" fill="#D1D3D4"/>
<path d="M126.898 114.208C126.851 114.208 126.806 114.192 126.769 114.164C126.732 114.136 126.706 114.096 126.694 114.051C126.686 114.024 126.684 113.996 126.687 113.969C126.69 113.941 126.699 113.914 126.713 113.89C126.727 113.866 126.746 113.845 126.768 113.828C126.79 113.811 126.815 113.799 126.842 113.792C127.683 113.559 128.473 113.172 129.171 112.65C129.194 112.633 129.219 112.621 129.246 112.614C129.273 112.607 129.301 112.606 129.329 112.61C129.357 112.614 129.383 112.623 129.407 112.637C129.431 112.651 129.452 112.67 129.469 112.692C129.486 112.715 129.498 112.74 129.505 112.767C129.512 112.794 129.513 112.822 129.509 112.85C129.505 112.877 129.496 112.904 129.482 112.928C129.468 112.952 129.449 112.973 129.426 112.99C128.687 113.547 127.847 113.958 126.953 114.2L126.898 114.208Z" fill="#D1D3D4"/>
<path d="M53.1899 108.731C53.1632 108.736 53.1359 108.736 53.1092 108.731C52.0821 108.31 50.9662 108.151 49.8622 108.268C49.8058 108.275 49.7493 108.258 49.7051 108.223C49.6608 108.187 49.6325 108.136 49.6263 108.079C49.6201 108.023 49.6365 107.967 49.672 107.923C49.7075 107.878 49.759 107.85 49.8154 107.844C50.9902 107.721 52.1771 107.89 53.2707 108.336C53.3223 108.358 53.3634 108.399 53.3849 108.451C53.4064 108.502 53.4066 108.56 53.3854 108.612C53.3685 108.649 53.3408 108.681 53.3059 108.702C53.2711 108.723 53.2307 108.733 53.1899 108.731Z" fill="#D1D3D4"/>
<path d="M26.6389 115.236C26.6109 115.24 26.5825 115.238 26.5553 115.231C26.528 115.224 26.5024 115.212 26.4799 115.195C26.4574 115.178 26.4385 115.156 26.4242 115.132C26.4099 115.108 26.4005 115.081 26.3966 115.053C26.3927 115.025 26.3943 114.997 26.4014 114.97C26.4085 114.942 26.4208 114.917 26.4378 114.894C26.4548 114.872 26.476 114.853 26.5003 114.839C26.5246 114.824 26.5514 114.815 26.5794 114.811C27.7021 114.481 28.8914 114.449 30.0304 114.718C30.0853 114.732 30.1325 114.767 30.1619 114.815C30.1913 114.864 30.2005 114.922 30.1876 114.977C30.1735 115.031 30.1391 115.077 30.0916 115.106C30.0441 115.136 29.9872 115.146 29.9326 115.134C28.867 114.879 27.7533 114.909 26.7026 115.219L26.6389 115.236Z" fill="#D1D3D4"/>
</svg>
