<svg width="54" height="54" viewBox="0 0 54 54" fill="none" xmlns="http://www.w3.org/2000/svg">
<path d="M2.68247 33.6368L0 36.3185L6.4924 44.2242C6.57825 43.9591 6.70555 43.7078 6.87344 43.482L11.6281 37.0399L2.68247 33.6368Z" fill="#0060BB"/>
<path d="M27.334 34.7144L42.7403 48.5018L45.0849 46.1573L30.9629 32.0353L27.334 34.7144Z" fill="#0060BB"/>
<path d="M21.9642 23.0368L7.84262 8.91479L5.49805 11.2594L19.2855 26.6657L21.9642 23.0368Z" fill="#0060BB"/>
<path d="M10.519 47.1266C10.2991 47.2894 10.0572 47.4125 9.80176 47.4987L17.6826 54L20.3642 51.3176L16.9569 42.374L10.519 47.1266Z" fill="#0060BB"/>
<path d="M13 38.9211L19.5361 31L21 32.0789L14.4643 40L13 38.9211Z" fill="#002446"/>
<path d="M11 41.8385L12.4714 40L14 41.1615L12.5286 43L11 41.8385Z" fill="#002446"/>
<path d="M46.7577 8.63562L45.2129 10.1799C44.7968 9.66988 44.3301 9.20316 43.8196 8.78662L45.3644 7.24231L44.1221 6L42.3349 7.78711C40.9687 7.0437 39.4042 6.62116 37.7428 6.62116C34.697 6.62116 31.7976 8.08396 29.9899 10.5351L28.6922 12.2931L8.46735 6.51305L4 10.9804L18.0627 26.6942L5.8965 43.1763C5.44693 43.7872 5.20885 44.51 5.20885 45.2684C5.20885 47.2108 6.7892 48.7911 8.7316 48.7911C9.49003 48.7911 10.2137 48.5531 10.8233 48.1031L27.3058 35.9373L43.0196 50L47.4869 45.5326L41.7069 25.3078L43.4649 24.0101C45.916 22.2011 47.3788 19.303 47.3788 16.2568C47.3788 14.5958 46.9563 13.0309 46.2129 11.6659L48 9.87879L46.7577 8.63562ZM6.41771 11.0473L8.97869 8.48634L27.5782 13.8022L19.1282 25.2507L6.41771 11.0473ZM45.5137 45.0213L42.9527 47.5823L28.7493 34.8713L40.1974 26.4218L45.5137 45.0213ZM42.4212 22.5966L9.77958 46.6887C9.47415 46.9144 9.11124 47.0341 8.7316 47.0341C7.7574 47.0341 6.96594 46.2426 6.96594 45.2684C6.96594 44.8879 7.08519 44.525 7.31126 44.22L31.4042 11.5788C32.8829 9.57379 35.2521 8.37824 37.7428 8.37824C42.0883 8.37824 45.6218 11.9117 45.6218 16.2568C45.6218 18.7479 44.4258 21.1171 42.4212 22.5966Z" fill="#002446"/>
<path d="M38 29.666L39.5565 29L40 31.334L38.4439 32L38 29.666Z" fill="#002446"/>
<path d="M39 33.4453L40.5552 33L41 34.5547L39.4452 35L39 33.4453Z" fill="#002446"/>
<path d="M18 14.5555L18.6675 13L21 13.4445L20.3331 15L18 14.5555Z" fill="#002446"/>
<path d="M22 15.5552L22.4453 14L24 14.4448L23.5547 16L22 15.5552Z" fill="#002446"/>
<path d="M37.5 12C35.0184 12 33 14.0188 33 16.5C33 18.9812 35.0184 21 37.5 21C39.9812 21 42 18.9812 42 16.5C42 14.0188 39.9812 12 37.5 12ZM37.5 19.2C36.0111 19.2 34.8 17.9884 34.8 16.5C34.8 15.0116 36.0111 13.8 37.5 13.8C38.9884 13.8 40.2 15.0116 40.2 16.5C40.2 17.9884 38.9884 19.2 37.5 19.2Z" fill="#002446"/>
<path d="M31.3248 20C30.62 20 29.9311 20.2854 29.433 20.7835L22.7835 27.433C22.2854 27.9311 22 28.6204 22 29.3248C22 30.8001 23.1999 32 24.6752 32C25.3796 32 26.0689 31.7146 26.5665 31.2165L33.2165 24.567C33.7146 24.0689 34 23.3796 34 22.6752C34 21.1999 32.8001 20 31.3248 20ZM28 24.6406L29.3594 26L28 27.3594L26.6406 26L28 24.6406ZM25.3549 30.0045C25.1758 30.1836 24.928 30.2857 24.6752 30.2857C24.1454 30.2857 23.7143 29.8546 23.7143 29.3248C23.7143 29.072 23.816 28.8242 23.9951 28.6451L25.4286 27.2121L26.7879 28.5714L25.3549 30.0045ZM32.0045 23.3549L30.5714 24.7879L29.2121 23.4286L30.6451 21.9955C30.8242 21.8164 31.072 21.7143 31.3248 21.7143C31.8546 21.7143 32.2857 22.1454 32.2857 22.6752C32.2857 22.928 32.1836 23.1758 32.0045 23.3549Z" fill="#002446"/>
<path d="M50.1652 1C49.4184 1 48.6884 1.30246 48.1607 1.83021L46 3.99088L47.2843 5.27522L49.445 3.11455C49.6348 2.92473 49.8974 2.81652 50.1652 2.81652C50.7267 2.81652 51.1835 3.27331 51.1835 3.83477C51.1835 4.10264 51.0753 4.36518 50.8855 4.55499L48.7248 6.71566L50.0091 8L52.1698 5.83933C52.6975 5.31158 53 4.58116 53 3.83477C53 2.27148 51.7285 1 50.1652 1Z" fill="#002446"/>
<path d="M51.269 14C50.5496 14 49.8463 13.7086 49.3379 13.2002L40.7998 4.66211C40.2914 4.15369 40 3.45001 40 2.73096C40 1.22491 41.2249 0 42.731 0C43.45 0 44.1537 0.291382 44.6617 0.799805L53.2002 9.33789C53.7086 9.84631 54 10.55 54 11.269C54 12.7751 52.7751 14 51.269 14Z" fill="#0060BB"/>
</svg>
