<svg width="46" height="60" viewBox="0 0 46 60" fill="none" xmlns="http://www.w3.org/2000/svg">
<path d="M21.125 5.625H16.4375V9.375H21.125V5.625Z" fill="#0060BB"/>
<path d="M22.0625 27.1875H1.4375V31.875H22.0625V27.1875Z" fill="#0060BB"/>
<path d="M42.6875 27.1875H22.0625V31.875H42.6875V27.1875Z" fill="#0060BB"/>
<path d="M16.4375 47.8125H7.0625C6.545 47.8125 6.125 47.3925 6.125 46.875V35.625C6.125 35.1075 6.545 34.6875 7.0625 34.6875H16.4375C16.955 34.6875 17.375 35.1075 17.375 35.625V46.875C17.375 47.3925 16.955 47.8125 16.4375 47.8125Z" fill="#0060BB"/>
<path d="M37.0625 47.8125H27.6875C27.17 47.8125 26.75 47.3925 26.75 46.875V35.625C26.75 35.1075 27.17 34.6875 27.6875 34.6875H37.0625C37.58 34.6875 38 35.1075 38 35.625V46.875C38 47.3925 37.58 47.8125 37.0625 47.8125Z" fill="#0060BB"/>
<path d="M13.625 38.4375H9.875V40.3125H13.625V38.4375Z" fill="#002446"/>
<path d="M13.625 42.1875H9.875V44.0625H13.625V42.1875Z" fill="#002446"/>
<path d="M34.25 38.4375H30.5V40.3125H34.25V38.4375Z" fill="#002446"/>
<path d="M34.25 42.1875H30.5V44.0625H34.25V42.1875Z" fill="#002446"/>
<path d="M37.7525 11.25H45.5V3.75H37.7525C36.5656 2.05219 34.5997 0.9375 32.375 0.9375C30.5919 0.9375 28.9747 1.65469 27.7906 2.8125H20.1875V4.6875H11.75C10.1994 4.6875 8.9375 5.94938 8.9375 7.5V15.9375H7.0625C3.44375 15.9375 0.5 18.8813 0.5 22.5V52.5C0.5 56.1188 3.44375 59.0625 7.0625 59.0625H16.4375C18.8263 59.0625 20.9141 57.7753 22.0625 55.8628C23.2109 57.7753 25.2987 59.0625 27.6875 59.0625H37.0625C40.6813 59.0625 43.625 56.1188 43.625 52.5V22.5C43.625 18.8813 40.6813 15.9375 37.0625 15.9375H35.1875V13.4203C36.2188 12.9281 37.1028 12.1791 37.7525 11.25ZM43.625 5.625V9.375H38.6609C38.8391 8.78062 38.9375 8.15156 38.9375 7.5C38.9375 6.84844 38.8391 6.21938 38.6609 5.625H43.625ZM32.375 2.8125C34.9597 2.8125 37.0625 4.91531 37.0625 7.5C37.0625 10.0847 34.9597 12.1875 32.375 12.1875C29.7903 12.1875 27.6875 10.0847 27.6875 7.5C27.6875 4.91531 29.7903 2.8125 32.375 2.8125ZM27.6875 15.9375C25.2987 15.9375 23.2109 17.2247 22.0625 19.1372C20.9141 17.2247 18.8263 15.9375 16.4375 15.9375H14.5625V10.3125H20.1875V12.1875H27.7906C28.3053 12.6909 28.9044 13.1062 29.5625 13.4203V15.9375H27.6875ZM22.0625 4.6875H26.4547C26.0469 5.54156 25.8125 6.49219 25.8125 7.5C25.8125 8.50781 26.0469 9.45844 26.4547 10.3125H22.0625V4.6875ZM10.8125 7.5C10.8125 6.98344 11.2334 6.5625 11.75 6.5625H20.1875V8.4375H12.6875V15.9375H10.8125V7.5ZM5.47531 18.1078C4.69156 19.2825 4.25 20.6728 4.25 22.1297V27.1875H6.125V22.1297C6.125 20.415 6.9425 18.8241 8.31312 17.8125H15.1878C16.5575 18.825 17.375 20.415 17.375 22.1297V27.1875H19.25V22.1297C19.25 20.6719 18.8084 19.2816 18.0247 18.1078C19.8266 18.7622 21.125 20.475 21.125 22.5V30.9375H2.375V22.5C2.375 20.475 3.67344 18.7622 5.47531 18.1078ZM16.4375 57.1875H7.0625C4.47781 57.1875 2.375 55.0847 2.375 52.5V51.5625H15.5V49.6875H2.375V32.8125H21.125V49.6875H17.375V51.5625H21.125V52.5C21.125 55.0847 19.0222 57.1875 16.4375 57.1875ZM37.0625 57.1875H27.6875C25.1028 57.1875 23 55.0847 23 52.5V51.5625H36.125V49.6875H23V32.8125H41.75V49.6875H38V51.5625H41.75V52.5C41.75 55.0847 39.6472 57.1875 37.0625 57.1875ZM41.75 22.5V30.9375H23V22.5C23 20.475 24.2984 18.7622 26.1003 18.1078C25.3166 19.2825 24.875 20.6728 24.875 22.1297V27.1875H26.75V22.1297C26.75 20.415 27.5675 18.8241 28.9381 17.8125H35.8128C37.1825 18.825 38 20.415 38 22.1297V27.1875H39.875V22.1297C39.875 20.6719 39.4334 19.2816 38.6497 18.1078C40.4516 18.7622 41.75 20.475 41.75 22.5ZM33.3125 15.9375H31.4375V13.9875C31.745 14.0316 32.0562 14.0625 32.375 14.0625C32.6937 14.0625 33.005 14.0316 33.3125 13.9875V15.9375Z" fill="#002446"/>
<path d="M35.1875 6.5625H33.3125V4.6875H31.4375V8.4375H35.1875V6.5625Z" fill="#002446"/>
</svg>
