<svg width="48" height="56" viewBox="0 0 48 56" fill="none" xmlns="http://www.w3.org/2000/svg">
<path d="M32.25 18H15.75C14.2338 18 13 19.2425 13 20.7692V30H35V20.7692C35 19.2425 33.7662 18 32.25 18Z" fill="#0060BB"/>
<path d="M24 26C22.1848 26 20.3945 26.4273 18.7716 27.2494L1 36.2407L2.76916 40L2.84 39.9646L20.5298 30.5878C21.6006 30.02 22.7911 29.7239 24 29.7239C25.2089 29.7239 26.3994 30.02 27.4702 30.5878L40.9059 37.7098L42.4 38.5021L45.16 39.9646L45.2308 40L47 36.2407L29.2284 27.2494C27.6055 26.4273 25.8152 26 24 26Z" fill="#0060BB"/>
<path d="M23.9999 26.1765C22.2011 26.1765 20.4269 26.595 18.8186 27.4L1.20703 36.2054L2.96026 39.8869L3.03046 39.8523L20.5609 30.6695C21.6222 30.1133 22.8019 29.8234 23.9999 29.8234C25.1979 29.8234 26.3777 30.1133 27.4389 30.6695L40.7536 37.6441L42.2342 38.42L44.9694 39.8523L45.0396 39.8869L46.7928 36.2054L29.1812 27.4C27.5729 26.595 25.7987 26.1765 23.9999 26.1765Z" fill="#0060BB"/>
<path d="M32 3H16V8H32V3Z" fill="#0060BB"/>
<path d="M40.3261 31.8049L37.8307 16.0741H41.3226V14.2593H39.4992V10.6296H37.6757V7H10.3243V10.6296H8.50083V14.2593H6.6774V16.0741H10.1693L7.67391 31.8049L0 35.6242L9.74806 56H38.2519L48 35.6233L40.3261 31.8049ZM35.8523 10.6296H34.0289V8.81481H35.8523V10.6296ZM15.7946 10.6296V8.81481H17.618V10.6296H15.7946ZM19.4414 8.81481H21.2649V10.6296H19.4414V8.81481ZM23.0883 8.81481H24.9117V10.6296H23.0883V8.81481ZM26.7351 8.81481H28.5586V10.6296H26.7351V8.81481ZM30.382 8.81481H32.2054V10.6296H30.382V8.81481ZM12.1477 8.81481H13.9711V10.6296H12.1477V8.81481ZM10.3243 12.4444H37.6757V14.2593H10.3243V12.4444ZM12.0146 16.0741H35.9854L38.3231 30.8076L29.5897 26.4612C26.1371 24.7425 21.8629 24.7425 18.4103 26.4612L9.67695 30.8076L12.0146 16.0741ZM37.0995 54.1852H26.8026L28.4619 31.0608L27.439 30.5273C27.1983 30.402 26.9494 30.2941 26.6969 30.1951L24.9746 54.1852H23.0245L21.3031 30.1951C21.0506 30.2931 20.8017 30.4011 20.561 30.5273L19.5381 31.0608L21.1974 54.1852H10.9005L2.41422 36.4508L19.2253 28.0854C22.1738 26.6172 25.8243 26.6172 28.7737 28.0854L45.5849 36.4508L37.0995 54.1852Z" fill="#002446"/>
<path d="M20 0H19V3H20V0Z" fill="#002446"/>
<path d="M29 0H28V3H29V0Z" fill="#002446"/>
</svg>
