<svg width="60" height="59" viewBox="0 0 60 59" fill="none" xmlns="http://www.w3.org/2000/svg">
<path d="M33.75 54.3125C32.1994 54.3125 30.9375 53.0506 30.9375 51.5C30.9375 49.9494 32.1994 48.6875 33.75 48.6875C35.3006 48.6875 36.5625 49.9494 36.5625 51.5C36.5625 53.0506 35.3006 54.3125 33.75 54.3125Z" fill="#0060BB"/>
<path d="M38.4375 48.6875C38.4375 50.7556 40.1194 52.4375 42.1875 52.4375C44.2556 52.4375 45.9375 50.7556 45.9375 48.6875C45.9375 48.5347 45.9047 48.3856 45.8859 48.2347C44.4037 47.105 42.1809 46.2837 39.5972 45.9922C38.8669 46.6869 38.4375 47.6516 38.4375 48.6875Z" fill="#0060BB"/>
<path d="M31.875 37.8397V21.5C31.875 20.4641 31.875 18 31.875 18C31.875 18 31.875 15.0359 31.875 14C31.875 12.9641 32.7141 12.125 33.75 12.125H37.5C38.5359 12.125 39.375 11.2859 39.375 10.25C39.375 9.21406 38.5359 8.375 37.5 8.375H33.75C32.7141 8.375 31.875 7.53594 31.875 6.5V3.6875C31.875 2.13406 30.6159 0.875 29.0625 0.875C27.5091 0.875 26.25 2.13406 26.25 3.6875V6.5C26.25 7.53594 25.4109 8.375 24.375 8.375H20.625C19.5891 8.375 18.75 9.21406 18.75 10.25C18.75 11.2859 19.5891 12.125 20.625 12.125H24.375C25.4109 12.125 26.25 12.9641 26.25 14C26.25 15.0359 25.4109 15.875 24.375 15.875H20.625C19.5891 15.875 18.75 16.7141 18.75 17.75C18.75 18.7859 19.5891 19.625 20.625 19.625H24.375C25.4109 19.625 26.25 20.4641 26.25 21.5V45.0716L31.875 37.8397Z" fill="#0060BB"/>
<path d="M50.625 42.8872V36.5C50.625 35.4641 51.4641 34.625 52.5 34.625H56.25C57.2859 34.625 58.125 33.7859 58.125 32.75C58.125 31.7141 57.2859 30.875 56.25 30.875H52.5C51.4641 30.875 50.625 30.0359 50.625 29C50.625 27.9641 51.4641 27.125 52.5 27.125H56.25C57.2859 27.125 58.125 26.2859 58.125 25.25C58.125 24.2141 57.2859 23.375 56.25 23.375H52.5C51.4641 23.375 50.625 22.5359 50.625 21.5V15.875C50.625 14.3216 49.3659 13.0625 47.8125 13.0625C46.2591 13.0625 45 14.3216 45 15.875V22.4375C45 23.4734 44.1609 24.3125 43.125 24.3125H39.375C38.3391 24.3125 37.5 25.1516 37.5 26.1875C37.5 27.2234 38.3391 28.0625 39.375 28.0625H43.125C44.1609 28.0625 45 28.9016 45 29.9375V35.5044L50.625 42.8872Z" fill="#0060BB"/>
<path d="M59.0625 50.5625H57.6525L44.6484 33.4953C43.3988 31.8547 41.4206 30.875 39.3572 30.875C37.3191 30.875 35.3559 31.835 34.1063 33.4428L25.7756 44.1547L22.5384 39.74C21.765 38.6853 20.7441 37.8575 19.5909 37.2997L23.1759 27.98C23.3494 27.5281 23.4375 27.0538 23.4375 26.57V26.3628C23.4375 24.1981 21.6769 22.4375 19.5122 22.4375C17.5369 22.4375 15.8616 23.9159 15.6178 25.8753L15.3713 27.845L14.5219 22.4656C14.1759 20.2766 12.3169 18.6875 10.1006 18.6875C7.63313 18.6875 5.625 20.6956 5.625 23.1631V23.7378C5.625 24.2187 5.70187 24.695 5.85469 25.1534L6.55687 27.26C6.20813 27.1737 5.84906 27.125 5.48438 27.125C2.9775 27.125 0.9375 29.1641 0.9375 31.6709V32.1922C0.9375 33.4062 1.41 34.5481 2.26875 35.4069L8.54625 41.6844L3.21938 50.5625H0.9375V52.4375H26.3728C27.1322 55.6569 31.7409 58.0625 37.5 58.0625C43.2591 58.0625 47.8678 55.6569 48.6272 52.4375H59.0625V50.5625ZM17.4787 26.1088C17.6062 25.0841 18.4809 24.3125 19.5122 24.3125C20.6437 24.3125 21.5625 25.2322 21.5625 26.3628V26.57C21.5625 26.8222 21.5166 27.0697 21.4256 27.3059L17.8172 36.6884C17.4647 36.6116 17.1066 36.5637 16.7447 36.5356L16.4269 34.5228L17.4787 26.1088ZM7.5 23.1631C7.5 21.7297 8.66625 20.5625 10.1006 20.5625C11.3888 20.5625 12.4688 21.4859 12.6703 22.7581L14.2397 32.6947L11.1975 24.0031L9.42656 24.6228L13.3088 35.7134L9.35437 29.2887C9.27094 29.1528 9.17625 29.0263 9.07969 28.9016L7.63313 24.5619C7.545 24.2947 7.5 24.0181 7.5 23.7388V23.1631ZM2.8125 32.1922V31.6709C2.8125 30.1981 4.01062 29 5.48438 29C6.40406 29 7.27594 29.4875 7.75875 30.2712L12.2334 37.5406C11.9325 37.7113 11.6437 37.9034 11.3663 38.1125L6.38344 31.2612L4.8675 32.3647L10.0041 39.4278C9.84375 39.6238 9.70031 39.8338 9.55875 40.0456L3.59438 34.0812C3.09 33.5759 2.8125 32.9056 2.8125 32.1922ZM10.9556 41.3141C12.0431 39.5009 14.0316 38.375 16.1456 38.375C18.0666 38.375 19.8909 39.2994 21.0262 40.8481L27.0413 49.0513C26.7206 49.5284 26.4966 50.0347 26.3728 50.5625H5.40562L10.9556 41.3141ZM37.5 56.1875C32.4178 56.1875 28.125 54.0406 28.125 51.5C28.125 48.9594 32.4178 46.8125 37.5 46.8125C42.5822 46.8125 46.875 48.9594 46.875 51.5C46.875 54.0406 42.5822 56.1875 37.5 56.1875ZM37.5 44.9375C33.6778 44.9375 30.3656 45.9997 28.3416 47.6534L26.9288 45.7259L35.5866 34.5941C36.4847 33.4391 37.8947 32.75 39.3572 32.75C40.8384 32.75 42.2588 33.4531 43.1559 34.6316L55.2938 50.5625H48.6272C47.8678 47.3431 43.26 44.9375 37.5 44.9375Z" fill="#002446"/>
<path d="M41.6655 35.7688C41.1209 35.0525 40.2584 34.625 39.3574 34.625C38.4696 34.625 37.6137 35.0431 37.0671 35.7453L34.7402 38.7369L36.2196 39.8881L38.5465 36.8975C38.9365 36.3969 39.7915 36.4016 40.173 36.905L43.1562 40.8181L44.6477 39.6819L41.6655 35.7688Z" fill="#002446"/>
<path d="M44.5615 42.6917L46.052 41.5556L47.4813 43.4308L45.9909 44.5669L44.5615 42.6917Z" fill="#002446"/>
<path d="M8.99023 48.2258L10.1163 46.3518L11.7235 47.3176L10.5974 49.1916L8.99023 48.2258Z" fill="#002446"/>
<path d="M12.5627 42.2787L11.2559 44.4556L12.8637 45.4203L14.1705 43.2434C14.673 42.4053 15.6977 41.9609 16.6634 42.1849L17.0862 40.3587C15.3424 39.9518 13.4759 40.7571 12.5627 42.2787Z" fill="#002446"/>
</svg>
