<svg width="82" height="33" viewBox="0 0 82 33" fill="none" xmlns="http://www.w3.org/2000/svg">
<path d="M12.788 1.232C11.924 1.28 11.288 1.376 10.88 1.52C10.496 1.664 10.232 1.94 10.088 2.348C9.944 2.756 9.872 3.416 9.872 4.328V22.904C9.872 23.576 9.92 24.068 10.016 24.38C10.112 24.692 10.28 24.908 10.52 25.028C10.76 25.124 11.156 25.172 11.708 25.172H12.896C13.736 25.172 14.648 24.752 15.632 23.912C16.616 23.072 17.504 21.968 18.296 20.6C19.088 19.208 19.616 17.768 19.88 16.28H20.708C20.636 17.144 20.6 18.248 20.6 19.592C20.6 22.184 20.684 24.32 20.852 26C19.22 25.928 16.472 25.892 12.608 25.892C6.992 25.892 2.792 25.928 0.00800003 26V25.28C0.776 25.232 1.328 25.136 1.664 24.992C2.024 24.848 2.264 24.572 2.384 24.164C2.504 23.756 2.564 23.096 2.564 22.184V4.328C2.564 3.416 2.492 2.756 2.348 2.348C2.228 1.94 2 1.664 1.664 1.52C1.328 1.376 0.776 1.28 0.00800003 1.232V0.512C1.376 0.583999 3.512 0.619998 6.416 0.619998C9.176 0.619998 11.3 0.583999 12.788 0.512V1.232ZM31.9032 6.812C34.8552 6.812 37.1352 7.592 38.7432 9.152C40.3512 10.688 41.1552 13.196 41.1552 16.676C41.1552 20.156 40.3512 22.664 38.7432 24.2C37.1352 25.736 34.8552 26.504 31.9032 26.504C28.9512 26.504 26.6712 25.736 25.0632 24.2C23.4552 22.664 22.6512 20.156 22.6512 16.676C22.6512 13.196 23.4552 10.688 25.0632 9.152C26.6712 7.592 28.9512 6.812 31.9032 6.812ZM31.9032 7.532C31.1352 7.532 30.5232 8.288 30.0672 9.8C29.6112 11.312 29.3832 13.604 29.3832 16.676C29.3832 19.748 29.6112 22.04 30.0672 23.552C30.5232 25.04 31.1352 25.784 31.9032 25.784C32.6712 25.784 33.2832 25.04 33.7392 23.552C34.1952 22.04 34.4232 19.748 34.4232 16.676C34.4232 13.604 34.1952 11.312 33.7392 9.8C33.2832 8.288 32.6712 7.532 31.9032 7.532ZM60.8533 10.952C60.3493 10.952 59.9053 10.784 59.5213 10.448C59.1613 10.088 58.9813 9.596 58.9813 8.972C58.9813 8.396 59.1493 7.772 59.4853 7.1C58.4293 7.532 57.6493 8.144 57.1453 8.936C58.0333 9.872 58.4773 11.084 58.4773 12.572C58.4773 14.468 57.7693 15.908 56.3533 16.892C54.9613 17.852 53.0893 18.332 50.7373 18.332C50.2813 18.332 49.9453 18.32 49.7293 18.296C49.1053 18.728 48.7933 19.232 48.7933 19.808C48.7933 20.576 49.2253 20.96 50.0893 20.96H53.5813C56.0293 20.96 57.9373 21.38 59.3053 22.22C60.6973 23.036 61.3933 24.32 61.3933 26.072C61.3933 27.32 60.9853 28.448 60.1693 29.456C59.3773 30.464 58.1413 31.268 56.4613 31.868C54.8053 32.468 52.7293 32.768 50.2333 32.768C47.7613 32.768 45.8173 32.492 44.4013 31.94C42.9853 31.388 42.2773 30.608 42.2773 29.6C42.2773 28.904 42.6253 28.268 43.3213 27.692C44.0173 27.116 45.0733 26.66 46.4893 26.324L46.8493 26.9C46.2013 27.692 45.8773 28.46 45.8773 29.204C45.8773 30.14 46.2973 30.86 47.1373 31.364C48.0013 31.892 49.2013 32.156 50.7373 32.156C52.3213 32.156 53.5333 31.832 54.3733 31.184C55.2373 30.56 55.6693 29.72 55.6693 28.664C55.6693 27.92 55.3813 27.32 54.8053 26.864C54.2533 26.432 53.2693 26.216 51.8533 26.216H49.9093C48.2773 26.216 47.0293 25.904 46.1653 25.28C45.3013 24.656 44.8693 23.816 44.8693 22.76C44.8693 21.8 45.2053 20.96 45.8773 20.24C46.5733 19.52 47.5693 18.848 48.8653 18.224C47.0413 17.984 45.6013 17.396 44.5453 16.46C43.5133 15.5 42.9973 14.204 42.9973 12.572C42.9973 10.676 43.6933 9.248 45.0853 8.288C46.5013 7.304 48.3853 6.812 50.7373 6.812C53.2573 6.812 55.2013 7.34 56.5693 8.396C57.0253 7.772 57.5773 7.28 58.2253 6.92C58.8733 6.56 59.5573 6.38 60.2773 6.38C61.0693 6.38 61.6813 6.608 62.1133 7.064C62.5453 7.496 62.7613 8.06 62.7613 8.756C62.7613 9.428 62.5813 9.968 62.2213 10.376C61.8613 10.76 61.4053 10.952 60.8533 10.952ZM50.7373 17.684C51.2173 17.684 51.5773 17.3 51.8173 16.532C52.0813 15.74 52.2133 14.42 52.2133 12.572C52.2133 10.724 52.0813 9.416 51.8173 8.648C51.5773 7.856 51.2173 7.46 50.7373 7.46C50.2573 7.46 49.8853 7.856 49.6213 8.648C49.3813 9.416 49.2613 10.724 49.2613 12.572C49.2613 14.42 49.3813 15.74 49.6213 16.532C49.8853 17.3 50.2573 17.684 50.7373 17.684ZM72.4735 6.812C75.4255 6.812 77.7055 7.592 79.3135 9.152C80.9215 10.688 81.7255 13.196 81.7255 16.676C81.7255 20.156 80.9215 22.664 79.3135 24.2C77.7055 25.736 75.4255 26.504 72.4735 26.504C69.5215 26.504 67.2415 25.736 65.6335 24.2C64.0255 22.664 63.2215 20.156 63.2215 16.676C63.2215 13.196 64.0255 10.688 65.6335 9.152C67.2415 7.592 69.5215 6.812 72.4735 6.812ZM72.4735 7.532C71.7055 7.532 71.0935 8.288 70.6375 9.8C70.1815 11.312 69.9535 13.604 69.9535 16.676C69.9535 19.748 70.1815 22.04 70.6375 23.552C71.0935 25.04 71.7055 25.784 72.4735 25.784C73.2415 25.784 73.8535 25.04 74.3095 23.552C74.7655 22.04 74.9935 19.748 74.9935 16.676C74.9935 13.604 74.7655 11.312 74.3095 9.8C73.8535 8.288 73.2415 7.532 72.4735 7.532Z" fill="white"/>
</svg>
