<svg width="103" height="40" viewBox="0 0 103 40" fill="none" xmlns="http://www.w3.org/2000/svg">
<path d="M16.1084 0.892856C15.0194 0.952379 14.2178 1.07143 13.7035 1.25C13.2195 1.42857 12.8867 1.77083 12.7052 2.27679C12.5237 2.78274 12.433 3.60119 12.433 4.73214V27.7679C12.433 28.6012 12.4935 29.2113 12.6145 29.5982C12.7355 29.9851 12.9472 30.253 13.2498 30.4018C13.5523 30.5208 14.0514 30.5804 14.7472 30.5804H16.2446C17.3033 30.5804 18.4528 30.0595 19.6931 29.0179C20.9334 27.9762 22.0527 26.6071 23.0509 24.9107C24.0492 23.1845 24.7147 21.3988 25.0475 19.5536H26.0911C26.0004 20.625 25.955 21.994 25.955 23.6607C25.955 26.875 26.0609 29.5238 26.2726 31.6071C24.2156 31.5179 20.7519 31.4732 15.8816 31.4732C8.80292 31.4732 3.50907 31.5179 0 31.6071V30.7143C0.968018 30.6548 1.66378 30.5357 2.08729 30.3571C2.54105 30.1786 2.84355 29.8363 2.99481 29.3304C3.14606 28.8244 3.22169 28.0059 3.22169 26.875V4.73214C3.22169 3.60119 3.13093 2.78274 2.94943 2.27679C2.79818 1.77083 2.5108 1.42857 2.08729 1.25C1.66378 1.07143 0.968018 0.952379 0 0.892856V0C1.72428 0.0892846 4.41658 0.133927 8.0769 0.133927C11.5557 0.133927 14.2329 0.0892846 16.1084 0V0.892856Z" fill="white"/>
<path d="M40.2019 7.8125C43.9228 7.8125 46.7966 8.77976 48.8234 10.7143C50.8501 12.619 51.8635 15.7292 51.8635 20.0446C51.8635 24.3601 50.8501 27.4702 48.8234 29.375C46.7966 31.2798 43.9228 32.2321 40.2019 32.2321C36.4811 32.2321 33.6073 31.2798 31.5805 29.375C29.5537 27.4702 28.5403 24.3601 28.5403 20.0446C28.5403 15.7292 29.5537 12.619 31.5805 10.7143C33.6073 8.77976 36.4811 7.8125 40.2019 7.8125ZM40.2019 8.70536C39.2339 8.70536 38.4625 9.64286 37.8878 11.5179C37.313 13.3929 37.0256 16.2351 37.0256 20.0446C37.0256 23.8542 37.313 26.6964 37.8878 28.5714C38.4625 30.4167 39.2339 31.3393 40.2019 31.3393C41.17 31.3393 41.9414 30.4167 42.5161 28.5714C43.0909 26.6964 43.3783 23.8542 43.3783 20.0446C43.3783 16.2351 43.0909 13.3929 42.5161 11.5179C41.9414 9.64286 41.17 8.70536 40.2019 8.70536Z" fill="white"/>
<path d="M76.6919 12.9464C76.0567 12.9464 75.497 12.7381 75.013 12.3214C74.5593 11.875 74.3324 11.2649 74.3324 10.4911C74.3324 9.77679 74.5441 9.00298 74.9677 8.16964C73.6366 8.70536 72.6535 9.46428 72.0182 10.4464C73.1375 11.6071 73.6971 13.1101 73.6971 14.9554C73.6971 17.3065 72.8047 19.0923 71.02 20.3125C69.2654 21.503 66.9059 22.0982 63.9413 22.0982C63.3666 22.0982 62.9431 22.0833 62.6708 22.0536C61.8843 22.5893 61.491 23.2143 61.491 23.9286C61.491 24.881 62.0355 25.3571 63.1246 25.3571H67.526C70.6116 25.3571 73.0165 25.878 74.7408 26.9196C76.4953 27.9315 77.3726 29.5238 77.3726 31.6964C77.3726 33.244 76.8583 34.6429 75.8298 35.8929C74.8315 37.1429 73.2736 38.1399 71.1561 38.8839C69.0688 39.628 66.4521 40 63.3061 40C60.1903 40 57.74 39.6577 55.9552 38.9732C54.1704 38.2887 53.278 37.3214 53.278 36.0714C53.278 35.2083 53.7166 34.4196 54.5939 33.7054C55.4712 32.9911 56.8022 32.4256 58.587 32.0089L59.0407 32.7232C58.224 33.7054 57.8156 34.6577 57.8156 35.5804C57.8156 36.7411 58.345 37.6339 59.4037 38.2589C60.4928 38.9137 62.0053 39.2411 63.9413 39.2411C65.9379 39.2411 67.4655 38.8393 68.5243 38.0357C69.6133 37.2619 70.1578 36.2202 70.1578 34.9107C70.1578 33.9881 69.7948 33.244 69.0688 32.6786C68.373 32.1429 67.1328 31.875 65.348 31.875H62.8977C60.8406 31.875 59.2676 31.4881 58.1786 30.7143C57.0896 29.9405 56.5451 28.8988 56.5451 27.5893C56.5451 26.3988 56.9686 25.3571 57.8156 24.4643C58.6928 23.5714 59.9482 22.7381 61.5818 21.9643C59.2827 21.6667 57.4677 20.9375 56.1367 19.7768C54.8359 18.5863 54.1855 16.9792 54.1855 14.9554C54.1855 12.6042 55.0628 10.8333 56.8173 9.64286C58.6021 8.42262 60.9768 7.8125 63.9413 7.8125C67.1176 7.8125 69.5679 8.46726 71.2922 9.77679C71.867 9.00298 72.5627 8.39285 73.3795 7.94643C74.1963 7.5 75.0584 7.27678 75.9659 7.27678C76.9642 7.27678 77.7356 7.55952 78.2801 8.125C78.8246 8.66071 79.0969 9.36012 79.0969 10.2232C79.0969 11.0565 78.87 11.7262 78.4162 12.2321C77.9625 12.7083 77.3877 12.9464 76.6919 12.9464ZM63.9413 21.2946C64.5463 21.2946 65.0001 20.8185 65.3026 19.8661C65.6354 18.8839 65.8017 17.247 65.8017 14.9554C65.8017 12.6637 65.6354 11.0417 65.3026 10.0893C65.0001 9.10714 64.5463 8.61607 63.9413 8.61607C63.3363 8.61607 62.8674 9.10714 62.5347 10.0893C62.2322 11.0417 62.0809 12.6637 62.0809 14.9554C62.0809 17.247 62.2322 18.8839 62.5347 19.8661C62.8674 20.8185 63.3363 21.2946 63.9413 21.2946Z" fill="white"/>
<path d="M91.3384 7.8125C95.0592 7.8125 97.933 8.77976 99.9598 10.7143C101.987 12.619 103 15.7292 103 20.0446C103 24.3601 101.987 27.4702 99.9598 29.375C97.933 31.2798 95.0592 32.2321 91.3384 32.2321C87.6176 32.2321 84.7438 31.2798 82.717 29.375C80.6902 27.4702 79.6768 24.3601 79.6768 20.0446C79.6768 15.7292 80.6902 12.619 82.717 10.7143C84.7438 8.77976 87.6176 7.8125 91.3384 7.8125ZM91.3384 8.70536C90.3704 8.70536 89.599 9.64286 89.0242 11.5179C88.4495 13.3929 88.1621 16.2351 88.1621 20.0446C88.1621 23.8542 88.4495 26.6964 89.0242 28.5714C89.599 30.4167 90.3704 31.3393 91.3384 31.3393C92.3064 31.3393 93.0778 30.4167 93.6526 28.5714C94.2273 26.6964 94.5147 23.8542 94.5147 20.0446C94.5147 16.2351 94.2273 13.3929 93.6526 11.5179C93.0778 9.64286 92.3064 8.70536 91.3384 8.70536Z" fill="white"/>
</svg>
