<svg width="82" height="33" viewBox="0 0 82 33" fill="none" xmlns="http://www.w3.org/2000/svg">
<path d="M12.788 0.512V1.232C11.972 1.256 11.348 1.352 10.916 1.52C10.508 1.664 10.232 1.952 10.088 2.384C9.944 2.792 9.872 3.44 9.872 4.328V22.904C9.872 23.552 9.92 24.044 10.016 24.38C10.112 24.692 10.292 24.908 10.556 25.028C10.82 25.124 11.204 25.172 11.708 25.172H12.896C13.736 25.172 14.648 24.752 15.632 23.912C16.616 23.072 17.504 21.98 18.296 20.636C19.088 19.268 19.616 17.816 19.88 16.28H20.708C20.636 17.144 20.6 18.248 20.6 19.592C20.6 20.216 20.612 21.128 20.636 22.328C20.66 23.504 20.732 24.728 20.852 26C19.628 25.952 18.248 25.928 16.712 25.928C15.176 25.904 13.808 25.892 12.608 25.892C11.744 25.892 10.58 25.892 9.116 25.892C7.676 25.892 6.14 25.904 4.508 25.928C2.9 25.928 1.4 25.952 0.00800003 26V25.28C0.752 25.232 1.304 25.136 1.664 24.992C2.024 24.848 2.264 24.56 2.384 24.128C2.504 23.696 2.564 23.048 2.564 22.184V4.328C2.564 3.44 2.504 2.792 2.384 2.384C2.264 1.952 2.012 1.664 1.628 1.52C1.268 1.352 0.728 1.256 0.00800003 1.232V0.512C0.704 0.536 1.616 0.559999 2.744 0.583999C3.896 0.607999 5.12 0.619998 6.416 0.619998C7.616 0.619998 8.792 0.607999 9.944 0.583999C11.096 0.559999 12.044 0.536 12.788 0.512ZM31.9032 6.812C33.7752 6.812 35.3952 7.136 36.7632 7.784C38.1552 8.408 39.2352 9.44 40.0032 10.88C40.7712 12.32 41.1552 14.252 41.1552 16.676C41.1552 19.1 40.7712 21.032 40.0032 22.472C39.2352 23.912 38.1552 24.944 36.7632 25.568C35.3952 26.192 33.7752 26.504 31.9032 26.504C30.0552 26.504 28.4352 26.192 27.0432 25.568C25.6512 24.944 24.5712 23.912 23.8032 22.472C23.0352 21.032 22.6512 19.1 22.6512 16.676C22.6512 14.252 23.0352 12.32 23.8032 10.88C24.5712 9.44 25.6512 8.408 27.0432 7.784C28.4352 7.136 30.0552 6.812 31.9032 6.812ZM31.9032 7.532C31.1832 7.532 30.5832 8.252 30.1032 9.692C29.6232 11.132 29.3832 13.46 29.3832 16.676C29.3832 19.892 29.6232 22.22 30.1032 23.66C30.5832 25.076 31.1832 25.784 31.9032 25.784C32.6232 25.784 33.2232 25.076 33.7032 23.66C34.1832 22.22 34.4232 19.892 34.4232 16.676C34.4232 13.46 34.1832 11.132 33.7032 9.692C33.2232 8.252 32.6232 7.532 31.9032 7.532ZM50.2333 32.768C48.6013 32.768 47.1853 32.636 45.9853 32.372C44.8093 32.132 43.8973 31.772 43.2493 31.292C42.6013 30.836 42.2773 30.272 42.2773 29.6C42.2773 28.928 42.6133 28.292 43.2853 27.692C43.9573 27.116 45.0253 26.66 46.4893 26.324L46.8493 26.9C46.4653 27.356 46.2013 27.764 46.0573 28.124C45.9373 28.508 45.8773 28.868 45.8773 29.204C45.8773 30.14 46.2973 30.86 47.1373 31.364C48.0013 31.892 49.2013 32.156 50.7373 32.156C51.8173 32.156 52.7173 32 53.4373 31.688C54.1813 31.4 54.7333 30.992 55.0933 30.464C55.4773 29.936 55.6693 29.336 55.6693 28.664C55.6693 27.992 55.4173 27.416 54.9133 26.936C54.4093 26.456 53.3893 26.216 51.8533 26.216H49.9093C48.8053 26.216 47.8813 26.072 47.1373 25.784C46.3933 25.496 45.8293 25.1 45.4453 24.596C45.0613 24.068 44.8693 23.456 44.8693 22.76C44.8693 21.632 45.3133 20.684 46.2013 19.916C47.0893 19.148 48.2293 18.464 49.6213 17.864L49.9453 18.152C49.7053 18.32 49.4533 18.524 49.1893 18.764C48.9253 19.004 48.7933 19.352 48.7933 19.808C48.7933 20.576 49.2253 20.96 50.0893 20.96H53.5813C55.9093 20.96 57.7933 21.356 59.2333 22.148C60.6733 22.916 61.3933 24.224 61.3933 26.072C61.3933 27.272 60.9973 28.376 60.2053 29.384C59.4373 30.416 58.2373 31.232 56.6053 31.832C54.9733 32.456 52.8493 32.768 50.2333 32.768ZM50.7373 18.332C48.5053 18.332 46.6573 17.864 45.1933 16.928C43.7293 15.992 42.9973 14.54 42.9973 12.572C42.9973 10.58 43.7293 9.128 45.1933 8.216C46.6573 7.28 48.5053 6.812 50.7373 6.812C52.9693 6.812 54.8173 7.28 56.2813 8.216C57.7453 9.128 58.4773 10.58 58.4773 12.572C58.4773 14.54 57.7453 15.992 56.2813 16.928C54.8173 17.864 52.9693 18.332 50.7373 18.332ZM50.7373 17.684C51.1933 17.684 51.5533 17.312 51.8173 16.568C52.0813 15.824 52.2133 14.492 52.2133 12.572C52.2133 10.652 52.0813 9.32 51.8173 8.576C51.5533 7.832 51.1933 7.46 50.7373 7.46C50.2813 7.46 49.9213 7.832 49.6573 8.576C49.3933 9.32 49.2613 10.652 49.2613 12.572C49.2613 14.492 49.3933 15.824 49.6573 16.568C49.9213 17.312 50.2813 17.684 50.7373 17.684ZM56.6053 9.98L55.8493 9.728C56.2333 8.72 56.8213 7.916 57.6133 7.316C58.4293 6.692 59.3173 6.38 60.2773 6.38C61.1173 6.38 61.7413 6.608 62.1493 7.064C62.5573 7.52 62.7613 8.084 62.7613 8.756C62.7613 9.452 62.5693 9.992 62.1853 10.376C61.8253 10.76 61.3813 10.952 60.8533 10.952C60.3973 10.952 59.9773 10.796 59.5933 10.484C59.2333 10.172 59.0293 9.704 58.9813 9.08C58.9333 8.456 59.1613 7.664 59.6653 6.704L59.8093 6.956C58.9693 7.268 58.3093 7.652 57.8293 8.108C57.3493 8.564 56.9413 9.188 56.6053 9.98ZM72.4735 6.812C74.3455 6.812 75.9655 7.136 77.3335 7.784C78.7255 8.408 79.8055 9.44 80.5735 10.88C81.3415 12.32 81.7255 14.252 81.7255 16.676C81.7255 19.1 81.3415 21.032 80.5735 22.472C79.8055 23.912 78.7255 24.944 77.3335 25.568C75.9655 26.192 74.3455 26.504 72.4735 26.504C70.6255 26.504 69.0055 26.192 67.6135 25.568C66.2215 24.944 65.1415 23.912 64.3735 22.472C63.6055 21.032 63.2215 19.1 63.2215 16.676C63.2215 14.252 63.6055 12.32 64.3735 10.88C65.1415 9.44 66.2215 8.408 67.6135 7.784C69.0055 7.136 70.6255 6.812 72.4735 6.812ZM72.4735 7.532C71.7535 7.532 71.1535 8.252 70.6735 9.692C70.1935 11.132 69.9535 13.46 69.9535 16.676C69.9535 19.892 70.1935 22.22 70.6735 23.66C71.1535 25.076 71.7535 25.784 72.4735 25.784C73.1935 25.784 73.7935 25.076 74.2735 23.66C74.7535 22.22 74.9935 19.892 74.9935 16.676C74.9935 13.46 74.7535 11.132 74.2735 9.692C73.7935 8.252 73.1935 7.532 72.4735 7.532Z" fill="#002446"/>
</svg>
