<svg width="208" height="143" viewBox="0 0 208 143" fill="none" xmlns="http://www.w3.org/2000/svg">
<path d="M176.054 62.0926V142.605H25.5494V62.0926L100.805 17.1493L176.054 62.0926Z" fill="#F1F2F2"/>
<path d="M176.055 142.938H25.5298C25.4403 142.938 25.3544 142.903 25.2911 142.841C25.2278 142.778 25.1923 142.693 25.1923 142.605V62.0925C25.1926 62.0343 25.2084 61.9773 25.238 61.927C25.2676 61.8767 25.31 61.8349 25.361 61.8058L100.651 16.8625C100.703 16.83 100.764 16.8127 100.826 16.8127C100.888 16.8127 100.949 16.83 101.002 16.8625L176.251 61.8058C176.3 61.8357 176.341 61.8779 176.37 61.9281C176.398 61.9783 176.413 62.035 176.413 62.0925V142.605C176.413 142.651 176.403 142.696 176.385 142.737C176.367 142.779 176.34 142.817 176.307 142.848C176.273 142.879 176.233 142.904 176.19 142.919C176.147 142.935 176.101 142.941 176.055 142.938ZM25.8875 142.272H175.738V62.2659L100.813 17.5226L25.8875 62.2659V142.272Z" fill="#231F20"/>
<path d="M133.489 28.5702C133.489 28.5702 136.965 22.1564 136.513 17.9028C136.061 13.6491 131.788 12.8891 131.788 12.8891C131.788 12.8891 121.481 7.5887 119.091 3.9151L119.172 9.28883C117.301 8.65055 115.574 7.65618 114.089 6.36195C114.089 6.36195 112.483 9.10215 114.218 11.5423C114.218 11.5423 111.18 12.129 109.182 10.1422C109.182 10.1422 110.201 18.2095 117.404 19.2496C122.149 19.9029 128.325 28.8836 133.489 28.5702Z" fill="white"/>
<path d="M133.226 28.9103C130.377 28.9103 127.319 26.3768 124.363 23.9299C121.825 21.8298 119.435 19.843 117.37 19.5496C109.999 18.4829 108.872 10.2156 108.858 10.1489C108.85 10.0803 108.864 10.0109 108.898 9.95041C108.932 9.88993 108.984 9.84132 109.047 9.8113C109.11 9.78128 109.181 9.77134 109.25 9.78286C109.319 9.79437 109.382 9.82676 109.432 9.87556C110.003 10.3764 110.674 10.7537 111.402 10.9834C112.13 11.213 112.898 11.2899 113.657 11.209C112.307 8.76215 113.745 6.24196 113.813 6.13529C113.836 6.09233 113.869 6.0551 113.909 6.02633C113.949 5.99756 113.995 5.97798 114.043 5.96903C114.092 5.96008 114.142 5.96198 114.189 5.9746C114.237 5.98722 114.281 6.01023 114.319 6.04195C115.669 7.18234 117.196 8.10081 118.841 8.76215L118.767 3.86179C118.764 3.78999 118.786 3.71939 118.829 3.66134C118.872 3.60329 118.933 3.56117 119.003 3.54176C119.074 3.5195 119.149 3.52048 119.219 3.54456C119.288 3.56863 119.348 3.61448 119.388 3.67511C121.629 7.11536 131.201 12.1357 131.916 12.5091C132.436 12.6224 136.398 13.6025 136.85 17.8428C137.309 22.1831 133.928 28.4703 133.786 28.737C133.759 28.7867 133.719 28.8287 133.67 28.859C133.622 28.8894 133.566 28.907 133.509 28.9103H133.226ZM109.709 10.9623C110.222 13.0425 112.017 18.0962 117.471 18.8896C119.719 19.2163 122.196 21.2564 124.795 23.4166C127.664 25.7901 130.62 28.2436 133.226 28.2436H133.28C133.813 27.2102 136.574 21.6631 136.175 17.9028C135.757 13.9025 131.903 13.2358 131.741 13.1825L131.646 13.1491C131.248 12.9491 122.628 8.48213 119.456 4.88853L119.523 9.24885C119.523 9.29997 119.512 9.35049 119.49 9.39666C119.468 9.44283 119.435 9.48347 119.395 9.51554C119.354 9.54772 119.305 9.56991 119.254 9.58033C119.202 9.59075 119.149 9.58911 119.098 9.57554C117.312 8.9731 115.658 8.04094 114.224 6.82867C113.878 7.53418 113.722 8.31629 113.771 9.09901C113.821 9.88173 114.075 10.6385 114.508 11.2957C114.538 11.3428 114.557 11.3962 114.563 11.4518C114.569 11.5073 114.562 11.5634 114.542 11.6157C114.52 11.6669 114.486 11.712 114.442 11.747C114.399 11.7819 114.347 11.8055 114.292 11.8157C112.71 12.086 111.082 11.7829 109.709 10.9623Z" fill="#231F20"/>
<path d="M128.143 94.9684C128.143 94.9684 144.755 75.0936 147.502 59.9125C150.25 44.7314 140.651 41.2445 137.303 40.111C133.955 38.9776 116.506 31.8304 107.745 38.0709C98.9833 44.3114 90.2556 83.2409 90.2556 83.2409L128.143 94.9684Z" fill="#0060BB"/>
<path d="M68.2498 114.75L86.117 92.7482C86.117 92.7482 98.5505 77.0871 91.6048 75.4136C91.6048 75.4136 81.9658 76.6537 66.218 82.0808C61.5403 83.6876 53.501 102.036 48.425 114.75H68.2498Z" fill="#231F20"/>
<path d="M68.2496 115.083H48.3911C48.3363 115.083 48.2823 115.07 48.234 115.045C48.1857 115.019 48.1445 114.982 48.1143 114.937C48.0895 114.889 48.0765 114.837 48.0765 114.783C48.0765 114.73 48.0895 114.677 48.1143 114.63C53.7438 100.522 61.4388 83.361 66.1098 81.7543C81.7023 76.4205 91.4628 75.0871 91.5641 75.0871H91.6856C92.1768 75.1732 92.6362 75.3863 93.0168 75.7049C93.3974 76.0235 93.6857 76.4361 93.8523 76.9006C95.4521 81.4342 86.7581 92.4617 86.3868 92.9017L68.5128 114.903C68.4875 114.953 68.4501 114.995 68.4042 115.026C68.3582 115.058 68.3051 115.077 68.2496 115.083ZM48.9243 114.417H68.0876L85.7996 92.515C85.8873 92.4084 94.6353 81.3142 93.1638 77.1272C93.0382 76.7771 92.8209 76.4661 92.5339 76.226C92.247 75.9859 91.9007 75.8252 91.5303 75.7605C90.6798 75.8738 81.1488 77.2739 66.2786 82.3876C62.8496 83.5677 56.6936 94.9352 48.8906 114.417H48.9243Z" fill="#231F20"/>
<path d="M98.1725 114.75L102.709 103.836C102.709 103.836 113.779 107.109 121.163 104.363C126.36 102.429 127.947 95.7952 130.296 90.4215C130.296 90.4215 99.2458 83.1543 92.3135 80.1941C92.3135 80.1941 91.8815 80.1941 83.9368 88.4347C80.3863 92.135 77.558 103.409 75.5195 114.75H98.1725Z" fill="#231F20"/>
<path d="M98.1733 115.083H75.5203C75.4701 115.084 75.4205 115.073 75.3749 115.053C75.3294 115.032 75.2891 115.001 75.257 114.963C75.2268 114.926 75.2046 114.884 75.1918 114.838C75.179 114.792 75.1759 114.744 75.1828 114.697C77.7748 100.296 80.6435 91.3616 83.6945 88.208C91.7405 79.8341 92.1725 79.8541 92.3278 79.8608C92.368 79.8545 92.409 79.8545 92.4493 79.8608C99.3005 82.8343 130.067 90.0282 130.351 90.1015C130.398 90.1131 130.442 90.1346 130.481 90.1645C130.519 90.1944 130.551 90.232 130.573 90.2749C130.593 90.3189 130.604 90.3666 130.604 90.4149C130.604 90.4632 130.593 90.5109 130.573 90.5549C130.135 91.555 129.716 92.6217 129.311 93.6484C127.495 98.2688 125.612 103.049 121.245 104.676C114.427 107.209 104.721 104.743 102.871 104.236L98.45 114.903C98.424 114.955 98.3847 114.998 98.3361 115.03C98.2875 115.062 98.2313 115.08 98.1733 115.083ZM75.8983 114.417H97.9505L102.406 103.709C102.436 103.632 102.495 103.57 102.57 103.534C102.645 103.498 102.731 103.492 102.811 103.516C102.925 103.516 113.86 106.723 121.036 104.049C125.086 102.536 126.942 97.8954 128.71 93.3818C129.068 92.4684 129.439 91.5283 129.824 90.6282C126.24 89.7815 99.1048 83.341 92.3413 80.5408C91.9565 80.8275 90.3635 82.2076 84.1738 88.6414C81.2915 91.675 78.4363 100.576 75.9185 114.417H75.8983Z" fill="#231F20"/>
<path d="M107.745 38.0709C107.745 38.0709 100.32 46.0715 96.1755 50.0718C92.031 54.0721 83.904 59.2525 83.904 59.2525C83.904 59.2525 59.6715 61.1793 59.415 61.5593C59.1585 61.9393 59.415 69.8866 59.415 69.8866C59.415 69.8866 83.094 74.3736 87.414 73.6002C91.734 72.8268 101.927 66.0596 101.927 66.0596L107.745 38.0709Z" fill="#0060BB"/>
<path d="M118.059 34.0973L117.31 41.6245C117.31 41.6245 118.66 45.9448 123.803 45.1714C128.947 44.3981 129.878 40.9178 129.878 40.9178L133.213 26.21C133.213 26.21 130.128 24.0099 127.219 15.4093C127.219 15.4093 116.473 13.4091 116.101 17.5027C116.101 17.5027 113.982 24.8366 114.137 28.7102C114.279 32.4772 117.991 34.0373 118.059 34.0973Z" fill="white"/>
<path d="M122.622 45.5983C121.393 45.607 120.192 45.2392 119.184 44.5454C118.176 43.8517 117.41 42.8662 116.992 41.7247C116.982 41.683 116.982 41.6396 116.992 41.598L117.708 34.2641C115.298 32.9707 113.894 30.9305 113.806 28.6904C113.651 24.7968 115.696 17.6829 115.784 17.3562C115.818 17.0188 115.925 16.6927 116.099 16.4003C116.272 16.1079 116.508 15.8562 116.79 15.6628C119.49 13.6226 126.976 14.996 127.286 14.996C127.346 15.0079 127.402 15.035 127.448 15.0748C127.495 15.1145 127.529 15.1655 127.549 15.2227C130.371 23.5767 133.388 25.8368 133.422 25.8902C133.474 25.9291 133.513 25.9817 133.536 26.0419C133.559 26.1021 133.564 26.1673 133.55 26.2302L130.216 40.938C130.168 41.1046 129.136 44.6516 123.864 45.4516C123.454 45.5293 123.039 45.5783 122.622 45.5983ZM117.654 41.598C117.843 42.118 119.26 45.5316 123.729 44.8516C128.569 44.1182 129.52 40.8513 129.527 40.8513L132.814 26.3635C132.106 25.7568 129.439 23.1166 126.935 15.6961C125.747 15.4961 119.429 14.536 117.161 16.2361C116.948 16.3824 116.77 16.5738 116.64 16.7963C116.511 17.0188 116.433 17.267 116.412 17.5229C116.412 17.6562 114.299 24.8568 114.448 28.6837C114.562 31.5239 116.79 33.0774 118.106 33.7441C118.164 33.7714 118.218 33.8049 118.268 33.8441C118.305 33.8788 118.334 33.9216 118.351 33.969C118.369 34.0165 118.375 34.0673 118.369 34.1174L117.654 41.598Z" fill="#231F20"/>
<path d="M129.514 26.4633C129.745 25.7987 130.188 25.2257 130.776 24.8299C131.659 24.189 132.764 23.9205 133.847 24.0831C135.096 24.4298 135.731 25.9366 135.461 27.19C135.293 27.9413 134.935 28.6383 134.421 29.2156C133.906 29.7929 133.251 30.2315 132.518 30.4903C132.013 30.6377 131.483 30.6854 130.96 30.6305C130.436 30.5755 129.929 30.4192 129.467 30.1702" fill="white"/>
<path d="M131.39 30.9839C130.661 30.9873 129.943 30.8084 129.304 30.4638C129.265 30.4428 129.23 30.4144 129.203 30.3803C129.175 30.3461 129.154 30.3069 129.141 30.2648C129.129 30.2227 129.125 30.1785 129.129 30.1349C129.134 30.0913 129.148 30.049 129.169 30.0105C129.19 29.9719 129.219 29.9379 129.253 29.9104C129.288 29.8828 129.328 29.8623 129.37 29.8499C129.413 29.8375 129.458 29.8335 129.502 29.8382C129.546 29.8429 129.589 29.8561 129.628 29.8771C130.484 30.3349 131.488 30.4403 132.422 30.1705C133.096 29.9285 133.697 29.5223 134.169 28.9896C134.641 28.4569 134.969 27.815 135.122 27.1236C135.345 26.0768 134.839 24.7034 133.772 24.41C133.285 24.3339 132.787 24.3537 132.308 24.4681C131.828 24.5825 131.376 24.7894 130.978 25.0768C130.45 25.4279 130.054 25.941 129.851 26.5369C129.822 26.6253 129.759 26.6988 129.675 26.7413C129.592 26.7839 129.495 26.7918 129.405 26.7635C129.316 26.7353 129.241 26.673 129.198 26.5905C129.155 26.508 129.147 26.4119 129.176 26.3235C129.429 25.5905 129.917 24.9587 130.566 24.5234C131.045 24.1732 131.592 23.9224 132.172 23.7861C132.752 23.6497 133.353 23.6306 133.941 23.73C135.413 24.13 136.088 25.8635 135.797 27.2236C135.624 28.0442 135.24 28.807 134.682 29.4387C134.124 30.0704 133.411 30.5497 132.611 30.8305C132.214 30.941 131.802 30.9926 131.39 30.9839Z" fill="#231F20"/>
<path d="M121.988 22.7765C121.988 22.7765 118.896 26.3167 119.436 27.0635C119.976 27.8102 121.765 27.5702 121.765 27.5702" fill="white"/>
<path d="M121.136 27.9435C120.777 27.9818 120.414 27.942 120.072 27.8268C119.73 27.7116 119.418 27.5239 119.158 27.2768C118.557 26.4434 120.508 23.9432 121.73 22.6097C121.791 22.5553 121.87 22.5247 121.953 22.5239C122.035 22.5231 122.115 22.5521 122.177 22.6054C122.239 22.6586 122.28 22.7326 122.291 22.8132C122.301 22.8938 122.282 22.9756 122.236 23.0431C120.751 24.7499 119.57 26.5634 119.712 26.9301C120.015 27.3434 121.109 27.3701 121.737 27.2901C121.826 27.2786 121.917 27.3027 121.988 27.3571C122.06 27.4115 122.106 27.4917 122.118 27.5801C122.13 27.6685 122.105 27.7579 122.05 27.8285C121.995 27.8992 121.914 27.9453 121.824 27.9568C121.595 27.9652 121.365 27.9608 121.136 27.9435Z" fill="#231F20"/>
<path d="M127.602 22.3283C127.683 21.8339 127.463 21.3874 127.109 21.331C126.756 21.2745 126.404 21.6295 126.323 22.1238C126.242 22.6182 126.463 23.0647 126.816 23.1211C127.169 23.1776 127.521 22.8226 127.602 22.3283Z" fill="#231F20"/>
<path d="M119.158 22.6483C119.515 22.6361 119.791 22.2204 119.773 21.7199C119.756 21.2194 119.452 20.8237 119.094 20.836C118.736 20.8482 118.461 21.2639 118.478 21.7644C118.496 22.2649 118.8 22.6606 119.158 22.6483Z" fill="#231F20"/>
<path d="M118.058 34.0972C118.058 34.0972 122.689 35.6373 125.639 34.3305C125.639 34.3305 121.926 40.331 117.539 39.2576L118.058 34.0972Z" fill="#231F20"/>
<path d="M118.633 39.7242C118.239 39.7262 117.847 39.6792 117.465 39.5842C117.387 39.5642 117.319 39.5179 117.272 39.4533C117.226 39.3888 117.203 39.3101 117.209 39.2309L117.722 34.0705C117.726 34.0201 117.742 33.9714 117.768 33.9276C117.793 33.8838 117.828 33.8461 117.87 33.8172C117.916 33.7958 117.965 33.7848 118.015 33.7848C118.066 33.7848 118.115 33.7958 118.161 33.8172C118.208 33.8172 122.71 35.2973 125.505 34.0572C125.571 34.0294 125.644 34.0228 125.714 34.0383C125.785 34.0539 125.848 34.0908 125.896 34.1438C125.938 34.2009 125.961 34.2698 125.961 34.3405C125.961 34.4112 125.938 34.4801 125.896 34.5372C125.788 34.7372 122.656 39.7242 118.633 39.7242ZM117.911 38.9975C120.942 39.5242 123.648 36.4773 124.782 34.9972C122.359 35.5839 119.416 34.8706 118.35 34.5639L117.911 38.9975Z" fill="#231F20"/>
<path d="M118.119 24.1033H117.897L115.406 23.9099C114.693 23.8538 114.031 23.5203 113.567 22.9828C113.102 22.4452 112.873 21.7476 112.929 21.043L113.091 19.0429C113.099 18.9556 113.142 18.8751 113.21 18.8189C113.279 18.7628 113.367 18.7354 113.455 18.7429L120.651 19.3029C120.74 19.3125 120.822 19.3554 120.88 19.4229C120.909 19.4554 120.932 19.4934 120.946 19.5347C120.96 19.576 120.965 19.6196 120.961 19.6629L120.799 21.6631C120.743 22.3316 120.434 22.9547 119.934 23.4082C119.433 23.8616 118.778 24.1122 118.099 24.1099L118.119 24.1033ZM113.739 19.4363L113.604 21.0764C113.563 21.604 113.735 22.1261 114.083 22.5285C114.431 22.9309 114.926 23.1807 115.46 23.2232L117.951 23.4165C118.215 23.4407 118.482 23.4118 118.735 23.3316C118.987 23.2514 119.221 23.1216 119.422 22.9498C119.825 22.6136 120.08 22.1351 120.131 21.6164L120.259 19.9763L113.739 19.4363Z" fill="#231F20"/>
<path d="M127.069 24.8301H126.847L124.356 24.6301C123.643 24.5739 122.981 24.2405 122.517 23.7029C122.052 23.1654 121.823 22.4677 121.879 21.7632L122.041 19.763C122.044 19.7192 122.056 19.6765 122.076 19.6373C122.097 19.5981 122.124 19.5633 122.158 19.5348C122.192 19.5063 122.231 19.4847 122.274 19.4712C122.316 19.4578 122.361 19.4527 122.405 19.4563L129.601 20.0231C129.644 20.0264 129.687 20.0382 129.725 20.0579C129.764 20.0775 129.799 20.1045 129.827 20.1373C129.855 20.1702 129.877 20.2082 129.89 20.2492C129.903 20.2903 129.908 20.3335 129.904 20.3764L129.749 22.3766C129.695 23.0463 129.386 23.671 128.886 24.1259C128.385 24.5807 127.729 24.8322 127.049 24.8301H127.069ZM126.901 24.1634C127.435 24.2042 127.965 24.034 128.372 23.69C128.763 23.3481 129.005 22.8704 129.047 22.3566L129.182 20.7164L122.682 20.1631L122.554 21.7965C122.513 22.3241 122.685 22.8463 123.033 23.2486C123.381 23.651 123.876 23.9008 124.41 23.9434L126.901 24.1634Z" fill="#231F20"/>
<path d="M122.25 21.3765L120.495 21.2365C120.451 21.2332 120.407 21.2212 120.368 21.2012C120.328 21.1813 120.293 21.1538 120.264 21.1203C120.235 21.0869 120.213 21.0481 120.2 21.0062C120.186 20.9644 120.181 20.9203 120.185 20.8765C120.195 20.7893 120.238 20.7092 120.306 20.6522C120.373 20.5953 120.46 20.5659 120.549 20.5698L122.304 20.7098C122.394 20.7098 122.479 20.7449 122.543 20.8075C122.606 20.87 122.642 20.9548 122.642 21.0432C122.642 21.1316 122.606 21.2164 122.543 21.2789C122.479 21.3414 122.394 21.3765 122.304 21.3765H122.25Z" fill="#231F20"/>
<path d="M121.163 33.1373C119.051 33.1373 117.383 31.5238 116.715 29.6437C116.697 29.5911 116.692 29.535 116.702 29.4802C116.711 29.4255 116.734 29.374 116.769 29.3303C116.799 29.2842 116.841 29.2472 116.891 29.2236C116.942 29.2001 116.997 29.1908 117.053 29.197C119.933 29.3459 122.813 28.8915 125.504 27.8636C125.557 27.8404 125.615 27.8314 125.673 27.8372C125.731 27.843 125.787 27.8636 125.834 27.8969C125.883 27.9299 125.922 27.9751 125.946 28.0278C125.971 28.0806 125.982 28.139 125.976 28.1969C125.976 28.3503 125.625 32.0105 122.365 32.9306C121.977 33.0567 121.572 33.1263 121.163 33.1373ZM117.525 29.8837C118.234 31.3571 119.874 32.9773 122.162 32.3239C124.268 31.7305 124.97 29.717 125.193 28.7303C122.729 29.5698 120.131 29.9606 117.525 29.8837Z" fill="#231F20"/>
<path d="M145.95 46.285C149.878 48.1051 156.257 90.7483 149.325 93.6218C138.525 98.0688 109.29 82.9544 109.29 82.9544L115.041 71.7735C115.041 71.7735 134.9 77.614 136.277 73.627C137.654 69.64 130.836 47.7118 133.158 45.3249C135.48 42.9381 145.95 46.285 145.95 46.285Z" fill="#0060BB"/>
<path d="M116.128 76.2872C112.749 75.6068 109.456 74.5627 106.307 73.1736C103.89 72.0335 101.804 70.9401 99.1112 70.3668C95.7694 69.65 92.3254 69.5236 88.939 69.9934C88.8022 70.0041 88.6701 70.0476 88.5542 70.1201C88.156 70.4534 88.7432 71.0268 89.2292 71.1801C90.5439 71.5618 91.9091 71.746 93.2792 71.7268C89.8152 72.0422 86.4097 72.8158 83.1542 74.027C82.783 74.167 82.3442 74.4271 82.405 74.8071C82.4657 75.1871 83.1137 75.3004 83.5727 75.2271L91.6052 73.8937C89.552 74.1347 87.5537 74.7115 85.6922 75.6005C85.429 75.7271 85.1252 75.9138 85.1117 76.2072C85.1117 76.7139 85.8272 76.8072 86.3335 76.7072C88.7982 76.2158 91.2149 75.5131 93.556 74.6071L88.2302 76.7739C88.2059 76.8636 88.2 76.9573 88.2127 77.0493C88.2254 77.1414 88.2565 77.2301 88.3043 77.3101C88.352 77.3902 88.4154 77.46 88.4908 77.5156C88.5661 77.5712 88.652 77.6114 88.7432 77.6339C89.1156 77.7046 89.5004 77.6747 89.857 77.5473L95.5472 76.0405L91.8955 77.3739C91.3217 77.5806 90.6265 77.9673 90.721 78.5674C90.829 79.2741 91.8212 79.3274 92.5367 79.2341C95.3669 78.8166 98.2353 78.7115 101.089 78.9207C102.135 78.9807 103.181 78.8074 104.18 79.1074C105.618 79.5408 107.069 80.5675 108.406 81.2609C110.498 82.341 112.584 83.441 114.67 84.5411" fill="white"/>
<path d="M114.697 84.7946C114.645 84.7964 114.594 84.7849 114.549 84.7613C112.47 83.6634 110.382 82.57 108.285 81.481C107.866 81.2677 107.434 81.0143 106.995 80.7543C106.091 80.1817 105.124 79.712 104.113 79.3542C103.475 79.2004 102.817 79.1442 102.162 79.1875C101.805 79.1875 101.454 79.1875 101.096 79.1875C98.2646 78.9785 95.4185 79.0836 92.611 79.5009C92.0105 79.6264 91.3844 79.5391 90.8425 79.2542C90.7332 79.1762 90.6414 79.0767 90.5729 78.9619C90.5044 78.8472 90.4606 78.7197 90.4443 78.5875C90.4176 78.403 90.4403 78.2148 90.5102 78.0417C90.5801 77.8685 90.6947 77.7165 90.8425 77.6007L89.965 77.8341C89.552 77.9825 89.1044 78.0103 88.6758 77.9141C88.5295 77.8673 88.3943 77.7918 88.2783 77.6922C88.1623 77.5925 88.0679 77.4707 88.0008 77.334C87.9535 77.2291 87.9291 77.1155 87.9291 77.0007C87.9291 76.8858 87.9535 76.7723 88.0008 76.6673C87.481 76.7873 86.968 76.9007 86.4483 77.0073C86.2196 77.064 85.9816 77.0731 85.7492 77.0341C85.5168 76.9951 85.2951 76.9088 85.0983 76.7807C85.0135 76.7086 84.9468 76.6182 84.9035 76.5163C84.8601 76.4145 84.8413 76.3042 84.8485 76.194C84.8485 75.6739 85.402 75.4206 85.5978 75.3272L85.9893 75.1472L83.6605 75.5339C83.2498 75.6233 82.8202 75.5616 82.4523 75.3606C82.3693 75.302 82.2991 75.2275 82.2457 75.1416C82.1924 75.0557 82.157 74.9601 82.1418 74.8605C82.1013 74.5938 82.1418 74.0938 83.0868 73.7538C85.4733 72.8487 87.9446 72.1788 90.4645 71.7536C90.0307 71.6908 89.6004 71.6063 89.1753 71.5003C88.9395 71.4362 88.723 71.3166 88.5443 71.1517C88.3656 70.9868 88.23 70.7815 88.1493 70.5535C88.1272 70.4374 88.1369 70.3175 88.1772 70.2062C88.2175 70.0949 88.2871 69.9962 88.3788 69.9202C88.5354 69.809 88.7198 69.7421 88.912 69.7268C92.3341 69.2475 95.8151 69.374 99.1923 70.1002C101.422 70.6404 103.574 71.4558 105.598 72.527L106.462 72.9337C109.58 74.2916 112.836 75.3153 116.175 75.9873C116.255 76.0063 116.323 76.0554 116.366 76.1241C116.409 76.1927 116.423 76.2753 116.405 76.354C116.396 76.3933 116.379 76.4304 116.356 76.4632C116.332 76.496 116.302 76.5239 116.268 76.545C116.233 76.5662 116.195 76.5802 116.154 76.5863C116.114 76.5925 116.073 76.5905 116.034 76.5807C112.636 75.89 109.323 74.8417 106.152 73.4538L105.288 73.0404C103.305 71.9946 101.199 71.1972 99.0168 70.6669C95.7111 69.9524 92.3026 69.8282 88.9525 70.3002C88.8741 70.2999 88.7971 70.3206 88.7298 70.3602C88.7298 70.5469 89.02 70.8002 89.3035 70.8869C90.588 71.2573 91.9211 71.4371 93.259 71.4203C93.3327 71.4311 93.3999 71.4677 93.4485 71.5233C93.4971 71.579 93.5239 71.6501 93.5239 71.7236C93.5239 71.7972 93.4971 71.8682 93.4485 71.9239C93.3999 71.9796 93.3327 72.0162 93.259 72.027C89.8274 72.3447 86.454 73.1138 83.2285 74.3138C82.9585 74.4138 82.648 74.5938 82.675 74.7605C82.6773 74.7805 82.6839 74.7998 82.6944 74.8171C82.7048 74.8343 82.719 74.8491 82.7358 74.8605C82.9708 74.9653 83.2348 74.9888 83.485 74.9272L89.7018 73.8871C90.3059 73.7547 90.9165 73.6523 91.531 73.5804C91.6111 73.5726 91.6912 73.5951 91.7551 73.6433C91.819 73.6916 91.862 73.7621 91.8753 73.8404C91.887 73.9199 91.8667 74.0007 91.8187 74.0655C91.7707 74.1304 91.699 74.174 91.6188 74.1871L89.8165 74.4872C88.4166 74.7894 87.0573 75.2526 85.7665 75.8673C85.4358 76.0273 85.3615 76.1473 85.3615 76.214C85.3594 76.2326 85.3619 76.2516 85.369 76.269C85.376 76.2865 85.3874 76.3019 85.402 76.314C85.6501 76.4387 85.9358 76.4695 86.2053 76.4006C88.6562 75.9128 91.0593 75.2146 93.3873 74.3138C93.4626 74.285 93.5463 74.2863 93.6206 74.3174C93.695 74.3485 93.7541 74.407 93.7855 74.4805C93.815 74.5558 93.8139 74.6395 93.7825 74.714C93.751 74.7885 93.6917 74.8482 93.6168 74.8805L88.4463 76.9873C88.4374 77.0156 88.4374 77.0458 88.4463 77.074C88.5066 77.1961 88.6134 77.2896 88.7433 77.334C89.0604 77.3911 89.3872 77.3611 89.6883 77.2474L95.3785 75.7339C95.4524 75.7221 95.5281 75.7371 95.5917 75.776C95.6553 75.8149 95.7025 75.8752 95.7247 75.9458C95.7469 76.0164 95.7425 76.0925 95.7124 76.1601C95.6823 76.2278 95.6284 76.2824 95.5608 76.314L91.9158 77.6474C91.5985 77.7607 90.8695 78.0741 90.937 78.5075C90.9437 78.558 90.9609 78.6067 90.9876 78.6503C91.0143 78.6939 91.05 78.7316 91.0923 78.7608C91.4969 78.9555 91.9575 79.0051 92.395 78.9008C95.2493 78.4749 98.143 78.3675 101.022 78.5808C101.359 78.5808 101.697 78.5808 102.041 78.5808C102.76 78.533 103.482 78.5983 104.181 78.7742C105.24 79.1397 106.251 79.6299 107.191 80.2343C107.623 80.4809 108.048 80.7276 108.46 80.941C110.553 82.0255 112.641 83.1189 114.724 84.2212C114.761 84.2395 114.793 84.2648 114.819 84.2957C114.845 84.3266 114.865 84.3624 114.877 84.401C114.889 84.4395 114.893 84.4801 114.889 84.5203C114.885 84.5604 114.872 84.5993 114.852 84.6346C114.824 84.7059 114.768 84.7634 114.697 84.7946Z" fill="#231F20"/>
<path d="M108.98 41.998C107.583 42.8048 100.09 59.446 96.8299 67.3866L108.98 41.998Z" fill="white"/>
<path d="M96.85 67.6931C96.7991 67.6934 96.749 67.6814 96.704 67.658C96.659 67.6347 96.6204 67.6008 96.5918 67.5593C96.5631 67.5179 96.5452 67.4701 96.5396 67.4202C96.534 67.3703 96.5409 67.3198 96.5597 67.2731C99.5095 60.0526 107.231 42.6513 108.824 41.7312C108.86 41.7087 108.899 41.6934 108.94 41.6862C108.981 41.679 109.023 41.6801 109.064 41.6895C109.105 41.6988 109.143 41.7162 109.177 41.7406C109.211 41.765 109.239 41.7959 109.261 41.8314C109.282 41.8669 109.296 41.9063 109.302 41.9473C109.307 41.9882 109.304 42.0299 109.293 42.0697C109.282 42.1096 109.263 42.1468 109.237 42.1791C109.211 42.2115 109.179 42.2383 109.142 42.2579C107.947 42.9247 100.819 58.4791 97.1335 67.4998C97.1116 67.5566 97.0728 67.6055 97.0221 67.64C96.9715 67.6745 96.9115 67.693 96.85 67.6931Z" fill="#231F20"/>
<path d="M55.5596 73.9937L55.1749 77.3806L98.9486 96.0019L99.0836 92.4417L55.5596 73.9937Z" fill="white"/>
<path d="M98.9489 96.3353C98.9045 96.3453 98.8584 96.3453 98.8139 96.3353L55.0402 77.7139C54.973 77.6856 54.9169 77.6364 54.8804 77.5739C54.8439 77.5114 54.8289 77.4389 54.8377 77.3672L55.2224 73.9803C55.2276 73.9286 55.2458 73.879 55.2753 73.8359C55.3047 73.7928 55.3446 73.7577 55.3912 73.7336C55.438 73.7091 55.4901 73.6963 55.5431 73.6963C55.596 73.6963 55.6482 73.7091 55.6949 73.7336L99.2189 92.1683C99.2821 92.1944 99.3354 92.2392 99.3717 92.2965C99.408 92.3538 99.4253 92.4208 99.4214 92.4883L99.2864 96.0486C99.2834 96.1036 99.2671 96.1571 99.2389 96.2046C99.2107 96.2521 99.1715 96.2923 99.1244 96.3219C99.0683 96.3423 99.0076 96.3469 98.9489 96.3353ZM55.5329 77.1739L98.6249 95.5019L98.7397 92.6483L55.8434 74.467L55.5329 77.1739Z" fill="#231F20"/>
<path d="M55.5598 73.9936C55.5598 73.9936 68.3106 67.9532 68.6346 68.1265C68.9586 68.2999 114.055 86.1278 114.055 86.1278L99.0838 92.4416L55.5598 73.9936Z" fill="white"/>
<path d="M99.084 92.7749C99.0395 92.7843 98.9935 92.7843 98.949 92.7749L55.4251 74.3002C55.3657 74.2747 55.3151 74.2328 55.2792 74.1796C55.2433 74.1264 55.2236 74.0641 55.2226 74.0002C55.2203 73.9364 55.237 73.8734 55.2706 73.8189C55.3042 73.7644 55.3532 73.7208 55.4116 73.6935C68.3243 67.5731 68.6078 67.7264 68.7968 67.8331C69.4718 68.1331 113.738 85.6411 114.184 85.8344C114.247 85.8579 114.3 85.8999 114.338 85.9549C114.375 86.0098 114.395 86.0749 114.393 86.1411C114.394 86.2064 114.375 86.2704 114.339 86.3251C114.303 86.3798 114.251 86.4225 114.191 86.4478L99.219 92.7616C99.1755 92.7754 99.1295 92.7799 99.084 92.7749ZM56.3768 73.9735L99.084 92.0815L113.171 86.1678C106.205 83.4076 70.8083 69.4132 68.5808 68.4931C67.7033 68.6931 60.9533 71.8134 56.3768 73.9735Z" fill="#231F20"/>
<path d="M98.9489 96.0019L113.495 89.3147L114.055 86.1278L99.0839 92.4416L98.9489 96.0019Z" fill="white"/>
<path d="M98.9497 96.3353C98.8825 96.3382 98.8162 96.3195 98.7607 96.2819C98.7115 96.2508 98.6717 96.2071 98.6455 96.1555C98.6194 96.1038 98.6079 96.0462 98.6122 95.9886L98.7472 92.4283C98.7511 92.366 98.7719 92.3057 98.8076 92.2541C98.8432 92.2025 98.8923 92.1613 98.9497 92.135L113.928 85.8212C113.983 85.7972 114.044 85.7889 114.103 85.7972C114.163 85.8054 114.219 85.8299 114.265 85.8679C114.315 85.9039 114.353 85.9533 114.374 86.0101C114.396 86.0669 114.4 86.1286 114.387 86.1879L113.833 89.3681C113.823 89.4207 113.801 89.4702 113.768 89.513C113.735 89.5557 113.693 89.5905 113.644 89.6148L99.0915 96.2819C99.0487 96.3097 99.0003 96.3279 98.9497 96.3353ZM99.4155 92.6684L99.3007 95.5019L113.192 89.1148L113.611 86.7013L99.4155 92.6684Z" fill="#231F20"/>
<path d="M55.5595 73.9936L54.6618 42.7046L100.488 63.4861L99.0835 92.4416L55.5595 73.9936Z" fill="white"/>
<path d="M99.085 92.7751C99.0405 92.7845 98.9945 92.7845 98.95 92.7751L55.426 74.3004C55.3662 74.2756 55.3151 74.2339 55.2791 74.1805C55.2431 74.1272 55.2237 74.0645 55.2235 74.0004L54.319 42.7114C54.318 42.6545 54.3317 42.5983 54.3589 42.5481C54.386 42.4979 54.4258 42.4555 54.4743 42.4247C54.5237 42.3973 54.5795 42.3829 54.6363 42.3829C54.693 42.3829 54.7488 42.3973 54.7983 42.4247L100.651 63.1863C100.712 63.2122 100.764 63.2563 100.799 63.3124C100.834 63.3684 100.851 63.4338 100.847 63.4996L99.4428 92.4551C99.4405 92.5086 99.4252 92.5607 99.3982 92.6072C99.3712 92.6536 99.3332 92.6929 99.2875 92.7218C99.2286 92.7627 99.1568 92.7816 99.085 92.7751ZM55.885 73.767L98.7678 91.9484L100.118 63.693L55.0143 43.2315L55.885 73.767Z" fill="#231F20"/>
<path d="M123.486 90.8347C123.439 90.8439 123.391 90.8439 123.344 90.8347L114.076 86.6144C114.005 86.5825 113.947 86.5272 113.913 86.4579C113.878 86.3886 113.869 86.3096 113.887 86.2344L116.688 74.6602C116.706 74.5767 116.757 74.5035 116.829 74.4561C116.9 74.4088 116.988 74.3911 117.073 74.4069L135.19 77.2738L134.596 48.9117C134.594 48.8677 134.602 48.8238 134.617 48.7826C134.633 48.7414 134.657 48.7038 134.688 48.672C134.719 48.6402 134.756 48.615 134.797 48.5977C134.838 48.5805 134.882 48.5716 134.927 48.5717C135.015 48.5733 135.099 48.608 135.161 48.6688C135.224 48.7295 135.261 48.8116 135.264 48.8983L135.865 77.6604C135.866 77.709 135.855 77.7571 135.834 77.801C135.813 77.8449 135.782 77.8834 135.744 77.9138C135.707 77.946 135.664 77.9698 135.618 77.9836C135.571 77.9975 135.522 78.0009 135.474 77.9938L117.249 75.1136L114.582 86.1211L123.6 90.168C123.641 90.1859 123.677 90.2117 123.707 90.2436C123.737 90.2756 123.76 90.3133 123.776 90.3543C123.791 90.3953 123.797 90.4389 123.795 90.4825C123.793 90.5261 123.782 90.5688 123.762 90.6081C123.743 90.6682 123.707 90.7216 123.658 90.7618C123.609 90.802 123.549 90.8273 123.486 90.8347Z" fill="#231F20"/>
<path d="M43.1668 114.75C41.5941 113.577 39.7108 112.957 38.3811 114.75H43.1668Z" fill="white"/>
<path d="M43.1669 115.056H38.3812C38.3242 115.056 38.2683 115.04 38.2196 115.011C38.1709 114.981 38.1311 114.94 38.1044 114.89C38.0746 114.842 38.0588 114.786 38.0588 114.73C38.0588 114.673 38.0746 114.618 38.1044 114.57C38.3205 114.249 38.6008 113.975 38.9282 113.765C39.2556 113.555 39.6231 113.414 40.008 113.35C40.9867 113.203 42.1072 113.596 43.3289 114.51C43.3798 114.549 43.4174 114.602 43.4366 114.663C43.4559 114.724 43.456 114.789 43.4369 114.85C43.4159 114.906 43.3795 114.955 43.3318 114.991C43.2841 115.028 43.227 115.05 43.1669 115.056ZM39.0697 114.45H42.1409C41.5391 114.07 40.8281 113.894 40.1159 113.95C39.7252 114.012 39.3615 114.186 39.0697 114.45Z" fill="#231F20"/>
<path d="M77.6532 104.736H77.5992C77.5118 104.721 77.4337 104.673 77.3819 104.602C77.3301 104.531 77.3088 104.442 77.3225 104.356C77.3765 104.023 78.6725 96.1953 81.1767 92.2217C81.2268 92.1543 81.3006 92.108 81.3836 92.0919C81.4666 92.0758 81.5527 92.091 81.6249 92.1346C81.697 92.1782 81.75 92.247 81.7732 92.3273C81.7965 92.4077 81.7884 92.4937 81.7505 92.5684C79.3407 96.4287 77.9975 104.383 77.984 104.463C77.971 104.54 77.9306 104.61 77.8699 104.66C77.8092 104.71 77.7323 104.737 77.6532 104.736Z" fill="white"/>
<path d="M119.368 46.6251L120.057 48.9052L111.45 66.4132L113.901 72.6737L119.274 68.1467L121.481 48.8919L122.622 47.7318L121.447 45.7917L119.368 46.6251Z" fill="#231F20"/>
<path d="M176.054 62.0928V142.605H25.5494V62.0928L100.805 112.71L176.054 62.0928Z" fill="white"/>
<path d="M176.055 142.938H25.5298C25.4403 142.938 25.3544 142.903 25.2911 142.841C25.2279 142.778 25.1923 142.694 25.1923 142.605V62.0925C25.192 62.0317 25.2089 61.9721 25.2411 61.9202C25.2733 61.8684 25.3195 61.8265 25.3745 61.7992C25.4277 61.7681 25.4883 61.7517 25.55 61.7517C25.6118 61.7517 25.6724 61.7681 25.7255 61.7992L100.786 112.296L175.846 61.7992C175.897 61.768 175.957 61.7515 176.018 61.7515C176.078 61.7515 176.138 61.768 176.19 61.7992C176.245 61.8259 176.292 61.8676 176.324 61.9196C176.357 61.9716 176.373 62.0316 176.372 62.0925V142.605C176.372 142.69 176.339 142.772 176.28 142.834C176.221 142.896 176.141 142.933 176.055 142.938ZM25.8875 142.272H175.738V62.7193L101.015 112.99C100.959 113.025 100.893 113.044 100.826 113.044C100.759 113.044 100.693 113.025 100.637 112.99L25.8875 62.7193V142.272Z" fill="#231F20"/>
<path d="M100.806 113.043C100.74 113.043 100.674 113.024 100.617 112.99L25.3615 62.3661C25.2886 62.3162 25.2386 62.24 25.2221 62.1539C25.2057 62.0678 25.2243 61.9788 25.2738 61.9061C25.3245 61.8326 25.4024 61.7816 25.4907 61.7642C25.5791 61.7467 25.6708 61.7642 25.7463 61.8128L100.806 112.31L175.866 61.8128C175.941 61.7645 176.031 61.7473 176.119 61.7647C176.206 61.7822 176.283 61.833 176.332 61.9061C176.357 61.9418 176.375 61.9822 176.385 62.0248C176.394 62.0675 176.395 62.1115 176.386 62.1544C176.378 62.1973 176.361 62.2381 176.337 62.2745C176.313 62.3108 176.281 62.342 176.244 62.3661L100.995 112.99C100.938 113.024 100.873 113.042 100.806 113.043Z" fill="#231F20"/>
<path d="M25.5494 142.605L100.798 96.2753L176.054 142.605H25.5494Z" fill="white"/>
<path d="M176.055 142.939H25.5298C25.4568 142.939 25.3857 142.915 25.3273 142.872C25.2689 142.829 25.2262 142.768 25.2058 142.699C25.185 142.629 25.1883 142.554 25.2152 142.487C25.2421 142.419 25.291 142.362 25.3543 142.325L100.651 95.9951C100.704 95.9628 100.766 95.9456 100.829 95.9456C100.892 95.9456 100.954 95.9628 101.008 95.9951L176.251 142.325C176.314 142.362 176.363 142.419 176.39 142.487C176.417 142.554 176.42 142.629 176.399 142.699C176.378 142.771 176.332 142.835 176.269 142.878C176.207 142.922 176.131 142.943 176.055 142.939ZM26.7313 142.272H174.901L100.833 96.6685L26.7313 142.272Z" fill="#231F20"/>
<path d="M181.178 102.61L139.108 113.233L145.07 136.267L187.14 125.644L181.178 102.61Z" fill="#0060BB"/>
<path d="M145.072 136.605C145.01 136.603 144.95 136.587 144.896 136.558C144.821 136.51 144.766 136.436 144.741 136.351L138.781 113.316C138.76 113.231 138.774 113.14 138.819 113.065C138.864 112.989 138.938 112.933 139.024 112.91L181.096 102.289C181.179 102.259 181.27 102.259 181.353 102.289C181.392 102.311 181.426 102.341 181.453 102.376C181.479 102.412 181.498 102.452 181.508 102.496L187.468 125.531C187.48 125.573 187.482 125.617 187.476 125.661C187.47 125.704 187.455 125.746 187.432 125.784C187.41 125.822 187.38 125.855 187.344 125.881C187.309 125.907 187.268 125.926 187.225 125.937L145.153 136.558L145.072 136.605ZM139.523 113.503L145.315 135.891L186.733 125.431L180.975 103.016L139.523 113.503Z" fill="#231F20"/>
<path d="M145.073 136.272L162.765 118.037L187.146 125.644L145.073 136.272Z" fill="#0060BB"/>
<path d="M145.072 136.605C145.013 136.605 144.956 136.589 144.905 136.56C144.854 136.531 144.812 136.489 144.782 136.438C144.742 136.376 144.725 136.303 144.734 136.23C144.743 136.157 144.776 136.089 144.829 136.038L162.521 117.81C162.564 117.765 162.619 117.733 162.68 117.716C162.741 117.7 162.805 117.7 162.865 117.717L187.246 125.331C187.316 125.353 187.377 125.396 187.42 125.455C187.462 125.514 187.485 125.585 187.483 125.657C187.479 125.73 187.453 125.799 187.406 125.856C187.36 125.912 187.297 125.952 187.226 125.971L145.153 136.592L145.072 136.605ZM162.865 118.417L146.132 135.658L185.917 125.611L162.865 118.417Z" fill="#231F20"/>
<path d="M139.111 113.236L163.789 121.997L181.184 102.609L139.111 113.236Z" fill="#0060BB"/>
<path d="M163.789 122.331C163.751 122.337 163.712 122.337 163.675 122.331L138.997 113.57C138.929 113.546 138.871 113.501 138.831 113.443C138.791 113.384 138.771 113.314 138.774 113.243C138.777 113.172 138.802 113.103 138.847 113.047C138.892 112.99 138.954 112.949 139.024 112.93L181.096 102.309C181.166 102.292 181.239 102.297 181.306 102.324C181.372 102.35 181.429 102.396 181.468 102.456C181.507 102.517 181.524 102.589 181.518 102.661C181.512 102.734 181.483 102.802 181.434 102.856L164.039 122.237C164.006 122.269 163.967 122.294 163.924 122.311C163.881 122.327 163.835 122.333 163.789 122.331ZM140.259 113.29L163.688 121.604L180.199 103.203L140.259 113.29Z" fill="#231F20"/>
<path d="M203.469 80.9844L179.461 86.8487L182.752 99.9937L206.761 94.1295L203.469 80.9844Z" fill="#0060BB"/>
<path d="M182.751 100.322C182.675 100.322 182.602 100.297 182.542 100.251C182.482 100.205 182.44 100.141 182.42 100.069L179.133 86.9278C179.112 86.8421 179.126 86.7518 179.171 86.6759C179.217 86.6001 179.29 86.5446 179.376 86.5211L203.386 80.6606C203.428 80.6487 203.473 80.6455 203.517 80.6513C203.561 80.657 203.603 80.6716 203.641 80.6941C203.679 80.7166 203.712 80.7465 203.737 80.782C203.763 80.8176 203.781 80.8579 203.791 80.9007L207.085 94.0416C207.095 94.0844 207.097 94.1288 207.09 94.1723C207.083 94.2158 207.068 94.2575 207.044 94.295C207.022 94.3334 206.992 94.3669 206.956 94.3933C206.92 94.4197 206.879 94.4384 206.835 94.4483L182.832 100.309L182.751 100.322ZM179.869 87.0878L183.001 99.582L206.349 93.8816L203.251 81.3874L179.869 87.0878Z" fill="#231F20"/>
<path d="M182.751 99.9886L192.909 89.6812L206.754 94.1215L182.751 99.9886Z" fill="#0060BB"/>
<path d="M182.75 100.322C182.691 100.323 182.632 100.308 182.581 100.279C182.53 100.249 182.488 100.207 182.46 100.155C182.422 100.093 182.407 100.02 182.415 99.9476C182.424 99.8753 182.456 99.8079 182.507 99.7554L192.666 89.4546C192.709 89.4093 192.764 89.3771 192.825 89.3617C192.886 89.3464 192.95 89.3485 193.01 89.3679L206.861 93.8083C206.95 93.8083 207.036 93.8434 207.1 93.9059C207.163 93.9684 207.198 94.0532 207.198 94.1416C207.198 94.23 207.163 94.3148 207.1 94.3774C207.036 94.4399 206.95 94.475 206.861 94.475L182.858 100.335L182.75 100.322ZM193.003 90.068L183.816 99.402L205.524 94.1016L193.003 90.068Z" fill="#231F20"/>
<path d="M179.456 86.8479L193.469 91.9416L203.466 80.9808L179.456 86.8479Z" fill="#0060BB"/>
<path d="M193.476 92.2748C193.435 92.2811 193.394 92.2811 193.354 92.2748L179.341 87.1811C179.274 87.1556 179.217 87.1095 179.178 87.0495C179.139 86.9895 179.12 86.9188 179.125 86.8477C179.127 86.7767 179.153 86.7084 179.198 86.653C179.243 86.5977 179.305 86.5584 179.375 86.541L203.385 80.6806C203.454 80.6628 203.528 80.6674 203.595 80.6938C203.661 80.7201 203.718 80.7669 203.756 80.8273C203.793 80.8895 203.809 80.9619 203.802 81.0338C203.795 81.1057 203.764 81.1735 203.715 81.2273L193.725 92.1681C193.659 92.2341 193.57 92.2724 193.476 92.2748ZM180.61 86.941L193.374 91.608L202.48 81.6073L180.61 86.941Z" fill="#231F20"/>
<path d="M167.698 77.6691L148.021 86.3713L152.903 97.1418L172.581 88.4397L167.698 77.6691Z" fill="#0060BB"/>
<path d="M152.909 97.5019C152.844 97.5035 152.779 97.4861 152.724 97.4517C152.669 97.4172 152.625 97.3675 152.599 97.3085L147.718 86.5344C147.699 86.4947 147.689 86.4516 147.687 86.4077C147.685 86.3638 147.692 86.32 147.708 86.279C147.724 86.2379 147.748 86.2004 147.779 86.1686C147.809 86.1369 147.846 86.1117 147.887 86.0944L167.557 77.3937C167.639 77.3574 167.733 77.3545 167.817 77.3857C167.902 77.4168 167.971 77.4796 168.009 77.5604L172.876 88.3012C172.909 88.3824 172.909 88.4734 172.876 88.5546C172.842 88.6355 172.779 88.7017 172.7 88.7412L153.024 97.4085C152.993 97.4475 152.954 97.4794 152.909 97.5019ZM148.468 86.5677L153.078 96.7285L172.133 88.3012L167.53 78.1404L148.468 86.5677Z" fill="#231F20"/>
<path d="M152.909 97.1353L160.003 86.7479L172.578 88.4347L152.909 97.1353Z" fill="#0060BB"/>
<path d="M152.909 97.5021C152.846 97.5054 152.784 97.491 152.73 97.4606C152.675 97.4303 152.63 97.3853 152.6 97.3308C152.571 97.2763 152.557 97.2146 152.562 97.1529C152.566 97.0911 152.588 97.0319 152.625 96.9821L159.726 86.5947C159.761 86.5428 159.81 86.5015 159.867 86.4756C159.924 86.4497 159.988 86.4401 160.05 86.448L172.626 88.1414C172.698 88.1507 172.766 88.1831 172.818 88.2336C172.87 88.2841 172.905 88.35 172.916 88.4215C172.926 88.4933 172.912 88.5663 172.877 88.6298C172.841 88.6934 172.787 88.7442 172.72 88.7748L153.044 97.4421C153.004 97.4716 152.958 97.492 152.909 97.5021ZM160.165 87.1347L153.847 96.3887L171.363 88.6415L160.165 87.1347Z" fill="#231F20"/>
<path d="M148.022 86.3678L160.847 88.5947L167.699 77.6672L148.022 86.3678Z" fill="#0060BB"/>
<path d="M160.839 88.9279H160.785L147.96 86.7011C147.89 86.6885 147.826 86.6538 147.777 86.6021C147.729 86.5505 147.698 86.4846 147.69 86.4144C147.681 86.3435 147.695 86.2716 147.73 86.2092C147.766 86.1467 147.82 86.0971 147.886 86.0677L167.556 77.3671C167.623 77.3377 167.698 77.3303 167.769 77.3459C167.841 77.3615 167.906 77.3993 167.954 77.4538C167.997 77.5104 168.021 77.5795 168.021 77.6505C168.021 77.7214 167.997 77.7905 167.954 77.8471L161.103 88.7812C161.073 88.8239 161.034 88.8592 160.988 88.8846C160.943 88.9101 160.892 88.9249 160.839 88.9279ZM149.162 86.2611L160.677 88.2612L166.833 78.4472L149.162 86.2611Z" fill="#231F20"/>
<path d="M81.365 0.394913H41.783C40.5424 0.394913 39.3526 0.881698 38.4753 1.74818C37.5981 2.61466 37.1052 3.78986 37.1052 5.01525V25.0167C37.1052 25.6235 37.2262 26.2243 37.4613 26.7849C37.6964 27.3454 38.0409 27.8548 38.4753 28.2838C38.9097 28.7128 39.4253 29.0532 39.9929 29.2854C40.5604 29.5176 41.1687 29.6371 41.783 29.6371H77.0247L81.2232 36.7443L81.2772 29.6371H81.392C82.0063 29.6371 82.6145 29.5176 83.1821 29.2854C83.7496 29.0532 84.2653 28.7128 84.6996 28.2838C85.134 27.8548 85.4786 27.3454 85.7137 26.7849C85.9487 26.2243 86.0697 25.6235 86.0697 25.0167V5.01525C86.0697 4.40625 85.9479 3.80326 85.7111 3.24095C85.4743 2.67864 85.1273 2.16811 84.6901 1.73872C84.2529 1.30933 83.734 0.969553 83.1634 0.738933C82.5927 0.508313 81.9815 0.391398 81.365 0.394913Z" fill="white"/>
<path d="M81.1966 37.0776C81.1377 37.0772 81.0799 37.0616 81.029 37.0324C80.978 37.0031 80.9358 36.9613 80.9063 36.9109L76.8091 29.9704H41.7833C40.4537 29.9686 39.1791 29.4461 38.239 28.5175C37.2988 27.5889 36.7699 26.3299 36.7681 25.0167V5.01519C36.7699 3.70193 37.2988 2.44296 38.239 1.51435C39.1791 0.585729 40.4537 0.0632569 41.7833 0.0614929H81.3653C82.6954 0.0614929 83.9711 0.583399 84.9116 1.5124C85.8522 2.4414 86.3806 3.70139 86.3806 5.01519V25.0167C86.3801 26.2921 85.8816 27.5182 84.9889 28.4396C84.0962 29.3611 82.878 29.907 81.5881 29.9637L81.5341 36.7509C81.5345 36.8233 81.51 36.8937 81.4647 36.9507C81.4193 37.0076 81.3557 37.0476 81.2843 37.0642C81.2566 37.0757 81.2265 37.0803 81.1966 37.0776ZM41.7833 0.728209C40.6328 0.729972 39.5298 1.1822 38.7163 1.98579C37.9027 2.78937 37.4449 3.87875 37.4431 5.01519V25.0167C37.4449 26.1531 37.9027 27.2425 38.7163 28.0461C39.5298 28.8497 40.6328 29.3019 41.7833 29.3036H77.0251C77.0851 29.3028 77.1443 29.3178 77.1965 29.3471C77.2487 29.3764 77.292 29.419 77.3221 29.4703L80.8996 35.5308L80.9401 29.637C80.9401 29.5486 80.9756 29.4638 81.0389 29.4013C81.1022 29.3388 81.1881 29.3036 81.2776 29.3036H81.3923C82.5429 29.3019 83.6458 28.8497 84.4594 28.0461C85.2729 27.2425 85.7308 26.1531 85.7326 25.0167V5.01519C85.7326 3.87821 85.2753 2.7878 84.4613 1.98384C83.6474 1.17987 82.5434 0.728209 81.3923 0.728209H41.7833Z" fill="#231F20"/>
<path d="M55.0538 16.0628L72.7928 5.34201L57.7606 11.5225L55.0538 16.0628Z" fill="#231F20"/>
<path d="M55.0538 16.3959C54.9647 16.3946 54.8798 16.3587 54.8175 16.2959C54.7649 16.2431 54.7312 16.1749 54.7214 16.1015C54.7117 16.0281 54.7265 15.9535 54.7635 15.8892L57.4635 11.3555C57.5002 11.2923 57.5572 11.243 57.6255 11.2155L72.6578 5.02836C72.7364 4.996 72.8246 4.99424 72.9045 5.02342C72.9844 5.0526 73.0502 5.11057 73.0887 5.18569C73.1271 5.2608 73.1354 5.34751 73.1118 5.42839C73.0882 5.50927 73.0345 5.57834 72.9615 5.62174L55.2293 16.3425C55.1769 16.376 55.1161 16.3944 55.0538 16.3959ZM57.9968 11.7889L56.0325 15.0758L68.925 7.30186L57.9968 11.7889Z" fill="#231F20"/>
<path d="M57.7607 11.5225L63.5656 14.4493L72.7929 5.34201L57.7607 11.5225Z" fill="#0060BB"/>
<path d="M63.5656 14.756C63.5189 14.7659 63.4705 14.7659 63.4238 14.756L57.6256 11.8291C57.563 11.8006 57.5119 11.7524 57.4801 11.6921C57.4483 11.6317 57.4378 11.5627 57.4501 11.4957C57.4514 11.4378 57.47 11.3816 57.5037 11.3341C57.5373 11.2867 57.5844 11.2501 57.6391 11.229L72.6713 5.04192C72.7372 5.01824 72.8092 5.01725 72.8757 5.03911C72.9422 5.06098 72.9992 5.10441 73.0375 5.16235C73.0758 5.22029 73.0932 5.28933 73.0868 5.35825C73.0803 5.42717 73.0505 5.49191 73.0021 5.54196L63.7816 14.6626C63.7244 14.72 63.647 14.7534 63.5656 14.756ZM58.4963 11.5491L63.5251 14.0759L71.4901 6.21534L58.4963 11.5491Z" fill="#231F20"/>
<path d="M72.7927 5.34201L53.697 9.84233L49.3568 7.39549L72.7927 5.34201Z" fill="#0060BB"/>
<path d="M53.6973 10.1623C53.645 10.1624 53.5937 10.1486 53.5488 10.1223L49.2018 7.66876C49.1455 7.63653 49.1009 7.58766 49.0742 7.52905C49.0476 7.47043 49.0403 7.40503 49.0533 7.34207C49.0674 7.27813 49.1019 7.22034 49.1517 7.17716C49.2015 7.13397 49.264 7.10765 49.33 7.10205L72.766 5.04857C72.8426 5.04535 72.9178 5.06903 72.9784 5.11541C73.0389 5.1618 73.0809 5.22788 73.0968 5.30192C73.1093 5.37758 73.0927 5.45514 73.0502 5.51932C73.0078 5.58349 72.9425 5.62962 72.8673 5.64861L53.7715 10.1623H53.6973ZM50.3628 7.62209L53.7378 9.53556L68.5878 6.02197L50.3628 7.62209Z" fill="#231F20"/>
<path d="M53.6979 9.84234L55.0547 16.0628L57.7614 11.5225L72.7937 5.34201L53.6979 9.84234Z" fill="#0060BB"/>
<path d="M55.0542 16.3626H55.0069C54.9454 16.3528 54.8884 16.3244 54.8437 16.2815C54.7991 16.2386 54.7688 16.1831 54.7572 16.1226L53.4072 9.9088C53.3982 9.87028 53.397 9.83037 53.4037 9.79139C53.4104 9.75241 53.4248 9.71512 53.4462 9.68166C53.4675 9.64821 53.4953 9.61924 53.528 9.59644C53.5607 9.57363 53.5976 9.55744 53.6367 9.54878L72.7257 5.04178C72.8015 5.02568 72.8808 5.03701 72.9489 5.07371C73.017 5.11042 73.0695 5.17006 73.0969 5.24179C73.1201 5.31537 73.115 5.3948 73.0826 5.4649C73.0502 5.53501 72.9929 5.59087 72.9214 5.62182L57.9769 11.7623L55.3242 16.2159C55.2955 16.261 55.2557 16.2982 55.2084 16.3238C55.1612 16.3495 55.1081 16.3628 55.0542 16.3626ZM54.0754 10.0688L55.2027 15.2359L57.5112 11.3689C57.5451 11.3116 57.5974 11.2671 57.6597 11.2422L69.1347 6.51522L54.0754 10.0688Z" fill="#231F20"/>
<path d="M53.4594 19.6775C53.4594 19.451 53.3764 19.2713 53.2104 19.1385C53.0463 19.0037 52.8149 18.9363 52.5161 18.9363C52.2661 18.9363 52.0561 19.0056 51.8862 19.1443C51.7182 19.281 51.6342 19.451 51.6342 19.6541H51.0717C51.0717 19.4275 51.1332 19.2244 51.2563 19.0447C51.3813 18.865 51.5551 18.7254 51.7778 18.6258C52.0004 18.5242 52.2465 18.4734 52.5161 18.4734C52.9926 18.4734 53.3627 18.5808 53.6264 18.7957C53.8901 19.0086 54.0219 19.3055 54.0219 19.6863C54.0219 19.8836 53.9614 20.0633 53.8403 20.2254C53.7192 20.3875 53.5502 20.5154 53.3334 20.6092C53.8354 20.7771 54.0864 21.1101 54.0864 21.6082C54.0864 21.991 53.9438 22.2947 53.6586 22.5193C53.3735 22.7439 52.9926 22.8562 52.5161 22.8562C52.2329 22.8562 51.975 22.8064 51.7426 22.7068C51.5121 22.6053 51.3325 22.4617 51.2036 22.2762C51.0746 22.0906 51.0102 21.8699 51.0102 21.614H51.5727C51.5727 21.8387 51.6616 22.0262 51.8393 22.1765C52.017 22.325 52.2426 22.3992 52.5161 22.3992C52.8227 22.3992 53.0668 22.3279 53.2485 22.1853C53.4321 22.0428 53.5239 21.8543 53.5239 21.6199C53.5239 21.1199 53.2143 20.865 52.5952 20.8553H52.0678V20.3924H52.5922C52.8774 20.3865 53.0932 20.3221 53.2397 20.199C53.3862 20.076 53.4594 19.9021 53.4594 19.6775ZM56.7055 22.7976C56.6743 22.7351 56.6489 22.6238 56.6293 22.4637C56.3774 22.7254 56.0766 22.8562 55.727 22.8562C55.4145 22.8562 55.1577 22.7683 54.9565 22.5926C54.7573 22.4148 54.6577 22.1902 54.6577 21.9187C54.6577 21.5887 54.7827 21.3328 55.0327 21.1512C55.2846 20.9676 55.6381 20.8758 56.0932 20.8758H56.6205V20.6267C56.6205 20.4373 56.5639 20.2869 56.4506 20.1756C56.3373 20.0623 56.1704 20.0056 55.9496 20.0056C55.7563 20.0056 55.5942 20.0545 55.4633 20.1521C55.3325 20.2498 55.267 20.368 55.267 20.5066H54.7221C54.7221 20.3484 54.7778 20.1961 54.8891 20.0496C55.0024 19.9012 55.1547 19.784 55.3461 19.698C55.5395 19.6121 55.7514 19.5691 55.9819 19.5691C56.3471 19.5691 56.6332 19.6609 56.8403 19.8445C57.0473 20.0262 57.1547 20.2771 57.1625 20.5974V22.0564C57.1625 22.3474 57.1996 22.5789 57.2739 22.7508V22.7976H56.7055ZM55.8061 22.3846C55.976 22.3846 56.1371 22.3406 56.2895 22.2527C56.4418 22.1648 56.5522 22.0506 56.6205 21.9099V21.2596H56.1957C55.5317 21.2596 55.1996 21.4539 55.1996 21.8426C55.1996 22.0125 55.2563 22.1453 55.3696 22.241C55.4829 22.3367 55.6284 22.3846 55.8061 22.3846ZM60.435 19.6277V22.7976H59.8901V21.5642H59.0727L58.3256 22.7976H57.7397L58.5366 21.4822C58.3334 21.408 58.1772 21.2937 58.0678 21.1394C57.9604 20.9832 57.9067 20.8015 57.9067 20.5945C57.9067 20.3055 58.0151 20.073 58.2319 19.8972C58.4487 19.7195 58.7387 19.6297 59.102 19.6277H60.435ZM58.4516 20.6004C58.4516 20.7547 58.5043 20.8797 58.6098 20.9754C58.7153 21.0691 58.8549 21.117 59.0288 21.1189H59.8901V20.0672H59.1108C58.9096 20.0672 58.7495 20.117 58.6303 20.2166C58.5112 20.3142 58.4516 20.4422 58.4516 20.6004ZM61.3549 22.7976V19.6277H62.5913C63.0131 19.6277 63.3364 19.7019 63.561 19.8504C63.7875 19.9969 63.9008 20.2127 63.9008 20.4978C63.9008 20.6443 63.8569 20.7771 63.769 20.8963C63.6811 21.0135 63.5512 21.1033 63.3793 21.1658C63.5707 21.2107 63.7241 21.2986 63.8393 21.4295C63.9565 21.5603 64.0151 21.7166 64.0151 21.8982C64.0151 22.1892 63.9077 22.4119 63.6928 22.5662C63.4799 22.7205 63.1782 22.7976 62.7875 22.7976H61.3549ZM61.8969 21.406V22.3611H62.7934C63.02 22.3611 63.1889 22.3191 63.3002 22.2351C63.4135 22.1512 63.4702 22.033 63.4702 21.8806C63.4702 21.5642 63.2377 21.406 62.7729 21.406H61.8969ZM61.8969 20.9724H62.5971C63.1049 20.9724 63.3588 20.824 63.3588 20.5271C63.3588 20.2303 63.1186 20.0769 62.6381 20.0672H61.8969V20.9724ZM65.7202 21.4471H65.3246V22.7976H64.7797V19.6277H65.3246V20.9695H65.6791L66.7455 19.6277H67.4018L66.1479 21.1512L67.5073 22.7976H66.8188L65.7202 21.4471ZM69.9301 22.7976C69.8989 22.7351 69.8735 22.6238 69.8539 22.4637C69.602 22.7254 69.3012 22.8562 68.9516 22.8562C68.6391 22.8562 68.3823 22.7683 68.1811 22.5926C67.9819 22.4148 67.8823 22.1902 67.8823 21.9187C67.8823 21.5887 68.0073 21.3328 68.2573 21.1512C68.5092 20.9676 68.8627 20.8758 69.3178 20.8758H69.8452V20.6267C69.8452 20.4373 69.7885 20.2869 69.6752 20.1756C69.562 20.0623 69.395 20.0056 69.1743 20.0056C68.9809 20.0056 68.8188 20.0545 68.6879 20.1521C68.5571 20.2498 68.4916 20.368 68.4916 20.5066H67.9467C67.9467 20.3484 68.0024 20.1961 68.1137 20.0496C68.227 19.9012 68.3793 19.784 68.5707 19.698C68.7641 19.6121 68.976 19.5691 69.2065 19.5691C69.5717 19.5691 69.8579 19.6609 70.0649 19.8445C70.2719 20.0262 70.3793 20.2771 70.3871 20.5974V22.0564C70.3871 22.3474 70.4243 22.5789 70.4985 22.7508V22.7976H69.9301ZM69.0307 22.3846C69.2006 22.3846 69.3618 22.3406 69.5141 22.2527C69.6664 22.1648 69.7768 22.0506 69.8452 21.9099V21.2596H69.4204C68.7563 21.2596 68.4243 21.4539 68.4243 21.8426C68.4243 22.0125 68.4809 22.1453 68.5942 22.241C68.7075 22.3367 68.853 22.3846 69.0307 22.3846ZM71.8432 21.5935H71.3539L71.3159 18.532H71.8842L71.8432 21.5935ZM71.2954 22.5252C71.2954 22.4373 71.3217 22.364 71.3745 22.3055C71.4291 22.2449 71.5092 22.2146 71.6147 22.2146C71.7202 22.2146 71.8002 22.2449 71.8549 22.3055C71.9096 22.364 71.937 22.4373 71.937 22.5252C71.937 22.6131 71.9096 22.6863 71.8549 22.7449C71.8002 22.8015 71.7202 22.8299 71.6147 22.8299C71.5092 22.8299 71.4291 22.8015 71.3745 22.7449C71.3217 22.6863 71.2954 22.6131 71.2954 22.5252Z" fill="black"/>
<path d="M78.6452 134.738C78.5557 134.738 78.4699 134.703 78.4066 134.641C78.3433 134.578 78.3077 134.493 78.3077 134.405C78.3077 134.316 78.3433 134.232 78.4066 134.169C78.4699 134.107 78.5557 134.072 78.6452 134.072C79.543 134.072 80.4407 134.072 81.3452 134.005C81.4348 134.005 81.5206 134.04 81.5839 134.102C81.6472 134.165 81.6827 134.25 81.6827 134.338C81.6827 134.427 81.6472 134.511 81.5839 134.574C81.5206 134.636 81.4348 134.672 81.3452 134.672C80.4407 134.705 79.5362 134.725 78.6452 134.738ZM75.9452 134.738C75.0475 134.738 74.143 134.738 73.2452 134.672C73.1569 134.668 73.0735 134.631 73.0129 134.567C72.9523 134.503 72.9194 134.419 72.9212 134.332C72.9264 134.243 72.9657 134.16 73.031 134.099C73.0962 134.038 73.1826 134.005 73.2722 134.005C74.17 134.038 75.061 134.058 75.9723 134.072C76.0618 134.072 76.1476 134.107 76.2109 134.169C76.2742 134.232 76.3098 134.316 76.3098 134.405C76.3098 134.493 76.2742 134.578 76.2109 134.641C76.1476 134.703 76.0618 134.738 75.9723 134.738H75.9452ZM84.0452 134.552C83.9598 134.552 83.8777 134.519 83.816 134.461C83.7544 134.402 83.718 134.323 83.7145 134.238C83.7118 134.194 83.7178 134.15 83.7323 134.109C83.7467 134.068 83.7694 134.029 83.7988 133.996C83.8283 133.964 83.8641 133.937 83.904 133.918C83.944 133.899 83.9874 133.887 84.0318 133.885C84.9228 133.838 85.8205 133.778 86.7318 133.705C86.7757 133.701 86.82 133.706 86.862 133.72C86.904 133.733 86.9428 133.755 86.9761 133.784C87.0094 133.812 87.0367 133.847 87.0561 133.886C87.0756 133.925 87.087 133.968 87.0895 134.012C87.0932 134.055 87.0881 134.099 87.0744 134.141C87.0608 134.183 87.0389 134.222 87.0101 134.255C86.9812 134.289 86.946 134.316 86.9063 134.336C86.8666 134.356 86.8234 134.368 86.779 134.372C85.8812 134.438 84.9835 134.498 84.079 134.552H84.0452ZM70.5452 134.552C69.6407 134.498 68.743 134.438 67.8452 134.365C67.8009 134.361 67.7577 134.349 67.7181 134.329C67.6786 134.309 67.6433 134.282 67.6145 134.248C67.5857 134.215 67.5638 134.176 67.5501 134.134C67.5364 134.093 67.5312 134.049 67.5348 134.005C67.5383 133.961 67.5505 133.918 67.5708 133.879C67.591 133.84 67.6188 133.805 67.6527 133.777C67.6865 133.748 67.7257 133.727 67.768 133.713C67.8103 133.7 67.8549 133.695 67.8992 133.698C68.797 133.771 69.688 133.832 70.5992 133.885C70.6888 133.885 70.7746 133.92 70.8379 133.982C70.9012 134.045 70.9367 134.13 70.9367 134.218C70.9367 134.307 70.9012 134.391 70.8379 134.454C70.7746 134.516 70.6888 134.552 70.5992 134.552H70.5452ZM89.4452 134.132C89.3621 134.129 89.2826 134.098 89.2208 134.043C89.159 133.988 89.1189 133.913 89.1077 133.831C89.1031 133.788 89.1073 133.743 89.12 133.701C89.1328 133.659 89.1539 133.62 89.1822 133.586C89.2104 133.551 89.2452 133.523 89.2846 133.503C89.324 133.482 89.3671 133.469 89.4115 133.465C90.3115 133.371 91.2115 133.271 92.1115 133.165C92.1558 133.159 92.2008 133.162 92.244 133.174C92.2871 133.185 92.3276 133.205 92.363 133.232C92.3984 133.259 92.4281 133.292 92.4504 133.331C92.4727 133.369 92.4871 133.411 92.4929 133.455C92.4986 133.499 92.4956 133.543 92.484 133.586C92.4723 133.628 92.4523 133.668 92.425 133.703C92.3978 133.738 92.3638 133.768 92.3251 133.79C92.2863 133.812 92.2436 133.826 92.1992 133.831C91.2993 133.947 90.3993 134.047 89.4993 134.132H89.4452ZM65.1925 134.132H65.1587C64.261 134.032 63.3632 133.925 62.4587 133.812C62.3692 133.8 62.288 133.754 62.2329 133.683C62.1779 133.613 62.1535 133.523 62.1651 133.435C62.1768 133.346 62.2235 133.266 62.295 133.212C62.3665 133.157 62.457 133.133 62.5465 133.145C63.4308 133.258 64.3218 133.365 65.2465 133.458C65.336 133.463 65.4197 133.504 65.4792 133.57C65.5387 133.636 65.5691 133.723 65.5638 133.812C65.5584 133.9 65.5177 133.983 65.4506 134.041C65.3835 134.1 65.2955 134.13 65.206 134.125L65.1925 134.132ZM94.8047 133.465C94.725 133.464 94.648 133.436 94.5875 133.385C94.527 133.333 94.4868 133.263 94.474 133.185C94.4663 133.141 94.4677 133.097 94.4779 133.054C94.4882 133.011 94.5071 132.97 94.5336 132.935C94.5601 132.899 94.5936 132.87 94.6321 132.847C94.6705 132.825 94.7132 132.81 94.7575 132.805C95.6418 132.671 96.5328 132.531 97.417 132.385C97.4605 132.377 97.5051 132.378 97.5482 132.388C97.5912 132.398 97.6319 132.416 97.6678 132.441C97.7036 132.467 97.734 132.499 97.757 132.536C97.78 132.574 97.7952 132.615 97.8017 132.658C97.8105 132.701 97.8103 132.745 97.8013 132.787C97.7923 132.83 97.7747 132.87 97.7494 132.905C97.7241 132.941 97.6918 132.971 97.6544 132.994C97.617 133.017 97.5752 133.032 97.5317 133.038C96.6407 133.191 95.7497 133.331 94.8317 133.465H94.8047ZM59.8465 133.411H59.7925C58.9015 133.271 58.0105 133.118 57.1263 132.958C57.0819 132.95 57.0396 132.934 57.0017 132.91C56.9638 132.886 56.9311 132.855 56.9054 132.818C56.8797 132.782 56.8615 132.74 56.8519 132.697C56.8424 132.653 56.8415 132.609 56.8495 132.565C56.8575 132.521 56.8741 132.479 56.8984 132.442C56.9228 132.404 56.9543 132.372 56.9913 132.347C57.0283 132.321 57.07 132.303 57.114 132.294C57.158 132.284 57.2034 132.284 57.2477 132.291C58.132 132.458 59.0163 132.605 59.9005 132.745C59.9448 132.748 59.988 132.76 60.0276 132.78C60.0672 132.8 60.1024 132.828 60.1312 132.861C60.1601 132.895 60.182 132.933 60.1956 132.975C60.2093 133.017 60.2145 133.061 60.211 133.105C60.2075 133.149 60.1952 133.191 60.175 133.23C60.1547 133.269 60.1269 133.304 60.0931 133.333C60.0592 133.361 60.02 133.383 59.9777 133.396C59.9354 133.41 59.8908 133.415 59.8465 133.411ZM100.131 132.565C100.041 132.574 99.9516 132.547 99.882 132.491C99.8123 132.434 99.7682 132.353 99.7592 132.265C99.7503 132.176 99.7773 132.088 99.8342 132.019C99.8912 131.95 99.9735 131.907 100.063 131.898C100.947 131.725 101.831 131.545 102.702 131.358C102.792 131.339 102.885 131.355 102.963 131.404C103.04 131.453 103.094 131.53 103.114 131.618C103.134 131.706 103.117 131.799 103.068 131.875C103.018 131.951 102.94 132.005 102.851 132.025L100.198 132.565H100.131ZM54.5477 132.431H54.4735C53.5892 132.245 52.7118 132.045 51.8342 131.831C51.7915 131.821 51.7512 131.803 51.7157 131.777C51.6803 131.751 51.6503 131.719 51.6277 131.682C51.6051 131.644 51.5902 131.603 51.5839 131.56C51.5777 131.517 51.5802 131.473 51.5912 131.431C51.6121 131.346 51.6664 131.272 51.7423 131.225C51.8181 131.179 51.9094 131.165 51.9962 131.185C52.867 131.398 53.7378 131.591 54.6152 131.778C54.6588 131.787 54.7 131.805 54.7365 131.831C54.773 131.856 54.8041 131.888 54.8279 131.925C54.8517 131.962 54.8679 132.004 54.8754 132.047C54.883 132.091 54.8817 132.135 54.8717 132.178C54.8543 132.254 54.81 132.321 54.7469 132.367C54.6838 132.414 54.606 132.437 54.5275 132.431H54.5477ZM105.375 131.425C105.3 131.425 105.227 131.4 105.168 131.354C105.109 131.308 105.068 131.244 105.051 131.171C105.04 131.129 105.038 131.085 105.044 131.041C105.05 130.998 105.065 130.956 105.087 130.918C105.11 130.88 105.14 130.847 105.175 130.821C105.211 130.795 105.251 130.775 105.294 130.765C106.172 130.551 107.042 130.329 107.906 130.098C107.992 130.075 108.084 130.087 108.161 130.131C108.238 130.175 108.295 130.247 108.318 130.331C108.339 130.417 108.327 130.507 108.283 130.584C108.239 130.661 108.167 130.718 108.082 130.745C107.211 130.971 106.334 131.191 105.456 131.411L105.375 131.425ZM49.276 131.171H49.1815C48.3107 130.931 47.4468 130.685 46.5827 130.425C46.4932 130.398 46.4181 130.338 46.3738 130.256C46.3294 130.175 46.3196 130.08 46.3465 129.991C46.3734 129.903 46.4347 129.829 46.5169 129.785C46.5992 129.741 46.6957 129.731 46.7852 129.758C47.6357 130.018 48.4997 130.265 49.3637 130.498C49.4499 130.523 49.5229 130.58 49.567 130.657C49.6111 130.734 49.623 130.826 49.6 130.911C49.584 130.982 49.5449 131.046 49.4889 131.093C49.4329 131.14 49.3629 131.167 49.2895 131.171H49.276ZM110.593 130.031C110.503 130.044 110.413 130.02 110.341 129.967C110.268 129.913 110.221 129.833 110.208 129.745C110.196 129.656 110.219 129.566 110.274 129.495C110.328 129.424 110.409 129.377 110.498 129.365C111.362 129.118 112.22 128.851 113.07 128.584C113.115 128.571 113.161 128.566 113.207 128.57C113.254 128.574 113.298 128.588 113.34 128.609C113.381 128.63 113.417 128.66 113.447 128.695C113.476 128.73 113.499 128.771 113.512 128.814C113.526 128.858 113.531 128.904 113.527 128.95C113.522 128.996 113.509 129.04 113.488 129.08C113.466 129.121 113.436 129.157 113.401 129.186C113.365 129.216 113.324 129.238 113.28 129.251C112.422 129.525 111.558 129.785 110.687 130.038C110.66 130.041 110.633 130.038 110.606 130.031H110.593ZM44.119 129.605C44.0833 129.611 44.0467 129.611 44.011 129.605C43.1537 129.318 42.3032 129.011 41.4662 128.698C41.3924 128.66 41.335 128.598 41.3051 128.521C41.2751 128.445 41.2747 128.36 41.304 128.284C41.3332 128.207 41.39 128.143 41.4635 128.106C41.537 128.068 41.6221 128.058 41.7025 128.078C42.5395 128.384 43.3765 128.684 44.227 128.971C44.3113 129.001 44.3803 129.063 44.4193 129.143C44.4584 129.222 44.4645 129.314 44.4362 129.398C44.4121 129.458 44.3703 129.51 44.3163 129.547C44.2622 129.584 44.1982 129.604 44.1325 129.605H44.119ZM115.736 128.391C115.667 128.392 115.599 128.371 115.542 128.332C115.485 128.292 115.442 128.236 115.419 128.171C115.391 128.087 115.397 127.995 115.436 127.916C115.475 127.836 115.544 127.775 115.628 127.744C116.479 127.451 117.323 127.144 118.16 126.831C118.201 126.815 118.245 126.807 118.289 126.809C118.333 126.81 118.377 126.819 118.417 126.838C118.457 126.856 118.494 126.881 118.524 126.913C118.554 126.946 118.577 126.983 118.592 127.024C118.608 127.065 118.616 127.109 118.615 127.153C118.614 127.198 118.604 127.241 118.586 127.281C118.567 127.322 118.541 127.358 118.509 127.388C118.476 127.419 118.438 127.442 118.396 127.458C117.559 127.771 116.709 128.078 115.851 128.378C115.818 128.388 115.784 128.392 115.75 128.391H115.736ZM39.0767 127.724C39.0345 127.734 38.9907 127.734 38.9485 127.724C38.1115 127.378 37.2745 127.018 36.4645 126.658C36.424 126.639 36.3876 126.613 36.3575 126.58C36.3273 126.547 36.304 126.509 36.289 126.468C36.2739 126.426 36.2673 126.382 36.2697 126.338C36.272 126.294 36.2831 126.251 36.3025 126.211C36.3206 126.171 36.3467 126.135 36.3791 126.106C36.4114 126.076 36.4495 126.053 36.4911 126.038C36.5326 126.023 36.5767 126.017 36.6208 126.019C36.665 126.021 36.7082 126.032 36.748 126.051C37.5513 126.411 38.3747 126.771 39.205 127.111C39.2462 127.127 39.2838 127.151 39.3154 127.182C39.347 127.213 39.372 127.249 39.389 127.29C39.406 127.33 39.4146 127.373 39.4143 127.417C39.414 127.461 39.4048 127.504 39.3872 127.544C39.3593 127.598 39.3166 127.643 39.264 127.673C39.2115 127.704 39.1513 127.719 39.0903 127.718L39.0767 127.724ZM120.792 126.498C120.725 126.499 120.659 126.48 120.604 126.443C120.548 126.406 120.505 126.353 120.482 126.291C120.464 126.251 120.455 126.207 120.455 126.164C120.454 126.12 120.463 126.077 120.48 126.036C120.497 125.996 120.522 125.959 120.554 125.928C120.585 125.898 120.623 125.874 120.664 125.858C121.494 125.518 122.318 125.191 123.134 124.811C123.175 124.793 123.219 124.784 123.264 124.783C123.308 124.782 123.352 124.79 123.394 124.806C123.435 124.822 123.473 124.846 123.505 124.877C123.537 124.907 123.562 124.944 123.58 124.984C123.615 125.065 123.617 125.156 123.585 125.238C123.554 125.32 123.491 125.387 123.411 125.424C122.588 125.784 121.757 126.131 120.92 126.478C120.883 126.487 120.844 126.492 120.806 126.491L120.792 126.498ZM34.1898 125.504C34.1385 125.503 34.0881 125.491 34.0412 125.471C33.2312 125.071 32.428 124.651 31.645 124.224C31.6059 124.203 31.5714 124.175 31.5435 124.141C31.5155 124.107 31.4947 124.067 31.4821 124.025C31.4696 123.983 31.4656 123.939 31.4704 123.895C31.4751 123.852 31.4886 123.809 31.51 123.771C31.5541 123.694 31.6266 123.637 31.7122 123.612C31.7978 123.588 31.8899 123.597 31.969 123.637C32.7452 124.064 33.5417 124.477 34.345 124.871C34.4237 124.913 34.483 124.984 34.5106 125.068C34.5382 125.153 34.5321 125.244 34.4935 125.324C34.4641 125.379 34.4204 125.424 34.3669 125.456C34.3134 125.487 34.2521 125.504 34.1898 125.504ZM125.74 124.331C125.676 124.333 125.614 124.316 125.56 124.283C125.506 124.249 125.463 124.201 125.436 124.144C125.417 124.105 125.405 124.062 125.402 124.018C125.4 123.974 125.406 123.93 125.42 123.889C125.434 123.847 125.457 123.809 125.486 123.776C125.516 123.743 125.552 123.717 125.591 123.697C126.402 123.311 127.205 122.917 128.001 122.511C128.081 122.47 128.174 122.462 128.259 122.489C128.345 122.516 128.416 122.575 128.457 122.654C128.498 122.733 128.506 122.824 128.479 122.909C128.451 122.993 128.391 123.063 128.312 123.104C127.508 123.511 126.705 123.911 125.882 124.297C125.838 124.319 125.789 124.328 125.74 124.324V124.331ZM29.4715 122.931C29.4091 122.929 29.3484 122.911 29.296 122.877C28.5197 122.417 27.7502 121.937 27.001 121.451C26.927 121.402 26.8756 121.326 26.8579 121.24C26.8402 121.154 26.8577 121.064 26.9065 120.991C26.9304 120.954 26.9615 120.922 26.9981 120.897C27.0347 120.872 27.0759 120.855 27.1194 120.846C27.1628 120.838 27.2076 120.838 27.251 120.846C27.2945 120.855 27.3357 120.872 27.3722 120.897C28.1147 121.377 28.8775 121.851 29.647 122.311C29.7225 122.356 29.7768 122.429 29.7983 122.514C29.8197 122.599 29.8066 122.689 29.7618 122.764C29.7318 122.814 29.6894 122.855 29.6386 122.885C29.5878 122.914 29.5303 122.93 29.4715 122.931ZM130.533 121.871C130.473 121.87 130.414 121.855 130.362 121.825C130.31 121.796 130.267 121.754 130.236 121.704C130.194 121.626 130.185 121.535 130.21 121.45C130.235 121.366 130.293 121.294 130.37 121.251C131.153 120.817 131.93 120.371 132.692 119.917C132.731 119.894 132.773 119.879 132.817 119.873C132.861 119.866 132.906 119.868 132.949 119.879C132.992 119.889 133.033 119.908 133.069 119.934C133.105 119.96 133.135 119.993 133.158 120.03C133.181 120.068 133.197 120.11 133.203 120.153C133.21 120.197 133.208 120.241 133.197 120.284C133.187 120.327 133.168 120.367 133.141 120.402C133.115 120.438 133.082 120.468 133.044 120.491C132.274 120.935 131.491 121.379 130.695 121.824C130.645 121.853 130.59 121.869 130.533 121.871ZM24.9692 119.99C24.8994 119.99 24.8312 119.969 24.7735 119.93C24.0355 119.402 23.3132 118.862 22.6067 118.31C22.5372 118.255 22.4925 118.175 22.4824 118.088C22.4723 118.001 22.4976 117.913 22.5527 117.844C22.6106 117.776 22.6925 117.733 22.7816 117.723C22.8708 117.713 22.9603 117.737 23.032 117.79C23.707 118.337 24.4427 118.87 25.165 119.39C25.2015 119.416 25.2326 119.448 25.2564 119.485C25.2803 119.522 25.2964 119.564 25.304 119.607C25.3115 119.651 25.3103 119.695 25.3003 119.738C25.2904 119.781 25.2719 119.821 25.246 119.857C25.2135 119.899 25.1716 119.933 25.1236 119.956C25.0755 119.979 25.0227 119.991 24.9692 119.99ZM20.7437 116.657C20.6624 116.657 20.5836 116.628 20.521 116.577C19.9135 116.05 19.306 115.51 18.7255 114.97L18.5162 114.77C18.4848 114.74 18.4598 114.703 18.4428 114.663C18.4258 114.623 18.417 114.58 18.417 114.537C18.417 114.493 18.4258 114.45 18.4428 114.41C18.4598 114.37 18.4848 114.334 18.5162 114.303C18.5476 114.272 18.585 114.247 18.6261 114.23C18.6672 114.214 18.7113 114.205 18.7559 114.205C18.8004 114.205 18.8445 114.214 18.8857 114.23C18.9268 114.247 18.9641 114.272 18.9955 114.303L19.198 114.497C19.7785 115.037 20.3725 115.57 20.98 116.084C21.0327 116.128 21.0702 116.187 21.0875 116.254C21.1048 116.32 21.101 116.39 21.0767 116.454C21.0524 116.518 21.0086 116.573 20.9515 116.612C20.8944 116.651 20.8265 116.671 20.7572 116.67L20.7437 116.657ZM16.8287 112.99C16.7375 112.99 16.6501 112.954 16.5857 112.89C15.9512 112.223 15.3302 111.557 14.7362 110.93C14.7048 110.899 14.6798 110.863 14.6628 110.823C14.6458 110.783 14.637 110.74 14.637 110.696C14.637 110.653 14.6458 110.61 14.6628 110.57C14.6798 110.53 14.7048 110.494 14.7362 110.463C14.7676 110.432 14.805 110.407 14.8461 110.39C14.8872 110.373 14.9313 110.365 14.9759 110.365C15.0204 110.365 15.0645 110.373 15.1057 110.39C15.1468 110.407 15.1841 110.432 15.2155 110.463C15.8095 111.13 16.4237 111.797 17.0515 112.403C17.0831 112.434 17.1082 112.471 17.1254 112.512C17.1425 112.552 17.1513 112.596 17.1513 112.64C17.1513 112.684 17.1425 112.728 17.1254 112.768C17.1082 112.809 17.0831 112.846 17.0515 112.877C16.9976 112.949 16.9181 112.999 16.8287 113.017V112.99ZM13.2242 108.99C13.1736 108.989 13.1238 108.977 13.0783 108.955C13.0328 108.933 12.9927 108.902 12.961 108.863C12.3805 108.196 11.8202 107.463 11.2802 106.763C11.2282 106.692 11.2062 106.603 11.2188 106.516C11.2314 106.429 11.2776 106.35 11.3477 106.296C11.4194 106.243 11.5094 106.22 11.598 106.233C11.6866 106.245 11.7665 106.292 11.8202 106.363C12.3535 107.03 12.9137 107.756 13.4807 108.443C13.5097 108.476 13.5316 108.514 13.5453 108.556C13.559 108.597 13.5641 108.641 13.5603 108.685C13.5565 108.728 13.5439 108.771 13.5233 108.809C13.5027 108.848 13.4745 108.882 13.4403 108.91C13.3894 108.982 13.3119 109.032 13.2242 109.05V108.99ZM9.9775 104.729C9.92267 104.729 9.86868 104.716 9.82037 104.691C9.77206 104.665 9.73096 104.628 9.70075 104.583C9.18775 103.843 8.68825 103.083 8.2225 102.329C8.18459 102.255 8.17646 102.168 8.19972 102.088C8.22298 102.008 8.27593 101.939 8.34809 101.895C8.42024 101.852 8.50634 101.837 8.58934 101.853C8.67234 101.869 8.74618 101.915 8.79625 101.982C9.25525 102.723 9.748 103.476 10.2542 104.209C10.2796 104.245 10.2975 104.285 10.3069 104.328C10.3162 104.371 10.3168 104.415 10.3087 104.458C10.3005 104.501 10.2837 104.541 10.2593 104.578C10.2349 104.614 10.2033 104.645 10.1665 104.669C10.1204 104.731 10.0532 104.773 9.9775 104.789V104.729ZM7.156 100.189C7.09543 100.188 7.03607 100.172 6.98393 100.142C6.93178 100.111 6.88869 100.068 6.859 100.016C6.42025 99.229 6.00175 98.4222 5.61025 97.6288C5.59089 97.5891 5.57973 97.5459 5.57741 97.5018C5.57509 97.4577 5.58165 97.4136 5.59672 97.3721C5.61179 97.3305 5.63507 97.2923 5.6652 97.2597C5.69533 97.2271 5.73172 97.2007 5.77225 97.1821C5.81162 97.1629 5.85448 97.1517 5.89831 97.149C5.94214 97.1463 5.98608 97.1523 6.02754 97.1666C6.06902 97.1808 6.10719 97.2031 6.13985 97.2321C6.1725 97.2611 6.19898 97.2963 6.21775 97.3355C6.6025 98.1222 7.021 98.9156 7.44625 99.6957C7.46868 99.733 7.48318 99.7745 7.48886 99.8176C7.49454 99.8607 7.49128 99.9044 7.47929 99.9462C7.46729 99.988 7.4468 100.027 7.41907 100.061C7.39134 100.094 7.35695 100.122 7.318 100.142C7.27767 100.195 7.2206 100.232 7.156 100.249V100.189ZM4.80025 95.442C4.73247 95.443 4.66596 95.4238 4.60937 95.387C4.55279 95.3501 4.50875 95.2973 4.483 95.2353C4.13875 94.4153 3.808 93.5686 3.511 92.7352C3.48346 92.6527 3.48955 92.563 3.52796 92.4849C3.56637 92.4069 3.63408 92.3467 3.7167 92.3172C3.79932 92.2877 3.89033 92.2911 3.9704 92.3269C4.05048 92.3626 4.11329 92.4277 4.1455 92.5085C4.4425 93.3352 4.7665 94.1686 5.11075 94.982C5.14256 95.0635 5.14137 95.154 5.10744 95.2347C5.07351 95.3154 5.00943 95.3801 4.9285 95.4153C4.88815 95.4331 4.84443 95.4422 4.80025 95.442ZM3.00475 90.415C2.93145 90.4161 2.85985 90.3931 2.80121 90.3497C2.74256 90.3062 2.70019 90.2448 2.68075 90.175C2.431 89.3149 2.2015 88.4415 2.00575 87.5748C1.99579 87.5319 1.99454 87.4874 2.00207 87.444C2.00959 87.4006 2.02575 87.3591 2.0496 87.322C2.07344 87.2848 2.10452 87.2526 2.14101 87.2273C2.17751 87.2021 2.21872 87.1842 2.26225 87.1747C2.34901 87.1569 2.43942 87.1734 2.51393 87.2208C2.58845 87.2682 2.6411 87.3427 2.6605 87.4281C2.85625 88.2815 3.079 89.1415 3.3355 89.9883C3.34791 90.0303 3.35182 90.0743 3.347 90.1179C3.34218 90.1614 3.32873 90.2035 3.30742 90.2419C3.28611 90.2803 3.25736 90.3142 3.22279 90.3416C3.18823 90.369 3.14855 90.3894 3.106 90.4016C3.07783 90.4114 3.04808 90.4159 3.01825 90.415H3.00475ZM1.8235 85.2146C1.7426 85.2156 1.66403 85.1879 1.60208 85.1365C1.54013 85.0851 1.49894 85.0135 1.486 84.9346C1.34425 84.0478 1.2295 83.1544 1.14175 82.2677C1.13369 82.1793 1.16152 82.0914 1.21912 82.0232C1.27672 81.9551 1.35936 81.9123 1.44887 81.9044C1.53838 81.8964 1.62743 81.9239 1.69642 81.9808C1.76541 82.0377 1.80869 82.1193 1.81675 82.2077C1.9045 83.0744 2.01925 83.9545 2.161 84.8279C2.16874 84.8713 2.16771 84.9157 2.15796 84.9587C2.14822 85.0016 2.12995 85.0423 2.10422 85.0782C2.07849 85.1142 2.0458 85.1447 2.00805 85.1682C1.97029 85.1916 1.92822 85.2073 1.88425 85.2146H1.8235ZM1.30375 79.9142C1.21591 79.9126 1.13203 79.8778 1.06929 79.8171C1.00654 79.7564 0.969677 79.6742 0.966248 79.5875C0.966248 79.1475 0.966248 78.7075 0.966248 78.2541C0.966248 77.8007 0.966248 77.334 0.966248 76.8807C0.967074 76.8366 0.976922 76.7931 0.9952 76.7529C1.01348 76.7127 1.03981 76.6766 1.0726 76.6467C1.10539 76.6168 1.14397 76.5937 1.18602 76.5789C1.22806 76.5641 1.2727 76.5579 1.31725 76.5606C1.40558 76.5641 1.489 76.6017 1.54959 76.6653C1.61017 76.7288 1.64309 76.8134 1.64125 76.9007C1.64125 77.3474 1.64125 77.8007 1.64125 78.2341C1.64125 78.6675 1.64125 79.0941 1.64125 79.5275C1.64305 79.5718 1.63588 79.6161 1.62015 79.6576C1.60442 79.6992 1.58045 79.7372 1.54965 79.7695C1.51885 79.8018 1.48183 79.8277 1.44076 79.8457C1.39969 79.8637 1.35541 79.8734 1.3105 79.8742L1.30375 79.9142ZM1.486 74.5805C1.44189 74.5772 1.3989 74.5651 1.35958 74.5451C1.32026 74.5251 1.2854 74.4975 1.25708 74.4639C1.22876 74.4303 1.20754 74.3915 1.19469 74.3497C1.18184 74.3078 1.1776 74.2639 1.18225 74.2205C1.27675 73.3271 1.39825 72.427 1.5535 71.5536C1.56003 71.5104 1.57526 71.469 1.59827 71.4318C1.62128 71.3945 1.65161 71.3622 1.68747 71.3367C1.72334 71.3112 1.764 71.2931 1.80707 71.2834C1.85014 71.2737 1.89475 71.2726 1.93825 71.2802C1.98221 71.2875 2.02429 71.3033 2.06205 71.3267C2.0998 71.3501 2.13249 71.3807 2.15822 71.4166C2.18395 71.4526 2.20222 71.4932 2.21196 71.5362C2.22171 71.5791 2.22274 71.6236 2.215 71.6669C2.0665 72.527 1.945 73.4071 1.85725 74.2871C1.84562 74.3719 1.80265 74.4495 1.7366 74.5049C1.67056 74.5603 1.5861 74.5896 1.4995 74.5872L1.486 74.5805ZM2.39725 69.3268H2.31625C2.27322 69.3159 2.23278 69.2967 2.19727 69.2704C2.16175 69.244 2.13184 69.211 2.10927 69.1732C2.08669 69.1355 2.07189 69.0937 2.06571 69.0502C2.05953 69.0068 2.06209 68.9625 2.07325 68.9201C2.2825 68.0467 2.53225 67.1799 2.809 66.3332C2.8368 66.2493 2.8972 66.1796 2.97693 66.1396C3.05666 66.0996 3.14921 66.0925 3.23425 66.1199C3.27608 66.1327 3.31491 66.1537 3.34847 66.1815C3.38204 66.2093 3.40967 66.2435 3.42976 66.2819C3.44986 66.3204 3.46202 66.3624 3.46554 66.4055C3.46905 66.4487 3.46386 66.4921 3.45025 66.5332C3.18025 67.3666 2.93725 68.22 2.728 69.0801C2.71035 69.1507 2.6698 69.2137 2.61252 69.2595C2.55523 69.3052 2.48437 69.3312 2.41075 69.3334L2.39725 69.3268ZM4.051 64.2531C4.00884 64.263 3.96491 64.263 3.92275 64.2531C3.8815 64.2369 3.84389 64.2129 3.81207 64.1823C3.78024 64.1518 3.75482 64.1153 3.73726 64.0751C3.71971 64.0348 3.71036 63.9916 3.70976 63.9477C3.70916 63.9039 3.71731 63.8604 3.73375 63.8197C4.07125 62.993 4.44925 62.1662 4.8475 61.3662C4.86338 61.3217 4.88863 61.2811 4.92158 61.247C4.95453 61.2129 4.99442 61.1861 5.03864 61.1683C5.08285 61.1506 5.13037 61.1423 5.17807 61.144C5.22576 61.1457 5.27255 61.1574 5.31533 61.1783C5.35812 61.1992 5.39593 61.2288 5.42627 61.2652C5.45662 61.3016 5.4788 61.3439 5.49136 61.3894C5.50392 61.4349 5.50657 61.4825 5.49914 61.529C5.49171 61.5756 5.47436 61.6201 5.44825 61.6595C5.0635 62.4463 4.69225 63.253 4.3615 64.0731C4.33358 64.1277 4.29126 64.1739 4.23898 64.2067C4.18671 64.2396 4.12643 64.2579 4.0645 64.2597L4.051 64.2531ZM6.4405 59.4994C6.38093 59.4998 6.32245 59.4836 6.27175 59.4527C6.23313 59.4313 6.19926 59.4025 6.17214 59.3679C6.14503 59.3333 6.12522 59.2937 6.11388 59.2514C6.10255 59.2091 6.09993 59.165 6.10618 59.1217C6.11243 59.0784 6.12741 59.0368 6.15025 58.9993C6.60925 58.2326 7.0885 57.4659 7.588 56.7192C7.64075 56.6545 7.71605 56.6116 7.79915 56.5989C7.88225 56.5861 7.96716 56.6045 8.03726 56.6504C8.10736 56.6963 8.1576 56.7664 8.17812 56.8469C8.19865 56.9275 8.188 57.0127 8.14825 57.0859C7.66225 57.8193 7.183 58.5793 6.73075 59.3327C6.7013 59.3831 6.65901 59.425 6.60809 59.4542C6.55718 59.4835 6.4994 59.499 6.4405 59.4994ZM9.41725 55.0457C9.34398 55.0473 9.27243 55.0237 9.21475 54.979C9.14401 54.9271 9.09664 54.8499 9.08277 54.764C9.06889 54.678 9.08961 54.5901 9.1405 54.519C9.6805 53.799 10.2408 53.0856 10.8145 52.3989C10.842 52.3646 10.8762 52.3361 10.9151 52.3151C10.9539 52.2942 10.9967 52.2811 11.0407 52.2768C11.0848 52.2724 11.1293 52.2768 11.1716 52.2898C11.2139 52.3028 11.2532 52.324 11.287 52.3522C11.3555 52.4081 11.3989 52.4886 11.4078 52.5759C11.4166 52.6633 11.3902 52.7506 11.3342 52.8189C10.7672 53.4856 10.2137 54.199 9.68725 54.9124C9.65348 54.9497 9.61176 54.9793 9.56508 54.9989C9.51841 55.0185 9.46793 55.0276 9.41725 55.0257V55.0457ZM12.8395 50.9254C12.7984 50.9263 12.7576 50.919 12.7193 50.9041C12.6811 50.8893 12.6462 50.867 12.6167 50.8387C12.5851 50.8078 12.56 50.7709 12.5429 50.7303C12.5257 50.6896 12.5169 50.6461 12.5169 50.6021C12.5169 50.5581 12.5257 50.5145 12.5429 50.4739C12.56 50.4332 12.5851 50.3964 12.6167 50.3654C13.2242 49.6987 13.8655 49.0319 14.5067 48.4386C14.5375 48.4075 14.5743 48.3829 14.6149 48.366C14.6554 48.3492 14.699 48.3405 14.743 48.3405C14.787 48.3405 14.8306 48.3492 14.8711 48.366C14.9117 48.3829 14.9485 48.4075 14.9792 48.4386C15.0109 48.4696 15.036 48.5064 15.0531 48.547C15.0703 48.5877 15.0791 48.6312 15.0791 48.6753C15.0791 48.7193 15.0703 48.7628 15.0531 48.8035C15.036 48.8441 15.0109 48.8809 14.9792 48.9119C14.3447 49.5187 13.717 50.1587 13.1095 50.8121C13.0744 50.8466 13.032 50.8729 12.9852 50.8891C12.9385 50.9052 12.8887 50.9108 12.8395 50.9054V50.9254ZM16.7005 47.1985C16.653 47.1988 16.606 47.1888 16.5629 47.1693C16.5197 47.1497 16.4814 47.121 16.4507 47.0851C16.4193 47.0547 16.3943 47.0184 16.3773 46.9783C16.3603 46.9383 16.3515 46.8952 16.3515 46.8518C16.3515 46.8083 16.3603 46.7653 16.3773 46.7252C16.3943 46.6852 16.4193 46.6489 16.4507 46.6184C17.1257 46.0251 17.8412 45.4517 18.55 44.905C18.6222 44.8627 18.7075 44.848 18.7899 44.8635C18.8724 44.879 18.9462 44.9237 18.9976 44.9892C19.049 45.0547 19.0744 45.1365 19.0691 45.2192C19.0637 45.3019 19.0279 45.3799 18.9685 45.4384C18.2935 45.9717 17.5712 46.5384 16.8962 47.1185C16.8389 47.158 16.7705 47.179 16.7005 47.1785V47.1985ZM72.793 46.1451C72.7316 46.1446 72.6715 46.1276 72.6192 46.0958C72.5668 46.0641 72.5242 46.0189 72.496 45.9651C72.0543 45.2181 71.529 44.5226 70.93 43.8916C70.87 43.8253 70.8392 43.7381 70.8442 43.6494C70.8493 43.5606 70.8899 43.4774 70.957 43.4182C71.0241 43.359 71.1123 43.3285 71.2022 43.3335C71.2921 43.3385 71.3763 43.3786 71.4362 43.4449C72.0748 44.115 72.63 44.8581 73.09 45.6584C73.111 45.6968 73.124 45.7389 73.1282 45.7824C73.1324 45.8258 73.1278 45.8696 73.1146 45.9113C73.1013 45.9529 73.0798 45.9915 73.0513 46.0248C73.0227 46.0581 72.9877 46.0854 72.9482 46.1051C72.8991 46.1247 72.8456 46.1316 72.793 46.1251V46.1451ZM21.0002 43.9116C20.9452 43.913 20.8907 43.9001 20.8422 43.8744C20.7937 43.8487 20.7528 43.811 20.7235 43.7649C20.6981 43.7292 20.6802 43.6888 20.6709 43.6462C20.6615 43.6035 20.6609 43.5595 20.6691 43.5166C20.6773 43.4737 20.6941 43.4329 20.7185 43.3965C20.7429 43.3602 20.7744 43.329 20.8112 43.3049C21.5537 42.7982 22.3232 42.3115 23.0927 41.8514C23.1305 41.8275 23.1728 41.8115 23.2171 41.8042C23.2614 41.797 23.3067 41.7987 23.3503 41.8093C23.3938 41.8199 23.4348 41.8392 23.4706 41.8659C23.5064 41.8926 23.5363 41.9263 23.5585 41.9648C23.5818 42.0023 23.5973 42.0441 23.6041 42.0877C23.6109 42.1312 23.6089 42.1756 23.5983 42.2184C23.5876 42.2612 23.5684 42.3015 23.5419 42.3369C23.5154 42.3723 23.482 42.4022 23.4438 42.4248C22.681 42.8715 21.925 43.3582 21.1892 43.8516C21.1344 43.891 21.0681 43.9121 21.0002 43.9116ZM69.2358 42.1648C69.1564 42.1646 69.0797 42.1362 69.0197 42.0848C68.3359 41.5256 67.6191 41.0069 66.8733 40.5313C66.836 40.5072 66.804 40.4762 66.7789 40.4398C66.7538 40.4035 66.7362 40.3627 66.7271 40.3197C66.7181 40.2766 66.7176 40.2323 66.7259 40.1891C66.7342 40.1459 66.751 40.1047 66.7754 40.068C66.7998 40.0312 66.8312 39.9995 66.868 39.9748C66.9048 39.95 66.9461 39.9326 66.9897 39.9236C67.0332 39.9147 67.0782 39.9143 67.1219 39.9224C67.1656 39.9306 67.2073 39.9472 67.2445 39.9713C68.0112 40.4641 68.7482 41.0006 69.4518 41.5781C69.504 41.6222 69.5413 41.681 69.5588 41.7466C69.5763 41.8122 69.5731 41.8816 69.5496 41.9454C69.5261 42.0091 69.4835 42.0643 69.4274 42.1035C69.3713 42.1427 69.3045 42.1641 69.2358 42.1648ZM25.5903 41.1647C25.5279 41.1647 25.4666 41.148 25.4131 41.1162C25.3596 41.0845 25.3159 41.0391 25.2865 40.9847C25.246 40.9068 25.2381 40.8162 25.2646 40.7326C25.2912 40.649 25.3499 40.5791 25.4282 40.538C26.2247 40.1246 27.0483 39.7313 27.8785 39.3646C27.9187 39.3458 27.9623 39.3352 28.0068 39.3334C28.0512 39.3317 28.0955 39.3388 28.1371 39.3544C28.1787 39.3699 28.2167 39.3936 28.2488 39.424C28.2809 39.4544 28.3065 39.4909 28.324 39.5313C28.3587 39.6119 28.3606 39.7028 28.3291 39.7848C28.2977 39.8667 28.2354 39.9336 28.1552 39.9713C27.3385 40.3313 26.5285 40.718 25.7455 41.1247C25.6979 41.1504 25.6445 41.1642 25.5903 41.1647ZM64.7402 39.2446C64.6881 39.2438 64.6371 39.23 64.5918 39.2046C63.8155 38.8245 62.992 38.4645 62.155 38.1445C62.0721 38.1131 62.0051 38.0507 61.9685 37.9708C61.9318 37.891 61.9285 37.8 61.9592 37.7178C61.975 37.6765 61.9988 37.6386 62.0295 37.6065C62.0601 37.5743 62.0969 37.5485 62.1377 37.5305C62.1785 37.5125 62.2226 37.5027 62.2672 37.5017C62.3119 37.5006 62.3564 37.5084 62.398 37.5244C63.2552 37.8511 64.099 38.1911 64.8955 38.6112C64.975 38.6511 65.0352 38.7206 65.0631 38.8043C65.0909 38.888 65.084 38.9791 65.044 39.0579C65.0136 39.1177 64.966 39.1673 64.9071 39.2005C64.8483 39.2337 64.7809 39.2491 64.7132 39.2446H64.7402ZM30.538 38.9779C30.4696 38.9774 30.403 38.9569 30.3465 38.9189C30.29 38.8809 30.2462 38.8272 30.2208 38.7645C30.2046 38.7239 30.1969 38.6804 30.198 38.6368C30.1991 38.5931 30.2091 38.5501 30.2274 38.5103C30.2456 38.4706 30.2718 38.4348 30.3042 38.4052C30.3367 38.3755 30.3749 38.3526 30.4165 38.3378C31.2602 38.0178 32.1243 37.7245 32.9883 37.4578C33.0303 37.4435 33.0749 37.4379 33.1192 37.4413C33.1636 37.4448 33.2067 37.4572 33.246 37.4779C33.2852 37.4985 33.3197 37.5269 33.3474 37.5613C33.3751 37.5957 33.3953 37.6353 33.4067 37.6778C33.4202 37.7193 33.4251 37.7632 33.4212 37.8066C33.4172 37.8501 33.4045 37.8924 33.3837 37.9309C33.363 37.9694 33.3346 38.0035 33.3003 38.031C33.266 38.0585 33.2264 38.079 33.184 38.0911C32.3403 38.3578 31.483 38.6445 30.6528 38.9579C30.6077 38.9751 30.5592 38.982 30.511 38.9779H30.538ZM35.6815 37.3844C35.592 37.395 35.5019 37.3701 35.431 37.3151C35.3601 37.2601 35.3142 37.1795 35.3035 37.0911C35.2928 37.0027 35.318 36.9137 35.3737 36.8436C35.4294 36.7736 35.511 36.7283 35.6005 36.7177C36.4712 36.4977 37.3622 36.3043 38.2532 36.1377C38.2967 36.1289 38.3414 36.1287 38.385 36.137C38.4285 36.1453 38.4699 36.162 38.5069 36.1862C38.5439 36.2103 38.5757 36.2414 38.6005 36.2777C38.6253 36.314 38.6426 36.3548 38.6515 36.3977C38.6674 36.4851 38.6481 36.5752 38.5976 36.6487C38.5472 36.7222 38.4696 36.7733 38.3815 36.791C37.504 36.9577 36.6265 37.1511 35.7625 37.3644L35.6815 37.3844ZM59.7115 37.3244H59.6237C58.7868 37.0911 57.916 36.8777 57.025 36.6977C56.9816 36.689 56.9403 36.6718 56.9036 36.6473C56.8668 36.6228 56.8353 36.5914 56.8109 36.5549C56.7864 36.5184 56.7695 36.4774 56.7611 36.4344C56.7526 36.3915 56.7529 36.3472 56.7617 36.3043C56.7812 36.2186 56.8336 36.1436 56.9078 36.0951C56.9821 36.0466 57.0725 36.0284 57.16 36.0443C58.0645 36.231 58.9555 36.4444 59.806 36.711C59.8922 36.7359 59.9651 36.793 60.0092 36.8703C60.0534 36.9475 60.0652 37.0387 60.0422 37.1244C60.0123 37.1913 59.9614 37.2469 59.8969 37.2829C59.8325 37.319 59.758 37.3335 59.6845 37.3244H59.7115ZM40.9802 36.3777C40.9359 36.3807 40.8914 36.3752 40.8493 36.3612C40.8072 36.3473 40.7682 36.3253 40.7347 36.2965C40.667 36.2384 40.6254 36.1561 40.6191 36.0677C40.6129 35.9793 40.6424 35.892 40.7013 35.8251C40.7601 35.7582 40.8435 35.7172 40.933 35.711C41.824 35.591 42.7285 35.491 43.633 35.4176C43.6773 35.4141 43.7219 35.4193 43.7642 35.4328C43.8065 35.4463 43.8457 35.4679 43.8796 35.4964C43.9134 35.5249 43.9412 35.5597 43.9615 35.5988C43.9817 35.6379 43.994 35.6805 43.9975 35.7243C44.001 35.7681 43.9958 35.8121 43.9821 35.8539C43.9685 35.8957 43.9466 35.9344 43.9177 35.9678C43.8889 36.0013 43.8537 36.0288 43.8141 36.0487C43.7745 36.0687 43.7313 36.0808 43.687 36.0843C42.8027 36.1643 41.905 36.2577 41.0275 36.3777H40.9802ZM54.433 36.2577H54.3858C53.5285 36.151 52.6307 36.0577 51.7262 35.9977C51.6819 35.9951 51.6385 35.9839 51.5985 35.9648C51.5586 35.9456 51.5228 35.9189 51.4933 35.886C51.4639 35.8532 51.4412 35.815 51.4268 35.7735C51.4123 35.732 51.4063 35.6881 51.409 35.6443C51.4159 35.5553 51.458 35.4725 51.5262 35.4138C51.5944 35.3552 51.6833 35.3254 51.7735 35.3309C52.6915 35.3976 53.6027 35.4843 54.4735 35.5976C54.5178 35.6003 54.5612 35.6115 54.6011 35.6307C54.641 35.6498 54.6768 35.6766 54.7062 35.7094C54.7357 35.7422 54.7583 35.7804 54.7728 35.8219C54.7873 35.8633 54.7934 35.9072 54.7907 35.951C54.7881 35.9948 54.7767 36.0376 54.7573 36.077C54.7379 36.1165 54.7108 36.1517 54.6776 36.1808C54.6444 36.2099 54.6057 36.2323 54.5637 36.2466C54.5217 36.2609 54.4773 36.267 54.433 36.2643V36.2577ZM46.333 35.9176C46.2458 35.9177 46.1619 35.8844 46.099 35.8248C46.0361 35.7651 45.999 35.6837 45.9955 35.5976C45.9936 35.5097 46.0263 35.4244 46.0867 35.3597C46.1471 35.2951 46.2306 35.2561 46.3195 35.2509C47.2173 35.2509 48.1353 35.2109 49.0195 35.2509C49.1084 35.2544 49.1926 35.2917 49.2542 35.3551C49.3159 35.4185 49.3503 35.503 49.3503 35.591C49.3494 35.6347 49.3398 35.6779 49.322 35.718C49.3042 35.7581 49.2786 35.7944 49.2466 35.8247C49.2147 35.8551 49.177 35.8789 49.1357 35.8948C49.0944 35.9108 49.0503 35.9185 49.006 35.9176C48.1217 35.9176 47.2105 35.9176 46.306 35.9176H46.333Z" fill="#D1D3D4"/>
</svg>
