<svg width="208" height="143" viewBox="0 0 208 143" fill="none" xmlns="http://www.w3.org/2000/svg">
<path d="M176.056 62.0927V142.605H25.5508V62.0927L100.807 17.1494L176.056 62.0927Z" fill="#F1F2F2"/>
<path d="M176.056 142.939H25.5309C25.4413 142.939 25.3555 142.904 25.2922 142.841C25.2289 142.779 25.1934 142.694 25.1934 142.605V62.0928C25.1937 62.0346 25.2095 61.9775 25.2391 61.9272C25.2687 61.8769 25.3111 61.8352 25.3621 61.8061L100.652 16.8628C100.704 16.8302 100.765 16.813 100.827 16.813C100.889 16.813 100.95 16.8302 101.003 16.8628L176.252 61.8061C176.301 61.836 176.342 61.8781 176.371 61.9283C176.399 61.9786 176.414 62.0352 176.414 62.0928V142.605C176.414 142.651 176.404 142.696 176.386 142.738C176.368 142.779 176.341 142.817 176.308 142.848C176.274 142.88 176.235 142.904 176.191 142.919C176.148 142.935 176.102 142.941 176.056 142.939ZM25.8886 142.272H175.739V62.2661L100.814 17.5228L25.8886 62.2661V142.272Z" fill="#231F20"/>
<path d="M133.49 28.5702C133.49 28.5702 136.967 22.1564 136.514 17.9027C136.062 13.6491 131.789 12.889 131.789 12.889C131.789 12.889 121.482 7.58864 119.093 3.91504L119.174 9.28877C117.302 8.65049 115.575 7.65612 114.091 6.36188C114.091 6.36188 112.484 9.10209 114.219 11.5423C114.219 11.5423 111.182 12.129 109.184 10.1422C109.184 10.1422 110.203 18.2094 117.405 19.2495C122.15 19.9029 128.327 28.8835 133.49 28.5702Z" fill="white"/>
<path d="M133.227 28.9104C130.379 28.9104 127.321 26.3769 124.364 23.9301C121.826 21.8299 119.437 19.8431 117.371 19.5497C110 18.483 108.873 10.2157 108.86 10.149C108.852 10.0804 108.866 10.011 108.899 9.95053C108.933 9.89005 108.985 9.84144 109.048 9.81142C109.111 9.7814 109.182 9.77146 109.251 9.78298C109.32 9.79449 109.384 9.82689 109.433 9.87569C110.005 10.3765 110.676 10.7539 111.403 10.9835C112.131 11.2131 112.899 11.29 113.659 11.2091C112.309 8.76227 113.747 6.24208 113.814 6.13541C113.837 6.09245 113.87 6.05522 113.91 6.02645C113.95 5.99768 113.996 5.9781 114.045 5.96915C114.093 5.9602 114.143 5.9621 114.191 5.97472C114.239 5.98734 114.283 6.01035 114.32 6.04207C115.67 7.18247 117.197 8.10093 118.843 8.76227L118.769 3.86191C118.766 3.79012 118.788 3.71951 118.831 3.66146C118.873 3.60341 118.935 3.56129 119.005 3.54189C119.075 3.51963 119.15 3.52061 119.22 3.54468C119.289 3.56875 119.349 3.6146 119.39 3.67523C121.631 7.11548 131.202 12.1359 131.918 12.5092C132.437 12.6226 136.4 13.6026 136.852 17.8429C137.311 22.1833 133.929 28.4704 133.787 28.7371C133.76 28.7868 133.72 28.8288 133.672 28.8592C133.623 28.8895 133.568 28.9071 133.511 28.9104H133.227ZM109.71 10.9624C110.223 13.0426 112.019 18.0963 117.473 18.8897C119.72 19.2164 122.198 21.2565 124.796 23.4167C127.665 25.7902 130.622 28.2437 133.227 28.2437H133.281C133.814 27.2103 136.575 21.6632 136.177 17.9029C135.758 13.9027 131.904 13.2359 131.742 13.1826L131.648 13.1493C131.249 12.9492 122.63 8.48225 119.457 4.88865L119.525 9.24897C119.525 9.30009 119.513 9.35061 119.491 9.39678C119.469 9.44295 119.437 9.48359 119.396 9.51566C119.355 9.54784 119.307 9.57003 119.255 9.58045C119.203 9.59087 119.15 9.58923 119.099 9.57566C117.313 8.97322 115.659 8.04106 114.226 6.82879C113.879 7.5343 113.723 8.31641 113.773 9.09913C113.822 9.88185 114.076 10.6386 114.509 11.2958C114.54 11.3429 114.559 11.3963 114.564 11.4519C114.57 11.5074 114.563 11.5635 114.543 11.6158C114.522 11.667 114.487 11.7122 114.444 11.7471C114.4 11.782 114.348 11.8056 114.293 11.8158C112.711 12.0861 111.084 11.7831 109.71 10.9624Z" fill="#231F20"/>
<path d="M128.144 94.9682C128.144 94.9682 144.755 75.0934 147.503 59.9123C150.25 44.7312 140.651 41.2443 137.303 40.1109C133.955 38.9774 116.507 31.8303 107.745 38.0707C98.9836 44.3112 90.2559 83.2407 90.2559 83.2407L128.144 94.9682Z" fill="#0060BB"/>
<path d="M68.2505 114.75L86.1178 92.7482C86.1178 92.7482 98.5513 77.087 91.6056 75.4136C91.6056 75.4136 81.9665 76.6537 66.2188 82.0807C61.541 83.6875 53.5018 102.036 48.4258 114.75H68.2505Z" fill="#231F20"/>
<path d="M68.2492 115.083H48.3907C48.3359 115.083 48.2819 115.07 48.2336 115.044C48.1853 115.019 48.1442 114.982 48.114 114.937C48.0891 114.889 48.0762 114.837 48.0762 114.783C48.0762 114.73 48.0891 114.677 48.114 114.63C53.7435 100.522 61.4385 83.3609 66.1095 81.7541C81.702 76.4203 91.4625 75.0869 91.5637 75.0869H91.6852C92.1765 75.173 92.6358 75.3862 93.0165 75.7047C93.3971 76.0233 93.6854 76.4359 93.852 76.9004C95.4517 81.4341 86.7577 92.4615 86.3865 92.9016L68.5125 114.903C68.4871 114.952 68.4498 114.995 68.4039 115.026C68.3579 115.057 68.3048 115.077 68.2492 115.083ZM48.924 114.416H68.0872L85.7992 92.5149C85.887 92.4082 94.635 81.314 93.1635 77.1271C93.0379 76.7769 92.8206 76.4659 92.5336 76.2258C92.2466 75.9857 91.9003 75.8251 91.53 75.7603C90.6795 75.8736 81.1485 77.2737 66.2782 82.3875C62.8492 83.5675 56.6932 94.935 48.8902 114.416H48.924Z" fill="#231F20"/>
<path d="M98.1725 114.75L102.709 103.836C102.709 103.836 113.779 107.11 121.163 104.363C126.36 102.429 127.947 95.7955 130.296 90.4218C130.296 90.4218 99.2458 83.1546 92.3135 80.1943C92.3135 80.1943 91.8815 80.1943 83.9368 88.4349C80.3863 92.1352 77.558 103.409 75.5195 114.75H98.1725Z" fill="#231F20"/>
<path d="M98.1737 115.083H75.5207C75.4706 115.084 75.4209 115.073 75.3754 115.053C75.3298 115.032 75.2896 115.001 75.2575 114.963C75.2272 114.926 75.205 114.883 75.1923 114.838C75.1795 114.792 75.1764 114.744 75.1832 114.697C77.7752 100.295 80.644 91.3615 83.695 88.2079C91.741 79.834 92.173 79.854 92.3282 79.8606C92.3685 79.8544 92.4095 79.8544 92.4497 79.8606C99.301 82.8342 130.067 90.0281 130.351 90.1014C130.398 90.113 130.443 90.1345 130.481 90.1644C130.52 90.1943 130.551 90.2319 130.574 90.2747C130.594 90.3187 130.604 90.3665 130.604 90.4147C130.604 90.463 130.594 90.5108 130.574 90.5548C130.135 91.5548 129.716 92.6216 129.311 93.6483C127.496 98.2687 125.612 103.049 121.245 104.676C114.428 107.209 104.721 104.742 102.872 104.236L98.4505 114.903C98.4244 114.955 98.3852 114.998 98.3366 115.03C98.288 115.062 98.2318 115.08 98.1737 115.083ZM75.8987 114.417H97.951L102.406 103.709C102.436 103.632 102.495 103.57 102.57 103.534C102.645 103.498 102.731 103.492 102.811 103.516C102.926 103.516 113.861 106.723 121.036 104.049C125.086 102.536 126.942 97.8953 128.711 93.3816C129.068 92.4682 129.44 91.5282 129.824 90.6281C126.24 89.7814 99.1052 83.3409 92.3417 80.5407C91.957 80.8274 90.364 82.2075 84.1742 88.6413C81.292 91.6748 78.4367 100.575 75.919 114.417H75.8987Z" fill="#231F20"/>
<path d="M107.745 38.0708C107.745 38.0708 100.32 46.0714 96.1753 50.0717C92.0308 54.072 83.9038 59.2524 83.9038 59.2524C83.9038 59.2524 59.6713 61.1792 59.4148 61.5592C59.1583 61.9392 59.4148 69.8865 59.4148 69.8865C59.4148 69.8865 83.0938 74.3735 87.4138 73.6001C91.7338 72.8267 101.926 66.0595 101.926 66.0595L107.745 38.0708Z" fill="#0060BB"/>
<path d="M118.059 34.0975L117.31 41.6247C117.31 41.6247 118.66 45.945 123.803 45.1717C128.947 44.3983 129.878 40.918 129.878 40.918L133.213 26.2103C133.213 26.2103 130.128 24.0101 127.219 15.4095C127.219 15.4095 116.473 13.4093 116.101 17.503C116.101 17.503 113.982 24.8368 114.137 28.7104C114.279 32.4774 117.991 34.0375 118.059 34.0975Z" fill="white"/>
<path d="M122.623 45.5984C121.394 45.6072 120.193 45.2393 119.185 44.5456C118.176 43.8518 117.411 42.8663 116.993 41.7248C116.983 41.6832 116.983 41.6398 116.993 41.5981L117.709 34.2642C115.299 32.9708 113.895 30.9307 113.807 28.6905C113.652 24.7969 115.697 17.683 115.785 17.3563C115.818 17.019 115.926 16.6928 116.099 16.4004C116.273 16.108 116.509 15.8564 116.791 15.6629C119.491 13.6227 126.976 14.9962 127.287 14.9962C127.347 15.008 127.403 15.0351 127.449 15.0749C127.495 15.1146 127.53 15.1657 127.55 15.2228C130.372 23.5768 133.389 25.837 133.423 25.8903C133.474 25.9292 133.514 25.9818 133.537 26.042C133.559 26.1022 133.564 26.1675 133.551 26.2303L130.216 40.9381C130.169 41.1048 129.136 44.6517 123.865 45.4517C123.455 45.5294 123.04 45.5784 122.623 45.5984ZM117.655 41.5981C117.844 42.1182 119.261 45.5317 123.73 44.8517C128.569 44.1183 129.521 40.8514 129.528 40.8514L132.815 26.3637C132.106 25.757 129.44 23.1168 126.936 15.6962C125.748 15.4962 119.43 14.5361 117.162 16.2363C116.948 16.3826 116.77 16.5739 116.641 16.7964C116.511 17.0189 116.433 17.2671 116.413 17.523C116.413 17.6564 114.3 24.8569 114.448 28.6838C114.563 31.524 116.791 33.0775 118.107 33.7442C118.165 33.7715 118.219 33.8051 118.269 33.8442C118.306 33.8789 118.335 33.9217 118.352 33.9691C118.37 34.0166 118.376 34.0674 118.37 34.1176L117.655 41.5981Z" fill="#231F20"/>
<path d="M129.514 26.4632C129.746 25.7986 130.188 25.2256 130.776 24.8298C131.66 24.1889 132.764 23.9204 133.848 24.083C135.096 24.4297 135.731 25.9365 135.461 27.1899C135.293 27.9412 134.936 28.6382 134.421 29.2155C133.906 29.7928 133.251 30.2314 132.518 30.4902C132.013 30.6376 131.484 30.6853 130.96 30.6304C130.436 30.5755 129.929 30.4191 129.467 30.1702" fill="white"/>
<path d="M131.391 30.984C130.662 30.9874 129.945 30.8085 129.305 30.4639C129.266 30.4429 129.232 30.4145 129.204 30.3804C129.176 30.3462 129.155 30.3069 129.143 30.2648C129.13 30.2227 129.126 30.1786 129.131 30.135C129.136 30.0914 129.149 30.0491 129.17 30.0105C129.191 29.972 129.22 29.938 129.255 29.9105C129.289 29.8829 129.329 29.8624 129.372 29.85C129.414 29.8376 129.459 29.8336 129.503 29.8383C129.547 29.843 129.59 29.8562 129.629 29.8772C130.485 30.335 131.489 30.4404 132.424 30.1706C133.097 29.9286 133.698 29.5224 134.17 28.9897C134.642 28.457 134.97 27.8151 135.124 27.1237C135.346 26.0769 134.84 24.7035 133.774 24.4101C133.286 24.334 132.789 24.3538 132.309 24.4682C131.83 24.5826 131.378 24.7894 130.979 25.0768C130.451 25.428 130.055 25.9411 129.852 26.537C129.823 26.6254 129.76 26.6989 129.677 26.7414C129.593 26.7839 129.496 26.7919 129.406 26.7636C129.317 26.7353 129.242 26.6731 129.199 26.5906C129.156 26.5081 129.148 26.412 129.177 26.3236C129.431 25.5906 129.919 24.9588 130.567 24.5235C131.047 24.1733 131.593 23.9225 132.173 23.7861C132.753 23.6498 133.355 23.6307 133.942 23.7301C135.414 24.1301 136.089 25.8636 135.799 27.2237C135.625 28.0443 135.241 28.8071 134.683 29.4388C134.125 30.0705 133.412 30.5498 132.613 30.8306C132.215 30.9411 131.804 30.9927 131.391 30.984Z" fill="#231F20"/>
<path d="M121.988 22.7764C121.988 22.7764 118.896 26.3166 119.436 27.0633C119.976 27.8101 121.765 27.57 121.765 27.57" fill="white"/>
<path d="M121.137 27.9435C120.778 27.9818 120.415 27.942 120.073 27.8268C119.731 27.7116 119.419 27.5239 119.159 27.2768C118.558 26.4434 120.509 23.9432 121.731 22.6097C121.792 22.5553 121.871 22.5247 121.953 22.5239C122.036 22.5231 122.116 22.5521 122.178 22.6054C122.24 22.6586 122.28 22.7326 122.291 22.8132C122.302 22.8938 122.283 22.9756 122.237 23.0431C120.752 24.7499 119.571 26.5634 119.713 26.9301C120.016 27.3434 121.11 27.3701 121.738 27.2901C121.827 27.2786 121.918 27.3027 121.989 27.3571C122.061 27.4115 122.107 27.4917 122.119 27.5801C122.131 27.6685 122.106 27.7579 122.051 27.8285C121.996 27.8992 121.915 27.9453 121.825 27.9568C121.596 27.9652 121.366 27.9608 121.137 27.9435Z" fill="#231F20"/>
<path d="M127.604 22.3284C127.685 21.834 127.464 21.3875 127.111 21.3311C126.757 21.2746 126.405 21.6296 126.324 22.1239C126.243 22.6183 126.464 23.0648 126.817 23.1213C127.171 23.1777 127.523 22.8227 127.604 22.3284Z" fill="#231F20"/>
<path d="M119.159 22.6486C119.516 22.6363 119.792 22.2206 119.774 21.7201C119.757 21.2197 119.453 20.8239 119.095 20.8362C118.737 20.8484 118.462 21.2641 118.479 21.7646C118.497 22.2651 118.801 22.6608 119.159 22.6486Z" fill="#231F20"/>
<path d="M118.059 34.0972C118.059 34.0972 122.689 35.6373 125.639 34.3305C125.639 34.3305 121.927 40.331 117.539 39.2576L118.059 34.0972Z" fill="#231F20"/>
<path d="M118.634 39.7242C118.24 39.7261 117.848 39.6791 117.466 39.5841C117.389 39.5641 117.32 39.5178 117.273 39.4533C117.227 39.3887 117.204 39.31 117.21 39.2308L117.723 34.0704C117.727 34.02 117.743 33.9713 117.769 33.9275C117.794 33.8837 117.829 33.846 117.871 33.8171C117.917 33.7957 117.966 33.7847 118.016 33.7847C118.067 33.7847 118.116 33.7957 118.162 33.8171C118.209 33.8171 122.711 35.2972 125.506 34.0571C125.572 34.0293 125.645 34.0227 125.715 34.0383C125.786 34.0538 125.849 34.0907 125.897 34.1438C125.939 34.2008 125.962 34.2697 125.962 34.3404C125.962 34.4111 125.939 34.48 125.897 34.5371C125.789 34.7371 122.657 39.7242 118.634 39.7242ZM117.912 38.9974C120.943 39.5241 123.649 36.4773 124.783 34.9971C122.36 35.5839 119.417 34.8705 118.351 34.5638L117.912 38.9974Z" fill="#231F20"/>
<path d="M118.121 24.1033H117.898L115.407 23.91C114.694 23.8538 114.033 23.5203 113.568 22.9828C113.104 22.4453 112.874 21.7476 112.93 21.0431L113.092 19.0429C113.101 18.9556 113.144 18.8751 113.212 18.819C113.28 18.7628 113.368 18.7355 113.457 18.7429L120.652 19.3029C120.741 19.3125 120.823 19.3554 120.882 19.4229C120.911 19.4554 120.933 19.4934 120.947 19.5347C120.961 19.576 120.966 19.6196 120.963 19.663L120.801 21.6631C120.745 22.3316 120.436 22.9547 119.935 23.4082C119.435 23.8617 118.78 24.1123 118.101 24.11L118.121 24.1033ZM113.74 19.4363L113.605 21.0764C113.564 21.604 113.736 22.1261 114.084 22.5285C114.432 22.9309 114.927 23.1807 115.461 23.2232L117.952 23.4166C118.217 23.4407 118.483 23.4118 118.736 23.3316C118.989 23.2514 119.223 23.1216 119.424 22.9499C119.827 22.6136 120.081 22.1352 120.132 21.6164L120.261 19.9763L113.74 19.4363Z" fill="#231F20"/>
<path d="M127.07 24.83H126.847L124.357 24.63C123.643 24.5738 122.982 24.2404 122.517 23.7028C122.053 23.1653 121.823 22.4676 121.879 21.7631L122.041 19.7629C122.045 19.7191 122.057 19.6764 122.077 19.6372C122.097 19.598 122.125 19.5632 122.159 19.5347C122.193 19.5062 122.232 19.4846 122.275 19.4711C122.317 19.4576 122.362 19.4526 122.406 19.4562L129.601 20.0229C129.645 20.0263 129.687 20.0381 129.726 20.0577C129.765 20.0773 129.799 20.1043 129.828 20.1372C129.856 20.17 129.877 20.2081 129.891 20.2491C129.904 20.2901 129.909 20.3334 129.905 20.3763L129.75 22.3764C129.695 23.0461 129.387 23.6709 128.887 24.1257C128.386 24.5806 127.73 24.8321 127.05 24.83H127.07ZM126.901 24.1633C127.436 24.2041 127.965 24.0339 128.373 23.6899C128.763 23.3479 129.005 22.8702 129.048 22.3564L129.183 20.7163L122.683 20.1629L122.554 21.7964C122.513 22.324 122.686 22.8461 123.034 23.2485C123.381 23.6509 123.877 23.9007 124.411 23.9432L126.901 24.1633Z" fill="#231F20"/>
<path d="M122.25 21.3764L120.495 21.2364C120.451 21.233 120.408 21.221 120.368 21.2011C120.328 21.1811 120.293 21.1537 120.264 21.1202C120.235 21.0867 120.213 21.048 120.2 21.0061C120.186 20.9643 120.181 20.9202 120.185 20.8764C120.195 20.7892 120.238 20.709 120.306 20.6521C120.373 20.5952 120.46 20.5657 120.549 20.5697L122.304 20.7097C122.394 20.7097 122.48 20.7448 122.543 20.8073C122.606 20.8699 122.642 20.9546 122.642 21.0431C122.642 21.1315 122.606 21.2163 122.543 21.2788C122.48 21.3413 122.394 21.3764 122.304 21.3764H122.25Z" fill="#231F20"/>
<path d="M121.594 29C122.732 29 123.63 29.913 123.99 30.9768C124 31.0066 124.003 31.0384 123.997 31.0693C123.992 31.1003 123.98 31.1294 123.961 31.1541C123.945 31.1803 123.922 31.2012 123.895 31.2145C123.868 31.2279 123.838 31.2331 123.808 31.2296C122.256 31.1453 120.705 31.4024 119.255 31.9841C119.227 31.9972 119.195 32.0023 119.164 31.999C119.133 31.9957 119.103 31.9841 119.077 31.9653C119.051 31.9466 119.03 31.921 119.017 31.8911C119.003 31.8613 118.998 31.8283 119.001 31.7955C119.001 31.7087 119.19 29.6376 120.946 29.1169C121.156 29.0456 121.374 29.0062 121.594 29ZM123.554 30.841C123.172 30.0073 122.288 29.0905 121.056 29.4603C119.921 29.796 119.543 30.9353 119.423 31.4937C120.75 31.0187 122.15 30.7975 123.554 30.841Z" fill="#231F20"/>
<path d="M145.95 46.285C149.879 48.1051 156.258 90.7483 149.325 93.6218C138.525 98.0688 109.291 82.9544 109.291 82.9544L115.042 71.7735C115.042 71.7735 134.901 77.614 136.278 73.627C137.655 69.64 130.837 47.7118 133.159 45.3249C135.481 42.9381 145.95 46.285 145.95 46.285Z" fill="#0060BB"/>
<path d="M116.129 76.2871C112.75 75.6067 109.457 74.5626 106.308 73.1736C103.891 72.0335 101.806 70.9401 99.1123 70.3667C95.7705 69.6499 92.3265 69.5235 88.9401 69.9933C88.8033 70.004 88.6712 70.0475 88.5553 70.12C88.1571 70.4534 88.7443 71.0267 89.2303 71.1801C90.545 71.5617 91.9102 71.746 93.2803 71.7268C89.8162 72.0421 86.4108 72.8157 83.1553 74.027C82.7841 74.167 82.3453 74.427 82.4061 74.807C82.4668 75.187 83.1148 75.3004 83.5738 75.227L91.6063 73.8936C89.5531 74.1346 87.5548 74.7114 85.6933 75.6004C85.4301 75.7271 85.1263 75.9138 85.1128 76.2071C85.1128 76.7138 85.8283 76.8072 86.3346 76.7072C88.7993 76.2158 91.216 75.5131 93.5571 74.607L88.2313 76.7738C88.207 76.8636 88.2011 76.9572 88.2138 77.0493C88.2265 77.1413 88.2576 77.23 88.3054 77.31C88.3531 77.3901 88.4165 77.46 88.4919 77.5156C88.5672 77.5712 88.6531 77.6114 88.7443 77.6339C89.1167 77.7046 89.5015 77.6746 89.8581 77.5472L95.5483 76.0404L91.8966 77.3739C91.3228 77.5806 90.6276 77.9673 90.7221 78.5673C90.8301 79.274 91.8223 79.3274 92.5378 79.234C95.368 78.8166 98.2364 78.7115 101.09 78.9207C102.136 78.9807 103.183 78.8073 104.182 79.1073C105.619 79.5407 107.071 80.5674 108.407 81.2608C110.5 82.3409 112.585 83.441 114.671 84.5411" fill="white"/>
<path d="M114.698 84.7945C114.646 84.7963 114.595 84.7848 114.55 84.7611C112.471 83.6633 110.383 82.5699 108.286 81.4809C107.867 81.2675 107.435 81.0142 106.996 80.7542C106.092 80.1816 105.125 79.7119 104.114 79.3541C103.476 79.2003 102.818 79.1441 102.163 79.1874C101.806 79.1874 101.455 79.1874 101.097 79.1874C98.2656 78.9784 95.4196 79.0835 92.6121 79.5007C92.0115 79.6263 91.3854 79.539 90.8436 79.2541C90.7343 79.176 90.6425 79.0765 90.5739 78.9618C90.5054 78.8471 90.4616 78.7196 90.4453 78.5874C90.4186 78.4028 90.4414 78.2147 90.5112 78.0415C90.5811 77.8684 90.6957 77.7164 90.8436 77.6006L89.9661 77.834C89.553 77.9824 89.1054 78.0101 88.6768 77.914C88.5305 77.8672 88.3953 77.7917 88.2793 77.692C88.1633 77.5924 88.0689 77.4705 88.0018 77.3339C87.9545 77.229 87.9301 77.1154 87.9301 77.0006C87.9301 76.8857 87.9545 76.7721 88.0018 76.6672C87.4821 76.7872 86.9691 76.9006 86.4493 77.0072C86.2207 77.0639 85.9826 77.073 85.7502 77.034C85.5178 76.995 85.2962 76.9087 85.0993 76.7805C85.0145 76.7085 84.9479 76.618 84.9045 76.5162C84.8612 76.4144 84.8424 76.304 84.8496 76.1938C84.8496 75.6738 85.4031 75.4205 85.5988 75.3271L85.9903 75.1471L83.6616 75.5338C83.2509 75.6232 82.8213 75.5615 82.4533 75.3604C82.3703 75.3018 82.3001 75.2274 82.2468 75.1415C82.1934 75.0556 82.1581 74.96 82.1428 74.8604C82.1023 74.5937 82.1428 74.0937 83.0878 73.7537C85.4744 72.8486 87.9456 72.1787 90.4656 71.7535C90.0318 71.6907 89.6014 71.6061 89.1763 71.5002C88.9405 71.4361 88.724 71.3164 88.5453 71.1516C88.3666 70.9867 88.2311 70.7814 88.1503 70.5534C88.1283 70.4372 88.1379 70.3173 88.1783 70.206C88.2186 70.0947 88.2882 69.996 88.3798 69.92C88.5364 69.8089 88.7208 69.742 88.9131 69.7267C92.3351 69.2474 95.8162 69.3738 99.1933 70.1001C101.423 70.6403 103.575 71.4557 105.599 72.5269L106.463 72.9336C109.581 74.2914 112.837 75.3151 116.176 75.9872C116.256 76.0062 116.324 76.0553 116.367 76.124C116.41 76.1926 116.424 76.2752 116.406 76.3538C116.397 76.3931 116.381 76.4303 116.357 76.4631C116.333 76.4959 116.303 76.5237 116.269 76.5449C116.234 76.566 116.196 76.5801 116.155 76.5862C116.115 76.5923 116.074 76.5904 116.035 76.5805C112.637 75.8898 109.324 74.8416 106.153 73.4536L105.289 73.0403C103.306 71.9944 101.2 71.1971 99.0178 70.6668C95.7121 69.9522 92.3036 69.828 88.9536 70.3001C88.8752 70.2997 88.7982 70.3205 88.7308 70.3601C88.7308 70.5468 89.0211 70.8001 89.3046 70.8868C90.589 71.2572 91.9221 71.437 93.2601 71.4202C93.3337 71.431 93.4009 71.4675 93.4496 71.5232C93.4982 71.5789 93.5249 71.65 93.5249 71.7235C93.5249 71.797 93.4982 71.8681 93.4496 71.9238C93.4009 71.9795 93.3337 72.016 93.2601 72.0269C89.8284 72.3446 86.4551 73.1137 83.2296 74.3137C82.9596 74.4137 82.6491 74.5937 82.6761 74.7604C82.6783 74.7804 82.6849 74.7997 82.6954 74.817C82.7059 74.8342 82.72 74.849 82.7368 74.8604C82.9719 74.9652 83.2358 74.9886 83.4861 74.9271L89.7028 73.887C90.307 73.7546 90.9175 73.6522 91.5321 73.5803C91.6121 73.5725 91.6922 73.5949 91.7562 73.6432C91.8201 73.6915 91.863 73.7619 91.8763 73.8403C91.888 73.9198 91.8677 74.0006 91.8197 74.0654C91.7718 74.1302 91.7 74.1739 91.6198 74.187L89.8176 74.487C88.4176 74.7893 87.0584 75.2525 85.7676 75.8671C85.4368 76.0272 85.3626 76.1472 85.3626 76.2138C85.3604 76.2325 85.3629 76.2514 85.37 76.2689C85.3771 76.2864 85.3884 76.3018 85.4031 76.3138C85.6511 76.4386 85.9368 76.4694 86.2063 76.4005C88.6572 75.9127 91.0604 75.2145 93.3883 74.3137C93.4636 74.2849 93.5473 74.2862 93.6217 74.3173C93.696 74.3484 93.7552 74.4069 93.7866 74.4804C93.816 74.5557 93.8149 74.6393 93.7835 74.7139C93.7521 74.7884 93.6927 74.848 93.6178 74.8804L88.4473 76.9872C88.4385 77.0155 88.4385 77.0457 88.4473 77.0739C88.5076 77.196 88.6144 77.2895 88.7443 77.3339C89.0614 77.391 89.3883 77.361 89.6893 77.2472L95.3796 75.7338C95.4534 75.722 95.5291 75.7369 95.5927 75.7759C95.6563 75.8148 95.7035 75.8751 95.7257 75.9457C95.7479 76.0162 95.7435 76.0923 95.7134 76.16C95.6833 76.2276 95.6295 76.2823 95.5618 76.3138L91.9168 77.6473C91.5996 77.7606 90.8706 78.074 90.9381 78.5073C90.9447 78.5579 90.9619 78.6066 90.9886 78.6502C91.0154 78.6938 91.051 78.7314 91.0933 78.7607C91.4979 78.9554 91.9585 79.0049 92.3961 78.9007C95.2503 78.4747 98.144 78.3674 101.023 78.5807C101.36 78.5807 101.698 78.5807 102.042 78.5807C102.761 78.5329 103.483 78.5982 104.182 78.774C105.241 79.1396 106.252 79.6298 107.192 80.2341C107.624 80.4808 108.049 80.7275 108.461 80.9409C110.554 82.0254 112.642 83.1188 114.725 84.2211C114.762 84.2393 114.794 84.2647 114.82 84.2955C114.847 84.3264 114.866 84.3622 114.878 84.4008C114.89 84.4394 114.894 84.48 114.89 84.5202C114.886 84.5603 114.873 84.5992 114.853 84.6345C114.825 84.7058 114.769 84.7632 114.698 84.7945Z" fill="#231F20"/>
<path d="M108.98 41.998C107.583 42.8048 100.09 59.446 96.8301 67.3866L108.98 41.998Z" fill="white"/>
<path d="M96.8513 67.6932C96.8005 67.6935 96.7503 67.6815 96.7053 67.6581C96.6603 67.6348 96.6218 67.6009 96.5931 67.5595C96.5644 67.518 96.5465 67.4702 96.5409 67.4203C96.5354 67.3704 96.5423 67.3199 96.561 67.2732C99.5108 60.0527 107.233 42.6514 108.826 41.7314C108.861 41.7088 108.9 41.6935 108.941 41.6863C108.983 41.6791 109.025 41.6802 109.066 41.6896C109.106 41.699 109.145 41.7164 109.179 41.7407C109.212 41.7651 109.241 41.796 109.262 41.8315C109.284 41.867 109.297 41.9065 109.303 41.9474C109.309 41.9884 109.306 42.03 109.295 42.0699C109.283 42.1097 109.264 42.1469 109.238 42.1792C109.212 42.2116 109.18 42.2384 109.143 42.2581C107.948 42.9248 100.82 58.4792 97.1348 67.4999C97.1129 67.5567 97.0741 67.6056 97.0235 67.6401C96.9729 67.6746 96.9128 67.6932 96.8513 67.6932Z" fill="#231F20"/>
<path d="M55.5605 73.9937L55.1758 77.3806L98.9495 96.0019L99.0845 92.4417L55.5605 73.9937Z" fill="white"/>
<path d="M98.9496 96.3353C98.9052 96.3453 98.8591 96.3453 98.8146 96.3353L55.0409 77.7139C54.9737 77.6856 54.9176 77.6364 54.8811 77.5739C54.8446 77.5114 54.8296 77.4389 54.8384 77.3672L55.2231 73.9803C55.2283 73.9286 55.2465 73.879 55.276 73.8359C55.3054 73.7928 55.3453 73.7577 55.3919 73.7336C55.4387 73.7091 55.4908 73.6963 55.5438 73.6963C55.5967 73.6963 55.6489 73.7091 55.6956 73.7336L99.2196 92.1683C99.2828 92.1944 99.3361 92.2392 99.3724 92.2965C99.4087 92.3538 99.426 92.4208 99.4221 92.4883L99.2871 96.0486C99.2841 96.1036 99.2678 96.1571 99.2396 96.2046C99.2114 96.2521 99.1722 96.2923 99.1251 96.3219C99.069 96.3423 99.0083 96.3469 98.9496 96.3353ZM55.5336 77.1739L98.6256 95.5019L98.7404 92.6483L55.8441 74.467L55.5336 77.1739Z" fill="#231F20"/>
<path d="M55.5605 73.9938C55.5605 73.9938 68.3113 67.9534 68.6353 68.1267C68.9593 68.3001 114.056 86.128 114.056 86.128L99.0845 92.4418L55.5605 73.9938Z" fill="white"/>
<path d="M99.0843 92.7748C99.0398 92.7842 98.9938 92.7842 98.9493 92.7748L55.4254 74.3001C55.366 74.2745 55.3154 74.2327 55.2795 74.1795C55.2436 74.1263 55.2239 74.064 55.2229 74.0001C55.2206 73.9363 55.2373 73.8733 55.2709 73.8188C55.3045 73.7643 55.3535 73.7207 55.4119 73.6934C68.3246 67.5729 68.6081 67.7263 68.7971 67.833C69.4721 68.133 113.739 85.6409 114.184 85.8343C114.247 85.8577 114.301 85.8998 114.338 85.9548C114.376 86.0097 114.395 86.0748 114.393 86.141C114.394 86.2062 114.376 86.2703 114.34 86.325C114.304 86.3796 114.252 86.4224 114.191 86.4477L99.2193 92.7615C99.1758 92.7753 99.1298 92.7798 99.0843 92.7748ZM56.3771 73.9734L99.0843 92.0814L113.172 86.1676C106.206 83.4074 70.8086 69.4131 68.5811 68.493C67.7036 68.693 60.9536 71.8133 56.3771 73.9734Z" fill="#231F20"/>
<path d="M98.9492 96.002L113.495 89.3148L114.056 86.1279L99.0842 92.4417L98.9492 96.002Z" fill="white"/>
<path d="M98.9497 96.3352C98.8825 96.3381 98.8162 96.3194 98.7607 96.2818C98.7115 96.2507 98.6717 96.207 98.6455 96.1554C98.6194 96.1037 98.6079 96.0461 98.6122 95.9885L98.7472 92.4282C98.7511 92.3658 98.7719 92.3056 98.8076 92.254C98.8432 92.2023 98.8923 92.1612 98.9497 92.1349L113.928 85.8211C113.983 85.7971 114.044 85.7888 114.103 85.797C114.163 85.8053 114.219 85.8298 114.265 85.8677C114.315 85.9037 114.353 85.9531 114.374 86.01C114.396 86.0668 114.4 86.1285 114.387 86.1878L113.833 89.368C113.823 89.4206 113.801 89.4701 113.768 89.5129C113.735 89.5556 113.693 89.5904 113.644 89.6147L99.0915 96.2818C99.0487 96.3096 99.0003 96.3278 98.9497 96.3352ZM99.4155 92.6682L99.3007 95.5018L113.192 89.1146L113.611 86.7011L99.4155 92.6682Z" fill="#231F20"/>
<path d="M55.5599 73.9936L54.6621 42.7046L100.488 63.4861L99.0838 92.4416L55.5599 73.9936Z" fill="white"/>
<path d="M99.0864 92.775C99.0419 92.7844 98.9959 92.7844 98.9514 92.775L55.4274 74.3004C55.3675 74.2755 55.3164 74.2338 55.2804 74.1804C55.2444 74.1271 55.2251 74.0645 55.2249 74.0003L54.3204 42.7114C54.3193 42.6545 54.333 42.5982 54.3602 42.5481C54.3874 42.4979 54.4271 42.4554 54.4756 42.4247C54.5251 42.3972 54.5809 42.3828 54.6376 42.3828C54.6944 42.3828 54.7502 42.3972 54.7996 42.4247L100.652 63.1862C100.714 63.2122 100.765 63.2562 100.8 63.3123C100.835 63.3684 100.852 63.4338 100.848 63.4996L99.4441 92.455C99.4418 92.5085 99.4265 92.5607 99.3995 92.6071C99.3725 92.6535 99.3345 92.6928 99.2889 92.7217C99.2299 92.7627 99.1581 92.7816 99.0864 92.775ZM55.8864 73.767L98.7691 91.9483L100.119 63.6929L55.0156 43.2314L55.8864 73.767Z" fill="#231F20"/>
<path d="M123.486 90.8349C123.44 90.844 123.391 90.844 123.345 90.8349L114.077 86.6146C114.006 86.5826 113.948 86.5273 113.913 86.458C113.879 86.3887 113.87 86.3097 113.888 86.2345L116.689 74.6604C116.707 74.5768 116.757 74.5036 116.829 74.4562C116.901 74.4089 116.989 74.3912 117.074 74.407L135.191 77.2739L134.597 48.9118C134.595 48.8678 134.602 48.8239 134.618 48.7827C134.634 48.7415 134.658 48.7039 134.689 48.6721C134.72 48.6404 134.757 48.6151 134.798 48.5979C134.839 48.5806 134.883 48.5717 134.928 48.5718C135.015 48.5734 135.099 48.6082 135.162 48.6689C135.225 48.7296 135.262 48.8118 135.265 48.8985L135.866 77.6606C135.866 77.7091 135.856 77.7572 135.835 77.8011C135.814 77.845 135.783 77.8836 135.744 77.9139C135.708 77.9461 135.665 77.9699 135.618 77.9838C135.572 77.9976 135.523 78.0011 135.474 77.9939L117.249 75.1137L114.583 86.1212L123.601 90.1681C123.641 90.1861 123.678 90.2118 123.708 90.2438C123.738 90.2758 123.761 90.3134 123.776 90.3544C123.791 90.3954 123.798 90.439 123.796 90.4826C123.793 90.5262 123.782 90.5689 123.763 90.6082C123.744 90.6683 123.708 90.7217 123.659 90.7619C123.61 90.8021 123.55 90.8275 123.486 90.8349Z" fill="#231F20"/>
<path d="M43.1666 114.75C41.5939 113.577 39.7106 112.957 38.3809 114.75H43.1666Z" fill="white"/>
<path d="M43.1667 115.057H38.381C38.3239 115.056 38.2681 115.04 38.2194 115.011C38.1707 114.981 38.1309 114.94 38.1042 114.89C38.0744 114.842 38.0586 114.786 38.0586 114.73C38.0586 114.673 38.0744 114.618 38.1042 114.57C38.3202 114.249 38.6006 113.975 38.928 113.765C39.2554 113.555 39.6228 113.414 40.0077 113.35C40.9865 113.203 42.107 113.596 43.3287 114.51C43.3795 114.549 43.4171 114.602 43.4364 114.663C43.4557 114.724 43.4558 114.789 43.4367 114.85C43.4157 114.906 43.3792 114.955 43.3315 114.991C43.2838 115.028 43.2267 115.05 43.1667 115.057ZM39.0695 114.45H42.1407C41.5388 114.07 40.8278 113.894 40.1157 113.95C39.725 114.012 39.3612 114.186 39.0695 114.45Z" fill="#231F20"/>
<path d="M77.6531 104.736H77.5992C77.5117 104.721 77.4337 104.673 77.3819 104.602C77.3301 104.531 77.3087 104.442 77.3224 104.356C77.3764 104.022 78.6724 96.1951 81.1767 92.2215C81.2267 92.1542 81.3006 92.1078 81.3836 92.0917C81.4666 92.0756 81.5527 92.0908 81.6248 92.1344C81.697 92.178 81.7499 92.2468 81.7732 92.3271C81.7964 92.4075 81.7883 92.4935 81.7504 92.5682C79.3407 96.4285 77.9974 104.382 77.9839 104.462C77.971 104.54 77.9305 104.609 77.8698 104.66C77.8091 104.71 77.7323 104.737 77.6531 104.736Z" fill="white"/>
<path d="M119.369 46.6249L120.057 48.9051L111.451 66.413L113.901 72.6735L119.274 68.1465L121.482 48.8917L122.622 47.7316L121.448 45.7915L119.369 46.6249Z" fill="#231F20"/>
<path d="M176.056 62.0928V142.605H25.5508V62.0928L100.807 112.71L176.056 62.0928Z" fill="white"/>
<path d="M176.056 142.938H25.5309C25.4414 142.938 25.3555 142.903 25.2922 142.841C25.2289 142.778 25.1934 142.694 25.1934 142.605V62.0925C25.1931 62.0317 25.21 61.9721 25.2422 61.9202C25.2744 61.8684 25.3206 61.8265 25.3756 61.7992C25.4287 61.7681 25.4894 61.7517 25.5511 61.7517C25.6129 61.7517 25.6735 61.7681 25.7266 61.7992L100.787 112.296L175.847 61.7992C175.898 61.768 175.958 61.7515 176.019 61.7515C176.079 61.7515 176.139 61.768 176.191 61.7992C176.246 61.8259 176.293 61.8676 176.325 61.9196C176.358 61.9716 176.374 62.0316 176.373 62.0925V142.605C176.373 142.69 176.34 142.772 176.281 142.834C176.223 142.896 176.142 142.933 176.056 142.938ZM25.8886 142.272H175.739V62.7193L101.016 112.99C100.96 113.025 100.894 113.044 100.827 113.044C100.76 113.044 100.695 113.025 100.638 112.99L25.8886 62.7193V142.272Z" fill="#231F20"/>
<path d="M100.807 113.043C100.74 113.043 100.675 113.025 100.618 112.99L25.362 62.3664C25.2891 62.3165 25.2391 62.2402 25.2226 62.1541C25.2062 62.0681 25.2248 61.979 25.2743 61.9064C25.325 61.8328 25.4029 61.7819 25.4912 61.7644C25.5796 61.747 25.6713 61.7644 25.7468 61.813L100.807 112.31L175.867 61.813C175.941 61.7648 176.032 61.7475 176.119 61.765C176.206 61.7825 176.283 61.8333 176.333 61.9064C176.358 61.9421 176.376 61.9824 176.385 62.0251C176.395 62.0677 176.395 62.1118 176.387 62.1547C176.379 62.1975 176.362 62.2384 176.338 62.2747C176.313 62.3111 176.282 62.3423 176.245 62.3664L100.996 112.99C100.939 113.024 100.873 113.042 100.807 113.043Z" fill="#231F20"/>
<path d="M25.5508 142.605L100.8 96.2754L176.056 142.605H25.5508Z" fill="white"/>
<path d="M176.056 142.939H25.5309C25.4578 142.939 25.3868 142.915 25.3284 142.872C25.2699 142.829 25.2273 142.768 25.2069 142.699C25.1861 142.629 25.1894 142.554 25.2163 142.487C25.2432 142.419 25.2921 142.362 25.3554 142.325L100.652 95.9953C100.706 95.9629 100.767 95.9458 100.83 95.9458C100.894 95.9458 100.955 95.9629 101.009 95.9953L176.252 142.325C176.315 142.362 176.364 142.419 176.391 142.487C176.418 142.554 176.421 142.629 176.4 142.699C176.379 142.771 176.333 142.835 176.271 142.878C176.208 142.922 176.132 142.943 176.056 142.939ZM26.7324 142.272H174.902L100.834 96.6687L26.7324 142.272Z" fill="#231F20"/>
<path d="M181.179 102.61L139.109 113.233L145.071 136.267L187.141 125.644L181.179 102.61Z" fill="#0060BB"/>
<path d="M145.072 136.605C145.011 136.603 144.95 136.587 144.896 136.558C144.821 136.509 144.766 136.436 144.741 136.351L138.781 113.316C138.76 113.23 138.774 113.14 138.819 113.064C138.865 112.989 138.938 112.933 139.024 112.909L181.097 102.289C181.179 102.259 181.27 102.259 181.353 102.289C181.392 102.311 181.426 102.34 181.453 102.376C181.479 102.412 181.498 102.452 181.508 102.495L187.469 125.53C187.48 125.573 187.482 125.617 187.476 125.661C187.47 125.704 187.455 125.746 187.433 125.784C187.41 125.821 187.38 125.854 187.345 125.881C187.309 125.907 187.269 125.926 187.226 125.937L145.153 136.558L145.072 136.605ZM139.523 113.503L145.315 135.891L186.733 125.43L180.975 103.015L139.523 113.503Z" fill="#231F20"/>
<path d="M145.074 136.272L162.766 118.037L187.147 125.644L145.074 136.272Z" fill="#0060BB"/>
<path d="M145.073 136.605C145.014 136.605 144.956 136.589 144.905 136.56C144.854 136.531 144.812 136.489 144.783 136.438C144.743 136.377 144.726 136.303 144.735 136.23C144.743 136.157 144.777 136.09 144.83 136.038L162.522 117.81C162.565 117.765 162.62 117.733 162.681 117.716C162.741 117.7 162.805 117.7 162.866 117.717L187.247 125.331C187.317 125.353 187.378 125.396 187.42 125.455C187.463 125.514 187.485 125.585 187.483 125.658C187.48 125.73 187.453 125.8 187.407 125.856C187.361 125.912 187.298 125.953 187.227 125.971L145.154 136.592L145.073 136.605ZM162.866 118.417L146.133 135.658L185.917 125.611L162.866 118.417Z" fill="#231F20"/>
<path d="M139.111 113.236L163.789 121.997L181.184 102.609L139.111 113.236Z" fill="#0060BB"/>
<path d="M163.789 122.33C163.751 122.337 163.712 122.337 163.674 122.33L138.996 113.57C138.929 113.546 138.871 113.501 138.831 113.442C138.791 113.384 138.771 113.314 138.774 113.243C138.777 113.172 138.802 113.103 138.847 113.046C138.892 112.99 138.954 112.949 139.023 112.93L181.096 102.309C181.166 102.292 181.239 102.297 181.306 102.324C181.372 102.35 181.429 102.396 181.467 102.456C181.507 102.517 181.524 102.589 181.518 102.661C181.512 102.733 181.483 102.802 181.434 102.856L164.039 122.237C164.006 122.269 163.967 122.294 163.924 122.31C163.881 122.326 163.835 122.333 163.789 122.33ZM140.259 113.29L163.688 121.604L180.198 103.202L140.259 113.29Z" fill="#231F20"/>
<path d="M203.47 80.9844L179.461 86.8486L182.752 99.9937L206.761 94.1294L203.47 80.9844Z" fill="#0060BB"/>
<path d="M182.752 100.322C182.677 100.322 182.603 100.296 182.544 100.251C182.484 100.205 182.441 100.141 182.422 100.069L179.134 86.9277C179.114 86.842 179.127 86.7517 179.173 86.6759C179.218 86.6 179.291 86.5445 179.377 86.521L203.387 80.6606C203.43 80.6487 203.474 80.6455 203.518 80.6512C203.562 80.657 203.604 80.6716 203.642 80.694C203.68 80.7165 203.713 80.7465 203.739 80.782C203.765 80.8175 203.783 80.8579 203.792 80.9006L207.086 94.0416C207.097 94.0843 207.099 94.1287 207.092 94.1722C207.085 94.2157 207.069 94.2574 207.046 94.2949C207.023 94.3334 206.993 94.3669 206.957 94.3933C206.921 94.4197 206.88 94.4384 206.836 94.4482L182.833 100.309L182.752 100.322ZM179.87 87.0877L183.002 99.582L206.35 93.8815L203.252 81.3873L179.87 87.0877Z" fill="#231F20"/>
<path d="M182.752 99.9886L192.911 89.6812L206.755 94.1215L182.752 99.9886Z" fill="#0060BB"/>
<path d="M182.751 100.322C182.692 100.323 182.634 100.308 182.582 100.279C182.531 100.249 182.489 100.207 182.461 100.155C182.423 100.093 182.408 100.02 182.416 99.9475C182.425 99.8753 182.457 99.8078 182.508 99.7553L192.667 89.4545C192.71 89.4092 192.765 89.377 192.826 89.3617C192.887 89.3463 192.951 89.3485 193.011 89.3679L206.862 93.8082C206.952 93.8082 207.037 93.8433 207.101 93.9059C207.164 93.9684 207.2 94.0532 207.2 94.1416C207.2 94.23 207.164 94.3148 207.101 94.3773C207.037 94.4398 206.952 94.4749 206.862 94.4749L182.859 100.335L182.751 100.322ZM193.004 90.0679L183.818 99.402L205.526 94.1016L193.004 90.0679Z" fill="#231F20"/>
<path d="M179.457 86.8481L193.47 91.9418L203.467 80.981L179.457 86.8481Z" fill="#0060BB"/>
<path d="M193.476 92.2748C193.436 92.2811 193.395 92.2811 193.355 92.2748L179.342 87.1811C179.274 87.1556 179.217 87.1095 179.178 87.0495C179.139 86.9895 179.121 86.9188 179.126 86.8477C179.128 86.7767 179.154 86.7084 179.199 86.653C179.244 86.5977 179.306 86.5584 179.375 86.541L203.385 80.6806C203.455 80.6628 203.528 80.6674 203.595 80.6938C203.662 80.7201 203.718 80.7669 203.756 80.8273C203.794 80.8895 203.81 80.9619 203.802 81.0338C203.795 81.1057 203.765 81.1735 203.716 81.2273L193.726 92.1681C193.66 92.2341 193.57 92.2724 193.476 92.2748ZM180.611 86.941L193.375 91.608L202.481 81.6073L180.611 86.941Z" fill="#231F20"/>
<path d="M167.699 77.669L148.021 86.3711L152.904 97.1416L172.581 88.4395L167.699 77.669Z" fill="#0060BB"/>
<path d="M152.91 97.5019C152.845 97.5036 152.78 97.4861 152.725 97.4517C152.67 97.4173 152.626 97.3675 152.6 97.3086L147.719 86.5345C147.7 86.4948 147.69 86.4517 147.688 86.4078C147.686 86.3639 147.693 86.3201 147.709 86.279C147.725 86.2379 147.749 86.2004 147.779 86.1687C147.81 86.137 147.847 86.1117 147.888 86.0944L167.558 77.3938C167.64 77.3574 167.734 77.3545 167.818 77.3857C167.903 77.4169 167.972 77.4796 168.01 77.5605L172.877 88.3013C172.91 88.3824 172.91 88.4735 172.877 88.5546C172.842 88.6356 172.78 88.7018 172.701 88.7413L153.025 97.4086C152.994 97.4476 152.955 97.4795 152.91 97.5019ZM148.469 86.5678L153.079 96.7286L172.134 88.3013L167.531 78.1405L148.469 86.5678Z" fill="#231F20"/>
<path d="M152.908 97.1355L160.002 86.748L172.578 88.4348L152.908 97.1355Z" fill="#0060BB"/>
<path d="M152.909 97.5021C152.846 97.5054 152.784 97.491 152.729 97.4606C152.675 97.4303 152.63 97.3853 152.6 97.3308C152.57 97.2763 152.557 97.2146 152.561 97.1529C152.566 97.0911 152.588 97.0319 152.625 96.9821L159.726 86.5947C159.761 86.5428 159.81 86.5015 159.867 86.4756C159.924 86.4497 159.988 86.4401 160.05 86.448L172.625 88.1414C172.698 88.1507 172.765 88.1831 172.818 88.2336C172.87 88.2841 172.904 88.35 172.916 88.4215C172.925 88.4933 172.912 88.5663 172.876 88.6298C172.841 88.6934 172.786 88.7442 172.72 88.7748L153.044 97.4421C153.003 97.4716 152.957 97.492 152.909 97.5021ZM160.165 87.1347L153.847 96.3887L171.363 88.6415L160.165 87.1347Z" fill="#231F20"/>
<path d="M148.023 86.3681L160.848 88.5949L167.7 77.6675L148.023 86.3681Z" fill="#0060BB"/>
<path d="M160.839 88.9279H160.785L147.96 86.701C147.89 86.6885 147.826 86.6538 147.777 86.6021C147.728 86.5504 147.698 86.4845 147.69 86.4143C147.681 86.3435 147.695 86.2715 147.73 86.2091C147.765 86.1467 147.82 86.0971 147.886 86.0677L167.556 77.367C167.623 77.3377 167.697 77.3303 167.769 77.3459C167.841 77.3614 167.905 77.3992 167.954 77.4537C167.997 77.5104 168.02 77.5794 168.02 77.6504C168.02 77.7214 167.997 77.7904 167.954 77.8471L161.103 88.7812C161.073 88.8238 161.034 88.8592 160.988 88.8846C160.942 88.91 160.892 88.9248 160.839 88.9279ZM149.162 86.261L160.677 88.2611L166.833 78.4471L149.162 86.261Z" fill="#231F20"/>
<path d="M81.3652 0.395097H41.7832C40.5426 0.395097 39.3528 0.881882 38.4755 1.74836C37.5983 2.61485 37.1055 3.79005 37.1055 5.01544V25.0169C37.1055 25.6237 37.2265 26.2245 37.4615 26.785C37.6966 27.3456 38.0412 27.855 38.4755 28.284C38.9099 28.713 39.4256 29.0534 39.9931 29.2856C40.5606 29.5177 41.1689 29.6373 41.7832 29.6373H77.025L81.2235 36.7444L81.2775 29.6373H81.3922C82.0065 29.6373 82.6148 29.5177 83.1823 29.2856C83.7499 29.0534 84.2655 28.713 84.6999 28.284C85.1343 27.855 85.4788 27.3456 85.7139 26.785C85.949 26.2245 86.07 25.6237 86.07 25.0169V5.01544C86.07 4.40644 85.9481 3.80344 85.7113 3.24113C85.4746 2.67882 85.1276 2.16829 84.6904 1.7389C84.2531 1.30951 83.7343 0.969736 83.1636 0.739116C82.593 0.508496 81.9818 0.391581 81.3652 0.395097Z" fill="white"/>
<path d="M81.198 37.0776C81.1391 37.0772 81.0813 37.0617 81.0304 37.0324C80.9795 37.0032 80.9372 36.9613 80.9078 36.9109L76.8105 29.9704H41.7848C40.4552 29.9686 39.1806 29.4462 38.2404 28.5175C37.3003 27.5889 36.7713 26.33 36.7695 25.0167V5.01522C36.7713 3.70196 37.3003 2.44299 38.2404 1.51438C39.1806 0.58576 40.4552 0.0632874 41.7848 0.0615234H81.3668C82.6969 0.0615234 83.9726 0.58343 84.9131 1.51243C85.8536 2.44143 86.382 3.70142 86.382 5.01522V25.0167C86.3816 26.2921 85.8831 27.5182 84.9904 28.4397C84.0977 29.3612 82.8795 29.9071 81.5895 29.9637L81.5355 36.7509C81.5359 36.8233 81.5115 36.8938 81.4661 36.9507C81.4207 37.0076 81.3572 37.0476 81.2858 37.0642C81.2581 37.0758 81.2279 37.0804 81.198 37.0776ZM41.7848 0.728239C40.6342 0.730002 39.5313 1.18223 38.7177 1.98582C37.9042 2.7894 37.4463 3.87878 37.4445 5.01522V25.0167C37.4463 26.1531 37.9042 27.2425 38.7177 28.0461C39.5313 28.8497 40.6342 29.3019 41.7848 29.3037H77.0265C77.0866 29.3029 77.1458 29.3179 77.198 29.3472C77.2502 29.3765 77.2935 29.419 77.3235 29.4704L80.901 35.5308L80.9415 29.637C80.9415 29.5486 80.9771 29.4638 81.0404 29.4013C81.1037 29.3388 81.1895 29.3037 81.279 29.3037H81.3938C82.5443 29.3019 83.6473 28.8497 84.4608 28.0461C85.2744 27.2425 85.7322 26.1531 85.734 25.0167V5.01522C85.734 3.87824 85.2768 2.78783 84.4628 1.98387C83.6488 1.1799 82.5449 0.728239 81.3938 0.728239H41.7848Z" fill="#231F20"/>
<path d="M53.4752 23.0049C53.4752 23.4229 53.4049 23.7881 53.2643 24.1006C53.1236 24.4111 52.9244 24.6484 52.6666 24.8125C52.4088 24.9766 52.108 25.0586 51.7643 25.0586C51.4283 25.0586 51.1305 24.9766 50.8707 24.8125C50.6109 24.6465 50.4088 24.4111 50.2643 24.1064C50.1217 23.7998 50.0484 23.4453 50.0445 23.043V22.7354C50.0445 22.3252 50.1158 21.9629 50.2584 21.6484C50.401 21.334 50.6021 21.0938 50.8619 20.9277C51.1236 20.7598 51.4225 20.6758 51.7584 20.6758C52.1002 20.6758 52.401 20.7588 52.6607 20.9248C52.9225 21.0889 53.1236 21.3281 53.2643 21.6426C53.4049 21.9551 53.4752 22.3193 53.4752 22.7354V23.0049ZM52.9156 22.7295C52.9156 22.2236 52.8141 21.8359 52.6109 21.5664C52.4078 21.2949 52.1236 21.1592 51.7584 21.1592C51.4029 21.1592 51.1227 21.2949 50.9176 21.5664C50.7145 21.8359 50.61 22.2109 50.6041 22.6914V23.0049C50.6041 23.4951 50.7066 23.8809 50.9117 24.1621C51.1187 24.4414 51.4029 24.5811 51.7643 24.5811C52.1275 24.5811 52.4088 24.4492 52.608 24.1855C52.8072 23.9199 52.9098 23.54 52.9156 23.0459V22.7295ZM54.8258 21.8301V24.5576H55.9859V21.8301H56.5279V24.5576H57.6852V21.8301H58.2301V25H54.2809V21.8301H54.8258ZM61.1363 21.8301H61.6783V25H61.1363V22.6885L59.6744 25H59.1324V21.8301H59.6744V24.1445L61.1363 21.8301ZM63.94 22.0117C64.3385 22.0117 64.6568 22.1455 64.8951 22.4131C65.1353 22.6787 65.2555 23.0293 65.2555 23.4648V23.5146C65.2555 23.8135 65.1978 24.0811 65.0826 24.3174C64.9674 24.5518 64.8014 24.7344 64.5846 24.8652C64.3697 24.9941 64.1217 25.0586 63.8404 25.0586C63.4146 25.0586 63.0719 24.917 62.8121 24.6338C62.5523 24.3486 62.4225 23.9668 62.4225 23.4883V23.2246C62.4225 22.5586 62.5455 22.0293 62.7916 21.6367C63.0396 21.2441 63.4049 21.0049 63.8873 20.9189C64.1607 20.8701 64.3453 20.8105 64.441 20.7402C64.5367 20.6699 64.5846 20.5732 64.5846 20.4502H65.0299C65.0299 20.6943 64.9742 20.8848 64.8629 21.0215C64.7535 21.1582 64.5777 21.2549 64.3355 21.3115L63.9312 21.4023C63.609 21.4785 63.3668 21.6074 63.2047 21.7891C63.0445 21.9688 62.94 22.209 62.8912 22.5098C63.1783 22.1777 63.5279 22.0117 63.94 22.0117ZM63.8346 22.457C63.5689 22.457 63.358 22.5469 63.2018 22.7266C63.0455 22.9043 62.9674 23.1514 62.9674 23.4678V23.5146C62.9674 23.8545 63.0455 24.124 63.2018 24.3232C63.36 24.5205 63.5728 24.6191 63.8404 24.6191C64.11 24.6191 64.3228 24.5195 64.4791 24.3203C64.6353 24.1211 64.7135 23.8301 64.7135 23.4473C64.7135 23.1484 64.6344 22.9092 64.4762 22.7295C64.3199 22.5479 64.1061 22.457 63.8346 22.457ZM66.7994 23.6494H66.4039V25H65.859V21.8301H66.4039V23.1719H66.7584L67.8248 21.8301H68.4811L67.2271 23.3535L68.5865 25H67.898L66.7994 23.6494ZM71.0094 25C70.9781 24.9375 70.9527 24.8262 70.9332 24.666C70.6812 24.9277 70.3805 25.0586 70.0309 25.0586C69.7184 25.0586 69.4615 24.9707 69.2603 24.7949C69.0611 24.6172 68.9615 24.3926 68.9615 24.1211C68.9615 23.791 69.0865 23.5352 69.3365 23.3535C69.5885 23.1699 69.942 23.0781 70.3971 23.0781H70.9244V22.8291C70.9244 22.6396 70.8678 22.4893 70.7545 22.3779C70.6412 22.2646 70.4742 22.208 70.2535 22.208C70.0602 22.208 69.898 22.2568 69.7672 22.3545C69.6363 22.4521 69.5709 22.5703 69.5709 22.709H69.026C69.026 22.5508 69.0816 22.3984 69.193 22.252C69.3062 22.1035 69.4586 21.9863 69.65 21.9004C69.8434 21.8145 70.0553 21.7715 70.2857 21.7715C70.651 21.7715 70.9371 21.8633 71.1441 22.0469C71.3512 22.2285 71.4586 22.4795 71.4664 22.7998V24.2588C71.4664 24.5498 71.5035 24.7812 71.5777 24.9531V25H71.0094ZM70.11 24.5869C70.2799 24.5869 70.441 24.543 70.5934 24.4551C70.7457 24.3672 70.8561 24.2529 70.9244 24.1123V23.4619H70.4996C69.8355 23.4619 69.5035 23.6562 69.5035 24.0449C69.5035 24.2148 69.5602 24.3477 69.6734 24.4434C69.7867 24.5391 69.9322 24.5869 70.11 24.5869ZM72.9225 23.7959H72.4332L72.3951 20.7344H72.9635L72.9225 23.7959ZM72.3746 24.7275C72.3746 24.6396 72.401 24.5664 72.4537 24.5078C72.5084 24.4473 72.5885 24.417 72.6939 24.417C72.7994 24.417 72.8795 24.4473 72.9342 24.5078C72.9889 24.5664 73.0162 24.6396 73.0162 24.7275C73.0162 24.8154 72.9889 24.8887 72.9342 24.9473C72.8795 25.0039 72.7994 25.0322 72.6939 25.0322C72.5885 25.0322 72.5084 25.0039 72.4537 24.9473C72.401 24.8887 72.3746 24.8154 72.3746 24.7275Z" fill="black"/>
<path d="M56.6764 4.64645L56.3229 4.29289L55.9693 4.64645L54.6464 5.96933L54.2929 6.32289L54.6464 6.67644L55.3079 7.33788L58.97 11L55.3079 14.6621L54.6464 15.3236L54.2929 15.6771L54.6464 16.0307L55.9693 17.3536L56.3229 17.7071L56.6764 17.3536L57.3379 16.6921L61 13.03L64.6621 16.6921L65.3236 17.3536L65.6771 17.7071L66.0307 17.3536L67.3536 16.0307L67.7071 15.6771L67.3536 15.3236L66.6921 14.6621L63.03 11L66.6921 7.33788L67.3536 6.67644L67.7071 6.32289L67.3536 5.96933L66.0307 4.64645L65.6771 4.29289L65.3236 4.64645L64.6621 5.30789L61 8.97001L57.3379 5.30789L56.6764 4.64645Z" fill="#0060BB" stroke="#231F20" stroke-linecap="square"/>
<path d="M78.6458 134.738C78.5563 134.738 78.4704 134.703 78.4072 134.641C78.3439 134.578 78.3083 134.494 78.3083 134.405C78.3083 134.317 78.3439 134.232 78.4072 134.169C78.4704 134.107 78.5563 134.072 78.6458 134.072C79.5435 134.072 80.4413 134.072 81.3458 134.005C81.4353 134.005 81.5212 134.04 81.5844 134.103C81.6477 134.165 81.6833 134.25 81.6833 134.338C81.6833 134.427 81.6477 134.512 81.5844 134.574C81.5212 134.637 81.4353 134.672 81.3458 134.672C80.4413 134.705 79.5368 134.725 78.6458 134.738ZM75.9458 134.738C75.048 134.738 74.1435 134.738 73.2458 134.672C73.1575 134.668 73.074 134.631 73.0135 134.567C72.9529 134.504 72.92 134.419 72.9218 134.332C72.927 134.243 72.9662 134.16 73.0315 134.099C73.0968 134.039 73.1831 134.005 73.2728 134.005C74.1705 134.038 75.0615 134.058 75.9728 134.072C76.0623 134.072 76.1481 134.107 76.2114 134.169C76.2747 134.232 76.3103 134.317 76.3103 134.405C76.3103 134.494 76.2747 134.578 76.2114 134.641C76.1481 134.703 76.0623 134.738 75.9728 134.738H75.9458ZM84.0458 134.552C83.9604 134.552 83.8782 134.519 83.8166 134.461C83.7549 134.402 83.7185 134.323 83.715 134.238C83.7123 134.195 83.7183 134.151 83.7328 134.109C83.7473 134.068 83.7699 134.03 83.7994 133.997C83.8289 133.964 83.8646 133.937 83.9046 133.918C83.9445 133.899 83.988 133.888 84.0323 133.885C84.9233 133.838 85.8211 133.778 86.7323 133.705C86.7763 133.701 86.8206 133.707 86.8625 133.72C86.9045 133.734 86.9433 133.755 86.9767 133.784C87.01 133.812 87.0372 133.847 87.0567 133.886C87.0762 133.926 87.0875 133.968 87.09 134.012C87.0937 134.056 87.0886 134.1 87.075 134.142C87.0614 134.183 87.0395 134.222 87.0106 134.256C86.9818 134.289 86.9465 134.317 86.9068 134.336C86.8672 134.356 86.8239 134.368 86.7795 134.372C85.8818 134.438 84.984 134.498 84.0795 134.552H84.0458ZM70.5458 134.552C69.6413 134.498 68.7435 134.438 67.8458 134.365C67.8015 134.362 67.7583 134.35 67.7187 134.33C67.6791 134.31 67.6439 134.282 67.6151 134.249C67.5862 134.215 67.5643 134.176 67.5507 134.135C67.537 134.093 67.5318 134.049 67.5353 134.005C67.5388 133.961 67.5511 133.919 67.5713 133.88C67.5916 133.84 67.6194 133.806 67.6532 133.777C67.6871 133.749 67.7263 133.727 67.7686 133.714C67.8109 133.7 67.8555 133.695 67.8998 133.698C68.7975 133.772 69.6885 133.832 70.5998 133.885C70.6893 133.885 70.7752 133.92 70.8384 133.983C70.9017 134.045 70.9373 134.13 70.9373 134.218C70.9373 134.307 70.9017 134.392 70.8384 134.454C70.7752 134.517 70.6893 134.552 70.5998 134.552H70.5458ZM89.4458 134.132C89.3627 134.129 89.2831 134.098 89.2213 134.043C89.1595 133.988 89.1194 133.913 89.1083 133.832C89.1036 133.788 89.1078 133.744 89.1206 133.701C89.1334 133.659 89.1545 133.62 89.1827 133.586C89.211 133.552 89.2458 133.523 89.2852 133.503C89.3245 133.482 89.3676 133.469 89.412 133.465C90.312 133.372 91.2121 133.272 92.112 133.165C92.1564 133.159 92.2014 133.162 92.2445 133.174C92.2877 133.185 92.3281 133.205 92.3635 133.232C92.399 133.259 92.4287 133.293 92.451 133.331C92.4732 133.369 92.4877 133.411 92.4934 133.455C92.4992 133.499 92.4962 133.543 92.4845 133.586C92.4729 133.629 92.4529 133.668 92.4256 133.703C92.3983 133.738 92.3644 133.768 92.3256 133.79C92.2869 133.812 92.2441 133.826 92.1998 133.832C91.2998 133.947 90.3998 134.047 89.4998 134.132H89.4458ZM65.193 134.132H65.1593C64.2615 134.032 63.3638 133.925 62.4593 133.812C62.3698 133.8 62.2886 133.754 62.2335 133.683C62.1784 133.613 62.154 133.523 62.1657 133.435C62.1773 133.347 62.224 133.266 62.2956 133.212C62.3671 133.158 62.4575 133.134 62.5471 133.145C63.4313 133.258 64.3223 133.365 65.247 133.458C65.3366 133.464 65.4203 133.504 65.4798 133.57C65.5393 133.636 65.5697 133.723 65.5643 133.812C65.5589 133.9 65.5182 133.983 65.4511 134.042C65.384 134.1 65.2961 134.13 65.2066 134.125L65.193 134.132ZM94.8053 133.465C94.7256 133.464 94.6486 133.436 94.5881 133.385C94.5275 133.334 94.4873 133.263 94.4745 133.185C94.4669 133.142 94.4682 133.097 94.4785 133.054C94.4887 133.011 94.5076 132.971 94.5341 132.935C94.5606 132.9 94.5941 132.87 94.6326 132.847C94.6711 132.825 94.7138 132.811 94.7581 132.805C95.6423 132.672 96.5333 132.532 97.4176 132.385C97.4611 132.377 97.5056 132.378 97.5487 132.388C97.5918 132.398 97.6325 132.416 97.6683 132.441C97.7042 132.467 97.7345 132.499 97.7575 132.536C97.7805 132.574 97.7958 132.615 97.8023 132.658C97.811 132.701 97.8109 132.745 97.8019 132.787C97.7929 132.83 97.7752 132.87 97.7499 132.906C97.7247 132.941 97.6924 132.971 97.6549 132.994C97.6175 133.017 97.5758 133.032 97.5323 133.038C96.6413 133.192 95.7503 133.332 94.8323 133.465H94.8053ZM59.847 133.412H59.793C58.9021 133.272 58.0111 133.118 57.1268 132.958C57.0825 132.95 57.0402 132.934 57.0023 132.91C56.9644 132.886 56.9316 132.855 56.9059 132.818C56.8802 132.782 56.8621 132.741 56.8525 132.697C56.8429 132.654 56.8421 132.609 56.85 132.565C56.858 132.521 56.8746 132.479 56.899 132.442C56.9233 132.405 56.9549 132.372 56.9919 132.347C57.0288 132.321 57.0705 132.304 57.1145 132.294C57.1585 132.285 57.204 132.284 57.2483 132.292C58.1325 132.458 59.0168 132.605 59.9011 132.745C59.9454 132.748 59.9886 132.761 60.0281 132.781C60.0677 132.801 60.103 132.828 60.1318 132.861C60.1606 132.895 60.1825 132.934 60.1962 132.975C60.2099 133.017 60.2151 133.061 60.2115 133.105C60.208 133.149 60.1958 133.191 60.1755 133.231C60.1553 133.27 60.1275 133.304 60.0936 133.333C60.0598 133.361 60.0206 133.383 59.9783 133.397C59.936 133.41 59.8914 133.415 59.847 133.412ZM100.131 132.565C100.042 132.574 99.9521 132.547 99.8825 132.491C99.8129 132.435 99.7687 132.353 99.7598 132.265C99.7508 132.177 99.7778 132.088 99.8348 132.019C99.8918 131.951 99.974 131.907 100.064 131.898C100.948 131.725 101.832 131.545 102.703 131.358C102.792 131.339 102.886 131.355 102.963 131.404C103.04 131.453 103.095 131.53 103.115 131.618C103.134 131.707 103.118 131.799 103.068 131.875C103.019 131.952 102.941 132.005 102.851 132.025L100.199 132.565H100.131ZM54.5483 132.432H54.474C53.5898 132.245 52.7123 132.045 51.8348 131.832C51.792 131.821 51.7517 131.803 51.7163 131.777C51.6808 131.752 51.6509 131.719 51.6283 131.682C51.6056 131.645 51.5908 131.603 51.5845 131.56C51.5782 131.517 51.5807 131.474 51.5918 131.432C51.6126 131.346 51.6669 131.272 51.7428 131.226C51.8187 131.18 51.91 131.165 51.9968 131.185C52.8675 131.398 53.7383 131.592 54.6158 131.778C54.6593 131.788 54.7005 131.806 54.737 131.831C54.7735 131.856 54.8046 131.888 54.8284 131.925C54.8523 131.963 54.8685 132.004 54.876 132.048C54.8835 132.091 54.8822 132.135 54.8723 132.178C54.8548 132.254 54.8105 132.321 54.7474 132.368C54.6843 132.414 54.6066 132.437 54.528 132.432H54.5483ZM105.376 131.425C105.301 131.425 105.228 131.4 105.169 131.354C105.11 131.308 105.069 131.244 105.052 131.172C105.041 131.129 105.038 131.085 105.044 131.041C105.05 130.998 105.065 130.956 105.088 130.918C105.11 130.881 105.14 130.848 105.176 130.821C105.211 130.795 105.252 130.776 105.295 130.765C106.172 130.551 107.043 130.329 107.907 130.098C107.993 130.076 108.084 130.088 108.161 130.131C108.239 130.175 108.295 130.247 108.319 130.331C108.34 130.417 108.327 130.508 108.284 130.584C108.24 130.661 108.168 130.719 108.083 130.745C107.212 130.972 106.334 131.192 105.457 131.412L105.376 131.425ZM49.2765 131.172H49.182C48.3113 130.932 47.4473 130.685 46.5833 130.425C46.4938 130.398 46.4186 130.338 46.3743 130.256C46.33 130.175 46.3202 130.08 46.347 129.991C46.3739 129.903 46.4352 129.829 46.5175 129.785C46.5998 129.741 46.6963 129.732 46.7858 129.758C47.6363 130.018 48.5003 130.265 49.3643 130.498C49.4505 130.523 49.5234 130.58 49.5675 130.657C49.6117 130.735 49.6235 130.826 49.6006 130.912C49.5845 130.982 49.5455 131.046 49.4895 131.093C49.4334 131.14 49.3634 131.167 49.2901 131.172H49.2765ZM110.594 130.031C110.504 130.044 110.413 130.021 110.341 129.967C110.269 129.913 110.221 129.833 110.209 129.745C110.196 129.656 110.22 129.567 110.274 129.495C110.329 129.424 110.41 129.377 110.499 129.365C111.363 129.118 112.22 128.851 113.071 128.585C113.115 128.571 113.162 128.566 113.208 128.571C113.254 128.575 113.299 128.588 113.34 128.609C113.381 128.631 113.418 128.66 113.447 128.695C113.477 128.73 113.499 128.771 113.513 128.815C113.527 128.858 113.532 128.905 113.527 128.95C113.523 128.996 113.51 129.04 113.488 129.081C113.466 129.121 113.437 129.157 113.401 129.186C113.366 129.216 113.324 129.238 113.28 129.251C112.423 129.525 111.559 129.785 110.688 130.038C110.661 130.041 110.633 130.039 110.607 130.031H110.594ZM44.1195 129.605C44.0838 129.611 44.0473 129.611 44.0115 129.605C43.1543 129.318 42.3038 129.011 41.4668 128.698C41.3929 128.661 41.3356 128.598 41.3056 128.521C41.2757 128.445 41.2753 128.36 41.3045 128.284C41.3337 128.207 41.3905 128.144 41.464 128.106C41.5375 128.068 41.6226 128.058 41.703 128.078C42.54 128.385 43.377 128.685 44.2276 128.971C44.3118 129.002 44.3808 129.063 44.4199 129.143C44.459 129.222 44.465 129.314 44.4368 129.398C44.4127 129.458 44.3709 129.51 44.3168 129.547C44.2627 129.584 44.1987 129.604 44.133 129.605H44.1195ZM115.737 128.391C115.667 128.392 115.599 128.372 115.542 128.332C115.485 128.293 115.443 128.236 115.42 128.171C115.392 128.087 115.398 127.996 115.437 127.916C115.476 127.836 115.545 127.775 115.629 127.745C116.48 127.451 117.323 127.145 118.16 126.831C118.201 126.815 118.245 126.808 118.29 126.809C118.334 126.81 118.377 126.82 118.418 126.838C118.458 126.856 118.494 126.882 118.524 126.914C118.554 126.946 118.577 126.983 118.592 127.025C118.609 127.066 118.616 127.11 118.615 127.154C118.614 127.198 118.604 127.241 118.586 127.282C118.568 127.322 118.542 127.358 118.509 127.389C118.477 127.419 118.438 127.442 118.397 127.458C117.56 127.771 116.709 128.078 115.852 128.378C115.819 128.388 115.785 128.392 115.751 128.391H115.737ZM39.0773 127.725C39.0351 127.734 38.9913 127.734 38.949 127.725C38.112 127.378 37.2751 127.018 36.465 126.658C36.4245 126.639 36.3881 126.613 36.358 126.58C36.3279 126.548 36.3046 126.51 36.2895 126.468C36.2745 126.426 36.2679 126.382 36.2702 126.338C36.2725 126.294 36.2837 126.251 36.303 126.211C36.3212 126.171 36.3472 126.136 36.3796 126.106C36.412 126.076 36.4501 126.053 36.4916 126.038C36.5331 126.023 36.5773 126.017 36.6214 126.019C36.6655 126.021 36.7088 126.032 36.7486 126.051C37.5518 126.411 38.3753 126.771 39.2055 127.111C39.2468 127.127 39.2843 127.151 39.3159 127.182C39.3475 127.213 39.3726 127.249 39.3896 127.29C39.4066 127.33 39.4152 127.374 39.4149 127.417C39.4146 127.461 39.4054 127.504 39.3878 127.545C39.3598 127.598 39.3171 127.643 39.2646 127.674C39.2121 127.704 39.1518 127.72 39.0908 127.718L39.0773 127.725ZM120.793 126.498C120.726 126.499 120.66 126.48 120.604 126.443C120.549 126.406 120.506 126.353 120.482 126.291C120.465 126.251 120.456 126.208 120.455 126.164C120.455 126.12 120.464 126.077 120.481 126.036C120.498 125.996 120.523 125.959 120.554 125.929C120.586 125.898 120.623 125.874 120.665 125.858C121.495 125.518 122.318 125.191 123.135 124.811C123.176 124.793 123.22 124.784 123.264 124.783C123.309 124.782 123.353 124.79 123.394 124.806C123.436 124.822 123.473 124.846 123.505 124.877C123.537 124.908 123.563 124.944 123.581 124.984C123.615 125.065 123.617 125.156 123.586 125.238C123.554 125.32 123.492 125.387 123.412 125.424C122.588 125.784 121.758 126.131 120.921 126.478C120.884 126.487 120.845 126.492 120.806 126.491L120.793 126.498ZM34.1903 125.504C34.1391 125.503 34.0887 125.492 34.0418 125.471C33.2318 125.071 32.4285 124.651 31.6455 124.224C31.6065 124.203 31.572 124.175 31.544 124.141C31.5161 124.107 31.4952 124.068 31.4827 124.025C31.4701 123.983 31.4661 123.939 31.4709 123.895C31.4757 123.852 31.4892 123.81 31.5105 123.771C31.5546 123.694 31.6271 123.638 31.7128 123.613C31.7984 123.588 31.8905 123.597 31.9695 123.638C32.7458 124.064 33.5423 124.478 34.3455 124.871C34.4243 124.914 34.4835 124.984 34.5112 125.069C34.5388 125.153 34.5326 125.244 34.494 125.324C34.4647 125.379 34.4209 125.424 34.3674 125.456C34.3139 125.488 34.2527 125.504 34.1903 125.504ZM125.741 124.331C125.677 124.333 125.614 124.316 125.56 124.283C125.506 124.25 125.463 124.201 125.437 124.144C125.417 124.105 125.406 124.062 125.403 124.018C125.4 123.975 125.406 123.931 125.421 123.889C125.435 123.848 125.458 123.809 125.487 123.777C125.516 123.744 125.552 123.717 125.592 123.698C126.402 123.311 127.205 122.918 128.002 122.511C128.081 122.47 128.174 122.463 128.26 122.489C128.345 122.516 128.416 122.576 128.457 122.654C128.499 122.733 128.506 122.825 128.479 122.909C128.452 122.993 128.392 123.064 128.312 123.104C127.509 123.511 126.706 123.911 125.882 124.298C125.838 124.319 125.789 124.328 125.741 124.324V124.331ZM29.472 122.931C29.4097 122.93 29.3489 122.911 29.2965 122.878C28.5203 122.418 27.7508 121.938 27.0015 121.451C26.9276 121.402 26.8761 121.326 26.8584 121.24C26.8407 121.154 26.8582 121.064 26.907 120.991C26.9309 120.954 26.9621 120.922 26.9987 120.897C27.0352 120.873 27.0765 120.855 27.1199 120.847C27.1633 120.838 27.2081 120.838 27.2516 120.847C27.295 120.855 27.3362 120.873 27.3728 120.897C28.1153 121.377 28.878 121.851 29.6475 122.311C29.723 122.357 29.7774 122.43 29.7988 122.514C29.8203 122.599 29.8072 122.689 29.7623 122.764C29.7323 122.814 29.6899 122.856 29.6391 122.885C29.5883 122.914 29.5308 122.93 29.472 122.931ZM130.533 121.871C130.473 121.87 130.415 121.855 130.363 121.826C130.311 121.796 130.267 121.755 130.236 121.704C130.195 121.626 130.186 121.535 130.211 121.451C130.236 121.366 130.293 121.294 130.371 121.251C131.154 120.817 131.93 120.371 132.693 119.917C132.731 119.895 132.773 119.88 132.817 119.873C132.862 119.866 132.906 119.868 132.95 119.879C132.993 119.889 133.034 119.908 133.07 119.934C133.105 119.96 133.136 119.993 133.159 120.031C133.182 120.068 133.197 120.11 133.204 120.154C133.211 120.197 133.209 120.242 133.198 120.284C133.187 120.327 133.168 120.367 133.142 120.403C133.115 120.438 133.082 120.468 133.044 120.491C132.275 120.935 131.492 121.38 130.695 121.824C130.646 121.853 130.59 121.869 130.533 121.871ZM24.9698 119.991C24.9 119.99 24.8318 119.97 24.774 119.931C24.036 119.402 23.3138 118.862 22.6073 118.311C22.5378 118.256 22.4931 118.176 22.4829 118.088C22.4728 118.001 22.4981 117.913 22.5533 117.844C22.6112 117.776 22.6931 117.733 22.7822 117.723C22.8713 117.713 22.9609 117.737 23.0325 117.791C23.7075 118.337 24.4433 118.871 25.1655 119.391C25.202 119.416 25.2331 119.448 25.257 119.485C25.2808 119.522 25.297 119.564 25.3045 119.607C25.312 119.651 25.3108 119.695 25.3009 119.738C25.2909 119.781 25.2724 119.822 25.2465 119.857C25.2141 119.899 25.1721 119.933 25.1241 119.956C25.0761 119.979 25.0232 119.991 24.9698 119.991ZM20.7443 116.657C20.6629 116.657 20.5842 116.629 20.5215 116.577C19.914 116.05 19.3065 115.51 18.726 114.97L18.5168 114.77C18.4854 114.74 18.4604 114.704 18.4433 114.664C18.4263 114.623 18.4175 114.58 18.4175 114.537C18.4175 114.494 18.4263 114.451 18.4433 114.41C18.4604 114.37 18.4854 114.334 18.5168 114.304C18.5482 114.272 18.5855 114.248 18.6266 114.231C18.6678 114.214 18.7119 114.205 18.7564 114.205C18.801 114.205 18.8451 114.214 18.8862 114.231C18.9273 114.248 18.9647 114.272 18.996 114.304L19.1985 114.497C19.779 115.037 20.373 115.57 20.9805 116.084C21.0332 116.128 21.0707 116.188 21.088 116.254C21.1053 116.32 21.1016 116.39 21.0772 116.454C21.0529 116.518 21.0092 116.573 20.952 116.612C20.8949 116.651 20.8271 116.671 20.7578 116.67L20.7443 116.657ZM16.8293 112.99C16.7381 112.99 16.6507 112.954 16.5863 112.89C15.9518 112.223 15.3308 111.557 14.7368 110.93C14.7054 110.9 14.6804 110.863 14.6634 110.823C14.6463 110.783 14.6375 110.74 14.6375 110.697C14.6375 110.653 14.6463 110.61 14.6634 110.57C14.6804 110.53 14.7054 110.494 14.7368 110.463C14.7682 110.432 14.8055 110.407 14.8466 110.39C14.8878 110.373 14.9319 110.365 14.9764 110.365C15.021 110.365 15.0651 110.373 15.1062 110.39C15.1473 110.407 15.1847 110.432 15.216 110.463C15.81 111.13 16.4243 111.797 17.052 112.404C17.0837 112.434 17.1088 112.471 17.1259 112.512C17.1431 112.553 17.1519 112.596 17.1519 112.64C17.1519 112.684 17.1431 112.728 17.1259 112.768C17.1088 112.809 17.0837 112.846 17.052 112.877C16.9981 112.949 16.9187 112.999 16.8293 113.017V112.99ZM13.2248 108.99C13.1742 108.989 13.1244 108.978 13.0789 108.956C13.0334 108.934 12.9933 108.902 12.9615 108.863C12.381 108.197 11.8208 107.463 11.2808 106.763C11.2288 106.692 11.2068 106.603 11.2194 106.516C11.2319 106.429 11.2782 106.35 11.3483 106.296C11.4199 106.243 11.5099 106.221 11.5985 106.233C11.6871 106.246 11.7671 106.292 11.8208 106.363C12.354 107.03 12.9143 107.757 13.4813 108.443C13.5102 108.476 13.5322 108.515 13.5459 108.556C13.5595 108.598 13.5646 108.642 13.5608 108.685C13.5571 108.729 13.5445 108.771 13.5239 108.809C13.5033 108.848 13.475 108.882 13.4408 108.91C13.3899 108.983 13.3125 109.033 13.2248 109.05V108.99ZM9.97805 104.73C9.92322 104.73 9.86923 104.716 9.82092 104.691C9.77261 104.665 9.7315 104.628 9.7013 104.583C9.1883 103.843 8.6888 103.083 8.22305 102.329C8.18514 102.255 8.17701 102.169 8.20027 102.088C8.22353 102.008 8.27648 101.939 8.34864 101.896C8.42079 101.852 8.50689 101.837 8.58989 101.853C8.67289 101.869 8.74673 101.915 8.7968 101.983C9.2558 102.723 9.74855 103.476 10.2548 104.21C10.2802 104.245 10.2981 104.286 10.3074 104.328C10.3168 104.371 10.3174 104.415 10.3092 104.458C10.301 104.501 10.2842 104.542 10.2598 104.578C10.2354 104.614 10.2039 104.645 10.167 104.67C10.121 104.731 10.0538 104.774 9.97805 104.79V104.73ZM7.15655 100.189C7.09598 100.189 7.03662 100.172 6.98448 100.142C6.93233 100.112 6.88924 100.068 6.85955 100.016C6.4208 99.2292 6.0023 98.4225 5.6108 97.6291C5.59144 97.5893 5.58028 97.5461 5.57796 97.502C5.57563 97.458 5.5822 97.4138 5.59727 97.3723C5.61234 97.3307 5.63562 97.2925 5.66575 97.2599C5.69588 97.2274 5.73227 97.201 5.7728 97.1824C5.81217 97.1632 5.85503 97.1519 5.89886 97.1492C5.94269 97.1466 5.98662 97.1525 6.02809 97.1668C6.06956 97.1811 6.10774 97.2034 6.1404 97.2324C6.17305 97.2614 6.19953 97.2965 6.2183 97.3357C6.60305 98.1225 7.02155 98.9158 7.4468 99.6959C7.46923 99.7333 7.48373 99.7747 7.48941 99.8178C7.49509 99.8609 7.49183 99.9047 7.47983 99.9465C7.46784 99.9883 7.44735 100.027 7.41962 100.061C7.39189 100.095 7.3575 100.122 7.31855 100.143C7.27822 100.195 7.22115 100.233 7.15655 100.249V100.189ZM4.8008 95.4423C4.73302 95.4433 4.66651 95.4241 4.60992 95.3872C4.55333 95.3503 4.5093 95.2975 4.48355 95.2356C4.1393 94.4155 3.80855 93.5688 3.51155 92.7354C3.48401 92.653 3.4901 92.5632 3.52851 92.4852C3.56692 92.4071 3.63463 92.347 3.71725 92.3174C3.79987 92.2879 3.89088 92.2914 3.97095 92.3271C4.05103 92.3628 4.11384 92.428 4.14605 92.5087C4.44305 93.3354 4.76705 94.1688 5.1113 94.9822C5.14311 95.0638 5.14192 95.1543 5.10799 95.2349C5.07406 95.3156 5.00998 95.3803 4.92905 95.4156C4.8887 95.4334 4.84498 95.4425 4.8008 95.4423ZM3.0053 90.4152C2.932 90.4163 2.8604 90.3934 2.80175 90.3499C2.74311 90.3065 2.70074 90.245 2.6813 90.1752C2.43155 89.3151 2.20205 88.4417 2.0063 87.575C1.99634 87.5321 1.99509 87.4877 2.00262 87.4443C2.01014 87.4009 2.0263 87.3594 2.05015 87.3222C2.07399 87.285 2.10506 87.2529 2.14156 87.2276C2.17806 87.2023 2.21927 87.1844 2.2628 87.175C2.34956 87.1571 2.43997 87.1737 2.51448 87.2211C2.589 87.2685 2.64164 87.3429 2.66105 87.4283C2.8568 88.2817 3.07955 89.1418 3.33605 89.9885C3.34846 90.0305 3.35237 90.0746 3.34755 90.1181C3.34273 90.1616 3.32928 90.2038 3.30797 90.2422C3.28666 90.2805 3.2579 90.3144 3.22334 90.3418C3.18878 90.3692 3.1491 90.3896 3.10655 90.4019C3.07838 90.4116 3.04863 90.4161 3.0188 90.4152H3.0053ZM1.82405 85.2148C1.74315 85.2159 1.66457 85.1882 1.60263 85.1368C1.54068 85.0854 1.49948 85.0137 1.48655 84.9348C1.3448 84.0481 1.23005 83.1547 1.1423 82.268C1.13424 82.1795 1.16207 82.0916 1.21967 82.0235C1.27727 81.9553 1.35991 81.9126 1.44942 81.9046C1.53893 81.8966 1.62798 81.9241 1.69697 81.981C1.76596 82.0379 1.80924 82.1195 1.8173 82.208C1.90505 83.0747 2.0198 83.9548 2.16155 84.8282C2.16929 84.8715 2.16826 84.916 2.15851 84.9589C2.14877 85.0019 2.1305 85.0425 2.10477 85.0785C2.07904 85.1144 2.04635 85.145 2.0086 85.1684C1.97084 85.1918 1.92876 85.2076 1.8848 85.2148H1.82405ZM1.3043 79.9145C1.21646 79.9128 1.13258 79.8781 1.06983 79.8173C1.00709 79.7566 0.970226 79.6745 0.966797 79.5878C0.966797 79.1477 0.966797 78.7077 0.966797 78.2543C0.966797 77.801 0.966797 77.3343 0.966797 76.8809C0.967623 76.8368 0.977472 76.7934 0.995749 76.7532C1.01403 76.7129 1.04036 76.6768 1.07315 76.6469C1.10594 76.617 1.14452 76.594 1.18657 76.5792C1.22861 76.5644 1.27325 76.5582 1.3178 76.5609C1.40613 76.5643 1.48955 76.6019 1.55014 76.6655C1.61072 76.7291 1.64363 76.8136 1.6418 76.9009C1.6418 77.3476 1.6418 77.801 1.6418 78.2343C1.6418 78.6677 1.6418 79.0944 1.6418 79.5278C1.6436 79.5721 1.63643 79.6163 1.6207 79.6579C1.60497 79.6994 1.581 79.7375 1.5502 79.7698C1.51939 79.8021 1.48237 79.8279 1.44131 79.8459C1.40024 79.8639 1.35596 79.8736 1.31105 79.8745L1.3043 79.9145ZM1.48655 74.5807C1.44243 74.5774 1.39945 74.5654 1.36013 74.5453C1.32081 74.5253 1.28595 74.4977 1.25763 74.4641C1.22931 74.4306 1.20809 74.3917 1.19524 74.3499C1.18238 74.3081 1.17815 74.2642 1.1828 74.2207C1.2773 73.3273 1.3988 72.4272 1.55405 71.5538C1.56058 71.5107 1.57581 71.4693 1.59882 71.432C1.62183 71.3948 1.65216 71.3624 1.68802 71.337C1.72388 71.3115 1.76455 71.2934 1.80762 71.2837C1.85069 71.274 1.8953 71.2729 1.9388 71.2805C1.98276 71.2877 2.02484 71.3035 2.0626 71.3269C2.10035 71.3503 2.13304 71.3809 2.15877 71.4169C2.1845 71.4528 2.20277 71.4935 2.21251 71.5364C2.22226 71.5794 2.22329 71.6238 2.21555 71.6672C2.06705 72.5272 1.94555 73.4073 1.8578 74.2874C1.84617 74.3722 1.8032 74.4497 1.73715 74.5051C1.67111 74.5605 1.58665 74.5898 1.50005 74.5874L1.48655 74.5807ZM2.3978 69.327H2.3168C2.27377 69.3161 2.23333 69.297 2.19781 69.2706C2.1623 69.2443 2.13239 69.2113 2.10982 69.1735C2.08724 69.1357 2.07244 69.0939 2.06626 69.0505C2.06008 69.007 2.06264 68.9628 2.0738 68.9203C2.28305 68.0469 2.5328 67.1802 2.80955 66.3335C2.83735 66.2495 2.89775 66.1799 2.97748 66.1399C3.05721 66.0999 3.14976 66.0928 3.2348 66.1201C3.27663 66.133 3.31546 66.1539 3.34902 66.1818C3.38259 66.2096 3.41022 66.2437 3.43031 66.2822C3.45041 66.3206 3.46257 66.3627 3.46609 66.4058C3.4696 66.4489 3.46441 66.4923 3.4508 66.5335C3.1808 67.3669 2.9378 68.2203 2.72855 69.0803C2.7109 69.151 2.67035 69.214 2.61306 69.2597C2.55578 69.3055 2.48492 69.3314 2.4113 69.3337L2.3978 69.327ZM4.05155 64.2533C4.00939 64.2632 3.96546 64.2632 3.9233 64.2533C3.88205 64.2371 3.84444 64.2131 3.81261 64.1826C3.78079 64.152 3.75537 64.1156 3.73781 64.0753C3.72026 64.0351 3.71091 63.9918 3.71031 63.948C3.7097 63.9042 3.71786 63.8606 3.7343 63.8199C4.0718 62.9932 4.4498 62.1665 4.84805 61.3664C4.86393 61.322 4.88918 61.2813 4.92213 61.2472C4.95508 61.2131 4.99497 61.1863 5.03919 61.1686C5.0834 61.1508 5.13092 61.1425 5.17862 61.1442C5.22631 61.146 5.2731 61.1576 5.31588 61.1785C5.35867 61.1994 5.39648 61.2291 5.42682 61.2654C5.45717 61.3018 5.47935 61.3442 5.49191 61.3896C5.50447 61.4351 5.50712 61.4827 5.49969 61.5293C5.49226 61.5758 5.47491 61.6203 5.4488 61.6598C5.06405 62.4465 4.6928 63.2532 4.36205 64.0733C4.33413 64.1279 4.29181 64.1741 4.23953 64.207C4.18726 64.2398 4.12698 64.2581 4.06505 64.26L4.05155 64.2533ZM6.44105 59.4996C6.38148 59.5 6.323 59.4838 6.2723 59.453C6.23368 59.4315 6.19981 59.4027 6.17269 59.3681C6.14558 59.3335 6.12577 59.2939 6.11443 59.2517C6.1031 59.2094 6.10048 59.1653 6.10673 59.122C6.11298 59.0787 6.12796 59.0371 6.1508 58.9996C6.6098 58.2329 7.08905 57.4661 7.58855 56.7194C7.6413 56.6547 7.7166 56.6118 7.7997 56.5991C7.8828 56.5864 7.96771 56.6048 8.03781 56.6507C8.10791 56.6965 8.15814 56.7666 8.17867 56.8472C8.1992 56.9277 8.18855 57.0129 8.1488 57.0861C7.6628 57.8195 7.18355 58.5796 6.7313 59.3329C6.70185 59.3833 6.65956 59.4252 6.60864 59.4545C6.55772 59.4837 6.49995 59.4993 6.44105 59.4996ZM9.4178 55.046C9.34453 55.0475 9.27297 55.024 9.2153 54.9793C9.14456 54.9274 9.09719 54.8502 9.08332 54.7642C9.06944 54.6782 9.09016 54.5903 9.14105 54.5193C9.68105 53.7992 10.2413 53.0858 10.8151 52.3991C10.8426 52.3648 10.8768 52.3364 10.9156 52.3154C10.9545 52.2944 10.9972 52.2814 11.0413 52.277C11.0854 52.2727 11.1299 52.2771 11.1722 52.2901C11.2145 52.303 11.2537 52.3242 11.2875 52.3524C11.3561 52.4084 11.3995 52.4888 11.4083 52.5762C11.4172 52.6636 11.3907 52.7509 11.3348 52.8191C10.7678 53.4859 10.2143 54.1992 9.6878 54.9126C9.65403 54.95 9.61231 54.9795 9.56563 54.9991C9.51896 55.0187 9.46848 55.0279 9.4178 55.026V55.046ZM12.84 50.9257C12.799 50.9265 12.7581 50.9193 12.7199 50.9044C12.6816 50.8895 12.6468 50.8673 12.6173 50.839C12.5857 50.808 12.5606 50.7711 12.5434 50.7305C12.5263 50.6899 12.5175 50.6463 12.5175 50.6023C12.5175 50.5583 12.5263 50.5147 12.5434 50.4741C12.5606 50.4335 12.5857 50.3966 12.6173 50.3656C13.2248 49.6989 13.866 49.0322 14.5073 48.4388C14.5381 48.4078 14.5748 48.3831 14.6154 48.3663C14.656 48.3494 14.6995 48.3408 14.7435 48.3408C14.7876 48.3408 14.8311 48.3494 14.8717 48.3663C14.9122 48.3831 14.949 48.4078 14.9798 48.4388C15.0114 48.4698 15.0365 48.5067 15.0537 48.5473C15.0708 48.5879 15.0796 48.6315 15.0796 48.6755C15.0796 48.7195 15.0708 48.7631 15.0537 48.8037C15.0365 48.8443 15.0114 48.8812 14.9798 48.9122C14.3453 49.5189 13.7175 50.1589 13.11 50.8123C13.075 50.8468 13.0325 50.8732 12.9858 50.8893C12.9391 50.9055 12.8893 50.9111 12.84 50.9057V50.9257ZM16.701 47.1987C16.6536 47.1991 16.6066 47.1891 16.5634 47.1695C16.5202 47.1499 16.482 47.1212 16.4513 47.0854C16.4199 47.055 16.3949 47.0187 16.3779 46.9786C16.3608 46.9385 16.352 46.8955 16.352 46.852C16.352 46.8086 16.3608 46.7655 16.3779 46.7255C16.3949 46.6854 16.4199 46.6491 16.4513 46.6187C17.1263 46.0253 17.8418 45.4519 18.5505 44.9052C18.6227 44.863 18.7081 44.8482 18.7905 44.8637C18.8729 44.8792 18.9468 44.9239 18.9982 44.9894C19.0496 45.055 19.075 45.1368 19.0696 45.2195C19.0642 45.3022 19.0285 45.3801 18.969 45.4386C18.294 45.972 17.5718 46.5387 16.8968 47.1187C16.8394 47.1583 16.771 47.1792 16.701 47.1787V47.1987ZM72.7935 46.1453C72.7321 46.1448 72.672 46.1278 72.6197 46.0961C72.5674 46.0644 72.5248 46.0191 72.4965 45.9653C72.0549 45.2184 71.5296 44.5228 70.9305 43.8918C70.8706 43.8255 70.8397 43.7384 70.8448 43.6496C70.8499 43.5608 70.8904 43.4777 70.9575 43.4184C71.0247 43.3592 71.1129 43.3287 71.2028 43.3337C71.2926 43.3387 71.3768 43.3788 71.4368 43.4451C72.0753 44.1153 72.6305 44.8584 73.0905 45.6586C73.1115 45.697 73.1245 45.7392 73.1287 45.7826C73.133 45.826 73.1283 45.8699 73.1151 45.9115C73.1019 45.9531 73.0804 45.9917 73.0518 46.025C73.0232 46.0583 72.9882 46.0856 72.9488 46.1053C72.8996 46.125 72.8462 46.1319 72.7935 46.1253V46.1453ZM21.0008 43.9118C20.9457 43.9132 20.8913 43.9004 20.8428 43.8747C20.7942 43.849 20.7533 43.8112 20.724 43.7651C20.6986 43.7294 20.6807 43.6891 20.6714 43.6464C20.6621 43.6038 20.6615 43.5597 20.6696 43.5168C20.6778 43.4739 20.6946 43.4331 20.719 43.3968C20.7434 43.3604 20.775 43.3292 20.8118 43.3051C21.5543 42.7984 22.3238 42.3117 23.0933 41.8517C23.1311 41.8278 23.1734 41.8117 23.2177 41.8045C23.2619 41.7972 23.3072 41.799 23.3508 41.8096C23.3944 41.8202 23.4353 41.8394 23.4711 41.8661C23.5069 41.8929 23.5368 41.9265 23.559 41.965C23.5823 42.0026 23.5978 42.0444 23.6046 42.0879C23.6115 42.1314 23.6095 42.1759 23.5988 42.2187C23.5881 42.2614 23.569 42.3017 23.5425 42.3371C23.5159 42.3726 23.4826 42.4024 23.4443 42.425C22.6815 42.8717 21.9255 43.3584 21.1898 43.8518C21.1349 43.8913 21.0687 43.9123 21.0008 43.9118ZM69.2363 42.165C69.1569 42.1648 69.0802 42.1364 69.0203 42.085C68.3364 41.5259 67.6197 41.0072 66.8738 40.5316C66.8366 40.5075 66.8045 40.4764 66.7794 40.4401C66.7544 40.4038 66.7368 40.3629 66.7277 40.3199C66.7186 40.2769 66.7182 40.2325 66.7265 40.1893C66.7347 40.1461 66.7515 40.105 66.7759 40.0682C66.8003 40.0314 66.8318 39.9998 66.8685 39.975C66.9053 39.9502 66.9467 39.9329 66.9902 39.9239C67.0338 39.9149 67.0787 39.9145 67.1224 39.9227C67.1662 39.9309 67.2078 39.9474 67.245 39.9715C68.0117 40.4644 68.7487 41.0009 69.4523 41.5783C69.5045 41.6224 69.5419 41.6812 69.5593 41.7468C69.5768 41.8125 69.5736 41.8818 69.5501 41.9456C69.5267 42.0094 69.484 42.0646 69.4279 42.1038C69.3719 42.143 69.305 42.1644 69.2363 42.165ZM25.5908 41.1649C25.5284 41.1649 25.4672 41.1482 25.4137 41.1165C25.3602 41.0848 25.3164 41.0393 25.287 40.9849C25.2465 40.907 25.2387 40.8165 25.2652 40.7329C25.2917 40.6493 25.3505 40.5794 25.4288 40.5382C26.2253 40.1249 27.0488 39.7315 27.879 39.3648C27.9192 39.346 27.9629 39.3354 28.0073 39.3337C28.0517 39.3319 28.0961 39.339 28.1377 39.3546C28.1793 39.3702 28.2172 39.3939 28.2494 39.4242C28.2815 39.4546 28.307 39.4911 28.3245 39.5315C28.3593 39.6122 28.3611 39.703 28.3297 39.785C28.2982 39.867 28.2359 39.9338 28.1558 39.9715C27.339 40.3316 26.529 40.7182 25.746 41.1249C25.6984 41.1507 25.6451 41.1644 25.5908 41.1649ZM64.7408 39.2448C64.6887 39.244 64.6376 39.2302 64.5923 39.2048C63.816 38.8248 62.9925 38.4647 62.1555 38.1447C62.0727 38.1133 62.0056 38.0509 61.969 37.9711C61.9324 37.8912 61.9291 37.8003 61.9598 37.718C61.9755 37.6767 61.9994 37.6389 62.03 37.6067C62.0606 37.5746 62.0974 37.5488 62.1383 37.5308C62.1791 37.5128 62.2231 37.503 62.2678 37.5019C62.3125 37.5009 62.3569 37.5086 62.3985 37.5247C63.2558 37.8514 64.0995 38.1914 64.896 38.6114C64.9755 38.6514 65.0358 38.7208 65.0636 38.8045C65.0914 38.8882 65.0846 38.9794 65.0445 39.0581C65.0141 39.1179 64.9665 39.1676 64.9077 39.2008C64.8489 39.234 64.7814 39.2493 64.7138 39.2448H64.7408ZM30.5385 38.9781C30.4702 38.9777 30.4035 38.9572 30.347 38.9192C30.2905 38.8812 30.2468 38.8274 30.2213 38.7648C30.2051 38.7241 30.1974 38.6807 30.1985 38.637C30.1997 38.5934 30.2097 38.5504 30.2279 38.5106C30.2462 38.4708 30.2723 38.435 30.3048 38.4054C30.3373 38.3758 30.3754 38.3529 30.417 38.3381C31.2608 38.0181 32.1248 37.7247 32.9888 37.458C33.0308 37.4437 33.0754 37.4381 33.1198 37.4416C33.1641 37.445 33.2072 37.4575 33.2465 37.4781C33.2858 37.4987 33.3203 37.5271 33.348 37.5615C33.3756 37.5959 33.3958 37.6356 33.4073 37.678C33.4208 37.7196 33.4257 37.7634 33.4217 37.8069C33.4178 37.8504 33.405 37.8926 33.3843 37.9312C33.3635 37.9697 33.3351 38.0037 33.3008 38.0312C33.2665 38.0588 33.227 38.0792 33.1846 38.0914C32.3408 38.3581 31.4835 38.6448 30.6533 38.9581C30.6082 38.9754 30.5597 38.9822 30.5115 38.9781H30.5385ZM35.682 37.3847C35.5925 37.3953 35.5024 37.3703 35.4315 37.3153C35.3606 37.2603 35.3148 37.1797 35.3041 37.0913C35.2933 37.0029 35.3186 36.9139 35.3743 36.8439C35.43 36.7739 35.5115 36.7286 35.601 36.718C36.4718 36.4979 37.3628 36.3046 38.2538 36.1379C38.2972 36.1291 38.342 36.1289 38.3855 36.1372C38.429 36.1456 38.4705 36.1623 38.5075 36.1864C38.5444 36.2106 38.5762 36.2417 38.6011 36.278C38.6259 36.3143 38.6432 36.355 38.6521 36.3979C38.668 36.4853 38.6486 36.5754 38.5982 36.6489C38.5477 36.7224 38.4701 36.7735 38.382 36.7913C37.5045 36.958 36.627 37.1513 35.7631 37.3647L35.682 37.3847ZM59.7121 37.3247H59.6243C58.7873 37.0913 57.9165 36.878 57.0255 36.698C56.9821 36.6892 56.9408 36.6721 56.9041 36.6476C56.8674 36.6231 56.8359 36.5917 56.8114 36.5551C56.787 36.5186 56.7701 36.4777 56.7616 36.4347C56.7532 36.3917 56.7534 36.3475 56.7623 36.3046C56.7818 36.2188 56.8341 36.1438 56.9084 36.0953C56.9826 36.0468 57.073 36.0287 57.1606 36.0446C58.0651 36.2313 58.9561 36.4446 59.8066 36.7113C59.8927 36.7362 59.9657 36.7933 60.0098 36.8705C60.0539 36.9477 60.0658 37.0389 60.0428 37.1247C60.0129 37.1916 59.9619 37.2472 59.8975 37.2832C59.833 37.3192 59.7585 37.3338 59.685 37.3247H59.7121ZM40.9808 36.3779C40.9365 36.381 40.892 36.3754 40.8498 36.3615C40.8077 36.3476 40.7688 36.3256 40.7352 36.2968C40.6675 36.2387 40.6259 36.1563 40.6197 36.0679C40.6134 35.9795 40.643 35.8922 40.7018 35.8254C40.7607 35.7585 40.844 35.7174 40.9335 35.7112C41.8245 35.5912 42.729 35.4912 43.6335 35.4179C43.6779 35.4144 43.7225 35.4195 43.7648 35.433C43.8071 35.4465 43.8463 35.4682 43.8801 35.4966C43.914 35.5251 43.9418 35.5599 43.962 35.599C43.9823 35.6381 43.9945 35.6808 43.998 35.7245C44.0016 35.7683 43.9964 35.8124 43.9827 35.8541C43.969 35.8959 43.9471 35.9346 43.9183 35.9681C43.8895 36.0015 43.8542 36.029 43.8146 36.049C43.7751 36.069 43.7319 36.0811 43.6875 36.0846C42.8033 36.1646 41.9055 36.2579 41.028 36.3779H40.9808ZM54.4335 36.2579H54.3863C53.5291 36.1512 52.6313 36.0579 51.7268 35.9979C51.6824 35.9954 51.639 35.9842 51.5991 35.965C51.5591 35.9459 51.5234 35.9191 51.4939 35.8863C51.4644 35.8535 51.4418 35.8152 51.4273 35.7737C51.4128 35.7322 51.4068 35.6883 51.4095 35.6445C51.4165 35.5555 51.4586 35.4727 51.5268 35.4141C51.595 35.3554 51.6838 35.3257 51.774 35.3312C52.692 35.3979 53.6033 35.4845 54.474 35.5979C54.5184 35.6005 54.5617 35.6117 54.6017 35.6309C54.6416 35.6501 54.6773 35.6768 54.7068 35.7097C54.7362 35.7425 54.7589 35.7807 54.7734 35.8221C54.7879 35.8636 54.794 35.9075 54.7913 35.9512C54.7886 35.995 54.7773 36.0378 54.7579 36.0773C54.7384 36.1167 54.7113 36.152 54.6781 36.1811C54.6449 36.2102 54.6062 36.2325 54.5643 36.2469C54.5223 36.2612 54.4779 36.2672 54.4335 36.2646V36.2579ZM46.3335 35.9179C46.2463 35.918 46.1625 35.8847 46.0995 35.825C46.0366 35.7654 45.9995 35.684 45.996 35.5979C45.9941 35.5099 46.0268 35.4246 46.0873 35.36C46.1477 35.2953 46.2311 35.2563 46.32 35.2512C47.2178 35.2512 48.1358 35.2112 49.0201 35.2512C49.109 35.2546 49.1931 35.292 49.2548 35.3554C49.3165 35.4188 49.3509 35.5033 49.3508 35.5912C49.3499 35.635 49.3403 35.6782 49.3225 35.7183C49.3048 35.7584 49.2792 35.7947 49.2472 35.825C49.2152 35.8553 49.1775 35.8791 49.1362 35.8951C49.0949 35.911 49.0509 35.9188 49.0065 35.9179C48.1223 35.9179 47.211 35.9179 46.3065 35.9179H46.3335Z" fill="#D1D3D4"/>
</svg>
