<svg width="152" height="162" viewBox="0 0 152 162" fill="none" xmlns="http://www.w3.org/2000/svg">
<path d="M59.4888 10.2081C63.1271 3.44145 68.9996 -1.24785 77.7138 1.56708C78.4822 1.87671 79.2878 2.08373 80.1101 2.18285C80.9455 2.13374 81.7773 2.03432 82.6008 1.88512C86.5293 1.56032 89.4318 5.37672 91.3421 8.82772C94.8926 15.2628 101.379 23.9986 100.117 31.7329C99.1383 37.7282 93.5156 41.8829 87.8388 43.9806C81.4379 46.3472 74.5275 46.9798 67.8048 45.8143C64.4298 45.2324 60.9401 44.0956 58.5101 41.6393C55.1351 38.2154 54.4601 32.9441 54.7166 28.106C55.0743 22.6994 56.5256 15.75 59.4888 10.2081Z" fill="white"/>
<path d="M74.3592 46.7134C72.1443 46.7133 69.9334 46.5231 67.7509 46.145C63.4917 45.4142 60.4002 44.0203 58.3009 41.882C55.3512 38.9115 54.0417 34.3101 54.3994 28.1389C54.7842 21.7377 56.5797 14.9778 59.2122 10.0652C62.2969 4.31352 68.0209 -1.88475 77.7814 1.26852L78.2472 1.43092C78.8406 1.6618 79.463 1.8098 80.0967 1.87075C80.5821 1.87335 81.0664 1.82343 81.5412 1.72189C81.8652 1.66775 82.2162 1.60685 82.5469 1.57979C85.7802 1.30235 88.8312 3.69775 91.5852 8.67802C92.2197 9.82835 92.9352 11.0463 93.7114 12.3388C97.1607 18.1243 101.454 25.324 100.394 31.7862C99.5502 37.0168 94.8994 41.6858 87.9267 44.2707C83.5852 45.888 78.9906 46.7152 74.3592 46.7134ZM59.7994 10.3561C57.2074 15.1943 55.4322 21.8595 55.0744 28.1728C54.7167 34.141 55.9654 38.607 58.7734 41.449C60.7984 43.479 63.7752 44.8323 67.8994 45.509C74.5651 46.6591 81.4155 46.0241 87.7579 43.6684C94.5079 41.158 99.0237 36.6649 99.8404 31.6576C100.86 25.4255 96.6342 18.3273 93.2389 12.623C92.4694 11.3305 91.7404 10.1125 91.0992 8.95545C88.4734 4.21878 85.6317 1.92488 82.6549 2.18878C82.3377 2.18878 82.0272 2.26998 81.7032 2.32412C81.1602 2.44513 80.6056 2.50639 80.0494 2.50682C79.3548 2.44541 78.6728 2.28359 78.0244 2.02639L77.5654 1.87075C68.2099 -1.15395 62.7154 4.82778 59.7319 10.3697L59.7994 10.3561Z" fill="#231F20"/>
<path d="M149.088 106.971C149.088 106.971 114.663 57.3101 107.522 50.8073C97.2481 41.4964 60.7846 39.5543 53.3799 41.4693C40.2849 44.8526 31.1724 65.3556 31.1724 65.3556L52.8939 71.8652C52.9411 88.7074 54.6219 106.375 54.6219 106.375L149.088 106.971Z" fill="#0060BB"/>
<path d="M43.3768 19.877C43.2873 19.8904 43.1961 19.8677 43.1233 19.8138C43.0505 19.7598 43.0021 19.6791 42.9886 19.5894C42.9752 19.4997 42.9979 19.4083 43.0517 19.3353C43.1055 19.2623 43.186 19.2138 43.2755 19.2003C44.9387 18.796 46.6248 18.4932 48.3245 18.2936C48.4131 18.2821 48.5026 18.3062 48.5735 18.3608C48.6444 18.4153 48.6907 18.4958 48.7025 18.5846C48.7091 18.6287 48.7068 18.6737 48.6957 18.7168C48.6846 18.76 48.6649 18.8005 48.6378 18.8359C48.6107 18.8713 48.5768 18.9008 48.538 18.9227C48.4993 18.9447 48.4565 18.9585 48.4123 18.9635C46.7612 19.1695 45.1229 19.4677 43.505 19.8567C43.4645 19.8738 43.4205 19.8808 43.3768 19.877Z" fill="#231F20"/>
<path d="M44.0176 23.9437C43.9281 23.9617 43.8352 23.9432 43.7592 23.8925C43.6833 23.8417 43.6305 23.7628 43.6126 23.6731C43.5947 23.5833 43.6131 23.4901 43.6638 23.414C43.7144 23.3379 43.7931 23.285 43.8826 23.2671C45.4284 22.5904 49.2219 22.4212 49.3771 22.4145C49.4215 22.4117 49.4659 22.4178 49.5079 22.4323C49.5499 22.4468 49.5887 22.4695 49.6219 22.499C49.6551 22.5286 49.6822 22.5644 49.7016 22.6045C49.721 22.6445 49.7323 22.688 49.7349 22.7325C49.7386 22.8229 49.7067 22.9112 49.6461 22.9783C49.5855 23.0454 49.501 23.0859 49.4109 23.0911C49.3771 23.0911 45.5836 23.2806 44.1526 23.8896C44.1123 23.9177 44.0661 23.9362 44.0176 23.9437Z" fill="#231F20"/>
<path d="M45.3745 27.8275C45.3067 27.8286 45.2402 27.8091 45.1836 27.7717C45.127 27.7343 45.083 27.6806 45.0572 27.6178C45.0254 27.535 45.0266 27.4432 45.0605 27.3613C45.0944 27.2794 45.1585 27.2137 45.2395 27.1779C46.5674 26.6805 47.946 26.3311 49.3502 26.1359C49.4388 26.1243 49.5283 26.1485 49.5992 26.203C49.67 26.2576 49.7164 26.3381 49.7282 26.4268C49.7348 26.4709 49.7325 26.5159 49.7214 26.5591C49.7103 26.6023 49.6906 26.6428 49.6635 26.6782C49.6364 26.7136 49.6024 26.7431 49.5637 26.765C49.5249 26.787 49.4822 26.8008 49.4379 26.8058C48.0946 26.9959 46.7754 27.3294 45.5027 27.8005C45.4624 27.8185 45.4186 27.8278 45.3745 27.8275Z" fill="#231F20"/>
<path d="M51.9087 91.9148C51.8635 91.9114 51.8193 91.899 51.7789 91.8785C51.7384 91.8579 51.7024 91.8295 51.6729 91.7949C51.6434 91.7603 51.621 91.7202 51.607 91.6769C51.5931 91.6336 51.5878 91.588 51.5915 91.5426L54.5277 52.9726C54.5311 52.9264 54.5436 52.8813 54.5645 52.8399C54.5854 52.7985 54.6142 52.7616 54.6493 52.7314C54.6845 52.7013 54.7252 52.6783 54.7692 52.664C54.8132 52.6496 54.8596 52.6442 54.9057 52.6478C54.9516 52.6512 54.9963 52.6638 55.0373 52.6848C55.0782 52.7058 55.1146 52.7348 55.1442 52.7702C55.1737 52.8055 55.1959 52.8464 55.2095 52.8905C55.223 52.9345 55.2276 52.9809 55.223 53.0268L52.2867 91.5968C52.2833 91.6428 52.2708 91.6876 52.2499 91.7287C52.2289 91.7697 52.1999 91.8062 52.1647 91.8358C52.1295 91.8655 52.0887 91.8877 52.0447 91.9013C52.0007 91.9149 51.9545 91.9195 51.9087 91.9148Z" fill="#231F20"/>
<path d="M71.8145 55.0229C74.2513 58.0611 77.8895 60.2264 81.8113 60.2873C82.3191 60.3155 82.8276 60.2466 83.3098 60.0843C83.9699 59.8013 84.5331 59.3309 84.9298 58.731C86.6983 56.295 86.7725 53.0132 86.327 50.0358C86.0098 47.9449 85.4023 45.7525 83.8228 44.3518C81.9665 42.7075 79.2733 42.5519 76.796 42.4842C74.3188 42.4166 68.5745 41.6925 67.6565 44.7511C66.7993 47.5457 70.181 52.9861 71.8145 55.0229Z" fill="#231F20"/>
<path d="M81.9595 60.585H81.8042C78.058 60.5241 74.2375 58.5144 71.5847 55.2122C69.823 53.0198 66.4818 47.5659 67.366 44.663C68.2502 41.7601 72.9685 41.9563 75.7765 42.1323L76.8092 42.1796C79.543 42.2608 82.1485 42.4638 84.0182 44.1217C85.888 45.7795 86.3537 48.229 86.617 49.9884C87.1907 53.7912 86.7047 56.755 85.1725 58.9001C84.7468 59.5525 84.1353 60.0617 83.4175 60.3617C82.9492 60.5249 82.455 60.6006 81.9595 60.585ZM73.4747 42.6533C71.0987 42.6533 68.5 42.9984 67.9397 44.8389C67.123 47.4847 70.417 52.8101 72.0437 54.8401C74.5885 58.0069 78.2402 59.9286 81.811 59.9895C82.2839 60.0143 82.7574 59.9524 83.2082 59.8068C83.8157 59.5424 84.3321 59.1047 84.6932 58.5482C86.1242 56.5723 86.5765 53.7168 86.0432 50.0763C85.7935 48.405 85.2737 46.0163 83.6402 44.5683C82.0067 43.1202 79.4215 42.8495 76.8025 42.7751C76.4987 42.7751 76.1275 42.7751 75.763 42.7277C75.0745 42.6939 74.2847 42.6533 73.4747 42.6533Z" fill="#231F20"/>
<path d="M87.5826 23.7473C87.8318 22.9039 88.2549 22.1224 88.8246 21.4534C89.1165 21.1242 89.5025 20.893 89.93 20.7914C90.3575 20.6897 90.8058 20.7224 91.2141 20.885C91.4982 21.0545 91.7365 21.2912 91.9082 21.5742C92.08 21.8573 92.1801 22.1783 92.1997 22.509C92.233 23.1744 92.1225 23.8392 91.8757 24.4578C91.5 25.6341 90.8497 26.7035 89.9789 27.5773C89.5463 28.0113 89.0297 28.3523 88.461 28.5792C87.8922 28.8061 87.2833 28.9141 86.6714 28.8967" fill="white"/>
<path d="M86.9273 29.1609H86.6505C86.5795 29.154 86.5139 29.1199 86.4674 29.0657C86.4208 29.0114 86.397 28.9413 86.4008 28.8699C86.4024 28.834 86.4114 28.7988 86.4271 28.7665C86.4428 28.7342 86.4649 28.7054 86.4921 28.682C86.5192 28.6585 86.5509 28.6409 86.5851 28.6302C86.6193 28.6194 86.6554 28.6158 86.691 28.6195C87.2683 28.6393 87.8434 28.5402 88.3809 28.3283C88.9185 28.1165 89.407 27.7965 89.8163 27.388C90.6553 26.5449 91.2803 25.5122 91.6388 24.3768C91.8744 23.7956 91.9804 23.1697 91.9493 22.5431C91.9331 22.2549 91.8464 21.9752 91.6969 21.7286C91.5474 21.482 91.3397 21.276 91.092 21.1288C90.7343 20.9937 90.344 20.9705 89.9729 21.0623C89.6017 21.1541 89.267 21.3566 89.013 21.6431C88.4756 22.2915 88.0738 23.0417 87.8318 23.849C87.8198 23.8822 87.8013 23.9127 87.7774 23.9386C87.7534 23.9644 87.7246 23.9853 87.6925 23.9998C87.6604 24.0143 87.6257 24.0222 87.5905 24.023C87.5553 24.0239 87.5203 24.0176 87.4875 24.0047C87.4206 23.9802 87.3659 23.9302 87.3356 23.8656C87.3052 23.8009 87.3016 23.7269 87.3255 23.6596C87.59 22.778 88.0361 21.962 88.635 21.2642C88.9673 20.8957 89.4049 20.6389 89.888 20.5287C90.3712 20.4185 90.8764 20.4603 91.335 20.6484C91.6638 20.8354 91.9409 21.1017 92.1412 21.423C92.3416 21.7444 92.4589 22.1107 92.4825 22.4889C92.5198 23.1822 92.4046 23.8752 92.145 24.5189C91.7622 25.7485 91.0856 26.8658 90.174 27.7737C89.3068 28.6327 88.146 29.1286 86.9273 29.1609Z" fill="#231F20"/>
<path d="M82.9452 35.4808L83.9914 45.915C83.9914 45.915 83.4852 51.8493 76.9782 50.6516C75.0669 50.2817 73.2613 49.4914 71.6914 48.3377C70.1215 47.184 68.8264 45.6956 67.8994 43.9797L68.1424 25.2563C68.1019 24.4917 69.6882 21.873 68.9389 15.2552C71.1695 15.0265 73.3282 14.3344 75.2771 13.2229C77.2261 12.1115 78.9227 10.6051 80.2587 8.7998C80.2587 8.7998 83.2759 12.535 84.5449 13.6921C85.5634 14.5468 86.4705 15.5267 87.2449 16.6085C89.2699 19.6535 89.1822 24.6203 88.6962 28.1119C88.2237 30.9809 86.5632 35.5552 82.9452 35.4808Z" fill="white"/>
<path d="M78.605 51.1389C78.041 51.1351 77.4785 51.0808 76.9242 50.9765C74.9594 50.5921 73.1037 49.7771 71.4898 48.5898C69.876 47.4024 68.5439 45.8721 67.589 44.1083C67.5791 44.0637 67.5791 44.0175 67.589 43.973C67.589 43.973 67.832 25.3714 67.832 25.2564C67.8601 24.9218 67.9304 24.5921 68.0412 24.2752C68.4192 22.976 69.1955 20.2693 68.6352 15.2891C68.6309 15.2492 68.6346 15.2089 68.6462 15.1705C68.6578 15.1322 68.6771 15.0965 68.7027 15.0658C68.7258 15.0327 68.7559 15.0052 68.791 14.9853C68.826 14.9654 68.8651 14.9536 68.9052 14.9507C71.0885 14.7206 73.2008 14.0404 75.1093 12.9527C77.0178 11.8651 78.6814 10.3936 79.9955 8.63068C80.0231 8.59111 80.0593 8.55836 80.1014 8.53491C80.1435 8.51147 80.1904 8.49794 80.2385 8.49535C80.2872 8.49349 80.3356 8.50289 80.3801 8.52284C80.4246 8.54279 80.4639 8.57275 80.495 8.61038C80.495 8.61038 83.5122 12.3388 84.7542 13.4621C85.7757 14.3365 86.6829 15.3369 87.4542 16.4394C89.7897 19.9851 89.2767 25.7977 88.9527 28.1322C88.5612 30.9268 86.9277 35.5755 83.303 35.7853L84.3087 45.8879C84.1472 47.5105 83.3571 49.0047 82.1082 50.0494C81.0965 50.7983 79.8619 51.1822 78.605 51.1389ZM68.1762 43.9053C69.0933 45.5658 70.362 47.0047 71.8931 48.1211C73.4242 49.2375 75.1807 50.0043 77.039 50.3675C78.983 50.7193 80.5557 50.4487 81.7167 49.5622C82.8099 48.6293 83.5114 47.3171 83.681 45.8879L82.6415 35.5146C82.6377 35.4707 82.643 35.4264 82.6569 35.3845C82.6709 35.3426 82.6932 35.304 82.7225 35.271C82.7524 35.2406 82.7882 35.2165 82.8276 35.2002C82.867 35.184 82.9093 35.1758 82.952 35.1763H83.033C86.408 35.1763 87.9537 30.7035 88.325 28.0442C88.649 25.7774 89.1485 20.1543 86.9277 16.7845C86.1747 15.7225 85.2927 14.7588 84.302 13.9154C82.8758 12.4484 81.5241 10.9105 80.252 9.30735C77.5352 12.7409 73.5863 14.9728 69.2495 15.5259C69.7557 20.4317 68.9795 23.1316 68.5745 24.4444C68.4861 24.7034 68.425 24.971 68.3922 25.2428C68.3922 25.2428 68.4192 25.2631 68.1762 43.9053Z" fill="#231F20"/>
<path d="M83.3024 38.9117C81.5933 39.2115 79.8344 39.0239 78.2264 38.3703C74.5207 37.0644 74.3047 34.5269 74.3047 34.5269C74.3047 34.5269 77.4232 36.4892 82.9447 35.4607L83.3024 38.9117Z" fill="#231F20"/>
<path d="M81.7973 39.3513C80.5444 39.33 79.3037 39.1014 78.1252 38.6746C74.2845 37.3213 74.0212 34.6891 74.0077 34.6146C74.0023 34.5587 74.0128 34.5023 74.038 34.4521C74.0631 34.4019 74.102 34.3599 74.15 34.3308C74.198 34.3018 74.2532 34.287 74.3093 34.2881C74.3653 34.2893 74.4199 34.3063 74.4667 34.3372C74.4667 34.3372 77.565 36.2251 82.8908 35.2304C82.9736 35.2164 83.0585 35.2359 83.127 35.2845C83.1605 35.3087 83.1882 35.3401 83.2081 35.3764C83.228 35.4127 83.2395 35.453 83.2418 35.4943L83.5928 38.8776C83.6072 38.9338 83.6054 38.9929 83.5874 39.0481C83.5695 39.1032 83.5362 39.1521 83.4915 39.1889C83.4626 39.2156 83.4285 39.2361 83.3913 39.2489C83.3541 39.2617 83.3147 39.2666 83.2755 39.2633C82.7867 39.3401 82.2917 39.3695 81.7973 39.3513ZM74.757 35.1154C75.054 35.8935 75.9045 37.2536 78.3277 38.1062C79.8087 38.6727 81.4069 38.861 82.9785 38.6543L82.6883 35.8326C78.6248 36.5161 75.9045 35.6635 74.757 35.1154Z" fill="#231F20"/>
<path d="M78.3955 18.5911C78.3955 18.5911 82.243 23.2668 81.5343 24.2209C80.8255 25.175 78.544 24.8164 78.544 24.8164" fill="white"/>
<path d="M79.4961 25.182C79.162 25.1816 78.8283 25.159 78.4971 25.1144C78.4272 25.0928 78.3674 25.0466 78.3287 24.9844C78.2901 24.9221 78.2751 24.8479 78.2866 24.7755C78.2981 24.7031 78.3353 24.6372 78.3913 24.5901C78.4474 24.5429 78.5185 24.5177 78.5916 24.5189C79.1789 24.6136 80.8057 24.7016 81.2917 24.0385C81.5954 23.6325 80.1307 21.1762 78.1529 18.7808C78.128 18.7506 78.1094 18.7158 78.0979 18.6783C78.0865 18.6409 78.0826 18.6015 78.0863 18.5626C78.0901 18.5236 78.1015 18.4858 78.1199 18.4512C78.1382 18.4167 78.1632 18.3861 78.1934 18.3612C78.256 18.3122 78.335 18.289 78.4141 18.2966C78.4932 18.3041 78.5664 18.3418 78.6187 18.4018C79.8202 19.8634 82.5337 23.3686 81.7709 24.3971C81.2917 25.0467 80.2724 25.182 79.4961 25.182Z" fill="#231F20"/>
<path d="M83.2119 19.6649C83.526 19.6228 83.7161 19.1052 83.6365 18.5088C83.5569 17.9125 83.2378 17.4632 82.9237 17.5053C82.6096 17.5474 82.4195 18.065 82.4991 18.6614C82.5787 19.2577 82.8978 19.707 83.2119 19.6649Z" fill="#231F20"/>
<path d="M73.7456 19.6783C74.0625 19.6746 74.3136 19.1839 74.3066 18.5823C74.2996 17.9806 74.037 17.4959 73.7202 17.4996C73.4033 17.5033 73.1522 17.9941 73.1592 18.5957C73.1662 19.1973 73.4288 19.6821 73.7456 19.6783Z" fill="#231F20"/>
<path d="M70.2415 22.4551C70.0092 21.5619 69.6132 20.7198 69.0737 19.9717C68.7635 19.5471 68.3567 19.2029 67.8871 18.9675C67.4175 18.7321 66.8987 18.6124 66.3737 18.6184C66.0491 18.6311 65.7316 18.7174 65.4452 18.871C65.1587 19.0245 64.9107 19.2412 64.72 19.5048C64.4921 19.8845 64.3494 20.3094 64.3015 20.7499C63.9572 23.0708 64.7335 26.0955 66.9137 27.2932C67.2817 27.5251 67.7075 27.6481 68.1422 27.6481C68.5769 27.6481 69.0027 27.5251 69.3707 27.2932" fill="white"/>
<path d="M68.2908 27.9156C67.7638 27.9035 67.2475 27.7642 66.7856 27.5096C64.5041 26.251 63.6806 23.1316 64.0383 20.6888C64.0894 20.2092 64.2462 19.7469 64.4973 19.3355C64.7101 19.0372 64.9878 18.7914 65.3095 18.6167C65.6311 18.442 65.9881 18.343 66.3536 18.3272C66.9242 18.3231 67.4876 18.4554 67.9971 18.7131C68.5065 18.9709 68.9474 19.3466 69.2831 19.8091C69.8456 20.5822 70.2577 21.4545 70.4981 22.3805C70.517 22.4487 70.5085 22.5215 70.4744 22.5835C70.4403 22.6455 70.3834 22.6916 70.3158 22.712C70.2826 22.7235 70.2475 22.7279 70.2125 22.7251C70.1775 22.7224 70.1434 22.7124 70.1124 22.6959C70.0814 22.6795 70.0541 22.6568 70.0322 22.6293C70.0103 22.6018 69.9943 22.5701 69.9851 22.5361C69.7621 21.6752 69.3822 20.8631 68.8646 20.1407C68.5843 19.7445 68.2127 19.4219 67.7814 19.2004C67.3501 18.9789 66.8719 18.8651 66.3873 18.8686C66.1047 18.8791 65.8282 18.9533 65.5781 19.0857C65.328 19.2181 65.1109 19.4052 64.9428 19.6332C64.7361 19.9796 64.6092 20.3681 64.5716 20.77C64.2341 23.0233 64.9766 25.8991 67.0421 27.0359C67.3603 27.2485 67.732 27.3664 68.1143 27.3759C68.4965 27.3855 68.8737 27.2864 69.2021 27.0901C69.2592 27.0479 69.3302 27.0294 69.4005 27.0382C69.4708 27.047 69.5351 27.0825 69.5801 27.1374C69.6238 27.194 69.6434 27.2657 69.6345 27.3367C69.6256 27.4077 69.5891 27.4723 69.5328 27.5164C69.1741 27.7831 68.7374 27.9235 68.2908 27.9156Z" fill="#231F20"/>
<path d="M106.307 102.518C106.224 102.518 106.145 102.488 106.082 102.435C106.019 102.382 105.977 102.308 105.962 102.227C103.647 87.7397 99.2123 60.1249 99.0098 59.2859C98.9871 59.1962 99.0006 59.1011 99.0474 59.0214C99.0941 58.9416 99.1703 58.8834 99.2595 58.8596C99.3498 58.8389 99.4446 58.8542 99.5239 58.9021C99.6032 58.9501 99.6609 59.027 99.6848 59.1167C99.948 60.1926 106.374 100.393 106.651 102.112C106.664 102.204 106.642 102.297 106.587 102.371C106.533 102.446 106.451 102.496 106.361 102.511L106.307 102.518Z" fill="#231F20"/>
<path d="M140.975 65.376H11.017C5.56977 65.376 1.15527 70.072 1.15527 75.8508V132.887C1.15527 138.673 5.56977 143.355 11.017 143.355H60.2313L73.7313 161.266L90.3363 143.355H141.009C146.456 143.355 150.877 138.673 150.877 132.887V75.8508C150.843 70.072 146.422 65.376 140.975 65.376Z" fill="white"/>
<g clip-path="url(#clip0)">
<path d="M75.9978 130.5C58.6302 130.5 44.5 119.063 44.5 104.998C44.5 90.9335 58.6172 79.5005 75.9978 79.5005C93.3785 79.5005 107.5 90.9381 107.5 104.998C107.5 119.058 93.3567 130.5 75.9978 130.5ZM75.9978 79.9606C58.8699 79.9606 44.9357 91.1912 44.9357 104.998C44.9357 118.805 58.8786 130.04 75.9978 130.04C93.1171 130.04 107.064 118.81 107.064 104.998C107.064 91.1866 93.1171 79.9606 75.9978 79.9606Z" fill="#D1D3D4"/>
<path d="M70.5389 108.751C70.2862 105.314 71.5672 103.055 75.1793 100.322C78.4341 97.902 79.3621 96.6414 79.2227 94.7229C79.0528 92.4225 77.0834 91.1572 74.1466 91.3965C70.5171 91.6955 68.4606 94.3548 68.5172 98.7578L60.5741 98.7854C60.2256 90.3705 65.4236 84.4447 73.6456 83.7729C80.9569 83.1748 86.6342 87.4122 87.1004 93.7797C87.388 97.6674 85.7933 100.575 81.7106 103.685C78.4123 106.28 77.6846 107.301 77.8284 109.275L77.9722 111.249L70.7655 111.852L70.5389 108.751ZM70.5389 115.781L79.0441 115.081L79.6846 123.823L71.1576 124.513L70.5389 115.781Z" fill="#002446"/>
</g>
<path d="M73.6976 161.578C73.6532 161.574 73.6101 161.561 73.5707 161.54C73.5313 161.519 73.4964 161.49 73.4681 161.456L60.0963 143.666H11.0171C5.40782 143.666 0.851562 138.828 0.851562 132.887V75.8508C0.851562 69.9097 5.40782 65.0715 11.0171 65.0715H140.975C146.584 65.0715 151.147 69.9097 151.147 75.8508V132.887C151.147 138.828 146.584 143.666 140.975 143.666H90.4376L73.9203 161.476C73.8925 161.508 73.8583 161.534 73.8199 161.551C73.7814 161.569 73.7398 161.578 73.6976 161.578ZM11.0171 65.6873C5.75207 65.6873 1.46582 70.248 1.46582 75.8373V132.874C1.46582 138.476 5.75207 143.024 11.0171 143.024H60.2313C60.2787 143.022 60.3256 143.033 60.3679 143.054C60.4103 143.075 60.4468 143.107 60.4743 143.145L73.7178 160.739L90.0798 143.098C90.1082 143.067 90.1428 143.043 90.1811 143.027C90.2195 143.011 90.2609 143.002 90.3026 143.003H140.975C146.247 143.003 150.533 138.443 150.533 132.853V75.8508C150.533 70.248 146.247 65.7008 140.975 65.7008L11.0171 65.6873Z" fill="#231F20"/>
<path d="M122.885 28.0984C123.231 29.6779 124.022 31.1249 125.163 32.2678C126.304 33.4107 127.748 34.2017 129.324 34.547C127.75 34.8935 126.307 35.685 125.167 36.8278C124.027 37.9706 123.237 39.417 122.892 40.9957C122.546 39.417 121.757 37.9706 120.617 36.8278C119.477 35.685 118.034 34.8935 116.459 34.547C116.459 34.547 118.484 34.4252 120.617 32.2667C122.75 30.1081 122.885 28.0984 122.885 28.0984Z" fill="#D1D3D4"/>
<path d="M10.9427 36.259C11.2077 37.4663 11.8119 38.5724 12.6838 39.4465C13.5558 40.3206 14.6591 40.9263 15.8635 41.1919C14.6581 41.4553 13.5535 42.0602 12.6811 42.9347C11.8088 43.8092 11.2054 44.9165 10.9427 46.1248C10.68 44.9165 10.0766 43.8092 9.2043 42.9347C8.33195 42.0602 7.22737 41.4553 6.02197 41.1919C7.22631 40.9263 8.32964 40.3206 9.20161 39.4465C10.0736 38.5724 10.6777 37.4663 10.9427 36.259Z" fill="#D1D3D4"/>
<path d="M25.6645 15.6411C25.8724 16.5946 26.3485 17.4683 27.0363 18.1591C27.7242 18.8498 28.595 19.3286 29.5457 19.5387C28.5944 19.7453 27.7226 20.222 27.0343 20.912C26.3461 21.6019 25.8705 22.4759 25.6645 23.4296C25.4553 22.4773 24.9787 21.605 24.291 20.9156C23.6033 20.2261 22.7331 19.7484 21.7832 19.5387C22.7473 19.3866 23.6307 18.9091 24.2875 18.1854C25.0244 17.5211 25.5107 16.6226 25.6645 15.6411Z" fill="#D1D3D4"/>
<path d="M79.7485 28.0027C82.9352 28.0027 83.9528 32.543 83.996 32.7386C84.0063 32.7923 83.9967 32.8482 83.9693 32.8943C83.9419 32.9405 83.8988 32.9732 83.8493 32.9854C83.825 32.9916 83.7997 32.9926 83.775 32.9882C83.7504 32.9838 83.7267 32.9742 83.7055 32.9599C83.6842 32.9457 83.6658 32.927 83.6513 32.905C83.6367 32.883 83.6264 32.8581 83.6208 32.8317C83.6208 32.7898 82.6333 28.4125 79.7399 28.4125C79.4398 28.3999 79.1409 28.459 78.8644 28.5853C78.5879 28.7117 78.3406 28.9023 78.14 29.1436C77.1439 30.3683 77.4113 32.7433 77.4156 32.7665C77.4192 32.7935 77.4179 32.8209 77.4116 32.8473C77.4053 32.8737 77.3942 32.8984 77.3789 32.9201C77.3637 32.9418 77.3446 32.96 77.3227 32.9736C77.3009 32.9872 77.2768 32.996 77.2517 32.9994C77.2017 33.0049 77.1516 32.9897 77.1116 32.9568C77.0716 32.924 77.0446 32.8759 77.0361 32.8224C77.0361 32.7153 76.7386 30.2379 77.8511 28.8735C78.0879 28.5856 78.3809 28.3581 78.7091 28.2075C79.0372 28.0569 79.3922 27.9869 79.7485 28.0027Z" fill="#231F20"/>
<path d="M123.445 61.0724C120.907 60.2469 117.897 59.719 115.757 61.3295C114.757 62.1894 113.967 63.2683 113.449 64.4828C112.28 66.7954 111.27 69.1851 110.425 71.6351C110.209 72.3118 110.06 73.1238 110.614 73.5027C111.289 73.9696 112.132 73.2253 112.558 72.5283C113.327 71.2834 113.926 69.9407 114.34 68.536C113.378 70.5392 112.696 72.666 112.315 74.8561C112.232 75.1204 112.232 75.4038 112.315 75.6681C112.447 75.8941 112.663 76.0587 112.916 76.1258C113.169 76.193 113.438 76.1574 113.665 76.0267C114.125 75.7669 114.5 75.3791 114.745 74.9102C115.857 73.0625 116.763 71.0973 117.445 69.0503C116.77 71.1818 116.095 73.3674 116.189 75.6004C116.174 75.7885 116.197 75.9777 116.259 76.156C116.321 76.3343 116.419 76.4977 116.547 76.6357C116.725 76.7503 116.935 76.8037 117.146 76.7878C117.356 76.7719 117.556 76.6877 117.715 76.5477C118.013 76.2571 118.244 75.9034 118.39 75.5124L121.09 69.9299C120.506 72.0065 120.182 74.1476 120.124 76.3041C120.104 76.4842 120.132 76.6665 120.205 76.8319C120.502 77.3936 121.387 77.0079 121.758 76.4936C122.332 75.6003 122.733 74.6062 122.939 73.5636C123.661 70.857 124.289 68.0488 125.119 65.3489C125.808 63.1294 126.064 61.925 123.445 61.0724Z" fill="white"/>
<path d="M120.69 77.4004H120.616C120.475 77.3918 120.339 77.3467 120.221 77.2697C120.103 77.1926 120.006 77.0861 119.941 76.9606C119.849 76.7476 119.81 76.5154 119.826 76.2839C119.863 75.0227 119.987 73.7655 120.198 72.5216L118.706 75.6343C118.534 76.0732 118.264 76.4667 117.916 76.7846C117.704 76.971 117.436 77.0804 117.154 77.0951C116.872 77.1098 116.594 77.0291 116.364 76.8658C116.199 76.701 116.072 76.5028 115.991 76.2845C115.909 76.0662 115.875 75.833 115.891 75.6005C115.874 74.7823 115.935 73.9643 116.073 73.1577C115.749 73.8344 115.398 74.4434 115.02 75.0591C114.764 75.5817 114.361 76.0171 113.859 76.311C113.685 76.3961 113.496 76.4454 113.302 76.4558C113.108 76.4663 112.915 76.4377 112.732 76.3719C112.595 76.324 112.469 76.249 112.361 76.1514C112.253 76.0538 112.166 75.9355 112.104 75.8035C111.992 75.4861 111.975 75.1423 112.057 74.8155C112.138 74.3148 112.239 73.8141 112.354 73.3201C112.081 73.6218 111.727 73.838 111.335 73.9426C111.185 73.9775 111.029 73.9798 110.877 73.9494C110.726 73.9191 110.583 73.8568 110.457 73.7667C110.066 73.496 109.695 72.887 110.154 71.5405C111 69.0788 112.013 66.6779 113.184 64.3543C113.725 63.0947 114.547 61.9765 115.587 61.086C117.403 59.7326 120.002 59.6311 123.552 60.7882C126.421 61.722 126.131 63.1633 125.429 65.4369C124.875 67.2233 124.41 69.0842 123.957 70.8503C123.721 71.7705 123.492 72.6908 123.282 73.6043C123.064 74.6826 122.648 75.7106 122.054 76.6358C121.899 76.858 121.696 77.0421 121.459 77.1746C121.223 77.307 120.96 77.3842 120.69 77.4004ZM121.089 69.612C121.124 69.6055 121.161 69.6055 121.197 69.612C121.269 69.6395 121.328 69.6928 121.363 69.7616C121.398 69.8303 121.406 69.9097 121.386 69.9841C120.806 72.0335 120.487 74.1478 120.434 76.2771C120.417 76.4027 120.431 76.5304 120.474 76.6493C120.491 76.6837 120.517 76.7128 120.549 76.7331C120.581 76.7535 120.619 76.7643 120.657 76.7643C120.825 76.7472 120.987 76.6949 121.133 76.611C121.28 76.5271 121.407 76.4134 121.507 76.2771C122.055 75.4145 122.44 74.458 122.641 73.4554C122.884 72.5419 123.114 71.6217 123.316 70.7082C123.768 68.9015 124.241 67.0271 124.801 65.2272C125.476 63.0348 125.658 62.1145 123.316 61.3499C119.982 60.2604 117.558 60.3281 115.891 61.5529C114.928 62.3866 114.168 63.4306 113.67 64.6046C112.508 66.9033 111.504 69.2795 110.667 71.7164C110.518 72.1562 110.329 72.9412 110.741 73.2321C110.799 73.2727 110.866 73.3003 110.935 73.3131C111.005 73.326 111.077 73.3237 111.146 73.3066C111.619 73.1309 112.012 72.7896 112.253 72.3457C112.469 72.0006 112.671 71.669 112.854 71.2766C113.18 70.2878 113.568 69.3205 114.015 68.3804C114.05 68.311 114.109 68.2568 114.181 68.2281C114.253 68.1994 114.333 68.1983 114.406 68.2248C114.478 68.2537 114.537 68.3086 114.571 68.3787C114.605 68.4489 114.611 68.5292 114.588 68.6037C114.292 69.6075 113.903 70.5815 113.427 71.5134C113.069 72.6194 112.791 73.7502 112.597 74.8967C112.539 75.1048 112.539 75.3248 112.597 75.5328C112.655 75.6452 112.754 75.7302 112.874 75.7696C112.981 75.8151 113.095 75.8385 113.211 75.8385C113.327 75.8385 113.442 75.8151 113.549 75.7696C113.939 75.5229 114.253 75.1712 114.453 74.7546C115.551 72.925 116.445 70.9804 117.12 68.9556C117.151 68.8861 117.207 68.8305 117.277 68.7996C117.346 68.7687 117.425 68.7646 117.498 68.788C117.57 68.8114 117.631 68.8607 117.67 68.9265C117.709 68.9924 117.722 69.0702 117.707 69.1451C117.066 71.236 116.404 73.3945 116.472 75.5937C116.456 75.7374 116.47 75.8828 116.511 76.0211C116.553 76.1595 116.622 76.288 116.715 76.3989C116.837 76.4668 116.978 76.4947 117.117 76.479C117.256 76.4632 117.387 76.4045 117.491 76.311C117.762 76.0506 117.974 75.7343 118.112 75.3839L120.812 69.8082C120.833 69.7511 120.87 69.7017 120.92 69.6666C120.969 69.6316 121.028 69.6125 121.089 69.612Z" fill="#231F20"/>
<path d="M32.4549 61.0724C34.9929 60.2469 38.0034 59.719 40.1432 61.3295C41.1435 62.1894 41.9333 63.2683 42.4517 64.4828C43.6202 66.7954 44.6305 69.1851 45.4757 71.6351C45.6917 72.3118 45.8402 73.1238 45.2867 73.5027C44.6117 73.9696 43.7679 73.2253 43.3427 72.5283C42.5733 71.2834 41.974 69.9407 41.5607 68.536C42.5228 70.5392 43.2042 72.666 43.5857 74.8561C43.6686 75.1204 43.6686 75.4038 43.5857 75.6681C43.4532 75.8941 43.2371 76.0587 42.9843 76.1258C42.7315 76.193 42.4624 76.1574 42.2357 76.0267C41.7757 75.7669 41.4006 75.3791 41.1557 74.9102C40.0431 73.0625 39.1376 71.0973 38.4557 69.0503C39.1307 71.1818 39.8057 73.3674 39.7112 75.6004C39.7268 75.7885 39.7031 75.9777 39.6415 76.156C39.5799 76.3343 39.4817 76.4977 39.3534 76.6357C39.1757 76.7503 38.9655 76.8037 38.7548 76.7878C38.5441 76.7719 38.3443 76.6877 38.1857 76.5477C37.8869 76.2571 37.6563 75.9034 37.5107 75.5124L34.8107 69.9299C35.394 72.0065 35.7182 74.1476 35.7759 76.3041C35.7967 76.4842 35.7688 76.6665 35.6949 76.8319C35.3979 77.3936 34.5137 77.0079 34.1424 76.4936C33.568 75.6003 33.1672 74.6062 32.9612 73.5636C32.2389 70.857 31.6112 68.0488 30.7809 65.3489C30.0924 63.1294 29.8359 61.925 32.4549 61.0724Z" fill="white"/>
<path d="M35.21 77.4004H35.2842C35.425 77.3918 35.5612 77.3467 35.6795 77.2697C35.7978 77.1926 35.8942 77.0861 35.9592 76.9606C36.0512 76.7476 36.0906 76.5154 36.074 76.2839C36.0378 75.0227 35.9138 73.7655 35.7027 72.5216L37.1945 75.6343C37.3666 76.0732 37.6367 76.4667 37.9842 76.7846C38.1963 76.971 38.4648 77.0804 38.7464 77.0951C39.0281 77.1098 39.3064 77.0291 39.5367 76.8658C39.7011 76.701 39.8283 76.5028 39.9098 76.2845C39.9913 76.0662 40.0252 75.833 40.0092 75.6005C40.0265 74.7823 39.9655 73.9643 39.827 73.1577C40.151 73.8344 40.502 74.4434 40.88 75.0591C41.1359 75.5817 41.5397 76.0171 42.041 76.311C42.2153 76.3961 42.4048 76.4454 42.5984 76.4558C42.792 76.4663 42.9858 76.4377 43.1682 76.3719C43.3054 76.324 43.4317 76.249 43.5395 76.1514C43.6473 76.0538 43.7345 75.9355 43.796 75.8035C43.9087 75.4861 43.9252 75.1423 43.8432 74.8155C43.7622 74.3148 43.661 73.8141 43.5462 73.3201C43.819 73.6218 44.1729 73.838 44.5655 73.9426C44.7158 73.9775 44.8718 73.9798 45.0231 73.9494C45.1744 73.9191 45.3175 73.8568 45.443 73.7667C45.8345 73.496 46.2057 72.887 45.7467 71.5405C44.9005 69.0788 43.8879 66.6779 42.716 64.3543C42.1752 63.0947 41.3531 61.9765 40.313 61.086C38.4972 59.7326 35.8984 59.6311 32.3479 60.7882C29.4792 61.722 29.7694 63.1633 30.4714 65.4369C31.0249 67.2233 31.4907 69.0842 31.943 70.8503C32.1792 71.7705 32.4087 72.6908 32.618 73.6043C32.836 74.6826 33.2526 75.7106 33.8464 76.6358C34.0016 76.858 34.2048 77.0421 34.4409 77.1746C34.677 77.307 34.9399 77.3842 35.21 77.4004ZM34.8117 69.612C34.776 69.6055 34.7394 69.6055 34.7037 69.612C34.6318 69.6395 34.5726 69.6928 34.5377 69.7616C34.5028 69.8303 34.4946 69.9097 34.5147 69.9841C35.094 72.0335 35.4138 74.1478 35.4665 76.2771C35.4834 76.4027 35.4694 76.5304 35.4259 76.6493C35.4094 76.6837 35.3836 76.7128 35.3513 76.7331C35.3191 76.7535 35.2818 76.7643 35.2437 76.7643C35.0759 76.7472 34.9135 76.6949 34.767 76.611C34.6205 76.5271 34.4932 76.4134 34.3932 76.2771C33.8452 75.4145 33.4608 74.458 33.2592 73.4554C33.0162 72.5419 32.7867 71.6217 32.5842 70.7082C32.1319 68.9015 31.6595 67.0271 31.0992 65.2272C30.4242 63.0348 30.2419 62.1145 32.5842 61.3499C35.9187 60.2604 38.3419 60.3281 40.0092 61.5529C40.9725 62.3866 41.7322 63.4306 42.23 64.6046C43.3928 66.9033 44.3964 69.2795 45.2337 71.7164C45.3822 72.1562 45.5712 72.9412 45.1595 73.2321C45.1011 73.2727 45.0348 73.3003 44.965 73.3131C44.8951 73.326 44.8234 73.3237 44.7545 73.3066C44.2817 73.1309 43.8885 72.7896 43.6475 72.3457C43.4315 72.0006 43.229 71.669 43.0467 71.2766C42.7206 70.2878 42.3328 69.3205 41.8857 68.3804C41.8507 68.311 41.7916 68.2568 41.7194 68.2281C41.6473 68.1994 41.5672 68.1983 41.4942 68.2248C41.4221 68.2537 41.3633 68.3086 41.3296 68.3787C41.2958 68.4489 41.2895 68.5292 41.3119 68.6037C41.6085 69.6075 41.9972 70.5815 42.473 71.5134C42.8315 72.6194 43.109 73.7502 43.3032 74.8967C43.3611 75.1048 43.3611 75.3248 43.3032 75.5328C43.2456 75.6452 43.1462 75.7302 43.0265 75.7696C42.9197 75.8151 42.8049 75.8385 42.689 75.8385C42.573 75.8385 42.4582 75.8151 42.3515 75.7696C41.9611 75.5229 41.6477 75.1712 41.447 74.7546C40.3498 72.925 39.4557 70.9804 38.7807 68.9556C38.7492 68.8861 38.6933 68.8305 38.6236 68.7996C38.5539 68.7687 38.4754 68.7646 38.4028 68.788C38.3303 68.8114 38.2689 68.8607 38.2303 68.9265C38.1917 68.9924 38.1786 69.0702 38.1934 69.1451C38.8347 71.236 39.4962 73.3945 39.4287 75.5937C39.4442 75.7374 39.4307 75.8828 39.389 76.0211C39.3472 76.1595 39.2781 76.288 39.1857 76.3989C39.0632 76.4668 38.9227 76.4947 38.7836 76.479C38.6445 76.4632 38.5138 76.4045 38.4095 76.311C38.138 76.0506 37.9262 75.7343 37.7884 75.3839L35.0884 69.8082C35.0678 69.7511 35.0302 69.7017 34.9807 69.6666C34.9313 69.6316 34.8723 69.6125 34.8117 69.612Z" fill="#231F20"/>
<defs>
<clipPath id="clip0">
<rect width="63" height="51" fill="white" transform="translate(44.5 79.5005)"/>
</clipPath>
</defs>
</svg>
