<svg width="152" height="162" viewBox="0 0 152 162" fill="none" xmlns="http://www.w3.org/2000/svg">
<path d="M59.4888 10.2081C63.1271 3.44145 68.9996 -1.24785 77.7138 1.56708C78.4822 1.87671 79.2878 2.08373 80.1101 2.18285C80.9455 2.13374 81.7773 2.03432 82.6008 1.88512C86.5293 1.56032 89.4318 5.37672 91.3421 8.82772C94.8926 15.2628 101.379 23.9986 100.117 31.7329C99.1383 37.7282 93.5156 41.8829 87.8388 43.9806C81.4379 46.3472 74.5275 46.9798 67.8048 45.8143C64.4298 45.2324 60.9401 44.0956 58.5101 41.6393C55.1351 38.2154 54.4601 32.9441 54.7166 28.106C55.0743 22.6994 56.5256 15.75 59.4888 10.2081Z" fill="white"/>
<path d="M74.3592 46.7134C72.1443 46.7133 69.9334 46.5231 67.7509 46.145C63.4917 45.4142 60.4002 44.0203 58.3009 41.882C55.3512 38.9115 54.0417 34.3101 54.3994 28.1389C54.7842 21.7377 56.5797 14.9778 59.2122 10.0652C62.2969 4.31352 68.0209 -1.88475 77.7814 1.26852L78.2472 1.43092C78.8406 1.6618 79.463 1.8098 80.0967 1.87075C80.5821 1.87335 81.0664 1.82343 81.5412 1.72189C81.8652 1.66775 82.2162 1.60685 82.5469 1.57979C85.7802 1.30235 88.8312 3.69775 91.5852 8.67802C92.2197 9.82835 92.9352 11.0463 93.7114 12.3388C97.1607 18.1243 101.454 25.324 100.394 31.7862C99.5502 37.0168 94.8994 41.6858 87.9267 44.2707C83.5852 45.888 78.9906 46.7152 74.3592 46.7134ZM59.7994 10.3561C57.2074 15.1943 55.4322 21.8595 55.0744 28.1728C54.7167 34.141 55.9654 38.607 58.7734 41.449C60.7984 43.479 63.7752 44.8323 67.8994 45.509C74.5651 46.6591 81.4155 46.0241 87.7579 43.6684C94.5079 41.158 99.0237 36.6649 99.8404 31.6576C100.86 25.4255 96.6342 18.3273 93.2389 12.623C92.4694 11.3305 91.7404 10.1125 91.0992 8.95545C88.4734 4.21878 85.6317 1.92488 82.6549 2.18878C82.3377 2.18878 82.0272 2.26998 81.7032 2.32412C81.1602 2.44513 80.6056 2.50639 80.0494 2.50682C79.3548 2.44541 78.6728 2.28359 78.0244 2.02639L77.5654 1.87075C68.2099 -1.15395 62.7154 4.82778 59.7319 10.3697L59.7994 10.3561Z" fill="#231F20"/>
<path d="M149.088 106.97C149.088 106.97 114.663 57.3099 107.522 50.8072C97.2481 41.4962 60.7846 39.5542 53.3799 41.4692C40.2849 44.8525 31.1724 65.3555 31.1724 65.3555L52.8939 71.865C52.9411 88.7073 54.6219 106.375 54.6219 106.375L149.088 106.97Z" fill="#0060BB"/>
<path d="M37.7335 19.5386C37.8145 19.3085 37.6593 14.9372 36.4578 12.596C35.2563 10.2547 35.425 9.84869 36.397 9.09083C37.369 8.33296 38.422 9.09083 39.9205 10.9787C41.419 12.8666 41.797 15.7628 41.4257 17.874L37.7335 19.5386Z" fill="white"/>
<path d="M37.7336 19.8768C37.6826 19.8762 37.6325 19.8641 37.5869 19.8414C37.5414 19.8187 37.5015 19.7859 37.4703 19.7456C37.4391 19.7052 37.4175 19.6583 37.407 19.6084C37.3964 19.5584 37.3973 19.5068 37.4096 19.4572C37.4568 19.058 37.2881 14.9506 36.1608 12.7515C35.0336 10.5523 34.9796 9.7606 36.1946 8.82003C37.5851 7.7509 38.9823 9.25986 40.1838 10.7688C41.7903 12.7988 42.1346 15.8168 41.7566 17.9347C41.7458 17.9889 41.7225 18.0399 41.6885 18.0834C41.6545 18.1269 41.6108 18.1617 41.5608 18.1851L37.8753 19.8429C37.8308 19.8637 37.7826 19.8752 37.7336 19.8768ZM37.1801 9.13806C36.969 9.14464 36.7665 9.22344 36.6063 9.36136C35.8368 9.95006 35.5803 10.1531 36.7548 12.4402C37.7538 14.3822 38.0576 17.6302 38.1048 19.0106L41.1423 17.6573C41.4393 15.7017 41.1086 13.0018 39.6776 11.2019C38.4288 9.65233 37.7133 9.13806 37.1801 9.13806Z" fill="#231F20"/>
<path d="M35.6273 35.068C35.7826 34.8447 36.0053 19.0852 36.5318 18.7062C37.0583 18.3273 43.2278 16.4462 45.9346 16.4462C48.6413 16.4462 49.3096 17.5762 48.3443 18.6318C48.3443 18.6318 51.5033 20.0663 49.3973 22.7798C49.3973 22.7798 51.1996 24.6609 49.3973 26.4744C50.8553 28.4299 49.3973 30.9268 47.8246 32.2666C46.0021 33.7824 43.4033 33.7485 43.4168 36.4281C43.4506 45.9488 44.3011 55.5643 43.6058 65.0782C43.1536 71.2629 39.5558 80.1611 33.1501 78.6521C26.7443 77.1432 26.3056 65.3083 28.1821 59.0288C30.0586 52.7493 35.6273 35.068 35.6273 35.068Z" fill="white"/>
<path d="M34.568 79.1596C34.0635 79.1573 33.5609 79.0983 33.0695 78.9837C32.1731 78.748 31.3368 78.3246 30.6154 77.7415C29.8941 77.1583 29.3042 76.4286 28.8845 75.6004C26.4005 71.2968 26.414 63.7452 27.8585 58.9341C29.7215 52.7493 35.2835 35.1289 35.2835 34.953C35.3307 34.6756 35.3915 32.6591 35.459 30.5344C35.7965 19.8295 35.972 18.6656 36.3095 18.422C36.8697 18.0228 43.1337 16.1011 45.908 16.1011C47.5617 16.1011 48.6552 16.5138 48.9792 17.2649C49.0629 17.4694 49.0925 17.692 49.0653 17.9113C49.0381 18.1305 48.955 18.3391 48.824 18.5168C49.5584 18.9326 50.1084 19.6121 50.363 20.4182C50.4452 20.8247 50.4377 21.2444 50.3409 21.6477C50.2441 22.051 50.0604 22.4281 49.8027 22.7527C50.2533 23.2714 50.5016 23.9359 50.5016 24.6237C50.5016 25.3115 50.2533 25.976 49.8027 26.4947C51.0312 28.457 49.8702 30.9742 48.014 32.517C47.4047 32.9901 46.7406 33.3877 46.0362 33.7012C44.7402 34.3305 43.721 34.8312 43.7277 36.4078C43.7277 39.6897 43.8492 43.0459 43.9572 46.2939C44.271 52.554 44.2575 58.8263 43.9167 65.085C43.5927 69.463 41.6825 75.3297 38.2332 77.8672C37.1825 78.6829 35.8968 79.1363 34.568 79.1596ZM35.918 35.1763C35.6682 35.9748 30.302 53.0538 28.493 59.1235C27.089 63.7993 27.0687 71.1073 29.4582 75.2553C29.8335 75.9999 30.362 76.6564 31.009 77.1813C31.6559 77.7062 32.4065 78.0875 33.2112 78.3003C34.0062 78.5008 34.8363 78.5173 35.6386 78.3485C36.4409 78.1797 37.1943 77.83 37.8417 77.3259C41.1222 74.9102 42.9447 69.26 43.2417 65.0376C43.5825 58.8015 43.5961 52.5518 43.2822 46.3142C43.1742 43.0662 43.0595 39.7032 43.0527 36.4078C43.0527 34.3778 44.4027 33.7012 45.7527 33.0786C46.409 32.7895 47.0278 32.4214 47.5955 31.9824C48.9455 30.8524 50.4912 28.4976 49.1142 26.6571C49.0614 26.5947 49.0325 26.5156 49.0325 26.4338C49.0325 26.352 49.0614 26.2728 49.1142 26.2105C50.66 24.6677 49.175 23.0572 49.1142 22.9895C49.062 22.9283 49.0332 22.8503 49.0332 22.7696C49.0332 22.689 49.062 22.611 49.1142 22.5497C49.3609 22.2898 49.5442 21.9762 49.6496 21.6333C49.755 21.2905 49.7797 20.9278 49.7217 20.5738C49.4482 19.8408 48.8977 19.2453 48.1895 18.916C48.1408 18.8954 48.098 18.863 48.065 18.8216C48.032 18.7803 48.0098 18.7313 48.0005 18.6792C47.9895 18.6267 47.9911 18.5723 48.0052 18.5205C48.0192 18.4687 48.0454 18.4211 48.0815 18.3814C48.2502 18.1987 48.5135 17.8401 48.3785 17.5221C48.2435 17.204 47.4875 16.7642 45.9215 16.7642C43.3227 16.7642 37.5177 18.5438 36.7685 18.9295C36.485 19.8024 36.269 26.7653 36.1475 30.5411C36.0327 34.5064 36.0057 35.0342 35.945 35.1966L35.918 35.1763Z" fill="#231F20"/>
<path d="M43.3768 19.8769C43.2873 19.8903 43.1961 19.8676 43.1233 19.8137C43.0505 19.7597 43.0021 19.679 42.9886 19.5893C42.9752 19.4995 42.9979 19.4081 43.0517 19.3352C43.1055 19.2622 43.186 19.2137 43.2755 19.2002C44.9387 18.7958 46.6248 18.493 48.3245 18.2935C48.4131 18.2819 48.5026 18.3061 48.5735 18.3606C48.6444 18.4152 48.6907 18.4957 48.7025 18.5844C48.7091 18.6285 48.7068 18.6735 48.6957 18.7167C48.6846 18.7599 48.6649 18.8004 48.6378 18.8358C48.6107 18.8712 48.5768 18.9007 48.538 18.9226C48.4993 18.9445 48.4565 18.9584 48.4123 18.9634C46.7612 19.1694 45.1229 19.4676 43.505 19.8566C43.4645 19.8737 43.4205 19.8807 43.3768 19.8769Z" fill="#231F20"/>
<path d="M44.0176 23.9437C43.9281 23.9617 43.8352 23.9432 43.7592 23.8925C43.6833 23.8417 43.6305 23.7628 43.6126 23.6731C43.5947 23.5833 43.6131 23.4901 43.6638 23.414C43.7144 23.3379 43.7931 23.285 43.8826 23.2671C45.4284 22.5904 49.2219 22.4212 49.3771 22.4145C49.4215 22.4117 49.4659 22.4178 49.5079 22.4323C49.5499 22.4468 49.5887 22.4695 49.6219 22.499C49.6551 22.5286 49.6822 22.5644 49.7016 22.6045C49.721 22.6445 49.7323 22.688 49.7349 22.7325C49.7386 22.8229 49.7067 22.9112 49.6461 22.9783C49.5855 23.0454 49.501 23.0859 49.4109 23.0911C49.3771 23.0911 45.5836 23.2806 44.1526 23.8896C44.1123 23.9177 44.0661 23.9362 44.0176 23.9437Z" fill="#231F20"/>
<path d="M45.3745 27.8277C45.3067 27.8287 45.2402 27.8092 45.1836 27.7718C45.127 27.7344 45.083 27.6808 45.0572 27.6179C45.0254 27.5352 45.0266 27.4433 45.0605 27.3614C45.0944 27.2795 45.1585 27.2139 45.2395 27.1781C46.5674 26.6807 47.946 26.3312 49.3502 26.136C49.4388 26.1245 49.5283 26.1486 49.5992 26.2032C49.67 26.2577 49.7164 26.3382 49.7282 26.427C49.7348 26.4711 49.7325 26.5161 49.7214 26.5593C49.7103 26.6024 49.6906 26.6429 49.6635 26.6783C49.6364 26.7137 49.6024 26.7432 49.5637 26.7652C49.5249 26.7871 49.4822 26.8009 49.4379 26.8059C48.0946 26.996 46.7754 27.3295 45.5027 27.8006C45.4624 27.8187 45.4186 27.8279 45.3745 27.8277Z" fill="#231F20"/>
<path d="M51.9087 91.9148C51.8635 91.9114 51.8193 91.899 51.7789 91.8785C51.7384 91.8579 51.7024 91.8295 51.6729 91.7949C51.6434 91.7603 51.621 91.7202 51.607 91.6769C51.5931 91.6336 51.5878 91.588 51.5915 91.5426L54.5277 52.9726C54.5311 52.9264 54.5436 52.8813 54.5645 52.8399C54.5854 52.7985 54.6142 52.7616 54.6493 52.7314C54.6845 52.7013 54.7252 52.6783 54.7692 52.664C54.8132 52.6496 54.8596 52.6442 54.9057 52.6478C54.9516 52.6512 54.9963 52.6638 55.0373 52.6848C55.0782 52.7058 55.1146 52.7348 55.1442 52.7702C55.1737 52.8055 55.1959 52.8464 55.2095 52.8905C55.223 52.9345 55.2276 52.9809 55.223 53.0268L52.2867 91.5968C52.2833 91.6428 52.2708 91.6876 52.2499 91.7287C52.2289 91.7697 52.1999 91.8062 52.1647 91.8358C52.1295 91.8655 52.0887 91.8877 52.0447 91.9013C52.0007 91.9149 51.9545 91.9195 51.9087 91.9148Z" fill="#231F20"/>
<path d="M71.8145 55.0229C74.2513 58.0611 77.8895 60.2264 81.8113 60.2873C82.3191 60.3155 82.8276 60.2466 83.3098 60.0843C83.9699 59.8013 84.5331 59.3309 84.9298 58.731C86.6983 56.295 86.7725 53.0132 86.327 50.0358C86.0098 47.9449 85.4023 45.7525 83.8228 44.3518C81.9665 42.7075 79.2733 42.5519 76.796 42.4842C74.3188 42.4166 68.5745 41.6925 67.6565 44.7511C66.7993 47.5457 70.181 52.9861 71.8145 55.0229Z" fill="#231F20"/>
<path d="M81.9595 60.5851H81.8042C78.058 60.5242 74.2375 58.5145 71.5847 55.2124C69.823 53.02 66.4818 47.566 67.366 44.6631C68.2502 41.7602 72.9685 41.9564 75.7765 42.1324L76.8092 42.1797C79.543 42.2609 82.1485 42.4639 84.0182 44.1218C85.888 45.7796 86.3537 48.2291 86.617 49.9885C87.1907 53.7914 86.7047 56.7552 85.1725 58.9002C84.7468 59.5526 84.1353 60.0619 83.4175 60.3618C82.9492 60.5251 82.455 60.6007 81.9595 60.5851ZM73.4747 42.6534C71.0987 42.6534 68.5 42.9985 67.9397 44.839C67.123 47.4848 70.417 52.8102 72.0437 54.8402C74.5885 58.007 78.2402 59.9287 81.811 59.9896C82.2839 60.0144 82.7574 59.9525 83.2082 59.8069C83.8157 59.5425 84.3321 59.1048 84.6932 58.5483C86.1242 56.5725 86.5765 53.7169 86.0432 50.0765C85.7935 48.4051 85.2737 46.0165 83.6402 44.5684C82.0067 43.1203 79.4215 42.8497 76.8025 42.7752C76.4987 42.7752 76.1275 42.7752 75.763 42.7279C75.0745 42.694 74.2847 42.6534 73.4747 42.6534Z" fill="#231F20"/>
<path d="M87.5826 23.7473C87.8318 22.9039 88.2549 22.1224 88.8246 21.4534C89.1165 21.1242 89.5025 20.893 89.93 20.7914C90.3575 20.6897 90.8058 20.7224 91.2141 20.885C91.4982 21.0545 91.7365 21.2912 91.9082 21.5742C92.08 21.8573 92.1801 22.1783 92.1997 22.509C92.233 23.1744 92.1225 23.8392 91.8757 24.4578C91.5 25.6341 90.8497 26.7035 89.9789 27.5773C89.5463 28.0113 89.0297 28.3523 88.461 28.5792C87.8922 28.8061 87.2833 28.9141 86.6714 28.8967" fill="white"/>
<path d="M86.9273 29.1607H86.6505C86.5795 29.1539 86.5139 29.1198 86.4674 29.0655C86.4208 29.0113 86.397 28.9412 86.4008 28.8698C86.4024 28.8339 86.4114 28.7987 86.4271 28.7664C86.4428 28.734 86.4649 28.7053 86.4921 28.6818C86.5192 28.6584 86.5509 28.6408 86.5851 28.63C86.6193 28.6193 86.6554 28.6157 86.691 28.6194C87.2683 28.6391 87.8434 28.54 88.3809 28.3282C88.9185 28.1164 89.407 27.7964 89.8163 27.3879C90.6553 26.5448 91.2803 25.5121 91.6388 24.3767C91.8744 23.7954 91.9804 23.1696 91.9493 22.5429C91.9331 22.2548 91.8464 21.9751 91.6969 21.7285C91.5474 21.4818 91.3397 21.2759 91.092 21.1287C90.7343 20.9936 90.344 20.9704 89.9729 21.0622C89.6017 21.154 89.267 21.3565 89.013 21.643C88.4756 22.2913 88.0738 23.0416 87.8318 23.8489C87.8198 23.8821 87.8013 23.9125 87.7774 23.9384C87.7534 23.9643 87.7246 23.9851 87.6925 23.9997C87.6604 24.0142 87.6257 24.0221 87.5905 24.0229C87.5553 24.0238 87.5203 24.0175 87.4875 24.0045C87.4206 23.9801 87.3659 23.9301 87.3356 23.8654C87.3052 23.8008 87.3016 23.7267 87.3255 23.6594C87.59 22.7779 88.0361 21.9618 88.635 21.264C88.9673 20.8956 89.4049 20.6388 89.888 20.5286C90.3712 20.4184 90.8764 20.4602 91.335 20.6483C91.6638 20.8353 91.9409 21.1015 92.1412 21.4229C92.3416 21.7443 92.4589 22.1106 92.4825 22.4888C92.5198 23.1821 92.4046 23.8751 92.145 24.5188C91.7622 25.7484 91.0856 26.8657 90.174 27.7736C89.3068 28.6326 88.146 29.1285 86.9273 29.1607Z" fill="#231F20"/>
<path d="M82.9452 35.4808L83.9914 45.915C83.9914 45.915 83.4852 51.8493 76.9782 50.6516C75.0669 50.2817 73.2613 49.4914 71.6914 48.3377C70.1215 47.184 68.8264 45.6956 67.8994 43.9797L68.1424 25.2563C68.1019 24.4917 69.6882 21.873 68.9389 15.2552C71.1695 15.0265 73.3282 14.3344 75.2771 13.2229C77.2261 12.1115 78.9227 10.6051 80.2587 8.7998C80.2587 8.7998 83.2759 12.535 84.5449 13.6921C85.5634 14.5468 86.4705 15.5267 87.2449 16.6085C89.2699 19.6535 89.1822 24.6203 88.6962 28.1119C88.2237 30.9809 86.5632 35.5552 82.9452 35.4808Z" fill="white"/>
<path d="M78.605 51.1389C78.041 51.1351 77.4785 51.0808 76.9242 50.9765C74.9594 50.5921 73.1037 49.7771 71.4898 48.5898C69.876 47.4024 68.5439 45.8721 67.589 44.1083C67.5791 44.0637 67.5791 44.0175 67.589 43.973C67.589 43.973 67.832 25.3714 67.832 25.2564C67.8601 24.9218 67.9304 24.5921 68.0412 24.2752C68.4192 22.976 69.1955 20.2693 68.6352 15.2891C68.6309 15.2492 68.6346 15.2089 68.6462 15.1705C68.6578 15.1322 68.6771 15.0965 68.7027 15.0658C68.7258 15.0327 68.7559 15.0052 68.791 14.9853C68.826 14.9654 68.8651 14.9536 68.9052 14.9507C71.0885 14.7206 73.2008 14.0404 75.1093 12.9527C77.0178 11.8651 78.6814 10.3936 79.9955 8.63068C80.0231 8.59111 80.0593 8.55836 80.1014 8.53491C80.1435 8.51147 80.1904 8.49794 80.2385 8.49535C80.2872 8.49349 80.3356 8.50289 80.3801 8.52284C80.4246 8.54279 80.4639 8.57275 80.495 8.61038C80.495 8.61038 83.5122 12.3388 84.7542 13.4621C85.7757 14.3365 86.6829 15.3369 87.4542 16.4394C89.7897 19.9851 89.2767 25.7977 88.9527 28.1322C88.5612 30.9268 86.9277 35.5755 83.303 35.7853L84.3087 45.8879C84.1472 47.5105 83.3571 49.0047 82.1082 50.0494C81.0965 50.7983 79.8619 51.1822 78.605 51.1389ZM68.1762 43.9053C69.0933 45.5658 70.362 47.0047 71.8931 48.1211C73.4242 49.2375 75.1807 50.0043 77.039 50.3675C78.983 50.7193 80.5557 50.4487 81.7167 49.5622C82.8099 48.6293 83.5114 47.3171 83.681 45.8879L82.6415 35.5146C82.6377 35.4707 82.643 35.4264 82.6569 35.3845C82.6709 35.3426 82.6932 35.304 82.7225 35.271C82.7524 35.2406 82.7882 35.2165 82.8276 35.2002C82.867 35.184 82.9093 35.1758 82.952 35.1763H83.033C86.408 35.1763 87.9537 30.7035 88.325 28.0442C88.649 25.7774 89.1485 20.1543 86.9277 16.7845C86.1747 15.7225 85.2927 14.7588 84.302 13.9154C82.8758 12.4484 81.5241 10.9105 80.252 9.30735C77.5352 12.7409 73.5863 14.9728 69.2495 15.5259C69.7557 20.4317 68.9795 23.1316 68.5745 24.4444C68.4861 24.7034 68.425 24.971 68.3922 25.2428C68.3922 25.2428 68.4192 25.2631 68.1762 43.9053Z" fill="#231F20"/>
<path d="M83.3024 38.9115C81.5933 39.2114 79.8344 39.0238 78.2264 38.3702C74.5207 37.0642 74.3047 34.5267 74.3047 34.5267C74.3047 34.5267 77.4232 36.4891 82.9447 35.4605L83.3024 38.9115Z" fill="#231F20"/>
<path d="M81.7973 39.3513C80.5444 39.33 79.3037 39.1014 78.1252 38.6746C74.2845 37.3213 74.0212 34.6891 74.0077 34.6146C74.0023 34.5587 74.0128 34.5023 74.038 34.4521C74.0631 34.4019 74.102 34.3599 74.15 34.3308C74.198 34.3018 74.2532 34.287 74.3093 34.2881C74.3653 34.2893 74.4199 34.3063 74.4667 34.3372C74.4667 34.3372 77.565 36.2251 82.8908 35.2304C82.9736 35.2164 83.0585 35.2359 83.127 35.2845C83.1605 35.3087 83.1882 35.3401 83.2081 35.3764C83.228 35.4127 83.2395 35.453 83.2418 35.4943L83.5928 38.8776C83.6072 38.9338 83.6054 38.9929 83.5874 39.0481C83.5695 39.1032 83.5362 39.1521 83.4915 39.1889C83.4626 39.2156 83.4285 39.2361 83.3913 39.2489C83.3541 39.2617 83.3147 39.2666 83.2755 39.2633C82.7867 39.3401 82.2917 39.3695 81.7973 39.3513ZM74.757 35.1154C75.054 35.8935 75.9045 37.2536 78.3277 38.1062C79.8087 38.6727 81.4069 38.861 82.9785 38.6543L82.6883 35.8326C78.6248 36.5161 75.9045 35.6635 74.757 35.1154Z" fill="#231F20"/>
<path d="M78.3955 18.5912C78.3955 18.5912 82.243 23.267 81.5343 24.2211C80.8255 25.1752 78.544 24.8165 78.544 24.8165" fill="white"/>
<path d="M79.4961 25.1819C79.162 25.1815 78.8283 25.1589 78.4971 25.1142C78.4272 25.0926 78.3674 25.0465 78.3287 24.9842C78.2901 24.922 78.2751 24.8478 78.2866 24.7754C78.2981 24.703 78.3353 24.6371 78.3913 24.59C78.4474 24.5428 78.5185 24.5175 78.5916 24.5188C79.1789 24.6135 80.8057 24.7015 81.2917 24.0383C81.5954 23.6323 80.1307 21.176 78.1529 18.7806C78.128 18.7504 78.1094 18.7156 78.0979 18.6782C78.0865 18.6407 78.0826 18.6014 78.0863 18.5624C78.0901 18.5235 78.1015 18.4856 78.1199 18.4511C78.1382 18.4165 78.1632 18.386 78.1934 18.3611C78.256 18.312 78.335 18.2889 78.4141 18.2964C78.4932 18.304 78.5664 18.3417 78.6187 18.4017C79.8202 19.8633 82.5337 23.3684 81.7709 24.397C81.2917 25.0466 80.2724 25.1819 79.4961 25.1819Z" fill="#231F20"/>
<path d="M83.2119 19.6649C83.526 19.6228 83.7161 19.1052 83.6365 18.5088C83.5569 17.9125 83.2378 17.4632 82.9237 17.5053C82.6096 17.5474 82.4195 18.065 82.4991 18.6614C82.5787 19.2577 82.8978 19.707 83.2119 19.6649Z" fill="#231F20"/>
<path d="M73.7456 19.6782C74.0625 19.6745 74.3136 19.1838 74.3066 18.5821C74.2996 17.9805 74.037 17.4958 73.7202 17.4995C73.4033 17.5032 73.1522 17.9939 73.1592 18.5956C73.1662 19.1972 73.4288 19.6819 73.7456 19.6782Z" fill="#231F20"/>
<path d="M70.2415 22.455C70.0092 21.5617 69.6132 20.7196 69.0737 19.9716C68.7635 19.547 68.3567 19.2027 67.8871 18.9674C67.4175 18.732 66.8987 18.6123 66.3737 18.6183C66.0491 18.6309 65.7316 18.7173 65.4452 18.8708C65.1587 19.0244 64.9107 19.2411 64.72 19.5047C64.4921 19.8844 64.3494 20.3092 64.3015 20.7498C63.9572 23.0707 64.7335 26.0954 66.9137 27.2931C67.2817 27.525 67.7075 27.648 68.1422 27.648C68.5769 27.648 69.0027 27.525 69.3707 27.2931" fill="white"/>
<path d="M68.2908 27.9156C67.7638 27.9035 67.2475 27.7642 66.7856 27.5096C64.5041 26.251 63.6806 23.1316 64.0383 20.6888C64.0894 20.2092 64.2462 19.7469 64.4973 19.3355C64.7101 19.0372 64.9878 18.7914 65.3095 18.6167C65.6311 18.442 65.9881 18.343 66.3536 18.3272C66.9242 18.3231 67.4876 18.4554 67.9971 18.7131C68.5065 18.9709 68.9474 19.3466 69.2831 19.8091C69.8456 20.5822 70.2577 21.4545 70.4981 22.3805C70.517 22.4487 70.5085 22.5215 70.4744 22.5835C70.4403 22.6455 70.3834 22.6916 70.3158 22.712C70.2826 22.7235 70.2475 22.7279 70.2125 22.7251C70.1775 22.7224 70.1434 22.7124 70.1124 22.6959C70.0814 22.6795 70.0541 22.6568 70.0322 22.6293C70.0103 22.6018 69.9943 22.5701 69.9851 22.5361C69.7621 21.6752 69.3822 20.8631 68.8646 20.1407C68.5843 19.7445 68.2127 19.4219 67.7814 19.2004C67.3501 18.9789 66.8719 18.8651 66.3873 18.8686C66.1047 18.8791 65.8282 18.9533 65.5781 19.0857C65.328 19.2181 65.1109 19.4052 64.9428 19.6332C64.7361 19.9796 64.6092 20.3681 64.5716 20.77C64.2341 23.0233 64.9766 25.8991 67.0421 27.0359C67.3603 27.2485 67.732 27.3664 68.1143 27.3759C68.4965 27.3855 68.8737 27.2864 69.2021 27.0901C69.2592 27.0479 69.3302 27.0294 69.4005 27.0382C69.4708 27.047 69.5351 27.0825 69.5801 27.1374C69.6238 27.194 69.6434 27.2657 69.6345 27.3367C69.6256 27.4077 69.5891 27.4723 69.5328 27.5164C69.1741 27.7831 68.7374 27.9235 68.2908 27.9156Z" fill="#231F20"/>
<path d="M106.307 102.518C106.224 102.518 106.145 102.488 106.082 102.435C106.019 102.382 105.977 102.308 105.962 102.227C103.647 87.7397 99.2123 60.1249 99.0098 59.2859C98.9871 59.1962 99.0006 59.1011 99.0474 59.0214C99.0941 58.9416 99.1703 58.8834 99.2595 58.8596C99.3498 58.8389 99.4446 58.8542 99.5239 58.9021C99.6032 58.9501 99.6609 59.027 99.6848 59.1167C99.948 60.1926 106.374 100.393 106.651 102.112C106.664 102.204 106.642 102.297 106.587 102.371C106.533 102.446 106.451 102.496 106.361 102.511L106.307 102.518Z" fill="#231F20"/>
<path d="M140.975 65.376H11.017C5.56977 65.376 1.15527 70.072 1.15527 75.8508V132.887C1.15527 138.673 5.56977 143.355 11.017 143.355H60.2313L73.7313 161.266L90.3363 143.355H141.009C146.456 143.355 150.877 138.673 150.877 132.887V75.8508C150.843 70.072 146.422 65.376 140.975 65.376Z" fill="white"/>
<path d="M73.6976 161.578C73.6532 161.574 73.6101 161.561 73.5707 161.54C73.5313 161.519 73.4964 161.49 73.4681 161.456L60.0963 143.666H11.0171C5.40782 143.666 0.851562 138.828 0.851562 132.887V75.8507C0.851562 69.9096 5.40782 65.0714 11.0171 65.0714H140.975C146.584 65.0714 151.147 69.9096 151.147 75.8507V132.887C151.147 138.828 146.584 143.666 140.975 143.666H90.4376L73.9203 161.476C73.8925 161.508 73.8583 161.533 73.8199 161.551C73.7814 161.568 73.7398 161.578 73.6976 161.578ZM11.0171 65.6872C5.75207 65.6872 1.46582 70.2479 1.46582 75.8372V132.873C1.46582 138.476 5.75207 143.023 11.0171 143.023H60.2313C60.2787 143.022 60.3256 143.033 60.3679 143.054C60.4103 143.075 60.4468 143.107 60.4743 143.145L73.7178 160.739L90.0798 143.098C90.1082 143.067 90.1428 143.043 90.1811 143.027C90.2195 143.01 90.2609 143.002 90.3026 143.003H140.975C146.247 143.003 150.533 138.442 150.533 132.853V75.8507C150.533 70.2479 146.247 65.7007 140.975 65.7007L11.0171 65.6872Z" fill="#231F20"/>
<path d="M112.8 109.528C112.733 113.054 108.372 114.042 108.372 114.042C108.372 114.042 112.065 114.421 110.694 117.791C110.32 118.752 109.704 119.601 108.907 120.255C108.111 120.909 107.159 121.347 106.145 121.526C106.145 121.526 109.243 123.285 106.995 126.526C104.748 129.768 82.2432 129.544 78.5104 129.673C76.5477 129.887 74.5692 129.447 72.8809 128.421C71.6794 127.744 69.5937 126.147 68.8309 126.147C66.7182 126.147 58.1592 126.716 58.1592 126.716L60.1842 101.429C60.1842 101.429 71.5174 101.429 73.6032 99.5611C79.0842 94.6891 82.5739 85.9534 82.0744 80.831C81.5749 75.7086 80.1574 72.0952 83.7687 71.7231C87.3799 71.3509 91.1937 78.713 91.6662 83.4565C92.1387 88.1999 89.6749 93.9448 90.7954 95.8192C91.9159 97.6935 95.1492 98.0657 100.245 97.565C105.342 97.0642 110.013 96.4485 112.017 98.7356C114.022 101.023 113.914 104.399 109.425 106.274C109.452 106.274 112.848 107.16 112.8 109.528Z" fill="white"/>
<path d="M77.5721 130.031C75.8636 130.076 74.1791 129.62 72.7256 128.719C72.2869 128.482 71.7604 128.137 71.1934 127.771C70.3631 127.23 69.2291 126.486 68.8376 126.486C66.7586 126.486 58.2739 127.047 58.1861 127.054C58.1377 127.056 58.0894 127.048 58.0441 127.03C57.9989 127.013 57.9576 126.986 57.9229 126.953C57.8899 126.917 57.8645 126.876 57.8483 126.83C57.832 126.785 57.8252 126.737 57.8284 126.689L59.8534 101.402C59.8602 101.317 59.8987 101.237 59.9613 101.18C60.0239 101.122 60.1059 101.09 60.1909 101.09C63.3094 101.09 71.7536 100.759 73.3871 99.3039C77.8084 95.3793 82.3309 86.8397 81.7436 80.8648C81.6491 79.8565 81.5141 78.9295 81.3926 78.0295C81.0349 75.5123 80.7514 73.5297 81.6559 72.3726C81.9164 72.0722 82.2363 71.8293 82.5953 71.6592C82.9544 71.4891 83.3447 71.3956 83.7416 71.3847C87.5689 70.9854 91.4771 78.3814 92.0104 83.4226C92.2601 85.8044 91.7809 88.3893 91.3354 90.6629C90.8899 92.9365 90.5659 94.7973 91.0721 95.6432C92.0441 97.2604 94.8589 97.7476 100.212 97.2266L101.096 97.1386C106.017 96.6514 110.269 96.2319 112.267 98.4919C112.789 99.038 113.173 99.7013 113.386 100.426C113.6 101.152 113.638 101.918 113.496 102.66C113.259 103.689 112.503 105.089 110.323 106.213C111.403 106.659 113.145 107.668 113.111 109.515C113.064 112.093 110.877 113.406 109.506 113.981C109.885 114.109 110.231 114.319 110.519 114.597C110.807 114.875 111.03 115.214 111.171 115.589C111.313 115.964 111.369 116.365 111.337 116.765C111.305 117.164 111.184 117.552 110.985 117.899C110.635 118.798 110.086 119.605 109.378 120.26C108.67 120.914 107.823 121.398 106.901 121.675C107.465 122.167 107.865 122.821 108.048 123.549C108.146 124.101 108.125 124.668 107.988 125.211C107.851 125.755 107.6 126.263 107.252 126.702C105.456 129.301 92.9486 129.801 80.9269 129.95C79.8266 129.95 78.9761 129.95 78.4699 129.991L77.5721 130.031ZM68.8376 125.809C69.3844 125.809 70.2349 126.337 71.5376 127.21C72.0844 127.562 72.6041 127.886 73.0091 128.123C74.6451 129.123 76.566 129.549 78.4699 129.334C78.9761 129.334 79.8199 129.334 80.9404 129.294C87.4811 129.213 104.856 128.996 106.692 126.337C106.991 126.013 107.212 125.625 107.339 125.202C107.465 124.779 107.494 124.333 107.422 123.898C107.351 123.462 107.181 123.049 106.925 122.69C106.67 122.33 106.336 122.034 105.949 121.823C105.887 121.788 105.838 121.733 105.809 121.667C105.779 121.602 105.772 121.528 105.787 121.458C105.8 121.388 105.836 121.325 105.888 121.277C105.94 121.229 106.007 121.2 106.077 121.194C107.034 121.025 107.931 120.612 108.681 119.993C109.431 119.374 110.008 118.571 110.357 117.662C110.538 117.334 110.639 116.968 110.65 116.594C110.662 116.22 110.585 115.848 110.424 115.51C109.844 114.536 108.345 114.367 108.325 114.367C108.246 114.358 108.172 114.322 108.117 114.263C108.063 114.205 108.031 114.129 108.028 114.048C108.024 113.969 108.047 113.891 108.094 113.827C108.141 113.763 108.208 113.717 108.285 113.697C108.332 113.697 112.395 112.722 112.456 109.508C112.497 107.437 109.392 106.598 109.365 106.585C109.294 106.57 109.23 106.533 109.183 106.479C109.135 106.425 109.107 106.357 109.101 106.285C109.096 106.213 109.114 106.141 109.153 106.08C109.192 106.02 109.25 105.974 109.317 105.949C111.309 105.116 112.53 103.919 112.854 102.511C112.972 101.874 112.936 101.218 112.75 100.598C112.563 99.9773 112.231 99.4107 111.781 98.9453C110.013 96.9153 105.922 97.3281 101.184 97.8017L100.299 97.9168C94.6564 98.4649 91.6391 97.8762 90.5119 96.0018C89.8774 94.9394 90.2351 93.0042 90.6941 90.5546C91.1059 88.3216 91.5784 85.818 91.3354 83.5038C90.8561 78.9566 87.1301 71.7298 83.8091 72.0749C83.5033 72.0771 83.2012 72.1433 82.9223 72.2691C82.6434 72.3949 82.3937 72.5777 82.1891 72.8057C81.4601 73.7327 81.7234 75.5935 82.0609 77.9483C82.1824 78.8145 82.3174 79.7956 82.4186 80.8106C82.9114 85.8789 79.5836 94.7229 73.8394 99.825C71.8549 101.591 62.3644 101.767 60.5014 101.781L58.5304 126.337C60.2516 126.242 66.9679 125.809 68.8376 125.809Z" fill="#231F20"/>
<path d="M102.244 107.302C102.154 107.302 102.068 107.266 102.005 107.203C101.942 107.14 101.906 107.053 101.906 106.964C101.906 106.874 101.942 106.788 102.005 106.725C102.068 106.661 102.154 106.625 102.244 106.625C107.367 106.517 109.345 105.949 109.365 105.949C109.454 105.923 109.551 105.933 109.632 105.978C109.714 106.024 109.774 106.099 109.8 106.189C109.826 106.279 109.816 106.375 109.771 106.457C109.726 106.539 109.65 106.599 109.561 106.625C109.473 106.625 107.495 107.221 102.257 107.302H102.244Z" fill="#231F20"/>
<path d="M103.101 114.982H102.716C102.626 114.982 102.541 114.947 102.477 114.883C102.414 114.82 102.378 114.734 102.378 114.644C102.378 114.554 102.414 114.468 102.477 114.405C102.541 114.341 102.626 114.306 102.716 114.306C104.58 114.399 106.447 114.203 108.251 113.724C108.335 113.696 108.427 113.702 108.506 113.741C108.586 113.78 108.647 113.85 108.676 113.933C108.692 113.975 108.699 114.019 108.698 114.063C108.696 114.107 108.685 114.15 108.667 114.19C108.648 114.23 108.621 114.266 108.588 114.295C108.554 114.324 108.516 114.346 108.474 114.36C108.399 114.387 106.712 114.982 103.101 114.982Z" fill="#231F20"/>
<path d="M102.716 122.311C102.626 122.311 102.541 122.275 102.477 122.211C102.414 122.148 102.378 122.062 102.378 121.972C102.38 121.883 102.416 121.798 102.479 121.735C102.542 121.672 102.627 121.636 102.716 121.634C103.834 121.668 104.95 121.524 106.023 121.208C106.108 121.176 106.201 121.18 106.282 121.217C106.364 121.254 106.427 121.323 106.459 121.407C106.49 121.492 106.487 121.585 106.449 121.667C106.412 121.749 106.344 121.812 106.26 121.844C105.111 122.191 103.915 122.349 102.716 122.311Z" fill="#231F20"/>
<path d="M66.4953 129.896L36.1001 131.155V97.5107L66.4953 98.7693V129.896Z" fill="#0060BB"/>
<path d="M57.167 107.343C58.7328 107.343 60.002 106.07 60.002 104.501C60.002 102.931 58.7328 101.659 57.167 101.659C55.6013 101.659 54.332 102.931 54.332 104.501C54.332 106.07 55.6013 107.343 57.167 107.343Z" fill="#231F20"/>
<path d="M57.1671 107.634C56.547 107.635 55.9406 107.452 55.4245 107.107C54.9084 106.763 54.5059 106.273 54.268 105.699C54.0301 105.125 53.9675 104.493 54.0882 103.883C54.2088 103.273 54.5072 102.713 54.9457 102.274C55.3841 101.834 55.9428 101.535 56.5509 101.414C57.1591 101.293 57.7894 101.356 58.362 101.595C58.9346 101.833 59.4237 102.236 59.7673 102.754C60.1109 103.271 60.2936 103.879 60.2923 104.501C60.2905 105.331 59.9607 106.127 59.375 106.714C58.7893 107.301 57.9954 107.632 57.1671 107.634ZM57.1671 101.956C56.6648 101.955 56.1734 102.103 55.7552 102.382C55.3369 102.661 55.0106 103.058 54.8175 103.522C54.6243 103.987 54.5731 104.499 54.6703 104.993C54.7674 105.487 55.0086 105.941 55.3633 106.297C55.718 106.654 56.1702 106.897 56.6627 106.996C57.1552 107.094 57.6658 107.044 58.13 106.852C58.5941 106.66 58.9909 106.334 59.2701 105.915C59.5493 105.496 59.6983 105.004 59.6983 104.501C59.6912 103.831 59.4218 103.191 58.9483 102.719C58.4747 102.247 57.835 101.98 57.1671 101.977V101.956Z" fill="#231F20"/>
<path d="M122.885 28.0983C123.231 29.6778 124.022 31.1248 125.163 32.2677C126.304 33.4106 127.748 34.2016 129.324 34.5469C127.75 34.8933 126.307 35.6848 125.167 36.8277C124.027 37.9705 123.237 39.4169 122.892 40.9955C122.546 39.4169 121.757 37.9705 120.617 36.8277C119.477 35.6848 118.034 34.8933 116.459 34.5469C116.459 34.5469 118.484 34.4251 120.617 32.2665C122.75 30.108 122.885 28.0983 122.885 28.0983Z" fill="#D1D3D4"/>
<path d="M10.9427 36.2589C11.2077 37.4662 11.8119 38.5723 12.6838 39.4464C13.5558 40.3205 14.6591 40.9262 15.8635 41.1918C14.6581 41.4551 13.5535 42.06 12.6811 42.9345C11.8088 43.809 11.2054 44.9163 10.9427 46.1247C10.68 44.9163 10.0766 43.809 9.2043 42.9345C8.33195 42.06 7.22737 41.4551 6.02197 41.1918C7.22631 40.9262 8.32964 40.3205 9.20161 39.4464C10.0736 38.5723 10.6777 37.4662 10.9427 36.2589Z" fill="#D1D3D4"/>
<path d="M25.6645 15.641C25.8724 16.5944 26.3485 17.4682 27.0363 18.159C27.7242 18.8497 28.595 19.3284 29.5457 19.5386C28.5944 19.7451 27.7226 20.2219 27.0343 20.9118C26.3461 21.6018 25.8705 22.4758 25.6645 23.4294C25.4553 22.4772 24.9787 21.6049 24.291 20.9154C23.6033 20.226 22.7331 19.7482 21.7832 19.5386C22.7473 19.3864 23.6307 18.909 24.2875 18.1853C25.0244 17.5209 25.5107 16.6225 25.6645 15.641Z" fill="#D1D3D4"/>
<path d="M80.0086 31.2312C75.0203 31.2312 73.4273 24.6337 73.3598 24.3495C73.3437 24.2715 73.3587 24.1903 73.4016 24.1233C73.4445 24.0562 73.5119 24.0087 73.5893 23.9909C73.6275 23.9819 73.667 23.9805 73.7056 23.9869C73.7443 23.9932 73.7813 24.0072 73.8146 24.0279C73.8478 24.0487 73.8767 24.0758 73.8994 24.1078C73.9221 24.1398 73.9384 24.1759 73.9471 24.2142C73.9471 24.2751 75.4929 30.6358 80.0221 30.6358C80.4917 30.6539 80.9596 30.5682 81.3924 30.3845C81.8252 30.2009 82.2124 29.924 82.5263 29.5734C84.0856 27.7938 83.6671 24.3428 83.6603 24.3089C83.6546 24.2698 83.6568 24.2299 83.6666 24.1916C83.6765 24.1533 83.6939 24.1173 83.7178 24.0858C83.7417 24.0543 83.7716 24.0279 83.8057 24.0081C83.8399 23.9883 83.8777 23.9756 83.9168 23.9706C83.9951 23.9626 84.0735 23.9847 84.1362 24.0324C84.1988 24.0802 84.2411 24.15 84.2543 24.2277C84.2543 24.3834 84.7201 27.9832 82.9786 29.9659C82.608 30.3842 82.1493 30.7147 81.6356 30.9336C81.122 31.1524 80.5662 31.2541 80.0086 31.2312Z" fill="#231F20"/>
<path d="M123.445 61.0723C120.907 60.2467 117.896 59.7189 115.757 61.3294C114.756 62.1893 113.967 63.2681 113.448 64.4827C112.28 66.7953 111.269 69.185 110.424 71.635C110.208 72.3117 110.06 73.1237 110.613 73.5026C111.288 73.9695 112.132 73.2252 112.557 72.5282C113.327 71.2833 113.926 69.9405 114.339 68.5359C113.377 70.539 112.696 72.6658 112.314 74.856C112.231 75.1202 112.231 75.4037 112.314 75.668C112.447 75.894 112.663 76.0585 112.916 76.1257C113.168 76.1928 113.437 76.1572 113.664 76.0266C114.124 75.7668 114.499 75.379 114.744 74.9101C115.857 73.0624 116.762 71.0972 117.444 69.0502C116.769 71.1817 116.094 73.3673 116.189 75.6003C116.173 75.7883 116.197 75.9776 116.258 76.1559C116.32 76.3342 116.418 76.4976 116.546 76.6356C116.724 76.7502 116.934 76.8036 117.145 76.7877C117.356 76.7718 117.556 76.6875 117.714 76.5476C118.013 76.257 118.244 75.9033 118.389 75.5123L121.089 69.9298C120.506 72.0064 120.182 74.1475 120.124 76.304C120.103 76.4841 120.131 76.6664 120.205 76.8318C120.502 77.3935 121.386 77.0078 121.757 76.4935C122.332 75.6002 122.733 74.6061 122.939 73.5635C123.661 70.8569 124.289 68.0487 125.119 65.3488C125.807 63.1293 126.064 61.9249 123.445 61.0723Z" fill="white"/>
<path d="M120.691 77.4002H120.617C120.476 77.3915 120.34 77.3465 120.222 77.2694C120.104 77.1923 120.007 77.0858 119.942 76.9603C119.85 76.7473 119.811 76.5152 119.827 76.2837C119.864 75.0224 119.988 73.7653 120.199 72.5214L118.707 75.6341C118.535 76.073 118.265 76.4665 117.917 76.7844C117.705 76.9708 117.437 77.0801 117.155 77.0949C116.873 77.1096 116.595 77.0288 116.365 76.8656C116.2 76.7008 116.073 76.5026 115.992 76.2843C115.91 76.066 115.876 75.8328 115.892 75.6002C115.875 74.782 115.936 73.964 116.074 73.1575C115.75 73.8341 115.399 74.4431 115.021 75.0589C114.765 75.5814 114.362 76.0168 113.86 76.3107C113.686 76.3959 113.497 76.4451 113.303 76.4556C113.109 76.466 112.916 76.4375 112.733 76.3716C112.596 76.3238 112.47 76.2488 112.362 76.1512C112.254 76.0535 112.167 75.9352 112.105 75.8032C111.993 75.4858 111.976 75.1421 112.058 74.8153C112.139 74.3146 112.24 73.8138 112.355 73.3199C112.082 73.6216 111.728 73.8378 111.336 73.9424C111.186 73.9772 111.03 73.9795 110.878 73.9492C110.727 73.9188 110.584 73.8566 110.458 73.7665C110.067 73.4958 109.696 72.8868 110.155 71.5402C111.001 69.0786 112.013 66.6776 113.185 64.354C113.726 63.0945 114.548 61.9763 115.588 61.0857C117.404 59.7324 120.003 59.6309 123.553 60.788C126.422 61.7218 126.132 63.1631 125.43 65.4367C124.876 67.2231 124.411 69.0839 123.958 70.85C123.722 71.7703 123.493 72.6906 123.283 73.6041C123.065 74.6823 122.649 75.7104 122.055 76.6355C121.9 76.8577 121.697 77.0419 121.46 77.1743C121.224 77.3067 120.961 77.3839 120.691 77.4002ZM121.09 69.6117C121.125 69.6053 121.162 69.6053 121.198 69.6117C121.27 69.6392 121.329 69.6926 121.364 69.7613C121.399 69.8301 121.407 69.9094 121.387 69.9839C120.807 72.0332 120.488 74.1475 120.435 76.2769C120.418 76.4024 120.432 76.5302 120.475 76.6491C120.492 76.6835 120.518 76.7125 120.55 76.7329C120.582 76.7532 120.62 76.7641 120.658 76.7641C120.826 76.7469 120.988 76.6947 121.134 76.6108C121.281 76.5269 121.408 76.4131 121.508 76.2769C122.056 75.4143 122.441 74.4577 122.642 73.4552C122.885 72.5417 123.115 71.6214 123.317 70.7079C123.769 68.9012 124.242 67.0269 124.802 65.2269C125.477 63.0345 125.659 62.1143 123.317 61.3496C119.983 60.2602 117.559 60.3279 115.892 61.5526C114.929 62.3863 114.169 63.4303 113.671 64.6044C112.509 66.9031 111.505 69.2793 110.668 71.7162C110.519 72.156 110.33 72.9409 110.742 73.2319C110.8 73.2725 110.867 73.3001 110.936 73.3129C111.006 73.3257 111.078 73.3235 111.147 73.3063C111.62 73.1307 112.013 72.7894 112.254 72.3455C112.47 72.0004 112.672 71.6688 112.855 71.2763C113.181 70.2875 113.569 69.3203 114.016 68.3802C114.051 68.3107 114.11 68.2565 114.182 68.2279C114.254 68.1992 114.334 68.198 114.407 68.2246C114.479 68.2534 114.538 68.3083 114.572 68.3785C114.606 68.4487 114.612 68.5289 114.589 68.6035C114.293 69.6072 113.904 70.5813 113.428 71.5132C113.07 72.6192 112.792 73.75 112.598 74.8965C112.54 75.1046 112.54 75.3245 112.598 75.5326C112.656 75.6449 112.755 75.73 112.875 75.7694C112.982 75.8148 113.096 75.8382 113.212 75.8382C113.328 75.8382 113.443 75.8148 113.55 75.7694C113.94 75.5227 114.254 75.171 114.454 74.7544C115.552 72.9247 116.446 70.9801 117.121 68.9554C117.152 68.8858 117.208 68.8303 117.278 68.7994C117.347 68.7685 117.426 68.7643 117.499 68.7877C117.571 68.8111 117.632 68.8605 117.671 68.9263C117.71 68.9921 117.723 69.0699 117.708 69.1448C117.067 71.2357 116.405 73.3943 116.473 75.5935C116.457 75.7372 116.471 75.8825 116.512 76.0209C116.554 76.1592 116.623 76.2877 116.716 76.3987C116.838 76.4665 116.979 76.4945 117.118 76.4787C117.257 76.463 117.388 76.4043 117.492 76.3107C117.763 76.0504 117.975 75.7341 118.113 75.3837L120.813 69.808C120.834 69.7509 120.871 69.7015 120.921 69.6664C120.97 69.6313 121.029 69.6122 121.09 69.6117Z" fill="#231F20"/>
</svg>
