<svg width="41" height="46" viewBox="0 0 41 46" fill="none" xmlns="http://www.w3.org/2000/svg">
<path d="M5.64725 10.0135C5.59723 10.0132 5.54857 9.99728 5.50805 9.96794L2.67605 7.91354C2.62449 7.87599 2.58997 7.81949 2.58007 7.75648C2.57016 7.69347 2.5857 7.6291 2.62325 7.57754C2.66081 7.52598 2.7173 7.49146 2.78032 7.48155C2.84333 7.47165 2.90769 7.48719 2.95925 7.52474L5.79605 9.57914C5.84741 9.61621 5.88204 9.67208 5.89238 9.73457C5.90272 9.79706 5.88793 9.8611 5.85125 9.91274C5.82824 9.94511 5.79756 9.97126 5.76196 9.98886C5.72635 10.0064 5.68694 10.0149 5.64725 10.0135Z" fill="#DFEAEF"/>
<path d="M2.00101 27.7783C1.96455 27.7785 1.92853 27.7704 1.89568 27.7546C1.86283 27.7388 1.83401 27.7157 1.81141 27.6871C1.77243 27.637 1.75485 27.5736 1.76249 27.5107C1.77014 27.4477 1.80239 27.3903 1.85221 27.3511L4.69141 25.1263C4.74173 25.0926 4.80292 25.0792 4.86272 25.0887C4.92252 25.0982 4.97651 25.13 5.01385 25.1777C5.0512 25.2254 5.06915 25.2854 5.0641 25.3457C5.05904 25.4061 5.03136 25.4623 4.9866 25.5031L2.14981 27.7279C2.10727 27.7609 2.05486 27.7786 2.00101 27.7783Z" fill="#DFEAEF"/>
<path d="M5.65192 16.671H1.05592C0.992266 16.671 0.931221 16.6458 0.886212 16.6007C0.841203 16.5557 0.815918 16.4947 0.815918 16.431C0.815918 16.3674 0.841203 16.3063 0.886212 16.2613C0.931221 16.2163 0.992266 16.191 1.05592 16.191H5.65192C5.71557 16.191 5.77661 16.2163 5.82162 16.2613C5.86663 16.3063 5.89192 16.3674 5.89192 16.431C5.89192 16.4947 5.86663 16.5557 5.82162 16.6007C5.77661 16.6458 5.71557 16.671 5.65192 16.671Z" fill="#DFEAEF"/>
<path d="M35.5568 10.0135C35.506 10.0137 35.4564 9.99778 35.4153 9.96802C35.3741 9.93826 35.3435 9.89621 35.3277 9.84792C35.312 9.79963 35.312 9.74759 35.3277 9.69929C35.3434 9.65099 35.374 9.60893 35.4152 9.57914L38.2544 7.52474C38.2798 7.50474 38.309 7.4901 38.3402 7.48167C38.3714 7.47325 38.4041 7.47122 38.4361 7.47572C38.4681 7.48021 38.4989 7.49114 38.5266 7.50783C38.5543 7.52453 38.5784 7.54665 38.5973 7.57287C38.6162 7.59909 38.6297 7.62887 38.6368 7.66042C38.644 7.69196 38.6446 7.72463 38.6388 7.75645C38.633 7.78827 38.6209 7.81858 38.603 7.84558C38.5852 7.87258 38.5621 7.89569 38.5352 7.91354L35.7056 9.96794C35.6624 9.99925 35.6101 10.0153 35.5568 10.0135Z" fill="#DFEAEF"/>
<path d="M39.2126 27.7784C39.1596 27.7782 39.1081 27.7605 39.0662 27.728L36.227 25.5032C36.2023 25.4836 36.1816 25.4594 36.1662 25.4319C36.1509 25.4044 36.1411 25.3741 36.1374 25.3428C36.1337 25.3115 36.1362 25.2797 36.1448 25.2494C36.1534 25.2191 36.1679 25.1907 36.1874 25.166C36.207 25.1412 36.2312 25.1206 36.2587 25.1052C36.2862 25.0898 36.3165 25.08 36.3478 25.0763C36.3791 25.0727 36.4109 25.0752 36.4412 25.0838C36.4715 25.0924 36.4999 25.1068 36.5246 25.1264L39.3614 27.3512C39.4112 27.3904 39.4435 27.4478 39.4511 27.5108C39.4588 27.5737 39.4412 27.6371 39.4022 27.6872C39.3796 27.7158 39.3508 27.7389 39.3179 27.7547C39.2851 27.7705 39.2491 27.7786 39.2126 27.7784Z" fill="#DFEAEF"/>
<path d="M40.1625 16.671H35.5593C35.4957 16.671 35.4346 16.6458 35.3896 16.6007C35.3446 16.5557 35.3193 16.4947 35.3193 16.431C35.3193 16.3674 35.3446 16.3063 35.3896 16.2613C35.4346 16.2163 35.4957 16.191 35.5593 16.191H40.1553C40.219 16.191 40.28 16.2163 40.325 16.2613C40.37 16.3063 40.3953 16.3674 40.3953 16.431C40.3953 16.4947 40.37 16.5557 40.325 16.6007C40.28 16.6458 40.219 16.671 40.1553 16.671H40.1625Z" fill="#DFEAEF"/>
<path d="M14.918 14.3599C14.918 14.3599 10.2956 15.6703 9.98839 16.6399C9.98839 16.6399 8.10679 19.0183 7.73239 21.9847C7.54999 23.4247 8.06359 26.5783 8.76919 27.9583C10.2092 30.7711 11.6132 33.3775 11.6132 33.3775L10.7252 37.5463L23.9444 40.9663L25.3844 35.2783C25.3844 35.2783 28.1468 33.5983 29.1332 31.1623C30.1196 28.7263 29.6756 14.5567 28.1468 12.7303C26.618 10.9039 14.918 14.3599 14.918 14.3599Z" fill="#FFC9B0"/>
<path d="M23.941 41.2063C23.9211 41.2088 23.901 41.2088 23.881 41.2063L10.6618 37.7863C10.6017 37.771 10.5498 37.7329 10.5171 37.68C10.4845 37.6272 10.4735 37.5638 10.4866 37.5031L11.3554 33.4231C11.1154 32.9671 9.83623 30.5911 8.55223 28.0783C7.85143 26.7079 7.29703 23.5183 7.49143 21.9655C7.85143 19.1119 9.54103 16.8319 9.77383 16.5295C10.201 15.5023 14.065 14.3695 14.8474 14.1295C16.0666 13.7695 26.737 10.6855 28.321 12.5767C29.8666 14.4223 30.3778 28.6951 29.3458 31.2511C28.4266 33.5287 26.0698 35.1199 25.5826 35.4295L24.1738 41.0263C24.1579 41.0878 24.1182 41.1405 24.0634 41.1727C24.0261 41.1941 23.984 41.2056 23.941 41.2063ZM11.0026 37.3663L23.7658 40.6687L25.141 35.2135C25.1564 35.1524 25.1952 35.0999 25.249 35.0671C25.2754 35.0503 27.9562 33.4063 28.8994 31.0663C29.8714 28.6663 29.3914 14.5975 27.9514 12.8791C27.6298 12.4951 26.2978 12.0103 20.9914 13.0903C17.9218 13.7167 14.9914 14.5759 14.9698 14.5855C13.1026 15.1159 10.3906 16.1239 10.2058 16.7071C10.1956 16.7344 10.1819 16.7602 10.165 16.7839C10.1458 16.8055 8.31943 19.1479 7.95703 22.0111C7.77463 23.4511 8.31463 26.5711 8.96983 27.8455C10.3882 30.6223 11.797 33.2311 11.8114 33.2575C11.8382 33.3084 11.8459 33.3671 11.833 33.4231L11.0026 37.3663Z" fill="#002446"/>
<path d="M28.7008 0.47583H13.7464C12.7085 0.47583 11.8672 1.31718 11.8672 2.35503V31.4958C11.8672 32.5337 12.7085 33.375 13.7464 33.375H28.7008C29.7386 33.375 30.58 32.5337 30.58 31.4958V2.35503C30.58 1.31718 29.7386 0.47583 28.7008 0.47583Z" fill="white"/>
<path d="M28.7025 33.6175H13.7481C13.186 33.6162 12.6474 33.3922 12.2502 32.9945C11.8529 32.5969 11.6295 32.058 11.6289 31.4959V2.35988C11.6295 1.79781 11.8529 1.2589 12.2502 0.861232C12.6474 0.463561 13.186 0.239551 13.7481 0.238281H28.7025C29.2646 0.239551 29.8032 0.463561 30.2005 0.861232C30.5977 1.2589 30.8211 1.79781 30.8217 2.35988V31.4959C30.8211 32.058 30.5977 32.5969 30.2005 32.9945C29.8032 33.3922 29.2646 33.6162 28.7025 33.6175ZM13.7481 0.715882C13.3129 0.717152 12.896 0.890919 12.5887 1.19909C12.2815 1.50726 12.1089 1.9247 12.1089 2.35988V31.4959C12.1095 31.9306 12.2824 32.3475 12.5896 32.6551C12.8968 32.9628 13.3133 33.1362 13.7481 33.1375H28.7025C29.1375 33.1368 29.5544 32.9636 29.8617 32.6558C30.1691 32.348 30.3417 31.9308 30.3417 31.4959V2.35988C30.3417 1.92492 30.1691 1.50773 29.8617 1.19994C29.5544 0.892152 29.1375 0.718917 28.7025 0.718281L13.7481 0.715882Z" fill="#002446"/>
<path d="M28.4978 4.10474H13.9562C13.4127 4.10474 12.9722 4.54529 12.9722 5.08874V28.1911C12.9722 28.7346 13.4127 29.1751 13.9562 29.1751H28.4978C29.0412 29.1751 29.4818 28.7346 29.4818 28.1911V5.08874C29.4818 4.54529 29.0412 4.10474 28.4978 4.10474Z" fill="#0060BB"/>
<path d="M28.4971 29.4151H13.9579C13.6335 29.4145 13.3225 29.2853 13.0931 29.0559C12.8637 28.8265 12.7345 28.5156 12.7339 28.1911V5.08635C12.7345 4.76214 12.8638 4.45142 13.0932 4.2224C13.3227 3.99337 13.6337 3.86475 13.9579 3.86475H28.5019C28.8259 3.86475 29.1366 3.99345 29.3657 4.22255C29.5948 4.45164 29.7235 4.76236 29.7235 5.08635V28.1911C29.7235 28.3521 29.6918 28.5114 29.6301 28.6601C29.5684 28.8088 29.4781 28.9438 29.3641 29.0575C29.2502 29.1712 29.115 29.2613 28.9662 29.3227C28.8175 29.384 28.658 29.4155 28.4971 29.4151ZM13.9579 4.34475C13.8603 4.34443 13.7636 4.36338 13.6734 4.40051C13.5831 4.43763 13.5011 4.49221 13.4319 4.56111C13.3628 4.63 13.308 4.71186 13.2706 4.80199C13.2332 4.89213 13.2139 4.98876 13.2139 5.08635V28.1911C13.2139 28.3885 13.2923 28.5777 13.4318 28.7172C13.5713 28.8568 13.7606 28.9351 13.9579 28.9351H28.5019C28.6988 28.9345 28.8874 28.8558 29.0264 28.7164C29.1654 28.5769 29.2435 28.388 29.2435 28.1911V5.08635C29.2435 4.88966 29.1654 4.70103 29.0263 4.56196C28.8872 4.42288 28.6986 4.34475 28.5019 4.34475H13.9579Z" fill="#002446"/>
<path d="M18.2321 2.77985C18.3991 2.77985 18.5345 2.64446 18.5345 2.47745C18.5345 2.31044 18.3991 2.17505 18.2321 2.17505C18.0651 2.17505 17.9297 2.31044 17.9297 2.47745C17.9297 2.64446 18.0651 2.77985 18.2321 2.77985Z" fill="#002446"/>
<path d="M24.5188 2.71755H19.6804C19.6168 2.71755 19.5557 2.69226 19.5107 2.64725C19.4657 2.60225 19.4404 2.5412 19.4404 2.47755C19.4404 2.4139 19.4657 2.35285 19.5107 2.30784C19.5557 2.26283 19.6168 2.23755 19.6804 2.23755H24.5188C24.5825 2.23755 24.6435 2.26283 24.6885 2.30784C24.7335 2.35285 24.7588 2.4139 24.7588 2.47755C24.7588 2.5412 24.7335 2.60225 24.6885 2.64725C24.6435 2.69226 24.5825 2.71755 24.5188 2.71755Z" fill="#002446"/>
<path d="M21.2253 32.2279C21.8138 32.2279 22.2909 31.7508 22.2909 31.1623C22.2909 30.5738 21.8138 30.0967 21.2253 30.0967C20.6368 30.0967 20.1597 30.5738 20.1597 31.1623C20.1597 31.7508 20.6368 32.2279 21.2253 32.2279Z" fill="white"/>
<path d="M21.2279 32.4678C20.969 32.4683 20.7158 32.3919 20.5003 32.2484C20.2848 32.1048 20.1168 31.9006 20.0175 31.6615C19.9182 31.4224 19.8921 31.1592 19.9425 30.9052C19.9929 30.6513 20.1175 30.418 20.3006 30.2349C20.4837 30.0518 20.7169 29.9272 20.9709 29.8768C21.2248 29.8264 21.488 29.8525 21.7271 29.9518C21.9662 30.0511 22.1705 30.2191 22.314 30.4346C22.4576 30.6501 22.534 30.9033 22.5335 31.1622C22.5328 31.5083 22.3951 31.84 22.1504 32.0847C21.9057 32.3294 21.574 32.4672 21.2279 32.4678ZM21.2279 30.3342C21.064 30.3337 20.9037 30.3819 20.7672 30.4726C20.6307 30.5633 20.5242 30.6924 20.4612 30.8437C20.3982 30.9949 20.3814 31.1615 20.4131 31.3223C20.4448 31.483 20.5234 31.6308 20.6391 31.7468C20.7548 31.8629 20.9024 31.942 21.0631 31.9741C21.2237 32.0063 21.3903 31.99 21.5418 31.9274C21.6932 31.8648 21.8227 31.7587 21.9138 31.6225C22.0049 31.4862 22.0535 31.3261 22.0535 31.1622C22.0529 30.9432 21.9657 30.7333 21.8111 30.5783C21.6565 30.4232 21.4469 30.3355 21.2279 30.3342Z" fill="#DFEAEF"/>
<path d="M31.3702 13.2247H28.435C27.7603 13.2247 27.2134 13.7717 27.2134 14.4463V15.2095C27.2134 15.8842 27.7603 16.4311 28.435 16.4311H31.3702C32.0448 16.4311 32.5918 15.8842 32.5918 15.2095V14.4463C32.5918 13.7717 32.0448 13.2247 31.3702 13.2247Z" fill="#FFC9B0"/>
<path d="M31.3666 16.6713H28.4338C28.0461 16.6713 27.6744 16.5173 27.4003 16.2432C27.1262 15.9691 26.9722 15.5973 26.9722 15.2097V14.4465C26.9722 14.0588 27.1262 13.6871 27.4003 13.413C27.6744 13.1389 28.0461 12.9849 28.4338 12.9849H31.3666C31.7544 12.9849 32.1265 13.1388 32.4009 13.4128C32.6754 13.6868 32.8299 14.0586 32.8306 14.4465V15.2097C32.8299 15.5975 32.6754 15.9693 32.4009 16.2433C32.1265 16.5174 31.7544 16.6713 31.3666 16.6713ZM28.4338 13.4649C28.1734 13.4649 27.9238 13.5683 27.7397 13.7524C27.5556 13.9365 27.4522 14.1861 27.4522 14.4465V15.2097C27.4528 15.4698 27.5564 15.7191 27.7404 15.9031C27.9243 16.087 28.1736 16.1906 28.4338 16.1913H31.3666C31.6271 16.1913 31.8771 16.0879 32.0615 15.9039C32.246 15.7199 32.3499 15.4702 32.3506 15.2097V14.4465C32.3499 14.1859 32.246 13.9362 32.0615 13.7522C31.8771 13.5682 31.6271 13.4649 31.3666 13.4649H28.4338Z" fill="#002446"/>
<path d="M32.0782 16.9279H28.5238C27.8001 16.9279 27.2134 17.5145 27.2134 18.2383V18.8239C27.2134 19.5476 27.8001 20.1343 28.5238 20.1343H32.0782C32.8019 20.1343 33.3886 19.5476 33.3886 18.8239V18.2383C33.3886 17.5145 32.8019 16.9279 32.0782 16.9279Z" fill="#FFC9B0"/>
<path d="M32.0794 20.3744H28.5226C28.1116 20.3738 27.7176 20.2102 27.427 19.9196C27.1364 19.629 26.9728 19.235 26.9722 18.824V18.236C26.9728 17.8252 27.1364 17.4315 27.4271 17.1412C27.7178 16.851 28.1118 16.688 28.5226 16.688H32.0794C32.4899 16.688 32.8837 16.8511 33.174 17.1414C33.4643 17.4317 33.6274 17.8254 33.6274 18.236V18.824C33.6274 19.2348 33.4644 19.6288 33.1741 19.9194C32.8839 20.2101 32.4902 20.3738 32.0794 20.3744ZM28.5226 17.168C28.2391 17.168 27.9672 17.2804 27.7665 17.4807C27.5659 17.6809 27.4528 17.9525 27.4522 18.236V18.824C27.4522 19.1079 27.5649 19.3801 27.7657 19.5809C27.9664 19.7816 28.2387 19.8944 28.5226 19.8944H32.0794C32.2205 19.8953 32.3605 19.8684 32.4912 19.815C32.6219 19.7616 32.7408 19.6829 32.8409 19.5834C32.9411 19.4839 33.0206 19.3656 33.0748 19.2353C33.1291 19.1049 33.157 18.9652 33.157 18.824V18.236C33.1563 17.9529 33.0436 17.6817 32.8435 17.4815C32.6433 17.2813 32.372 17.1686 32.089 17.168H28.5226Z" fill="#002446"/>
<path d="M32.0782 20.6287H28.5238C27.8001 20.6287 27.2134 21.2153 27.2134 21.9391V22.5247C27.2134 23.2484 27.8001 23.8351 28.5238 23.8351H32.0782C32.8019 23.8351 33.3886 23.2484 33.3886 22.5247V21.9391C33.3886 21.2153 32.8019 20.6287 32.0782 20.6287Z" fill="#FFC9B0"/>
<path d="M32.0794 24.0775H28.5226C28.1116 24.0768 27.7176 23.9133 27.427 23.6227C27.1364 23.3321 26.9728 22.9381 26.9722 22.5271V21.9391C26.9728 21.5281 27.1364 21.1341 27.427 20.8435C27.7176 20.5529 28.1116 20.3893 28.5226 20.3887H32.0794C32.4902 20.3893 32.8839 20.5529 33.1741 20.8436C33.4644 21.1343 33.6274 21.5283 33.6274 21.9391V22.5199C33.6283 22.7239 33.589 22.9261 33.5117 23.1148C33.4343 23.3036 33.3205 23.4753 33.1767 23.62C33.0329 23.7647 32.8619 23.8796 32.6736 23.9581C32.4853 24.0366 32.2834 24.0772 32.0794 24.0775ZM28.5226 20.8687C28.2387 20.8687 27.9664 20.9814 27.7657 21.1822C27.5649 21.3829 27.4522 21.6552 27.4522 21.9391V22.5199C27.4522 22.8038 27.5649 23.076 27.7657 23.2768C27.9664 23.4775 28.2387 23.5903 28.5226 23.5903H32.0794C32.2205 23.5912 32.3605 23.5642 32.4912 23.5109C32.6219 23.4575 32.7408 23.3788 32.8409 23.2793C32.9411 23.1798 33.0206 23.0615 33.0748 22.9312C33.1291 22.8008 33.157 22.6611 33.157 22.5199V21.9319C33.157 21.6484 33.0445 21.3765 32.8443 21.1758C32.6441 20.9752 32.3725 20.8621 32.089 20.8615L28.5226 20.8687Z" fill="#002446"/>
<path d="M31.3702 24.3318H28.435C27.7603 24.3318 27.2134 24.8787 27.2134 25.5534V26.3166C27.2134 26.9913 27.7603 27.5382 28.435 27.5382H31.3702C32.0448 27.5382 32.5918 26.9913 32.5918 26.3166V25.5534C32.5918 24.8787 32.0448 24.3318 31.3702 24.3318Z" fill="#FFC9B0"/>
<path d="M31.3666 27.7782H28.4338C28.0461 27.7782 27.6744 27.6242 27.4003 27.3501C27.1262 27.076 26.9722 26.7042 26.9722 26.3166V25.5534C26.9722 25.1658 27.1262 24.794 27.4003 24.5199C27.6744 24.2458 28.0461 24.0918 28.4338 24.0918H31.3666C31.7544 24.0918 32.1265 24.2457 32.4009 24.5197C32.6754 24.7938 32.8299 25.1655 32.8306 25.5534V26.3166C32.8299 26.7045 32.6754 27.0762 32.4009 27.3502C32.1265 27.6243 31.7544 27.7782 31.3666 27.7782ZM28.4338 24.5718C28.1736 24.5724 27.9243 24.6761 27.7404 24.86C27.5564 25.0439 27.4528 25.2933 27.4522 25.5534V26.3166C27.4522 26.5769 27.5556 26.8266 27.7397 27.0107C27.9238 27.1948 28.1734 27.2982 28.4338 27.2982H31.3666C31.6271 27.2982 31.8771 27.1949 32.0615 27.0108C32.246 26.8268 32.3499 26.5772 32.3506 26.3166V25.5534C32.3499 25.2928 32.246 25.0432 32.0615 24.8592C31.8771 24.6751 31.6271 24.5718 31.3666 24.5718H28.4338Z" fill="#002446"/>
<path d="M10.7238 22.6111C10.7238 22.6111 15.3006 16.8319 16.2006 14.4175C16.7094 13.0471 15.1062 12.1543 14.6094 12.1975C12.8742 12.3535 10.1982 16.3375 10.1982 16.3375" fill="#FFC9B0"/>
<path d="M10.7252 22.851C10.68 22.8513 10.6357 22.8388 10.5973 22.8149C10.5589 22.7911 10.528 22.7569 10.5082 22.7162C10.4884 22.6756 10.4805 22.6302 10.4853 22.5853C10.4902 22.5404 10.5076 22.4977 10.5356 22.4622C10.5812 22.4046 15.0956 16.6854 15.9764 14.3334C16.0568 14.1351 16.0816 13.9185 16.0482 13.7071C16.0148 13.4957 15.9244 13.2974 15.7868 13.1334C15.4292 12.6534 14.8268 12.4134 14.6324 12.4278C13.3028 12.5478 11.126 15.3798 10.3988 16.4622C10.3633 16.5145 10.3086 16.5506 10.2465 16.5627C10.1845 16.5748 10.1203 16.562 10.0676 16.527C10.0413 16.5096 10.0186 16.4871 10.0009 16.4609C9.98324 16.4347 9.97093 16.4052 9.96469 16.3742C9.95844 16.3432 9.95838 16.3113 9.96452 16.2803C9.97065 16.2492 9.98286 16.2197 10.0004 16.1934C10.1132 16.0278 12.7604 12.1134 14.5892 11.9502C14.9828 11.9142 15.734 12.2718 16.1684 12.8406C16.354 13.0678 16.4757 13.3403 16.5208 13.6302C16.566 13.92 16.533 14.2166 16.4252 14.4894C15.5252 16.9134 11.0996 22.515 10.9052 22.7502C10.8846 22.7794 10.8578 22.8035 10.8266 22.821C10.7955 22.8384 10.7608 22.8487 10.7252 22.851Z" fill="#002446"/>
<path d="M25.088 41.3432L8.93359 37.8272L9.80479 34.7L25.7792 38.0336L25.088 41.3432Z" fill="white"/>
<path d="M25.0914 41.5831C25.0747 41.5855 25.0577 41.5855 25.041 41.5831L8.8866 38.0647C8.85454 38.0586 8.82419 38.0455 8.79767 38.0264C8.77115 38.0074 8.74909 37.9828 8.733 37.9543C8.71616 37.9266 8.70513 37.8956 8.70059 37.8635C8.69606 37.8313 8.6981 37.7985 8.7066 37.7671L9.5778 34.6471C9.59418 34.5884 9.63233 34.538 9.68449 34.5064C9.73665 34.4747 9.79891 34.4641 9.8586 34.4767L25.833 37.8103C25.8951 37.8234 25.9494 37.8605 25.9842 37.9135C26.0187 37.9667 26.0308 38.0315 26.0178 38.0935L25.3266 41.4056C25.3135 41.4676 25.2764 41.522 25.2234 41.5568C25.1828 41.578 25.137 41.5871 25.0914 41.5831ZM9.237 37.6399L24.9066 41.0528L25.4994 38.2135L9.981 34.9759L9.237 37.6399Z" fill="#002446"/>
<path d="M26.2386 45.5214L26.5962 41.343L7.33858 37.5798L4.60498 45.5214H26.2386Z" fill="#0060BB"/>
<path d="M26.2435 45.764H4.60028C4.5618 45.7642 4.52383 45.7551 4.48958 45.7376C4.45533 45.72 4.4258 45.6945 4.40348 45.6631C4.38119 45.6319 4.36673 45.5958 4.3613 45.5577C4.35587 45.5197 4.35964 45.481 4.37228 45.4448L7.10588 37.5008C7.12501 37.4461 7.16324 37.4003 7.21351 37.3716C7.26379 37.3429 7.32273 37.3334 7.37948 37.3448L26.6371 41.108C26.6956 41.119 26.7478 41.1514 26.7838 41.1989C26.8197 41.2464 26.8367 41.3055 26.8315 41.3648L26.4715 45.5431C26.4669 45.6014 26.4412 45.656 26.3992 45.6966C26.3572 45.7373 26.3018 45.7612 26.2435 45.764ZM4.94588 45.284H26.0227L26.3443 41.5376L7.50188 37.856L4.94588 45.284Z" fill="#002446"/>
<path d="M16.3015 18.4401C16.2554 18.4405 16.2102 18.4277 16.1712 18.4031C16.1322 18.3786 16.1011 18.3433 16.0816 18.3016C16.0621 18.2598 16.0551 18.2133 16.0613 18.1676C16.0675 18.122 16.0868 18.0791 16.1167 18.0441L26.4175 5.90725C26.438 5.8833 26.463 5.86362 26.4911 5.84933C26.5192 5.83504 26.5498 5.82642 26.5812 5.82397C26.6127 5.82152 26.6443 5.82528 26.6742 5.83504C26.7042 5.8448 26.732 5.86037 26.7559 5.88085C26.7799 5.90134 26.7995 5.92634 26.8138 5.95444C26.8281 5.98253 26.8367 6.01316 26.8392 6.04459C26.8416 6.07601 26.8379 6.10761 26.8281 6.13758C26.8184 6.16755 26.8028 6.1953 26.7823 6.21926L16.4839 18.3561C16.4614 18.3824 16.4334 18.4035 16.4019 18.418C16.3704 18.4325 16.3362 18.4401 16.3015 18.4401Z" fill="white"/>
<path d="M15.8762 26.823C15.8156 26.8228 15.7573 26.7996 15.713 26.7582C15.6664 26.7152 15.6387 26.6554 15.636 26.592C15.6333 26.5285 15.6558 26.4666 15.6986 26.4198L25.0586 16.2678C25.1019 16.221 25.162 16.1933 25.2257 16.1909C25.2894 16.1884 25.3515 16.2113 25.3982 16.2546C25.445 16.2979 25.4727 16.358 25.4752 16.4217C25.4777 16.4853 25.4547 16.5474 25.4114 16.5942L16.0514 26.7462C16.0291 26.7703 16.002 26.7896 15.9718 26.8028C15.9417 26.816 15.9091 26.8229 15.8762 26.823Z" fill="white"/>
<path d="M17.3604 9.62481C17.2986 9.62456 17.2393 9.60049 17.1948 9.55761C17.1501 9.51264 17.125 9.45181 17.125 9.38841C17.125 9.325 17.1501 9.26417 17.1948 9.21921L20.37 5.88801C20.3923 5.86551 20.4188 5.84766 20.4481 5.83547C20.4773 5.82329 20.5087 5.81702 20.5404 5.81702C20.5721 5.81702 20.6034 5.82329 20.6327 5.83547C20.6619 5.84766 20.6885 5.86551 20.7108 5.88801C20.7555 5.93297 20.7806 5.9938 20.7806 6.05721C20.7806 6.12061 20.7555 6.18144 20.7108 6.22641L17.5332 9.56001C17.5101 9.58168 17.4829 9.59856 17.4533 9.60968C17.4236 9.6208 17.392 9.62594 17.3604 9.62481Z" fill="white"/>
<path d="M9.97158 42.6607C10.694 42.6607 11.2796 42.0751 11.2796 41.3527C11.2796 40.6303 10.694 40.0447 9.97158 40.0447C9.24919 40.0447 8.66357 40.6303 8.66357 41.3527C8.66357 42.0751 9.24919 42.6607 9.97158 42.6607Z" fill="#FFBC0E"/>
<path d="M9.97569 42.9007C9.66943 42.9012 9.3699 42.8108 9.11502 42.641C8.86014 42.4712 8.66135 42.2296 8.54382 41.9467C8.42629 41.6639 8.39529 41.3526 8.45475 41.0522C8.5142 40.7517 8.66145 40.4757 8.87784 40.2589C9.09424 40.0422 9.37006 39.8945 9.67041 39.8346C9.97076 39.7747 10.2821 39.8052 10.5651 39.9223C10.8481 40.0394 11.09 40.2378 11.2602 40.4924C11.4304 40.747 11.5213 41.0464 11.5213 41.3527C11.5213 41.7628 11.3585 42.1562 11.0687 42.4464C10.779 42.7367 10.3858 42.9001 9.97569 42.9007ZM9.97569 40.2871C9.76426 40.2866 9.55744 40.3489 9.38144 40.4661C9.20544 40.5832 9.06818 40.75 8.98705 40.9453C8.90592 41.1405 8.88457 41.3555 8.9257 41.5629C8.96683 41.7702 9.0686 41.9608 9.21811 42.1103C9.36762 42.2598 9.55813 42.3615 9.76553 42.4027C9.97292 42.4438 10.1879 42.4225 10.3831 42.3413C10.5784 42.2602 10.7451 42.1229 10.8623 41.9469C10.9795 41.7709 11.0418 41.5641 11.0413 41.3527C11.0422 41.2121 11.0154 41.0728 10.9623 40.9427C10.9091 40.8126 10.8308 40.6942 10.7317 40.5945C10.6327 40.4948 10.5149 40.4157 10.3852 40.3617C10.2554 40.3077 10.1162 40.2799 9.97569 40.2799V40.2871Z" fill="#002446"/>
</svg>
