<svg width="44" height="60" viewBox="0 0 44 60" fill="none" xmlns="http://www.w3.org/2000/svg">
<path d="M16.1948 13.5484H4.58191V7.74194H16.1948V13.5484Z" fill="#0060BB"/>
<path d="M28.7742 25.1612C25.0387 25.1612 22 22.1225 22 18.387C22 14.6515 25.0387 11.6128 28.7742 11.6128C32.5097 11.6128 35.5484 14.6515 35.5484 18.387C35.5484 22.1225 32.5097 25.1612 28.7742 25.1612Z" fill="#0060BB"/>
<path d="M38.4529 3.87097H35.5496V2.90323C35.5496 1.30258 34.2471 0 32.6464 0H28.7755C27.1748 0 25.8722 1.30258 25.8722 2.90323V3.87097H18.1303V2.90323C18.1303 1.30258 16.8277 0 15.2271 0H11.3561C9.75545 0 8.45287 1.30258 8.45287 2.90323V3.87097H5.54965C2.88158 3.87097 0.710938 6.04161 0.710938 8.70968V28.0645C0.710938 30.7326 2.88158 32.9032 5.54965 32.9032H18.1303V36.7742H14.2593V39.5197L8.37545 57.1703L8.65707 57.7335C9.35674 59.1319 10.7619 60 12.3248 60H12.9577L18.3809 47.6003L18.9858 57.2777C19.0816 58.8048 20.3551 60 21.8842 60H22.1184C23.6474 60 24.9209 58.8048 25.0158 57.2777L25.6206 47.6003L31.0448 60H31.6777C33.2406 60 34.6458 59.1319 35.3464 57.7326L35.6271 57.1703L29.7432 39.5197V36.7742H25.8722V32.9032H38.4529C41.1209 32.9032 43.2916 30.7326 43.2916 28.0645V8.70968C43.2916 6.04161 41.1209 3.87097 38.4529 3.87097ZM27.8077 2.90323C27.8077 2.37 28.2422 1.93548 28.7755 1.93548H32.6464C33.1796 1.93548 33.6142 2.37 33.6142 2.90323V3.87097H27.8077V2.90323ZM10.3884 2.90323C10.3884 2.37 10.8229 1.93548 11.3561 1.93548H15.2271C15.7603 1.93548 16.1948 2.37 16.1948 2.90323V3.87097H10.3884V2.90323ZM11.7277 57.9823C11.2042 57.8342 10.7542 57.4926 10.4677 57.0145L15.65 41.4687L17.9464 43.7652L11.7277 57.9823ZM22.1184 58.0645H21.8842C21.3742 58.0645 20.9503 57.6658 20.9184 57.1568L20.1277 44.5161H23.8738L23.0842 57.1577C23.0522 57.6658 22.6284 58.0645 22.1184 58.0645ZM32.2748 57.9823L26.0561 43.7661L28.3525 41.4697L33.5348 57.0145C33.2484 57.4916 32.7974 57.8332 32.2748 57.9823ZM27.8077 39.2768L24.5038 42.5806H19.4987L16.1948 39.2768V38.7097H27.8077V39.2768ZM23.9367 36.7742H20.0658V32.9032H23.9367V36.7742ZM41.3561 28.0645C41.3561 29.6652 40.0535 30.9677 38.4529 30.9677H5.54965C3.949 30.9677 2.64642 29.6652 2.64642 28.0645V8.70968C2.64642 7.10903 3.949 5.80645 5.54965 5.80645H38.4529C40.0535 5.80645 41.3561 7.10903 41.3561 8.70968V28.0645Z" fill="#002446"/>
<path d="M28.7743 15.4839C27.1737 15.4839 25.8711 16.7865 25.8711 18.3871C25.8711 19.9878 27.1737 21.2903 28.7743 21.2903C30.375 21.2903 31.6775 19.9878 31.6775 18.3871C31.6775 16.7865 30.375 15.4839 28.7743 15.4839ZM28.7743 19.3549C28.2411 19.3549 27.8066 18.9203 27.8066 18.3871C27.8066 17.8539 28.2411 17.4194 28.7743 17.4194C29.3075 17.4194 29.7421 17.8539 29.7421 18.3871C29.7421 18.9203 29.3075 19.3549 28.7743 19.3549Z" fill="#002446"/>
<path d="M7.48513 15.4839C5.88449 15.4839 4.58191 16.7865 4.58191 18.3871C4.58191 19.9878 5.88449 21.2903 7.48513 21.2903C9.08578 21.2903 10.3884 19.9878 10.3884 18.3871C10.3884 16.7865 9.08578 15.4839 7.48513 15.4839ZM7.48513 19.3549C6.95191 19.3549 6.51739 18.9203 6.51739 18.3871C6.51739 17.8539 6.95191 17.4194 7.48513 17.4194C8.01836 17.4194 8.45288 17.8539 8.45288 18.3871C8.45288 18.9203 8.01836 19.3549 7.48513 19.3549Z" fill="#002446"/>
<path d="M7.48513 23.2258C5.88449 23.2258 4.58191 24.5284 4.58191 26.1291C4.58191 27.7297 5.88449 29.0323 7.48513 29.0323C9.08578 29.0323 10.3884 27.7297 10.3884 26.1291C10.3884 24.5284 9.08578 23.2258 7.48513 23.2258ZM7.48513 27.0968C6.95191 27.0968 6.51739 26.6623 6.51739 26.1291C6.51739 25.5958 6.95191 25.1613 7.48513 25.1613C8.01836 25.1613 8.45288 25.5958 8.45288 26.1291C8.45288 26.6623 8.01836 27.0968 7.48513 27.0968Z" fill="#002446"/>
<path d="M28.7755 7.74194C22.9061 7.74194 18.1303 12.5177 18.1303 18.3871C18.1303 19.5039 18.3055 20.581 18.6258 21.5932C17.1984 22.1661 16.1948 23.5452 16.1948 25.1613C16.1948 27.2961 17.931 29.0323 20.0658 29.0323C21.3335 29.0323 22.4784 28.4197 23.1887 27.4316C24.8145 28.44 26.7248 29.0323 28.7755 29.0323C34.6448 29.0323 39.4206 24.2565 39.4206 18.3871C39.4206 12.5177 34.6448 7.74194 28.7755 7.74194ZM20.0658 27.0968C18.9984 27.0968 18.1303 26.2287 18.1303 25.1613C18.1303 24.3445 18.6461 23.6497 19.3758 23.3719C19.9574 24.4655 20.7297 25.4381 21.6393 26.2636C21.2871 26.7765 20.7093 27.0968 20.0658 27.0968ZM28.7755 27.0968C23.9735 27.0968 20.0658 23.189 20.0658 18.3871C20.0658 13.5852 23.9735 9.67743 28.7755 9.67743C33.5774 9.67743 37.4851 13.5852 37.4851 18.3871C37.4851 23.189 33.5774 27.0968 28.7755 27.0968Z" fill="#002446"/>
</svg>
