<svg width="60" height="60" viewBox="0 0 60 60" fill="none" xmlns="http://www.w3.org/2000/svg">
<path d="M22.3094 58.6407L25.1934 55.7567L23.2707 31.7236H21.3481L19.4254 55.7567L22.3094 58.6407Z" fill="#0060BB"/>
<path d="M25.1934 24.9944H19.4254V28.8397H25.1934V24.9944Z" fill="#0060BB"/>
<path d="M54.0331 34.8085V33.7232C57.4977 32.3245 59.801 28.6205 59.801 24.358C59.801 18.8785 55.9201 14.4198 51.1491 14.4198C50.3666 14.4198 49.6014 14.5467 48.8583 14.7803L48.6862 14.6083C50.1464 11.1696 49.1563 6.92056 46.1416 3.90682C42.2665 0.0317236 36.3697 -0.374916 32.9964 2.9974C32.3514 3.64245 31.8496 4.38844 31.4708 5.20941C29.9144 2.05915 26.3854 0 22.3565 0C16.876 0 12.4174 3.88182 12.4174 8.65191C12.4174 11.3686 13.8661 13.794 16.1233 15.3812H15.5802C13.4595 15.3812 11.7349 17.1058 11.7349 19.2265C11.7349 21.3471 13.4595 23.0717 15.5802 23.0717H18.3901L16.6184 46.9885C15.1697 46.6886 12.2165 45.6138 9.65073 41.7637C9.52864 41.5801 9.41809 41.3715 9.30369 41.1725C9.644 41.2177 9.992 41.258 10.3583 41.285C10.9581 41.334 11.5561 41.1187 12.0002 40.7072C12.4424 40.2967 12.6962 39.7151 12.6962 39.1143C12.6962 38.3914 12.3271 37.7127 11.7108 37.2993C8.94704 35.4411 7.70213 32.8974 7.20609 31.5477C6.82348 30.5028 5.82755 29.801 4.68165 29.801C3.82992 29.801 3.02722 30.2134 2.53502 30.9046C0.984406 33.0753 0.199005 35.6151 0.199005 38.4529C0.199005 51.724 14.4256 56.4248 19.014 56.7046L22.3094 60L25.6048 56.7046C29.1944 56.4854 38.6817 53.5611 42.6424 45.9435C43.372 50.581 46.9049 54.1129 51.1491 54.1129C55.9201 54.1129 59.801 49.6542 59.801 44.1747C59.801 39.9112 57.4977 36.2073 54.0331 34.8085ZM32.6196 40.7082C33.0637 41.1196 33.6626 41.3369 34.2625 41.2859C34.6278 41.259 34.9768 41.2186 35.3161 41.1735C35.2008 41.3725 35.0912 41.5811 34.9681 41.7647C32.4004 45.6157 29.4453 46.6895 28.0005 46.9895L26.2287 23.0717H29.0387C31.1594 23.0717 32.884 21.3471 32.884 19.2265C32.884 17.1058 31.1594 15.3812 29.0387 15.3812H28.6176C29.7856 14.5573 30.7373 13.5008 31.3833 12.2674C31.9294 13.6921 32.7801 15.0159 33.9059 16.1416C35.9996 18.2353 38.6894 19.3562 41.2888 19.3562C42.18 19.3562 43.0576 19.2159 43.8988 18.9467C42.9942 20.5492 42.4972 22.4248 42.4972 24.358C42.4972 28.6205 44.8005 32.3245 48.2651 33.7232V34.8085C46.7068 35.4372 45.386 36.5322 44.4016 37.9367C44.3112 35.3075 43.5393 32.9416 42.0838 30.9036C41.5916 30.2134 40.7889 29.801 39.8882 29.801C38.7903 29.801 37.7954 30.5028 37.4128 31.5468C36.9167 32.8974 35.6718 35.4401 32.909 37.2974C32.2918 37.7117 31.9226 38.3914 31.9226 39.1143C31.9226 39.7151 32.1764 40.2967 32.6196 40.7082ZM23.8956 11.2129C23.414 11.4099 22.8881 11.5359 22.3325 11.5359C20.3877 11.5359 18.8054 10.2419 18.8054 8.65191C18.8054 7.06188 20.3877 5.76794 22.3325 5.76794C22.8872 5.76794 23.414 5.89387 23.8946 6.09094C22.9593 6.56776 22.3094 7.531 22.3094 8.65191C22.3094 9.77281 22.9593 10.7361 23.8956 11.2129ZM25.1934 9.61323C24.6627 9.61323 24.2321 9.18159 24.2321 8.65191C24.2321 8.12222 24.6627 7.69058 25.1934 7.69058H36.7293C37.2599 7.69058 37.6906 8.12222 37.6906 8.65191C37.6906 9.18159 37.2599 9.61323 36.7293 9.61323H25.1934ZM50.8674 19.5081C51.0491 19.6898 51.1491 19.9311 51.1491 20.1878C51.1491 20.4445 51.0491 20.6857 50.8674 20.8674C50.4916 21.2423 49.884 21.2423 49.5081 20.8674L41.3513 12.7096C41.1696 12.5289 41.0696 12.2876 41.0696 12.03C41.0696 11.7724 41.1696 11.532 41.3513 11.3503C41.5388 11.1629 41.7849 11.0696 42.031 11.0696C42.2771 11.0696 42.5232 11.1638 42.7106 11.3503L50.8674 19.5081ZM52.2267 22.2277C52.4603 21.9931 52.6391 21.722 52.7785 21.4317C53.5457 22.0749 54.0331 23.1448 54.0331 24.3349C54.0331 24.8896 53.9081 25.4164 53.7101 25.898C53.2332 24.9617 52.27 24.3119 51.1491 24.3119C50.0282 24.3119 49.065 24.9617 48.5881 25.898C48.3911 25.4164 48.2651 24.8896 48.2651 24.3349C48.2651 23.7197 48.4064 23.14 48.6468 22.6199C49.1159 22.917 49.6504 23.0708 50.1878 23.0708C50.927 23.0708 51.6644 22.7891 52.2267 22.2277ZM52.1104 27.1958V38.7317C52.1104 39.2614 51.6797 39.693 51.1491 39.693C50.6185 39.693 50.1878 39.2614 50.1878 38.7317V27.1958C50.1878 26.6661 50.6185 26.2345 51.1491 26.2345C51.6797 26.2345 52.1104 26.6652 52.1104 27.1958ZM35.3296 11.5359C35.6285 12.2232 36.0631 12.8606 36.6091 13.4066C37.7233 14.5208 39.2124 15.1476 40.662 15.1476C40.787 15.1476 40.9101 15.1216 41.0341 15.112L43.1038 17.1817C40.5428 17.8864 37.4656 16.9808 35.2661 14.7823C34.3211 13.8363 33.6127 12.726 33.1637 11.5359H35.3296ZM45.659 19.7379L47.1846 21.2635C46.6424 22.1623 46.3425 23.2217 46.3425 24.3349C46.3425 26.0509 47.0712 27.6678 48.2651 28.6878V31.5958C45.958 30.2836 44.4198 27.466 44.4198 24.357C44.4198 22.692 44.8582 21.0837 45.659 19.7379ZM39.992 9.99103C39.4479 10.5361 39.147 11.26 39.147 12.031C39.147 12.3472 39.2095 12.651 39.3066 12.9423C38.824 12.7414 38.3635 12.4424 37.9684 12.0463C37.7771 11.856 37.6137 11.6464 37.4656 11.4282C38.698 11.1014 39.6132 9.98622 39.6132 8.65191C39.6132 7.95591 39.3556 7.32432 38.9432 6.82635C39.1595 6.79559 39.3825 6.78213 39.6123 6.8004C40.4967 6.86865 41.3619 7.28394 42.0473 7.96937C42.4424 8.36447 42.7404 8.82494 42.9413 9.30849C41.9377 8.97395 40.7889 9.19409 39.992 9.99103ZM49.6687 41.1936C50.1032 41.4561 50.606 41.6157 51.1491 41.6157C51.6922 41.6157 52.196 41.4561 52.6305 41.1936C53.4928 41.8339 54.0331 42.9644 54.0331 44.1978C54.0331 46.1425 52.7391 47.7249 51.1491 47.7249C49.5591 47.7249 48.2651 46.1425 48.2651 44.1978C48.2651 42.9644 48.8054 41.8348 49.6687 41.1936ZM51.1491 16.3425C54.8588 16.3425 57.8784 19.9378 57.8784 24.358C57.8784 27.4669 56.3402 30.2846 54.0331 31.5968V28.6897C55.227 27.6688 55.9557 26.0518 55.9557 24.3349C55.9557 22.0806 54.7252 20.0926 52.9131 19.2803C52.7737 18.8602 52.5488 18.4709 52.2267 18.1488L50.4637 16.3857C50.6905 16.3588 50.9193 16.3425 51.1491 16.3425ZM44.7823 5.26613C46.9808 7.46467 47.8854 10.5438 47.1817 13.1038L45.1255 11.0475C45.2485 9.48057 44.6208 7.82325 43.4066 6.60909C42.3963 5.59971 41.1023 4.98638 39.7603 4.88256C38.5837 4.79027 37.505 5.11808 36.6379 5.76794H33.3348C33.604 5.24978 33.9395 4.77393 34.3567 4.35671C36.9811 1.73326 41.658 2.14279 44.7823 5.26613ZM14.3401 8.65191C14.3401 4.9412 17.9364 1.92265 22.3565 1.92265C25.4654 1.92265 28.2821 3.46076 29.5953 5.76794H26.6863C25.6654 4.57397 24.0494 3.84529 22.3335 3.84529C19.3284 3.84529 16.8837 6.00154 16.8837 8.65191C16.8837 11.3023 19.3284 13.4585 22.3335 13.4585C24.0494 13.4585 25.6664 12.7308 26.6873 11.5359H29.5953C28.2821 13.843 25.4654 15.3812 22.3565 15.3812C17.9364 15.3812 14.3401 12.3626 14.3401 8.65191ZM13.6575 19.2265C13.6575 18.1661 14.5198 17.3038 15.5802 17.3038H29.0387C30.099 17.3038 30.9613 18.1661 30.9613 19.2265C30.9613 20.2868 30.099 21.1491 29.0387 21.1491H15.5802C14.5198 21.1491 13.6575 20.2868 13.6575 19.2265ZM25.1934 54.7954H24.7954L22.3094 57.2814L19.8234 54.7954H19.4255C17.3701 54.7954 2.12165 51.3442 2.12165 38.4529C2.12165 36.0236 2.78689 33.8597 4.09909 32.0217C4.23368 31.8323 4.44709 31.7237 4.73068 31.7237C5.03061 31.7237 5.29305 31.914 5.40168 32.2101C5.97752 33.779 7.42431 36.7341 10.639 38.8961C10.7236 38.9518 10.7736 39.0336 10.7736 39.1143C10.7736 39.2095 10.7216 39.272 10.6909 39.2998C10.6601 39.3277 10.5899 39.3787 10.4996 39.3691C6.8129 39.096 4.59609 37.6656 4.57783 37.6531L3.51172 39.2527C3.58382 39.3008 4.79317 40.0929 6.90808 40.6861C7.24934 41.4628 7.62522 42.1925 8.05205 42.8308C12.1348 48.9573 17.2856 49.0275 17.5028 49.0275H18.3959L20.3185 23.0717H24.3013L26.2239 49.0275H27.116C27.3333 49.0275 32.4841 48.9573 36.5678 42.8317C36.9936 42.1925 37.3705 41.4628 37.7117 40.6861C39.8266 40.0929 41.036 39.3008 41.1081 39.2527L40.042 37.6531C40.0208 37.6675 37.8434 39.0932 34.1212 39.3691C34.0164 39.3787 33.9597 39.3277 33.9289 39.2998C33.8972 39.271 33.8453 39.2085 33.8453 39.1143C33.8453 39.0345 33.8953 38.9528 33.9808 38.8951C37.1955 36.7341 38.6423 33.779 39.2172 32.2101C39.3258 31.914 39.5892 31.7237 39.9372 31.7237C40.1718 31.7237 40.3852 31.8323 40.5198 32.0217C41.832 33.8597 42.4972 36.0236 42.4972 38.4529C42.4972 51.3442 27.2487 54.7954 25.1934 54.7954ZM51.1491 52.1902C47.4394 52.1902 44.4198 48.5949 44.4198 44.1747C44.4198 41.0658 45.958 38.2481 48.2651 36.9359V38.7307C48.2651 39.073 48.3353 39.3979 48.4459 39.7026C47.1462 40.7111 46.3425 42.3972 46.3425 44.1978C46.3425 47.2029 48.4987 49.6475 51.1491 49.6475C53.7995 49.6475 55.9557 47.2029 55.9557 44.1978C55.9557 42.3982 55.153 40.7111 53.8523 39.7036C53.9629 39.3979 54.0331 39.0739 54.0331 38.7317V36.9359C56.3402 38.2481 57.8784 41.0658 57.8784 44.1747C57.8784 48.5939 54.8588 52.1902 51.1491 52.1902Z" fill="#002446"/>
</svg>
