<svg width="60" height="60" viewBox="0 0 60 60" fill="none" xmlns="http://www.w3.org/2000/svg">
<path d="M38.5735 15.6075L41.1816 21.2597C41.4038 21.7416 41.7225 22.1578 42.105 22.4953C42.1332 22.4953 42.1594 22.5 42.1875 22.5C46.8404 22.5 50.625 18.7144 50.625 14.0625C50.625 9.41062 46.8404 5.625 42.1875 5.625C38.4816 5.625 35.175 8.09531 34.1129 11.6409C36.0516 12.2822 37.6885 13.6894 38.5735 15.6075Z" fill="#0060BB"/>
<path d="M57.0694 57.1875L53.1497 28.1831C52.9125 26.4281 51.9797 24.9113 50.6578 23.8856C50.9512 23.7563 51.2259 23.5847 51.4678 23.3428C52.3331 22.4775 52.3594 21.2062 52.3838 20.085C52.3978 19.4466 52.4109 18.7866 52.5844 18.3684C52.7438 17.985 53.1862 17.5284 53.6147 17.0869C54.4097 16.2666 55.3125 15.3366 55.3125 14.0625C55.3125 12.7884 54.4097 11.8584 53.6138 11.0372C53.1853 10.5956 52.7428 10.1391 52.5834 9.75562C52.41 9.33844 52.3969 8.67844 52.3828 8.04C52.3594 6.91781 52.3322 5.64656 51.4669 4.78125C50.6016 3.91594 49.3303 3.88875 48.2072 3.86531C47.5688 3.85219 46.9087 3.83812 46.4925 3.66563C46.1091 3.50719 45.6525 3.06469 45.2119 2.63625C44.3934 1.84031 43.4616 0.9375 42.1875 0.9375C40.9134 0.9375 39.9825 1.84031 39.1613 2.63719C38.7197 3.06562 38.2641 3.50719 37.8816 3.66656C37.4644 3.84 36.8034 3.85406 36.165 3.86719C35.0438 3.89062 33.7716 3.91688 32.9062 4.78313C32.0409 5.64844 32.0147 6.91969 31.9903 8.04094C31.9763 8.67937 31.9631 9.33937 31.7897 9.7575C31.7156 9.93563 31.5741 10.1297 31.4222 10.3144H16.0294C11.7609 10.3144 8.16 13.5094 7.65094 17.7469L2.91844 57.1875H0.9375V59.0625H59.0625V57.1875H57.0694ZM33.8662 8.07938C33.8831 7.27406 33.9 6.43969 34.2328 6.10781C34.5656 5.77594 35.3991 5.75813 36.2053 5.74125C37.0172 5.72438 37.8572 5.70656 38.6006 5.39812C39.315 5.10187 39.9009 4.53281 40.4681 3.9825C41.0606 3.40688 41.6728 2.8125 42.1875 2.8125C42.7022 2.8125 43.3153 3.40781 43.9078 3.98344C44.475 4.53375 45.0609 5.10281 45.7753 5.39906C46.5187 5.7075 47.3578 5.72438 48.1706 5.74125C48.9759 5.75813 49.8103 5.77594 50.1431 6.10781C50.4759 6.43969 50.4928 7.27406 50.5097 8.08031C50.5275 8.89219 50.5444 9.73219 50.8528 10.4747C51.1481 11.1891 51.7181 11.7759 52.2694 12.3441C52.8431 12.9356 53.4375 13.5487 53.4375 14.0625C53.4375 14.5763 52.8431 15.1894 52.2684 15.7819C51.7172 16.3491 51.1481 16.9369 50.8519 17.6503C50.5434 18.3937 50.5256 19.2337 50.5088 20.0456C50.4919 20.8509 50.475 21.6853 50.1422 22.0172C49.8094 22.35 48.9759 22.3678 48.1697 22.3856C47.6644 22.3959 47.1459 22.4166 46.6434 22.5H44.5875C43.4944 22.5 42.4922 21.8587 42.0337 20.8659L39.4247 15.2138C38.2988 12.7744 36.0713 11.0625 33.5025 10.5159C33.5091 10.5019 33.5175 10.4887 33.5241 10.4738C33.8316 9.73031 33.8484 8.89125 33.8662 8.07938ZM9.51281 17.9681C9.90844 14.6728 12.7097 12.1875 16.0294 12.1875H31.7634C34.3144 12.1875 36.6534 13.6838 37.7212 15.9994L40.3303 21.6516C41.0944 23.3062 42.7641 24.375 44.5875 24.375H46.6463C48.9816 24.375 50.9784 26.1206 51.2916 28.4344L55.1775 57.1875H51.3234L49.1128 49.8169C48.7819 48.7144 47.8359 47.9522 46.7119 47.8359L44.3466 36.0112C44.0841 34.7016 42.9244 33.75 41.5875 33.75H37.4016L36.5887 26.4338C37.1456 25.92 37.5 25.1906 37.5 24.375C37.5 22.8244 36.2381 21.5625 34.6875 21.5625H15.9375C14.3869 21.5625 13.125 22.8244 13.125 24.375C13.125 25.5788 13.8891 26.5997 14.9541 27.0009L14.0831 41.8041C12.84 42.4613 11.9137 43.6556 11.655 45.1237L9.52594 57.1875H4.80656L9.51281 17.9681ZM20.5716 41.25L19.7437 27.1875H31.875V38.325L31.6762 39.12C31.3622 40.3734 30.24 41.25 28.9472 41.25H20.5716ZM33.75 27.1875H34.6875C34.7203 27.1875 34.7513 27.1791 34.785 27.1781L35.5153 33.75H35.2144C34.6809 33.75 34.1813 33.9056 33.75 34.1691V27.1875ZM34.6875 25.3125H15.9375C15.42 25.3125 15 24.8916 15 24.375C15 23.8584 15.42 23.4375 15.9375 23.4375H34.6875C35.205 23.4375 35.625 23.8584 35.625 24.375C35.625 24.8916 35.205 25.3125 34.6875 25.3125ZM16.8216 27.1875H17.8669L18.6938 41.25H16.2713C16.1766 41.25 16.0866 41.2687 15.9928 41.2744L16.8216 27.1875ZM16.2703 43.125H28.9462C31.1016 43.125 32.9709 41.6653 33.4941 39.5738L34.3031 36.3347C34.4091 35.9175 34.7831 35.625 35.2144 35.625H41.5884C42.0347 35.625 42.4209 35.9419 42.5072 36.3787L44.7937 47.8125H37.1625C35.8256 47.8125 34.6659 48.7641 34.4053 50.0737L32.9813 57.1875H11.43L13.5019 45.4491C13.7391 44.1019 14.9034 43.125 16.2703 43.125ZM36.2428 50.4412C36.33 50.0044 36.7162 49.6875 37.1625 49.6875H46.4175C46.8347 49.6875 47.1956 49.9566 47.3156 50.355L49.365 57.1875H34.8938L36.2428 50.4412Z" fill="#002446"/>
<path d="M49.6875 45H51.5625V46.875H49.6875V45Z" fill="#002446"/>
<path d="M45.9375 34.6875H47.8125V36.5625H45.9375V34.6875Z" fill="#002446"/>
<path d="M47.8125 30H49.6875V31.875H47.8125V30Z" fill="#002446"/>
<path d="M39.375 26.25H41.25V28.125H39.375V26.25Z" fill="#002446"/>
<path d="M30.9375 14.0625H32.8125V15.9375H30.9375V14.0625Z" fill="#002446"/>
<path d="M23.4375 16.875H25.3125V18.75H23.4375V16.875Z" fill="#002446"/>
<path d="M13.125 15H15V16.875H13.125V15Z" fill="#002446"/>
<path d="M10.3125 31.875H12.1875V33.75H10.3125V31.875Z" fill="#002446"/>
<path d="M9.375 41.25H11.25V43.125H9.375V41.25Z" fill="#002446"/>
<path d="M17.8125 46.875H19.6875V48.75H17.8125V46.875Z" fill="#002446"/>
<path d="M26.25 45H28.125V46.875H26.25V45Z" fill="#002446"/>
<path d="M36.5625 39.375H38.4375V41.25H36.5625V39.375Z" fill="#002446"/>
<path d="M30 51.5625H31.875V53.4375H30V51.5625Z" fill="#002446"/>
<path d="M21.5625 53.4375H23.4375V55.3125H21.5625V53.4375Z" fill="#002446"/>
<path d="M39.375 52.5H41.25V54.375H39.375V52.5Z" fill="#002446"/>
</svg>
