<svg width="60" height="60" viewBox="0 0 60 60" fill="none" xmlns="http://www.w3.org/2000/svg">
<path d="M27.6667 18.9L35.0942 21.3765C36.6755 21.9029 37.7419 23.3816 37.7419 25.0481V30.9678L35.4396 28.6655C35.0555 28.2804 34.5329 28.0645 33.988 28.0645C32.8548 28.0645 31.9355 28.9839 31.9355 30.1171C31.9355 30.662 32.1522 31.1836 32.5364 31.5687L36.6077 35.64C37.3335 36.3658 37.7419 37.351 37.7419 38.3768V41.8229H37.7564C38.0226 41.6903 38.3158 41.6129 38.6206 41.6129H44.6061C44.9109 41.6129 45.2042 41.6903 45.4703 41.8239H45.4838V35.4745C45.4838 34.4478 45.8913 33.4636 46.618 32.7378L53.5926 25.7633C53.9777 25.3781 54.1935 24.8565 54.1935 24.3116C54.1935 23.1774 53.2742 22.2581 52.1409 22.2581C51.5961 22.2581 51.0745 22.4739 50.6893 22.8591L45.4838 28.0645V23.3623C45.4838 22.0684 46.1303 20.8597 47.2074 20.1416L48.7045 19.1439C50.3196 18.0658 51.2903 16.2533 51.2903 14.312V6.77422C51.2903 5.70487 50.4242 4.83874 49.3548 4.83874C48.2855 4.83874 47.4193 5.70487 47.4193 6.77422V12.5807C47.4193 13.65 46.5532 14.5162 45.4838 14.5162C44.4145 14.5162 43.5484 13.65 43.5484 12.5807V2.90326C43.5484 1.8339 42.6822 0.967773 41.6129 0.967773C40.5435 0.967773 39.6774 1.8339 39.6774 2.90326V6.77422C39.6774 7.84358 38.8113 8.70971 37.7419 8.70971C36.6726 8.70971 35.8064 7.84358 35.8064 6.77422V4.83874C35.8064 3.76939 34.9403 2.90326 33.8709 2.90326C32.8016 2.90326 31.9355 3.76939 31.9355 4.83874V6.45971C31.9355 8.95939 33.5351 11.1774 35.9061 11.9681L36.4393 12.1462C37.2174 12.4055 37.7419 13.1342 37.7419 13.9539C37.7419 15.3329 36.6232 16.4516 35.2442 16.4516C34.9761 16.4516 34.709 16.4081 34.4545 16.3239L29.6526 14.7233C29.2413 14.5858 28.8116 14.5162 28.379 14.5162C27.1364 14.5162 26.129 15.5236 26.129 16.7662C26.129 17.7339 26.7484 18.5933 27.6667 18.9Z" fill="#0060BB"/>
<path d="M42.5819 54.1933C41.5145 54.1933 40.6464 53.3252 40.6464 52.2578H38.7109C38.7109 54.3927 40.4471 56.1288 42.5819 56.1288H46.4529V54.1933H42.5819Z" fill="#002446"/>
<path d="M9.67578 52.2578H11.6113V54.1933H9.67578V52.2578Z" fill="#002446"/>
<path d="M13.5469 50.3223H15.4824V52.2578H13.5469V50.3223Z" fill="#002446"/>
<path d="M17.418 54.1934H19.3535V56.1289H17.418V54.1934Z" fill="#002446"/>
<path d="M46.7913 41.6361C46.2387 41.0071 45.4432 40.6452 44.6061 40.6452H38.6197C37.7826 40.6452 36.9861 41.0071 36.4345 41.6361L25.9519 53.6158L22.5455 50.2094L30.329 38.9671C30.7471 38.3632 30.9677 37.6568 30.9677 36.8932C30.9677 35.9342 30.5932 35.0313 29.9148 34.3529L27.4781 31.9152L28.8542 27.7868C28.9723 27.4365 29.0323 27.0678 29.0323 26.6942C29.0323 25.38 28.3016 24.1974 27.1258 23.61L23.0923 21.5932C22.6955 21.3949 22.2523 21.2903 21.809 21.2903C20.489 21.2903 19.3432 22.1845 19.0239 23.4649L17.4919 29.5936L15.7926 21.6658C15.7548 21.4897 15.6997 21.3203 15.631 21.1578C15.8932 21.2361 16.1652 21.2903 16.4516 21.2903C18.0523 21.2903 19.3548 19.9878 19.3548 18.3871C19.3548 16.7865 18.0523 15.4839 16.4516 15.4839C14.851 15.4839 13.5484 16.7865 13.5484 18.3871C13.5484 18.7771 13.6277 19.1478 13.7681 19.4874C13.501 19.4061 13.2232 19.3549 12.9348 19.3549C12.5836 19.3549 12.2381 19.4168 11.9081 19.5407L5.91775 21.7878C4.69356 22.2465 3.87098 23.4329 3.87098 24.7403C3.87098 25.1439 3.94646 25.5368 4.09549 25.9113L7.27065 33.8487L3.83227 35.3236C2.68065 35.8171 1.93549 36.9465 1.93549 38.1997C1.93549 38.6816 2.04872 39.1655 2.26549 39.599L7.20968 49.4865L0.683233 56.0129C0.249685 56.4474 7.62939e-06 57.0494 7.62939e-06 57.6639C7.62939e-06 58.952 1.04807 60 2.33614 60H57.6252C58.9345 60 60 58.9345 60 57.6252C60 57.0503 59.7919 56.4958 59.4136 56.0613L46.7913 41.6361ZM29.0323 36.9223C29.0323 37.261 28.9307 37.5871 28.7371 37.8658L21.1548 48.8187L19.6384 47.3023C19.5503 47.2142 19.4516 47.1436 19.3548 47.069V40.9384L24.3939 33.3803C24.7519 32.8423 25.5861 32.762 26.0419 33.2178L28.5465 35.7223C28.859 36.0349 29.0323 36.452 29.0323 36.9223ZM16.5532 37.8049C16.9297 37.6161 17.4194 37.9181 17.4194 38.34V46.4516H11.6129V40.6452C11.6129 40.4168 11.7397 40.2126 11.9439 40.11L16.5532 37.8049ZM20.9013 23.9342C21.0416 23.3768 21.7123 23.0671 22.2271 23.3245L26.2607 25.3413C26.7765 25.5997 27.0968 26.1174 27.0968 26.6942C27.0968 26.8578 27.0716 27.0174 27.0194 27.1723L25.74 31.0123C25.589 30.989 25.439 30.9678 25.2842 30.9678C24.2768 30.9678 23.3419 31.4681 22.7836 32.3061L19.2387 37.6229C19.0297 36.9203 18.5313 36.3455 17.8742 36.0426L20.9013 23.9342ZM16.4516 17.4194C16.9858 17.4194 17.4194 17.8539 17.4194 18.3871C17.4194 18.9203 16.9858 19.3549 16.4516 19.3549C15.9174 19.3549 15.4839 18.9203 15.4839 18.3871C15.4839 17.8539 15.9174 17.4194 16.4516 17.4194ZM5.80646 24.7403C5.80646 24.2361 6.12388 23.7774 6.5971 23.6003L12.5884 21.3532C13.1303 21.151 13.7777 21.5023 13.8997 22.0713L16.4255 33.8555L15.8894 36.001C15.8226 36.0271 15.751 36.0416 15.6871 36.0745L13.8939 36.9707L13.0626 34.89C12.5797 33.6832 11.4271 32.9032 10.1274 32.9032C9.75968 32.9032 9.40356 32.9797 9.05807 33.1036L5.89356 25.1932C5.83549 25.049 5.80646 24.8961 5.80646 24.7403ZM3.99775 38.7349C3.91452 38.5684 3.87098 38.3836 3.87098 38.1997C3.87098 37.7216 4.15452 37.291 4.59388 37.1023L9.64356 34.9384C10.2687 34.6732 11.0168 34.9878 11.2665 35.609L12.1577 37.8397L11.0777 38.3797C10.2145 38.8103 9.67743 39.6794 9.67743 40.6452V47.069C9.58065 47.1436 9.48194 47.2142 9.39388 47.3023L8.65259 48.0436L3.99775 38.7349ZM26.6961 58.0645H2.33614C2.11549 58.0645 1.93549 57.8845 1.93549 57.6639C1.93549 57.5584 1.97807 57.4549 2.05259 57.3803L10.7623 48.6707C10.9432 48.4907 11.1919 48.3871 11.4465 48.3871H17.5858C17.8403 48.3871 18.09 48.4907 18.27 48.6707L26.9787 57.3803C27.0542 57.4549 27.0968 57.5584 27.0968 57.6639C27.0968 57.8845 26.9168 58.0645 26.6961 58.0645ZM36.7742 51.2903C36.7742 50.7571 37.2077 50.3226 37.7419 50.3226H43.5484C46.3461 50.3226 48.7529 52.0278 49.7845 54.4529C48.149 54.992 46.8997 56.3642 46.5523 58.0645H43.5484C39.8139 58.0645 36.7742 55.0258 36.7742 51.2903ZM48.5623 58.0645C48.8477 57.2623 49.4748 56.6265 50.2752 56.3255C50.3042 56.579 50.3226 56.8355 50.3226 57.0968C50.3226 57.63 49.889 58.0645 49.3548 58.0645H48.5623ZM57.6252 58.0645H52.08C52.1884 57.7607 52.2581 57.4374 52.2581 57.0968C52.2581 52.2949 48.3513 48.3871 43.5484 48.3871H37.7419C36.1413 48.3871 34.8387 49.6897 34.8387 51.2903C34.8387 54.0252 36.1084 56.4668 38.0865 58.0645H28.9984C29.0207 57.9339 29.0323 57.8003 29.0323 57.6639C29.0323 57.0494 28.7826 56.4474 28.3481 56.012L27.3242 54.9881L37.8919 42.9116C38.0758 42.7016 38.341 42.5807 38.6197 42.5807H44.6061C44.8848 42.5807 45.151 42.7016 45.3339 42.9116L57.9561 57.3358C58.0258 57.4161 58.0645 57.5187 58.0645 57.6252C58.0645 57.8671 57.8671 58.0645 57.6252 58.0645Z" fill="#002446"/>
<path d="M13.5469 42.5806H15.4824V44.5161H13.5469V42.5806Z" fill="#002446"/>
<path d="M23.2258 27.0967H25.1612V29.0322H23.2258V27.0967Z" fill="#002446"/>
<path d="M9.67578 25.1611H11.6113V27.0966H9.67578V25.1611Z" fill="#002446"/>
<path d="M11.613 29.0322H13.5485V30.9677H11.613V29.0322Z" fill="#002446"/>
<path d="M23.2258 36.7742H25.1612V38.7097H23.2258V36.7742Z" fill="#002446"/>
<path d="M21.2891 40.645H23.2245V42.5805H21.2891V40.645Z" fill="#002446"/>
<path d="M5.80469 38.71H7.74017V40.6455H5.80469V38.71Z" fill="#002446"/>
<path d="M57.0985 36.7744C55.4979 36.7744 54.1953 38.077 54.1953 39.6776C54.1953 41.2783 55.4979 42.5809 57.0985 42.5809C58.6992 42.5809 60.0018 41.2783 60.0018 39.6776C60.0018 38.077 58.6992 36.7744 57.0985 36.7744ZM57.0985 40.6454C56.5643 40.6454 56.1308 40.2109 56.1308 39.6776C56.1308 39.1444 56.5643 38.7099 57.0985 38.7099C57.6327 38.7099 58.0663 39.1444 58.0663 39.6776C58.0663 40.2109 57.6327 40.6454 57.0985 40.6454Z" fill="#002446"/>
<path d="M57.0985 5.80645C58.6992 5.80645 60.0018 4.50387 60.0018 2.90323C60.0018 1.30258 58.6992 0 57.0985 0C55.4979 0 54.1953 1.30258 54.1953 2.90323C54.1953 4.50387 55.4979 5.80645 57.0985 5.80645ZM57.0985 1.93548C57.6327 1.93548 58.0663 2.37 58.0663 2.90323C58.0663 3.43645 57.6327 3.87097 57.0985 3.87097C56.5643 3.87097 56.1308 3.43645 56.1308 2.90323C56.1308 2.37 56.5643 1.93548 57.0985 1.93548Z" fill="#002446"/>
<path d="M20.3227 11.613C22.9908 11.613 25.1614 9.44232 25.1614 6.77426C25.1614 4.10619 22.9908 1.93555 20.3227 1.93555C17.6546 1.93555 15.484 4.10619 15.484 6.77426C15.484 9.44232 17.6546 11.613 20.3227 11.613ZM20.3227 3.87103C21.9233 3.87103 23.2259 5.17361 23.2259 6.77426C23.2259 8.3749 21.9233 9.67748 20.3227 9.67748C18.722 9.67748 17.4195 8.3749 17.4195 6.77426C17.4195 5.17361 18.722 3.87103 20.3227 3.87103Z" fill="#002446"/>
<path d="M6.77423 17.4195C8.37487 17.4195 9.67745 16.1169 9.67745 14.5163C9.67745 12.9156 8.37487 11.613 6.77423 11.613C5.17358 11.613 3.871 12.9156 3.871 14.5163C3.871 16.1169 5.17358 17.4195 6.77423 17.4195ZM6.77423 13.5485C7.30842 13.5485 7.74197 13.983 7.74197 14.5163C7.74197 15.0495 7.30842 15.484 6.77423 15.484C6.24003 15.484 5.80649 15.0495 5.80649 14.5163C5.80649 13.983 6.24003 13.5485 6.77423 13.5485Z" fill="#002446"/>
</svg>
