<svg width="23" height="23" viewBox="0 0 23 23" fill="none" xmlns="http://www.w3.org/2000/svg">
<path d="M5.37634 4.66344L14.5453 2.16069L14.0598 1.17922C13.7421 0.541267 12.9672 0.277819 12.3293 0.595506L4.12109 4.66344H5.37634Z" fill="#0060BB"/>
<path d="M17.3901 2.23291C17.2765 2.23291 17.1629 2.24841 17.0492 2.2794L14.8952 2.86828L8.3167 4.66333H15.7836H19.038L18.6351 3.18597C18.4801 2.61 17.9584 2.23291 17.3901 2.23291Z" fill="#0060BB"/>
<path d="M20.3836 5.56738H20.0892H19.6888H19.2885H16.233H5.0055H3.5333H2.29354H2.06367H1.29399C0.885907 5.56738 0.521729 5.75593 0.28411 6.05295C0.175632 6.18984 0.0929815 6.34739 0.0464907 6.52044C0.0180797 6.62892 0 6.74257 0 6.85879V7.01376V8.48597V21.2477C0 21.9606 0.578551 22.5391 1.29141 22.5391H20.381C21.0939 22.5391 21.6724 21.9606 21.6724 21.2477V17.6446H14.0092C12.7979 17.6446 11.8138 16.6606 11.8138 15.4492V14.2663V13.866V13.4656V12.5772C11.8138 11.9831 12.0514 11.4433 12.4363 11.0481C12.7772 10.6969 13.2344 10.4592 13.7458 10.3998C13.831 10.3895 13.9188 10.3843 14.0066 10.3843H20.598H20.9983H21.3987H21.6724V6.85879C21.675 6.14593 21.0965 5.56738 20.3836 5.56738Z" fill="#0060BB"/>
<path d="M22.5799 11.6188C22.4508 11.5 22.2984 11.4096 22.1279 11.3502C21.9962 11.3063 21.8567 11.2805 21.7095 11.2805H21.6759H21.6501H21.2498H19.806H14.0102C13.2973 11.2805 12.7188 11.859 12.7188 12.5719V13.215V13.6154V14.0157V15.4466C12.7188 16.1594 13.2973 16.738 14.0102 16.738H21.6759H21.7095C21.8567 16.738 21.9962 16.7122 22.1279 16.6683C22.2984 16.6114 22.4508 16.5184 22.5799 16.3996C22.8382 16.1646 23.0009 15.8237 23.0009 15.4466V12.5719C23.0009 12.1948 22.8382 11.8539 22.5799 11.6188ZM16.7066 14.2662C16.7066 14.6227 16.4173 14.9119 16.0609 14.9119H15.6322C15.2757 14.9119 14.9865 14.6227 14.9865 14.2662V13.8375C14.9865 13.6309 15.082 13.4475 15.2344 13.3312C15.3455 13.246 15.4824 13.1918 15.6322 13.1918H15.7406H16.0609C16.4173 13.1918 16.7066 13.481 16.7066 13.8375V14.2662Z" fill="#0060BB"/>
</svg>
