<svg width="50" height="50" viewBox="0 0 50 50" fill="none" xmlns="http://www.w3.org/2000/svg">
<path d="M49.25 25C49.25 38.3929 38.3929 49.25 25 49.25C11.6071 49.25 0.75 38.3929 0.75 25C0.75 11.6071 11.6071 0.75 25 0.75C38.3929 0.75 49.25 11.6071 49.25 25Z" stroke="white" stroke-width="1.5"/>
<g clip-path="url(#clip0)">
<path d="M25.834 11.6667C18.9683 11.6667 13.334 17.3011 13.334 24.1667C13.334 26.4327 13.9449 28.6385 15.1034 30.5684L13.334 36.6667L19.4324 34.8973C21.3622 36.0558 23.5681 36.6667 25.834 36.6667C32.6997 36.6667 38.334 31.0324 38.334 24.1667C38.334 17.3011 32.6997 11.6667 25.834 11.6667ZM33.6492 29.4484L33.0676 30.0299C32.2448 30.8528 30.3525 30.7875 29.1366 30.5527C25.0936 29.7719 20.3799 25.203 19.4709 21.2464C19.0207 19.2864 19.2693 17.5824 19.9193 16.9322L20.5008 16.3506C20.8219 16.0298 21.3433 16.0302 21.6639 16.3506L23.9905 18.6774C24.1458 18.8327 24.2309 19.0385 24.2309 19.2588C24.2309 19.4791 24.1458 19.6851 23.9905 19.8397L23.4092 20.4219C22.7683 21.0643 22.7683 22.1078 23.4092 22.7486L27.2511 26.5401C27.8939 27.1828 28.9342 27.1836 29.5779 26.5401L30.1595 25.9587C30.4597 25.6568 31.0204 25.6558 31.3231 25.9587L33.6492 28.2847C33.965 28.5992 33.977 29.1203 33.6492 29.4484Z" fill="white"/>
</g>
<defs>
<clipPath id="clip0">
<rect width="25" height="25" fill="white" transform="translate(13.334 11.6667)"/>
</clipPath>
</defs>
</svg>
